<svg version="1.2" xmlns="http://www.w3.org/2000/svg" viewBox="0 0 595 337" width="595" height="337">
	<style>
		.s0 { fill: #000000 } 
	</style>
	<g id="Lime_b_w">
		<path id="Path 1 copy" fill-rule="evenodd" class="s0" d="m485.61 31.19c1.76-0.06 6.19 0.17 9.86 0.51 3.67 0.34 9.41 1.29 12.76 2.12 3.35 0.82 8.18 2.38 10.73 3.45 2.55 1.07 6.2 2.91 8.12 4.08 1.91 1.17 4.91 3.18 6.67 4.46 1.75 1.28 4.59 3.64 6.31 5.25 1.71 1.61 4.73 5.02 6.71 7.57 1.97 2.55 4.78 6.73 6.23 9.28 1.45 2.55 3.56 7.12 4.69 10.15 1.13 3.03 2.64 7.86 3.36 10.73 1.08 4.32 1.36 7.5 1.65 18.55 0.2 7.34 0.29 13.54 0.2 13.78-0.08 0.24-30.49 0.42-134.99 0.38l0.18 3.07c0.11 1.69 0.58 5.03 1.06 7.42 0.49 2.39 1.51 6.24 2.29 8.56 0.77 2.31 2.48 6.35 3.8 8.98 1.31 2.64 3.19 5.96 4.17 7.4 0.97 1.43 2.83 3.88 4.12 5.43 1.3 1.55 4.32 4.46 6.71 6.46 2.39 2 6.7 4.83 9.57 6.29 2.87 1.46 7.57 3.32 10.44 4.14 2.87 0.82 7.69 1.77 10.72 2.11 3.03 0.34 7.99 0.45 11.02 0.24 3.03-0.21 7.47-0.79 9.86-1.28 2.39-0.49 6.7-1.75 9.57-2.8 2.87-1.06 7.18-3.01 9.57-4.34 2.39-1.33 6.04-3.69 8.12-5.24 2.07-1.55 4.83-3.94 6.14-5.32 1.3-1.38 3.38-3.81 4.61-5.4 1.23-1.6 2.43-3.16 2.67-3.48 0.26-0.34 3.25 1.81 7.25 5.22 3.76 3.19 7.23 6.09 7.72 6.45 0.77 0.56 0.48 1.2-2.09 4.64-1.65 2.19-5.3 6.21-8.12 8.94-2.82 2.72-6.7 6.01-8.61 7.31-1.92 1.29-5.44 3.43-7.83 4.74-2.39 1.31-6.44 3.15-8.99 4.09-2.55 0.94-6.86 2.23-9.57 2.87-2.71 0.65-7.28 1.49-10.15 1.87-3.44 0.46-9.18 0.58-16.82 0.36-6.94-0.2-13.11-0.68-15.36-1.19-2.08-0.47-6.51-1.76-9.86-2.85-3.35-1.1-7.79-2.84-9.86-3.87-2.07-1.04-5.86-3.26-8.41-4.94-2.55-1.68-6.83-5.1-9.5-7.62-2.68-2.51-6.53-6.78-8.57-9.49-2.03-2.72-4.98-7.41-6.54-10.44-1.56-3.03-3.52-7.34-4.36-9.57-0.84-2.23-2.15-6.54-2.91-9.57-0.76-3.03-1.71-7.6-2.12-10.15-0.42-2.59-0.73-8.99-0.7-14.5 0.03-5.42 0.36-11.94 0.74-14.49 0.38-2.56 1.34-7.12 2.13-10.15 0.8-3.03 1.98-6.95 2.63-8.7 0.64-1.76 2.36-5.54 3.8-8.41 1.45-2.87 3.88-7.05 5.41-9.28 1.52-2.23 3.9-5.38 5.29-6.99 1.39-1.61 3.96-4.26 5.71-5.89 1.76-1.62 4.23-3.79 5.51-4.8 1.28-1.02 4.54-3.18 7.25-4.82 2.71-1.63 6.89-3.79 9.28-4.8 2.39-1.01 6.17-2.38 8.41-3.04 2.23-0.66 6.29-1.58 9.01-2.05 2.73-0.46 6.12-0.95 7.54-1.09 1.42-0.13 4.02-0.29 5.77-0.34zm-5.8 19.34c-0.47 0.09-2.82 0.48-5.21 0.87-2.4 0.39-6.18 1.36-8.41 2.17-2.24 0.8-5.5 2.23-7.25 3.19-1.76 0.95-4.76 2.84-6.67 4.2-1.92 1.36-5.05 4.13-6.96 6.16-1.92 2.03-4.69 5.39-6.17 7.46-1.48 2.07-3.81 5.99-5.18 8.7-1.37 2.71-3.23 7.28-4.14 10.15-0.9 2.87-1.64 6.06-1.63 7.1l0.01 1.89h113.67c0-4.05-0.42-7.25-0.93-9.72-0.51-2.47-1.6-6.19-2.43-8.26-0.82-2.08-2.56-5.57-3.85-7.77-1.3-2.2-4.32-6.08-6.71-8.62-2.39-2.55-5.92-5.73-7.83-7.09-1.91-1.36-5.31-3.38-7.54-4.5-2.23-1.12-6.15-2.7-8.7-3.51-2.55-0.8-6.66-1.75-9.13-2.09-2.47-0.35-6.65-0.61-9.28-0.57-2.63 0.04-5.18 0.14-5.66 0.24zm-452.33 68.99v80.9h95.1v-19.72h-71.91v-142.08h-23.19zm136.86 0v80.9h22.61v-161.8h-22.61zm110.18-79.76c-2.07 0.26-5.59 1.19-7.83 2.07-2.23 0.89-5.36 2.44-6.96 3.46-1.59 1.01-4.33 3.16-6.08 4.76-1.76 1.61-4.11 4.51-5.22 6.46-1.12 1.95-2.23 3.55-2.47 3.56-0.24 0-0.43-4.03-0.43-8.98v-8.98h-20.3v158.31h21.46c0.34-115.29 0.35-115.72 1.6-120.04 0.69-2.39 2.12-6.04 3.16-8.11 1.12-2.2 3.35-5.2 5.38-7.22 2.21-2.19 4.87-4.11 7.25-5.23 3.56-1.67 4.17-1.77 10.73-1.75 6.43 0.01 7.19 0.13 10.01 1.59 1.67 0.87 3.89 2.33 4.93 3.25 1.03 0.91 2.64 3.06 3.58 4.78 0.93 1.72 2.09 4.43 2.58 6.02 0.77 2.51 0.92 11.13 1.06 64.81l0.17 61.9h21.46c0.32-112.2 0.41-116.53 1.39-120.04 0.58-2.07 1.93-5.66 3.02-7.97 1.24-2.66 3.09-5.33 5.01-7.27 1.8-1.81 4.71-3.88 7.1-5.07 3.6-1.77 4.69-2.02 9.57-2.21 3.25-0.12 6.59 0.08 8.12 0.5 1.44 0.4 3.66 1.3 4.93 2.01 1.28 0.71 3.45 2.57 4.82 4.13 1.38 1.56 3.14 4.2 3.92 5.88 0.77 1.67 1.85 4.8 2.39 6.96 0.87 3.51 0.99 9.97 1.16 63.5l0.18 59.58h21.46l-0.31-126.71c-2-7.19-3.62-11.37-4.9-13.92-1.28-2.55-3.57-6.05-5.08-7.77-1.52-1.73-4.33-4.24-6.24-5.59-1.91-1.36-5.05-3.11-6.96-3.91-1.91-0.8-5.05-1.79-6.96-2.21-1.91-0.42-6.48-0.76-10.15-0.75-4.36 0.01-7.97 0.36-10.44 1-2.07 0.55-5.85 2-8.41 3.23-2.55 1.24-6.2 3.52-8.11 5.08-1.92 1.56-4.92 4.84-6.67 7.3l-3.19 4.46c-3.17-6.04-5.65-9.34-7.69-11.39-2.02-2.04-5.1-4.4-6.96-5.33-1.83-0.92-5.03-2.2-7.1-2.85-2.07-0.65-6.12-1.31-8.99-1.48-2.87-0.16-6.91-0.08-8.99 0.18zm194.61 188.69c-3.37 2.72-7.94 5.57-13.17 8.24-5.95 3.04-8.08 4.41-8.31 5.37-0.24 0.98 0 1.36 0.99 1.62 0.85 0.22 3.06-0.45 6.24-1.87 2.71-1.21 7.02-3.44 9.57-4.95 2.55-1.51 6.4-4.2 8.55-5.96 2.15-1.77 4.05-3.61 4.21-4.09 0.15-0.48-0.04-1.27-0.44-1.77-0.4-0.49-1.12-0.86-1.59-0.82-0.48 0.04-3.2 1.94-6.05 4.23zm-43.22-2.51c19.88 0 21.46 0.07 21.81 1.02 0.2 0.55 0.11 1.4-0.21 1.88-0.42 0.63-1.88 0.91-10.03 1.16v28.42l5.07-0.03c3.98-0.02 5.27 0.18 5.95 0.92 0.66 0.72 0.72 1.18 0.23 1.91-0.51 0.76-1.76 1-11.25 1.26l-0.01 19.57c0 10.76-0.2 19.91-0.43 20.33-0.24 0.42-1.08 0.68-3.33 0.4l-0.29-40.3-15.37-0.01-0.42 7.69c-0.23 4.22-0.95 10.03-1.59 12.9-0.65 2.87-2.24 7.44-3.54 10.15-1.3 2.71-2.99 5.78-3.77 6.82-0.77 1.03-2.04 2.21-2.83 2.61-1.17 0.6-1.58 0.57-2.34-0.15-0.51-0.48-0.91-1.2-0.9-1.59 0.01-0.4 1.19-2.23 2.62-4.06 1.42-1.84 3.27-5.04 4.12-7.11 0.84-2.07 2.02-5.99 2.62-8.7 0.6-2.71 1.29-7.98 1.97-18.51l-11.01-0.33v-3.48l11.01-0.58 0.29-28.13-4.49 0.03c-3.38 0.02-4.68-0.2-5.22-0.87-0.4-0.5-0.58-1.42-0.4-2.06 0.31-1.13 0.81-1.16 21.74-1.16zm-7.57 32.48h15.08v-28.42h-15.08zm-371.73-31.31c-1.43 0.24-3.65 0.72-4.93 1.06-1.27 0.33-3.61 1.47-5.2 2.53-1.58 1.05-3.75 3.09-4.83 4.52-1.07 1.44-2.35 4.05-2.84 5.8-0.62 2.17-0.82 4.68-0.64 7.83 0.2 3.44 0.65 5.39 1.74 7.54 0.81 1.59 2.49 3.79 3.72 4.89 1.24 1.09 3.69 2.64 5.44 3.43 2.02 0.91 6.77 2.05 12.91 3.09 5.34 0.9 10.56 1.98 11.6 2.41 1.03 0.42 2.87 1.79 4.08 3.04 1.21 1.25 2.45 3.19 2.75 4.31 0.31 1.11 0.55 3.72 0.54 5.8 0 2.41-0.39 4.6-1.07 6.09-0.59 1.27-1.82 3.05-2.74 3.95-0.92 0.9-3.11 2.31-4.87 3.14-2.51 1.18-4.37 1.55-8.7 1.77-3.03 0.14-6.94-0.02-8.7-0.38-1.75-0.35-4.49-1.32-6.09-2.15-1.59-0.82-4.16-2.59-5.7-3.92l-2.81-2.41c-3.46 3.57-4.01 4.53-3.62 4.8 0.35 0.23 1.78 1.35 3.19 2.49 1.41 1.14 3.48 2.59 4.59 3.23 1.12 0.63 3.34 1.62 4.93 2.18 1.74 0.61 5.47 1.16 9.28 1.35 4.04 0.21 7.77 0.07 10.15-0.39 2.07-0.39 4.95-1.23 6.38-1.86 1.44-0.64 3.76-2.11 5.16-3.29 1.4-1.17 3.16-3.18 3.9-4.45 0.74-1.28 1.62-3.24 1.96-4.35 0.33-1.12 0.61-3.99 0.61-6.38 0.01-2.4-0.37-5.53-0.85-6.96-0.47-1.44-2.12-4.02-3.65-5.73-1.53-1.72-3.69-3.58-4.81-4.15-1.12-0.56-3.07-1.29-4.35-1.63-1.27-0.34-5.97-1.24-10.44-2.02-5.51-0.95-9.14-1.91-11.31-2.99-1.75-0.88-3.67-2.02-4.26-2.54-0.59-0.52-1.57-1.93-2.18-3.12-0.77-1.54-1.1-3.42-1.1-6.38-0.01-3.45 0.28-4.78 1.59-7.37 0.99-1.95 2.5-3.8 3.92-4.82 1.28-0.9 3.63-2.03 5.22-2.49 1.6-0.47 4.86-0.84 7.25-0.83 2.98 0.01 5.54 0.43 8.12 1.33 2.07 0.72 5.08 2.27 6.67 3.45l2.9 2.13 3.86-3.73c-5.24-3.85-8.06-5.46-9.66-6.05-1.59-0.6-4.92-1.37-7.39-1.72-2.48-0.35-5.08-0.61-5.8-0.57-0.72 0.04-2.48 0.27-3.92 0.52zm64.79 0.3c13.84 0.06 16.56 0.21 19.3 1.11 1.76 0.58 4.1 1.63 5.22 2.33 1.12 0.71 3.15 2.57 4.52 4.13 1.38 1.57 3.03 4.29 3.68 6.04 0.96 2.6 1.14 4.26 0.98 8.99-0.16 4.75-0.46 6.38-1.68 8.99-0.82 1.75-2.29 4.1-3.26 5.22-0.97 1.12-3.04 2.73-4.6 3.59-1.55 0.85-4.39 1.97-6.31 2.47-2.64 0.69-6.5 0.9-28.7 0.9v31.89h-5.8l-0.1-37.59c-0.05-20.68 0.07-37.72 0.27-37.87 0.2-0.15 7.61-0.24 16.48-0.2zm-10.71 5.44c-0.19 0.14-0.29 7.64-0.24 16.68l0.1 16.43c25.76-0.28 27.2-0.4 29.57-1.51 1.44-0.66 3.5-1.97 4.58-2.89 1.08-0.93 2.51-2.73 3.18-4.01 1.03-1.94 1.23-3.33 1.23-8.41 0-5.59-0.13-6.31-1.59-8.84-0.99-1.7-2.65-3.43-4.35-4.52-1.52-0.96-3.67-1.99-4.79-2.29-1.11-0.29-7.73-0.61-14.69-0.71-6.97-0.09-12.82-0.06-13 0.07zm76.23-5.4c1.21 0.09 2.4 0.18 2.64 0.2 0.24 0.02 0.44 0.36 0.45 0.76 0 0.4 1.07 3.59 2.37 7.1 1.29 3.51 4.57 12.38 7.28 19.72 2.7 7.34 6.36 17.25 8.11 22.04 1.76 4.78 4.46 12.09 6 16.24 1.55 4.14 2.96 7.99 3.14 8.55 0.3 0.88-0.07 1.01-6.04 1.01l-2.12-5.94c-1.16-3.27-2.6-7.45-4.26-12.61h-35.08l-6.67 18.55h-6.38l0.84-2.17c0.47-1.2 3.75-10.14 7.3-19.86 3.55-9.73 8.55-23.3 11.11-30.16 2.55-6.86 5.43-14.69 6.38-17.4 0.96-2.71 1.96-5.21 2.23-5.56 0.27-0.35 1.48-0.56 2.7-0.47zm-1.53 11.54c-0.66 1.76-1.2 3.39-1.21 3.63-0.01 0.24-2.25 6.7-4.98 14.35-2.73 7.65-5.59 15.68-6.36 17.83-0.77 2.16-1.4 4.05-1.4 4.21 0 0.16 6.91 0.29 15.37 0.29 8.45 0 15.36-0.2 15.36-0.44-0.01-0.24-2.9-8.52-6.43-18.41-3.53-9.89-6.91-19.48-7.51-21.31-0.61-1.84-1.23-3.34-1.38-3.34-0.15 0-0.81 1.44-1.46 3.19zm61.91-11.65c13.7 0.1 17.15 0.29 19.53 1.08 1.6 0.53 4.14 1.76 5.66 2.72 1.51 0.97 3.65 3 4.75 4.52 1.09 1.51 2.33 3.93 2.75 5.36 0.42 1.44 0.73 4.7 0.69 7.25-0.05 2.74-0.48 5.71-1.06 7.25-0.53 1.44-1.76 3.65-2.72 4.93-0.96 1.28-2.7 3-3.87 3.84-1.18 0.84-3.77 2.08-9.38 3.99l5.6 10.87c3.09 5.98 7.14 13.75 9 17.25 1.87 3.51 3.39 6.45 3.38 6.53 0 0.08-1.51 0.15-6.68 0.17l-4.8-9.15c-2.64-5.03-6.69-12.86-13.17-25.68l-20.59 0.01v34.79h-5.8l-0.15-37.74c-0.08-20.76-0.06-37.82 0.04-37.92 0.1-0.1 7.67-0.13 16.82-0.07zm-10.91 35.72c22.61 0.01 25.89-0.19 28.42-0.94 1.75-0.52 4.07-1.63 5.14-2.47 1.08-0.83 2.63-2.82 3.44-4.42 1.18-2.34 1.47-3.73 1.46-7.25-0.01-2.56-0.37-5.18-0.88-6.38-0.48-1.11-1.63-2.91-2.55-3.99-0.93-1.08-2.73-2.52-4.01-3.19-2.14-1.14-3.38-1.24-16.62-1.42l-14.31-0.19zm63.74 2.08l0.05 37.94h5.8c0.04-20.06 0.11-20.67 1.33-22.1 0.7-0.84 4.61-5.6 8.67-10.59 4.07-4.98 7.59-9.06 7.83-9.05 0.24 0 5 8.01 10.59 17.78 5.58 9.77 10.93 19.16 11.88 20.86l1.74 3.08c5.17 0.02 6.67-0.11 6.67-0.27 0-0.16-1.47-2.84-3.27-5.95-1.81-3.11-5.03-8.65-7.18-12.32-2.14-3.67-6.66-11.43-10.06-17.25-3.39-5.82-6.16-10.72-6.16-10.88 0-0.15 2.8-3.74 6.22-7.97 3.42-4.23 8.51-10.49 11.31-13.92 2.79-3.43 5.08-6.43 5.08-6.67 0-0.24-1.37-0.4-3.04-0.36-1.68 0.03-3.18 0.09-3.34 0.12-0.15 0.02-4.07 4.69-8.69 10.36-4.63 5.67-11.91 14.62-16.18 19.88-4.28 5.27-8.98 11.11-10.44 12.99l-2.67 3.4-0.58-46.76-5.61-0.25zm227.14-36.44c-0.19 0.56-0.02 1.35 0.38 1.76 0.57 0.59 5.6 0.75 23.49 0.73 19.7-0.02 22.8-0.15 23.05-0.9 0.16-0.48 0.16-1.26 0-1.74-0.25-0.75-3.37-0.87-23.43-0.87-21.53 0-23.18 0.07-23.49 1.02zm-29.08 3.19c-0.27 0.92-0.07 1.52 0.69 2.04 0.66 0.45 2.94 0.73 5.87 0.72l4.78-0.01v22.04l-10.73 0.29v3.48l10.73 0.29 0.04 28.7c-7.45 2.6-10.06 3.57-10.62 3.85-0.56 0.28-1.02 1.15-1.02 1.95 0 0.8 0.39 1.58 0.87 1.74 0.48 0.16 3.55-0.63 6.82-1.75 3.27-1.13 8.68-3.36 12.03-4.97 3.35-1.61 6.55-3.36 7.12-3.9 0.57-0.54 1.03-1.43 1.02-1.99-0.01-0.56-0.54-1.15-1.18-1.31-0.7-0.17-2.84 0.64-5.36 2.02-2.32 1.27-4.54 2.32-4.93 2.32-0.56 0.01-0.73-3.03-0.73-13.32v-13.34c8.93-0.26 10.17-0.5 10.67-1.26 0.49-0.73 0.43-1.19-0.23-1.91-0.67-0.73-1.95-0.94-5.65-0.92l-4.79 0.03v-22.04c8.7-0.25 10.18-0.52 10.61-1.16 0.32-0.48 0.41-1.33 0.21-1.88-0.35-0.93-1.52-1.02-13.11-1.02-12.69 0-12.72 0-13.11 1.31zm37.96 3.19c-0.33 0.87-1.17 2.9-1.85 4.49-0.68 1.6-2.26 4.73-3.5 6.96-1.25 2.23-2.77 4.58-3.39 5.22-0.62 0.64-1.04 1.68-0.94 2.32 0.18 1.08 0.56 1.14 5.4 0.97 2.86-0.11 6.84-0.57 8.83-1.02 2-0.45 3.82-0.82 4.06-0.83 0.24 0 0.76 0.78 1.16 1.74 0.4 0.96 1.12 1.88 1.6 2.04 0.48 0.16 1.26 0.03 1.74-0.29 0.61-0.41 0.75-1.06 0.47-2.18-0.22-0.87-1.29-3.42-2.38-5.65-1.1-2.23-2.48-4.78-3.09-5.65q-1.09-1.6-2.39-1.45c-0.72 0.08-1.37 0.59-1.45 1.16-0.08 0.55 0.63 2.31 1.59 3.91 0.95 1.59 1.54 3 1.3 3.11-0.24 0.12-2.57 0.58-5.18 1.02-2.62 0.44-4.89 0.67-5.06 0.51-0.17-0.16 0.78-2.38 2.1-4.93 1.33-2.55 3.01-6.14 3.75-7.97 0.74-1.84 1.22-3.73 1.06-4.21-0.16-0.48-0.95-0.87-1.75-0.87-1.06 0-1.63 0.44-2.08 1.6zm24.4 1.11c-0.66 1.54-2.34 5.15-3.72 8.02-1.39 2.87-3.2 6.07-4.03 7.1-0.83 1.04-1.51 2.28-1.51 2.76 0 0.48 0.45 1.01 1.01 1.18 0.56 0.17 2.97 0.16 5.37-0.03 2.39-0.19 6.3-0.75 8.69-1.25 2.4-0.5 4.42-0.68 4.51-0.4 0.08 0.27 0.48 1.15 0.89 1.95 0.4 0.8 1.18 1.51 1.73 1.59 0.54 0.08 1.24-0.31 1.53-0.87 0.39-0.72 0.11-2-0.98-4.49-0.84-1.91-2.39-4.85-3.44-6.53-1.05-1.67-2.32-3.24-2.81-3.47-0.56-0.27-1.28-0.06-1.89 0.53-0.93 0.92-0.87 1.15 0.9 3.92 1.04 1.62 1.82 3.06 1.74 3.21-0.08 0.15-1.97 0.67-4.21 1.15-2.23 0.48-4.64 0.88-5.36 0.89-0.72 0-1.3-0.19-1.29-0.43 0-0.24 0.63-1.47 1.38-2.75 0.75-1.28 2.33-4.54 3.5-7.25 1.18-2.71 2.06-5.45 1.95-6.09-0.11-0.67-0.72-1.24-1.47-1.35-1.04-0.15-1.5 0.34-2.49 2.61zm-180.66 7.53c-0.25 0.22-0.41 1-0.36 1.75 0.06 0.74-0.33 2.46-0.86 3.81-0.52 1.36-1.89 3.47-3.04 4.69-1.15 1.22-3 2.6-4.12 3.08-1.12 0.47-3.33 1.14-4.93 1.48-2.28 0.5-2.65 0.73-1.74 1.06 0.64 0.24 2.66 0.85 4.5 1.37 2.49 0.7 3.99 1.6 5.94 3.55 1.9 1.9 2.83 3.43 3.43 5.65 0.45 1.68 1.01 3.83 1.24 4.79 0.39 1.59 0.48 1.45 1.1-1.74 0.37-1.92 1.09-4.27 1.59-5.22 0.5-0.96 1.92-2.66 3.15-3.79 1.24-1.12 3.03-2.35 3.99-2.72 0.95-0.38 2.91-1 4.35-1.39l2.61-0.7c-4.5-1.21-6.96-2.15-8.37-2.86-1.41-0.72-3.37-2.31-4.35-3.54-1.04-1.31-2.18-3.79-2.73-5.95-0.52-2.04-1.15-3.54-1.4-3.32zm102.97 8.02c-2.4 2.41-6.57 5.88-9.28 7.7-2.72 1.83-7.09 4.37-9.72 5.65-3.04 1.47-4.91 2.74-5.12 3.48-0.2 0.69 0.04 1.51 0.6 2.03 0.84 0.78 1.52 0.57 6.57-2.01 3.1-1.58 7.99-4.45 10.86-6.38 2.87-1.92 7.12-5.32 9.46-7.56 3.38-3.23 4.2-4.36 4.06-5.51-0.14-1.05-0.58-1.5-1.64-1.62-1.14-0.13-2.38 0.77-5.79 4.22zm43.18 9.83c-0.91 0.67-1.01 1.05-0.5 1.89 0.6 0.98 2.23 1.06 25.37 1.19 24.31 0.14 24.74 0.13 25.02-1.01 0.16-0.64-0.03-1.57-0.43-2.06-0.64-0.78-3.74-0.89-24.52-0.87-19.77 0.02-23.98 0.17-24.94 0.86zm5.6 10.19h38.2l1.18 1.59c1.1 1.48 1.18 2.42 1.16 13.34-0.02 11.67-0.02 11.75-2.86 14.64l-18.44 0.03c-17.43 0.02-18.52-0.04-19.89-1.11-1.45-1.13-1.45-1.15-1.72-13.25-0.26-11.93-0.24-12.13 1.06-13.68zm2.25 4.17c-0.58 0.5-0.79 1.85-0.71 4.65l0.12 3.94h34.8l-0.29-8.99c-28.89-0.26-33.31-0.12-33.92 0.4zm-0.44 12.6c-0.19 0.14-0.3 2.03-0.25 4.21 0.08 3.33 0.29 4.05 1.26 4.54 0.68 0.34 7.55 0.59 16.67 0.61 11.96 0.02 15.68-0.15 16.24-0.73 0.47-0.48 0.67-2.15 0.58-4.71l-0.14-3.96c-26.37-0.15-34.18-0.09-34.36 0.04zm-47.6-12.27c-1.59 2.15-5.06 6.01-7.73 8.57-2.66 2.56-7.06 6.12-9.77 7.92-2.71 1.79-6.56 4.07-8.56 5.06-3.23 1.6-3.6 1.96-3.47 3.39 0.12 1.37 0.38 1.58 1.88 1.51 0.96-0.04 3.83-1.31 6.38-2.82 2.55-1.5 6.2-3.85 8.12-5.2 1.91-1.35 5.79-4.65 8.62-7.33 2.83-2.68 6.29-6.37 7.69-8.2 1.39-1.84 2.54-3.86 2.54-4.5 0-0.63-0.53-1.42-1.16-1.74-0.64-0.31-1.27-0.58-1.41-0.58-0.13 0-1.54 1.77-3.13 3.92z"/>
	</g>
	<g id="Layer 1">
	</g>
</svg>