<svg version="1.2" xmlns="http://www.w3.org/2000/svg" viewBox="0 0 595 337" width="595" height="337"><style>.a{fill:#b89a9a}.b{fill:#cada03}</style><path fill-rule="evenodd" class="a" d="m485.6 31.2c1.8-0.1 6.2 0.2 9.9 0.5 3.6 0.3 9.4 1.3 12.7 2.1 3.4 0.8 8.2 2.4 10.8 3.5 2.5 1 6.2 2.9 8.1 4 1.9 1.2 4.9 3.2 6.6 4.5 1.8 1.3 4.6 3.7 6.4 5.3 1.7 1.6 4.7 5 6.7 7.5 1.9 2.6 4.7 6.8 6.2 9.3 1.4 2.6 3.6 7.1 4.7 10.2 1.1 3 2.6 7.8 3.3 10.7 1.1 4.3 1.4 7.5 1.7 18.5 0.2 7.4 0.3 13.6 0.2 13.8-0.1 0.3-30.5 0.4-135 0.4l0.2 3.1c0.1 1.7 0.6 5 1.1 7.4 0.4 2.4 1.5 6.2 2.2 8.5 0.8 2.4 2.5 6.4 3.8 9 1.4 2.7 3.2 6 4.2 7.4 1 1.5 2.8 3.9 4.1 5.5 1.3 1.5 4.3 4.4 6.7 6.4 2.4 2 6.7 4.9 9.6 6.3 2.9 1.5 7.6 3.3 10.4 4.2 2.9 0.8 7.7 1.7 10.8 2.1 3 0.3 8 0.4 11 0.2 3-0.2 7.5-0.8 9.9-1.3 2.3-0.5 6.6-1.7 9.5-2.8 2.9-1 7.2-3 9.6-4.3 2.4-1.4 6-3.7 8.1-5.3 2.1-1.5 4.8-3.9 6.1-5.3 1.4-1.4 3.4-3.8 4.7-5.4 1.2-1.6 2.4-3.1 2.6-3.5 0.3-0.3 3.3 1.8 7.3 5.3 3.7 3.1 7.2 6.1 7.7 6.4 0.8 0.6 0.5 1.2-2.1 4.6-1.6 2.2-5.3 6.3-8.1 9-2.8 2.7-6.7 6-8.6 7.3-1.9 1.3-5.5 3.4-7.9 4.7-2.3 1.4-6.4 3.2-8.9 4.1-2.6 1-6.9 2.3-9.6 2.9-2.7 0.6-7.3 1.5-10.2 1.9-3.4 0.4-9.1 0.6-16.8 0.3-6.9-0.2-13.1-0.6-15.3-1.2-2.1-0.4-6.6-1.7-9.9-2.8-3.4-1.1-7.8-2.9-9.9-3.9-2-1-5.8-3.2-8.4-4.9-2.5-1.7-6.8-5.1-9.5-7.6-2.6-2.5-6.5-6.8-8.5-9.5-2.1-2.7-5-7.4-6.6-10.5-1.5-3-3.5-7.3-4.3-9.5-0.9-2.3-2.2-6.6-2.9-9.6-0.8-3-1.8-7.6-2.2-10.2-0.4-2.5-0.7-9-0.7-14.5 0.1-5.4 0.4-11.9 0.8-14.5 0.3-2.5 1.3-7.1 2.1-10.1 0.8-3 2-6.9 2.6-8.7 0.7-1.8 2.4-5.5 3.8-8.4 1.5-2.9 3.9-7.1 5.4-9.3 1.6-2.2 3.9-5.4 5.3-7 1.4-1.6 4-4.2 5.7-5.9 1.8-1.6 4.3-3.8 5.6-4.8 1.2-1 4.5-3.2 7.2-4.8 2.7-1.6 6.9-3.8 9.3-4.8 2.4-1 6.2-2.4 8.4-3 2.2-0.7 6.3-1.6 9-2.1 2.7-0.4 6.1-0.9 7.5-1.1 1.5-0.1 4.1-0.3 5.8-0.3zm-5.8 19.3c-0.5 0.1-2.8 0.5-5.2 0.9-2.4 0.4-6.2 1.4-8.4 2.2-2.2 0.8-5.5 2.2-7.3 3.2-1.7 0.9-4.7 2.8-6.6 4.2-1.9 1.3-5.1 4.1-7 6.1-1.9 2-4.7 5.4-6.2 7.5-1.4 2.1-3.8 6-5.1 8.7-1.4 2.7-3.3 7.3-4.2 10.1-0.9 2.9-1.6 6.1-1.6 7.1v1.9h113.7c0-4-0.5-7.2-1-9.7-0.5-2.5-1.6-6.2-2.4-8.3-0.8-2-2.5-5.5-3.8-7.7-1.3-2.2-4.4-6.1-6.8-8.7-2.3-2.5-5.9-5.7-7.8-7-1.9-1.4-5.3-3.4-7.5-4.5-2.3-1.2-6.2-2.7-8.7-3.5-2.6-0.9-6.7-1.8-9.2-2.1-2.4-0.4-6.6-0.6-9.2-0.6-2.7 0-5.2 0.1-5.7 0.2zm-452.3 149.9h95.1v-19.7h-71.9v-142.1h-23.2zm136.8 0h22.7v-161.8h-22.7zm110.2-160.6c-2.1 0.2-5.6 1.2-7.8 2-2.2 0.9-5.4 2.5-7 3.5-1.6 1-4.3 3.1-6.1 4.8-1.7 1.6-4.1 4.5-5.2 6.4-1.1 2-2.2 3.6-2.4 3.6-0.3 0-0.5-4.1-0.5-9v-9h-20.3v158.3h21.5c0.3-115.3 0.3-115.7 1.6-120 0.7-2.4 2.1-6.1 3.2-8.1 1.1-2.2 3.3-5.2 5.3-7.2 2.2-2.2 4.9-4.2 7.3-5.3 3.5-1.6 4.1-1.7 10.7-1.7 6.4 0 7.2 0.1 10 1.6 1.7 0.8 3.9 2.3 4.9 3.2 1.1 0.9 2.7 3.1 3.6 4.8 1 1.7 2.1 4.4 2.6 6 0.8 2.5 0.9 11.1 1.1 64.8l0.1 61.9h21.5c0.3-112.2 0.4-116.5 1.4-120 0.6-2.1 1.9-5.7 3-8 1.3-2.7 3.1-5.3 5-7.3 1.8-1.8 4.7-3.8 7.1-5 3.6-1.8 4.7-2.1 9.6-2.2 3.2-0.2 6.6 0 8.1 0.5 1.4 0.4 3.7 1.3 4.9 2 1.3 0.7 3.5 2.5 4.9 4.1 1.3 1.6 3.1 4.2 3.9 5.9 0.8 1.7 1.8 4.8 2.4 6.9 0.8 3.6 1 10 1.1 63.5l0.2 59.6h21.5l-0.3-126.7c-2-7.2-3.7-11.4-4.9-13.9-1.3-2.6-3.6-6.1-5.1-7.8-1.5-1.7-4.3-4.2-6.3-5.6-1.9-1.3-5-3.1-6.9-3.9-1.9-0.8-5.1-1.8-7-2.2-1.9-0.4-6.5-0.7-10.1-0.7-4.4 0-8 0.3-10.5 1-2 0.5-5.8 2-8.4 3.2-2.5 1.2-6.2 3.5-8.1 5.1-1.9 1.5-4.9 4.8-6.7 7.3l-3.2 4.4c-3.1-6-5.6-9.3-7.6-11.4-2.1-2-5.1-4.4-7-5.3-1.8-0.9-5-2.2-7.1-2.8-2.1-0.7-6.1-1.4-9-1.5-2.9-0.2-6.9-0.1-9 0.2zm194.6 188.7c-3.3 2.7-7.9 5.5-13.1 8.2-6 3-8.1 4.4-8.3 5.4-0.3 0.9-0.1 1.3 0.9 1.6 0.9 0.2 3.1-0.5 6.3-1.9 2.7-1.2 7-3.4 9.5-4.9 2.6-1.6 6.4-4.2 8.6-6 2.2-1.8 4-3.6 4.2-4.1 0.2-0.5 0-1.3-0.4-1.8-0.4-0.4-1.1-0.8-1.6-0.8-0.5 0.1-3.2 2-6.1 4.3zm-43.2-2.6c19.9 0 21.5 0.1 21.8 1.1 0.2 0.5 0.1 1.4-0.2 1.8-0.4 0.7-1.9 1-10 1.2v28.4h5.1c3.9 0 5.2 0.2 5.9 0.9 0.7 0.7 0.7 1.2 0.2 1.9-0.5 0.8-1.7 1-11.2 1.3v19.5c0 10.8-0.2 20-0.5 20.4-0.2 0.4-1 0.7-3.3 0.4l-0.3-40.3h-15.3l-0.5 7.7c-0.2 4.2-0.9 10-1.6 12.9-0.6 2.8-2.2 7.4-3.5 10.1-1.3 2.7-3 5.8-3.8 6.8-0.7 1.1-2 2.2-2.8 2.6-1.2 0.6-1.6 0.6-2.3-0.1-0.6-0.5-1-1.2-0.9-1.6 0-0.4 1.2-2.2 2.6-4.1 1.4-1.8 3.3-5 4.1-7.1 0.8-2 2-6 2.6-8.7 0.6-2.7 1.3-8 2-18.5l-11-0.3v-3.5l11-0.6 0.3-28.1h-4.5c-3.4 0-4.7-0.2-5.2-0.8-0.4-0.5-0.6-1.5-0.4-2.1 0.3-1.1 0.8-1.2 21.7-1.2zm-7.6 32.5h15.1v-28.4h-15.1zm-371.7-31.3c-1.4 0.2-3.6 0.7-4.9 1-1.3 0.4-3.6 1.5-5.2 2.6-1.6 1-3.8 3.1-4.8 4.5-1.1 1.4-2.4 4-2.9 5.8-0.6 2.2-0.8 4.7-0.6 7.8 0.2 3.5 0.6 5.4 1.7 7.6 0.8 1.6 2.5 3.8 3.7 4.9 1.3 1.1 3.7 2.6 5.5 3.4 2 0.9 6.7 2 12.9 3.1 5.3 0.9 10.5 2 11.6 2.4 1 0.4 2.9 1.8 4.1 3 1.2 1.3 2.4 3.2 2.7 4.3 0.3 1.2 0.6 3.8 0.6 5.8-0.1 2.4-0.4 4.6-1.1 6.1-0.6 1.3-1.8 3.1-2.8 4-0.9 0.9-3.1 2.3-4.8 3.1-2.5 1.2-4.4 1.6-8.7 1.8-3.1 0.1-7 0-8.7-0.4-1.8-0.3-4.5-1.3-6.1-2.1-1.6-0.9-4.2-2.6-5.7-4l-2.8-2.4c-3.5 3.6-4 4.6-3.6 4.8 0.3 0.3 1.7 1.4 3.1 2.5 1.5 1.2 3.5 2.6 4.6 3.3 1.2 0.6 3.4 1.6 5 2.1 1.7 0.6 5.4 1.2 9.2 1.4 4.1 0.2 7.8 0 10.2-0.4 2.1-0.4 4.9-1.2 6.4-1.9 1.4-0.6 3.7-2.1 5.1-3.3 1.4-1.1 3.2-3.1 3.9-4.4 0.8-1.3 1.7-3.2 2-4.4 0.3-1.1 0.6-3.9 0.6-6.3 0-2.4-0.4-5.6-0.8-7-0.5-1.4-2.2-4-3.7-5.7-1.5-1.7-3.7-3.6-4.8-4.2-1.1-0.5-3.1-1.3-4.4-1.6-1.2-0.3-5.9-1.3-10.4-2-5.5-1-9.1-1.9-11.3-3-1.8-0.9-3.7-2-4.3-2.6-0.6-0.5-1.5-1.9-2.1-3.1-0.8-1.5-1.1-3.4-1.2-6.4 0-3.4 0.3-4.7 1.6-7.3 1-2 2.5-3.8 4-4.8 1.2-1 3.6-2.1 5.2-2.5 1.6-0.5 4.8-0.9 7.2-0.9 3 0 5.6 0.5 8.2 1.4 2 0.7 5 2.2 6.6 3.4l2.9 2.1 3.9-3.7c-5.3-3.8-8.1-5.4-9.7-6-1.6-0.6-4.9-1.4-7.4-1.8-2.4-0.3-5.1-0.6-5.8-0.5-0.7 0-2.5 0.2-3.9 0.5zm64.8 0.3c13.8 0 16.6 0.2 19.3 1.1 1.8 0.6 4.1 1.6 5.2 2.3 1.1 0.7 3.2 2.6 4.5 4.2 1.4 1.5 3.1 4.2 3.7 6 1 2.6 1.2 4.3 1 9-0.2 4.7-0.5 6.4-1.7 9-0.8 1.7-2.3 4.1-3.2 5.2-1 1.1-3.1 2.7-4.6 3.6-1.6 0.8-4.4 2-6.3 2.5-2.7 0.6-6.5 0.9-28.8 0.9v31.9h-5.8l-0.1-37.6c0-20.7 0.1-37.8 0.3-37.9 0.2-0.2 7.6-0.2 16.5-0.2zm-10.7 5.4c-0.2 0.2-0.3 7.7-0.3 16.7l0.1 16.4c25.8-0.2 27.2-0.4 29.6-1.5 1.5-0.6 3.5-1.9 4.6-2.9 1.1-0.9 2.5-2.7 3.2-4 1-1.9 1.2-3.3 1.2-8.4 0-5.6-0.1-6.3-1.6-8.8-1-1.7-2.6-3.4-4.3-4.5-1.5-1-3.7-2-4.8-2.3-1.1-0.3-7.7-0.6-14.7-0.7-7-0.1-12.8-0.1-13 0zm76.2-5.4c1.2 0.1 2.4 0.2 2.7 0.2 0.2 0.1 0.4 0.4 0.4 0.8 0 0.4 1.1 3.6 2.4 7.1 1.3 3.5 4.6 12.4 7.3 19.7 2.7 7.3 6.3 17.3 8.1 22 1.7 4.8 4.4 12.1 6 16.3 1.5 4.1 2.9 8 3.1 8.5 0.3 0.9-0.1 1.1-6 1.1l-2.1-6c-1.2-3.3-2.6-7.4-4.3-12.6h-35.1l-6.7 18.6h-6.3l0.8-2.2c0.5-1.2 3.8-10.2 7.3-19.9 3.6-9.7 8.6-23.3 11.1-30.1 2.6-6.9 5.4-14.7 6.4-17.4 1-2.7 2-5.3 2.2-5.6 0.3-0.3 1.5-0.6 2.7-0.5zm-1.5 11.6c-0.7 1.7-1.2 3.4-1.2 3.6 0 0.2-2.3 6.7-5 14.4-2.7 7.6-5.6 15.6-6.4 17.8-0.7 2.1-1.4 4-1.4 4.2 0 0.1 7 0.3 15.4 0.3 8.5 0 15.4-0.2 15.4-0.5 0-0.2-2.9-8.5-6.5-18.4-3.5-9.9-6.9-19.4-7.5-21.3-0.6-1.8-1.2-3.3-1.3-3.3-0.2 0-0.9 1.4-1.5 3.2zm61.9-11.7c13.7 0.1 17.1 0.3 19.5 1.1 1.6 0.5 4.2 1.8 5.7 2.7 1.5 1 3.6 3 4.7 4.5 1.1 1.6 2.4 4 2.8 5.4 0.4 1.4 0.7 4.7 0.7 7.3-0.1 2.7-0.5 5.7-1.1 7.2-0.5 1.4-1.7 3.7-2.7 4.9-1 1.3-2.7 3-3.9 3.9-1.1 0.8-3.7 2.1-9.4 4l5.7 10.8c3 6 7.1 13.8 9 17.3 1.8 3.5 3.3 6.4 3.3 6.5 0 0.1-1.5 0.2-6.6 0.2l-4.8-9.2c-2.7-5-6.7-12.8-13.2-25.6h-20.6v34.8h-5.8l-0.2-37.8c0-20.7 0-37.8 0.1-37.9 0.1-0.1 7.6-0.1 16.8-0.1zm-10.9 35.7c22.6 0.1 25.9-0.1 28.4-0.9 1.8-0.5 4.1-1.6 5.2-2.5 1-0.8 2.6-2.8 3.4-4.4 1.2-2.3 1.5-3.7 1.4-7.2 0-2.6-0.3-5.2-0.8-6.4-0.5-1.1-1.7-2.9-2.6-4-0.9-1.1-2.7-2.5-4-3.2-2.1-1.1-3.4-1.2-16.6-1.4l-14.3-0.2zm63.7 2.1l0.1 37.9h5.8c0-20.1 0.1-20.7 1.3-22.1 0.7-0.8 4.6-5.6 8.7-10.6 4-5 7.6-9 7.8-9 0.2 0 5 8 10.6 17.8 5.6 9.7 10.9 19.1 11.9 20.8l1.7 3.1c5.2 0 6.7-0.1 6.7-0.3 0-0.1-1.5-2.8-3.3-5.9-1.8-3.1-5-8.7-7.2-12.3-2.1-3.7-6.6-11.5-10-17.3-3.4-5.8-6.2-10.7-6.2-10.9 0-0.1 2.8-3.7 6.2-7.9 3.4-4.3 8.5-10.5 11.3-14 2.8-3.4 5.1-6.4 5.1-6.6 0-0.3-1.3-0.4-3-0.4-1.7 0-3.2 0.1-3.4 0.1-0.1 0-4 4.7-8.7 10.4-4.6 5.6-11.9 14.6-16.1 19.9-4.3 5.2-9 11.1-10.5 12.9l-2.6 3.4-0.6-46.7-5.6-0.3zm227.1-36.4c-0.2 0.6 0 1.4 0.4 1.8 0.6 0.6 5.6 0.7 23.5 0.7 19.7 0 22.8-0.2 23-0.9 0.2-0.5 0.2-1.3 0-1.7-0.2-0.8-3.3-0.9-23.4-0.9-21.5 0-23.2 0.1-23.5 1zm-29.1 3.2c-0.2 0.9 0 1.5 0.7 2 0.7 0.5 3 0.8 5.9 0.8l4.8-0.1v22.1l-10.8 0.3v3.4l10.8 0.3v28.7c-7.4 2.6-10.1 3.6-10.6 3.9-0.6 0.3-1 1.1-1 1.9 0 0.8 0.4 1.6 0.8 1.8 0.5 0.1 3.6-0.6 6.9-1.8 3.2-1.1 8.6-3.3 12-4.9 3.3-1.6 6.5-3.4 7.1-3.9 0.6-0.6 1-1.5 1-2 0-0.6-0.5-1.2-1.2-1.3-0.6-0.2-2.8 0.6-5.3 2-2.3 1.3-4.5 2.3-4.9 2.3-0.6 0-0.8-3-0.8-13.3v-13.4c9-0.2 10.2-0.5 10.7-1.2 0.5-0.7 0.4-1.2-0.2-1.9-0.7-0.8-2-1-5.7-0.9h-4.8v-22.1c8.7-0.2 10.2-0.5 10.6-1.1 0.4-0.5 0.5-1.3 0.2-1.9-0.3-0.9-1.5-1-13.1-1-12.7 0-12.7 0-13.1 1.3zm38 3.2c-0.3 0.9-1.2 2.9-1.9 4.5-0.6 1.6-2.2 4.7-3.5 6.9-1.2 2.3-2.7 4.6-3.4 5.3-0.6 0.6-1 1.6-0.9 2.3 0.2 1 0.6 1.1 5.4 0.9 2.9-0.1 6.8-0.5 8.8-1 2-0.4 3.9-0.8 4.1-0.8 0.2 0 0.8 0.8 1.2 1.7 0.4 1 1.1 1.9 1.6 2.1 0.4 0.1 1.2 0 1.7-0.3 0.6-0.4 0.7-1.1 0.5-2.2-0.2-0.9-1.3-3.4-2.4-5.6-1.1-2.3-2.5-4.8-3.1-5.7q-1.1-1.6-2.4-1.5c-0.7 0.1-1.4 0.6-1.4 1.2-0.1 0.6 0.6 2.3 1.5 3.9 1 1.6 1.6 3 1.4 3.1-0.3 0.2-2.6 0.6-5.2 1-2.6 0.5-4.9 0.7-5.1 0.6-0.2-0.2 0.8-2.4 2.1-5 1.3-2.5 3-6.1 3.8-7.9 0.7-1.9 1.2-3.8 1-4.2-0.1-0.5-0.9-0.9-1.7-0.9-1.1 0-1.7 0.4-2.1 1.6zm24.4 1.1c-0.7 1.5-2.4 5.1-3.7 8-1.4 2.9-3.2 6.1-4.1 7.1-0.8 1.1-1.5 2.3-1.5 2.8 0 0.4 0.5 1 1 1.2 0.6 0.1 3 0.1 5.4-0.1 2.4-0.2 6.3-0.7 8.7-1.2 2.4-0.5 4.4-0.7 4.5-0.4 0.1 0.2 0.5 1.1 0.9 1.9 0.4 0.8 1.2 1.5 1.7 1.6 0.6 0.1 1.3-0.3 1.6-0.9 0.3-0.7 0.1-2-1-4.4-0.9-2-2.4-4.9-3.5-6.6-1-1.6-2.3-3.2-2.8-3.5-0.5-0.2-1.3 0-1.9 0.6-0.9 0.9-0.8 1.1 0.9 3.9 1.1 1.6 1.9 3.1 1.8 3.2-0.1 0.2-2 0.7-4.2 1.2-2.3 0.4-4.7 0.8-5.4 0.9-0.7 0-1.3-0.2-1.3-0.5 0-0.2 0.6-1.5 1.4-2.7 0.7-1.3 2.3-4.6 3.5-7.3 1.2-2.7 2.1-5.4 2-6.1-0.2-0.6-0.8-1.2-1.5-1.3-1.1-0.2-1.5 0.3-2.5 2.6zm-180.7 7.5c-0.2 0.2-0.4 1-0.3 1.8 0 0.7-0.4 2.4-0.9 3.8-0.5 1.3-1.9 3.4-3 4.7-1.2 1.2-3 2.6-4.1 3-1.2 0.5-3.4 1.2-5 1.5-2.3 0.5-2.6 0.8-1.7 1.1 0.6 0.2 2.6 0.8 4.5 1.4 2.5 0.7 4 1.6 5.9 3.5 1.9 1.9 2.9 3.4 3.4 5.7 0.5 1.6 1.1 3.8 1.3 4.7 0.4 1.6 0.5 1.5 1.1-1.7 0.4-1.9 1.1-4.3 1.6-5.2 0.5-1 1.9-2.7 3.1-3.8 1.3-1.1 3.1-2.3 4-2.7 1-0.4 2.9-1 4.4-1.4l2.6-0.7c-4.5-1.2-7-2.2-8.4-2.9-1.4-0.7-3.4-2.3-4.3-3.5-1.1-1.3-2.2-3.8-2.8-6-0.5-2-1.1-3.5-1.4-3.3zm103 8c-2.4 2.5-6.6 5.9-9.3 7.7-2.7 1.9-7.1 4.4-9.7 5.7-3 1.5-4.9 2.7-5.1 3.5-0.2 0.7 0 1.5 0.6 2 0.8 0.8 1.5 0.6 6.6-2 3.1-1.6 7.9-4.5 10.8-6.4 2.9-1.9 7.1-5.3 9.5-7.5 3.3-3.3 4.2-4.4 4-5.6-0.1-1-0.6-1.5-1.6-1.6-1.1-0.1-2.4 0.8-5.8 4.2zm43.2 9.9c-0.9 0.6-1 1-0.5 1.9 0.6 0.9 2.2 1 25.4 1.2 24.3 0.1 24.7 0.1 25-1.1 0.1-0.6-0.1-1.5-0.5-2-0.6-0.8-3.7-0.9-24.5-0.9-19.8 0-24 0.2-24.9 0.9zm5.6 10.2h38.2l1.2 1.6c1.1 1.4 1.1 2.4 1.1 13.3 0 11.7 0 11.7-2.8 14.6l-18.5 0.1c-17.4 0-18.5-0.1-19.9-1.1-1.4-1.2-1.4-1.2-1.7-13.3-0.2-11.9-0.2-12.1 1.1-13.7zm2.2 4.2c-0.6 0.5-0.8 1.8-0.7 4.6l0.1 4h34.8l-0.3-9c-28.8-0.3-33.3-0.1-33.9 0.4zm-0.4 12.6c-0.2 0.1-0.3 2-0.3 4.2 0.1 3.3 0.3 4.1 1.3 4.5 0.7 0.4 7.5 0.6 16.7 0.6 11.9 0.1 15.6-0.1 16.2-0.7 0.5-0.5 0.7-2.1 0.6-4.7l-0.2-3.9c-26.3-0.2-34.1-0.1-34.3 0zm-47.6-12.3c-1.6 2.2-5.1 6-7.7 8.6-2.7 2.5-7.1 6.1-9.8 7.9-2.7 1.8-6.6 4.1-8.6 5.1-3.2 1.6-3.6 1.9-3.5 3.4 0.2 1.3 0.4 1.5 1.9 1.5 1-0.1 3.9-1.3 6.4-2.8 2.6-1.6 6.2-3.9 8.1-5.2 1.9-1.4 5.8-4.7 8.7-7.4 2.8-2.7 6.2-6.3 7.6-8.2 1.4-1.8 2.6-3.8 2.6-4.5 0-0.6-0.5-1.4-1.2-1.7-0.6-0.3-1.3-0.6-1.4-0.6-0.1 0-1.5 1.8-3.1 3.9z"/><path fill-rule="evenodd" class="b" d="m485.6 31.2c72.6 1.1 77.1 64.4 77.1 76.1 0 7.4 0.3 13.6 0.2 13.8-0.1 0.3-135.2 1.2-135.2 1.2 0 0 0.6 58.5 64.3 59.3 31 0.4 50.3-27.5 50.5-27.9 0.3-0.3 14.5 11.4 15 11.7 0.8 0.6-19.8 33.3-59.8 34.9-32.4 1.3-48.4-5-65.7-20.7-19.1-17.2-23.9-47.3-24.2-49.1-0.4-2.5-0.7-9-0.7-14.5 0.1-5.4 2.1-21.6 2.9-24.6 0.8-3 15.7-61.1 75.6-60.2zm-57.4 71.2h113.7c0-2.1 0.5-51-56.4-52.1-49.8-1-57.3 52.1-57.3 52.1zm-400.7 98h95.1v-19.7h-71.9v-142.1h-23.2zm136.8 0h22.7v-161.8h-22.7zm81.7-140.3c-0.3 0-0.5-4.1-0.5-9v-9h-20.3v158.3h21.5c0.3-115.3-2.7-114.8 4.8-128.1 4.3-7.9 17.1-15.2 23.5-14.7 12 1 18 8.9 20.9 16.1 1 2.5 1.2 126.7 1.2 126.7h21.5c0.3-112.2 0.4-116.5 1.4-120 0.6-2.1 6-21.6 24.7-22.5 18.3-0.9 23.6 17.3 24.2 19.4 0.8 3.6 1.3 123.1 1.3 123.1h21.5l-0.3-126.7c-2-7.2-8.7-34.1-40.3-34.1-24.4-0.1-36.9 21-36.9 21-0.5-1-7.5-20.6-33.2-21.3-22-0.6-34.9 20.8-35 20.8zm223.1 168.4c-3.3 2.7-7.9 5.5-13.1 8.2-6 3-8.1 4.4-8.3 5.4-0.3 0.9-0.1 1.3 0.9 1.6 0.9 0.2 3.1-0.5 6.3-1.9 2.7-1.2 7-3.4 9.5-4.9 2.6-1.6 6.4-4.2 8.6-6 2.2-1.8 4-3.6 4.2-4.1 0.2-0.5 0-1.3-0.4-1.8-0.4-0.4-1.1-0.8-1.6-0.8-0.5 0.1-3.2 2-6.1 4.3zm-43.2-2.6c19.9 0 21.5 0.1 21.8 1.1 0.2 0.5 0.1 1.4-0.2 1.8-0.4 0.7-1.9 1-10 1.2v28.4h5.1c3.9 0 5.2 0.2 5.9 0.9 0.7 0.7 0.7 1.2 0.2 1.9-0.5 0.8-1.7 1-11.2 1.3v19.5c0 10.8-0.2 20-0.5 20.4-0.2 0.4-1 0.7-3.3 0.4l-0.3-40.3h-15.3l-0.5 7.7c-0.2 4.2-0.9 10-1.6 12.9-0.6 2.8-2.2 7.4-3.5 10.1-1.3 2.7-3 5.8-3.8 6.8-0.7 1.1-2 2.2-2.8 2.6-1.2 0.6-1.6 0.6-2.3-0.1-0.6-0.5-1-1.2-0.9-1.6 0-0.4 1.2-2.2 2.6-4.1 1.4-1.8 3.3-5 4.1-7.1 0.8-2 2-6 2.6-8.7 0.6-2.7 1.3-8 2-18.5l-11-0.3v-3.5l11-0.6 0.3-28.1h-4.5c-3.4 0-4.7-0.2-5.2-0.8-0.4-0.5-0.6-1.5-0.4-2.1 0.3-1.1 0.8-1.2 21.7-1.2zm-7.6 32.5h15.1v-28.4h-15.1zm-371.7-31.3c-1.4 0.2-3.6 0.7-4.9 1-1.3 0.4-3.6 1.5-5.2 2.6-1.6 1-3.8 3.1-4.8 4.5-1.1 1.4-2.4 4-2.9 5.8-0.6 2.2-0.8 4.7-0.6 7.8 0.2 3.5 0.6 5.4 1.7 7.6 0.8 1.6 2.5 3.8 3.7 4.9 1.3 1.1 3.7 2.6 5.5 3.4 2 0.9 6.7 2 12.9 3.1 5.3 0.9 10.5 2 11.6 2.4 1 0.4 2.9 1.8 4.1 3 1.2 1.3 2.4 3.2 2.7 4.3 0.3 1.2 0.6 3.8 0.6 5.8-0.1 2.4-0.4 4.6-1.1 6.1-0.6 1.3-1.8 3.1-2.8 4-0.9 0.9-3.1 2.3-4.8 3.1-2.5 1.2-4.4 1.6-8.7 1.8-3.1 0.1-7 0-8.7-0.4-1.8-0.3-4.5-1.3-6.1-2.1-1.6-0.9-4.2-2.6-5.7-4l-2.8-2.4c-3.5 3.6-4 4.6-3.6 4.8 0.3 0.3 1.7 1.4 3.1 2.5 1.5 1.2 3.5 2.6 4.6 3.3 1.2 0.6 3.4 1.6 5 2.1 1.7 0.6 5.4 1.2 9.2 1.4 4.1 0.2 7.8 0 10.2-0.4 2.1-0.4 4.9-1.2 6.4-1.9 1.4-0.6 3.7-2.1 5.1-3.3 1.4-1.1 3.2-3.1 3.9-4.4 0.8-1.3 1.7-3.2 2-4.4 0.3-1.1 0.6-3.9 0.6-6.3 0-2.4-0.4-5.6-0.8-7-0.5-1.4-2.2-4-3.7-5.7-1.5-1.7-3.7-3.6-4.8-4.2-1.1-0.5-3.1-1.3-4.4-1.6-1.2-0.3-5.9-1.3-10.4-2-5.5-1-9.1-1.9-11.3-3-1.8-0.9-3.7-2-4.3-2.6-0.6-0.5-1.5-1.9-2.1-3.1-0.8-1.5-1.1-3.4-1.2-6.4 0-3.4 0.3-4.7 1.6-7.3 1-2 2.5-3.8 4-4.8 1.2-1 3.6-2.1 5.2-2.5 1.6-0.5 4.8-0.9 7.2-0.9 3 0 5.6 0.5 8.2 1.4 2 0.7 5 2.2 6.6 3.4l2.9 2.1 3.9-3.7c-5.3-3.8-8.1-5.4-9.7-6-1.6-0.6-4.9-1.4-7.4-1.8-2.4-0.3-5.1-0.6-5.8-0.5-0.7 0-2.5 0.2-3.9 0.5zm64.8 0.3c13.8 0 16.6 0.2 19.3 1.1 1.8 0.6 4.1 1.6 5.2 2.3 1.1 0.7 3.2 2.6 4.5 4.2 1.4 1.5 3.1 4.2 3.7 6 1 2.6 1.2 4.3 1 9-0.2 4.7-0.5 6.4-1.7 9-0.8 1.7-2.3 4.1-3.2 5.2-1 1.1-3.1 2.7-4.6 3.6-1.6 0.8-4.4 2-6.3 2.5-2.7 0.6-6.5 0.9-28.8 0.9v31.9h-5.8l-0.1-37.6c0-20.7 0.1-37.8 0.3-37.9 0.2-0.2 7.6-0.2 16.5-0.2zm-10.7 5.4c-0.2 0.2-0.3 7.7-0.3 16.7l0.1 16.4c25.8-0.2 27.2-0.4 29.6-1.5 1.5-0.6 3.5-1.9 4.6-2.9 1.1-0.9 2.5-2.7 3.2-4 1-1.9 1.2-3.3 1.2-8.4 0-5.6-0.1-6.3-1.6-8.8-1-1.7-2.6-3.4-4.3-4.5-1.5-1-3.7-2-4.8-2.3-1.1-0.3-7.7-0.6-14.7-0.7-7-0.1-12.8-0.1-13 0zm76.2-5.4c1.2 0.1 2.4 0.2 2.7 0.2 0.2 0.1 0.4 0.4 0.4 0.8 0 0.4 1.1 3.6 2.4 7.1 1.3 3.5 4.6 12.4 7.3 19.7 2.7 7.3 6.3 17.3 8.1 22 1.7 4.8 4.4 12.1 6 16.3 1.5 4.1 2.9 8 3.1 8.5 0.3 0.9-0.1 1.1-6 1.1l-2.1-6c-1.2-3.3-2.6-7.4-4.3-12.6h-35.1l-6.7 18.6h-6.3l0.8-2.2c0.5-1.2 3.8-10.2 7.3-19.9 3.6-9.7 8.6-23.3 11.1-30.1 2.6-6.9 5.4-14.7 6.4-17.4 1-2.7 2-5.3 2.2-5.6 0.3-0.3 1.5-0.6 2.7-0.5zm-1.5 11.6c-0.7 1.7-1.2 3.4-1.2 3.6 0 0.2-2.3 6.7-5 14.4-2.7 7.6-5.6 15.6-6.4 17.8-0.7 2.1-1.4 4-1.4 4.2 0 0.1 7 0.3 15.4 0.3 8.5 0 15.4-0.2 15.4-0.5 0-0.2-2.9-8.5-6.5-18.4-3.5-9.9-6.9-19.4-7.5-21.3-0.6-1.8-1.2-3.3-1.3-3.3-0.2 0-0.9 1.4-1.5 3.2zm61.9-11.7c13.7 0.1 17.1 0.3 19.5 1.1 1.6 0.5 4.2 1.8 5.7 2.7 1.5 1 3.6 3 4.7 4.5 1.1 1.6 2.4 4 2.8 5.4 0.4 1.4 0.7 4.7 0.7 7.3-0.1 2.7-0.5 5.7-1.1 7.2-0.5 1.4-1.7 3.7-2.7 4.9-1 1.3-2.7 3-3.9 3.9-1.1 0.8-3.7 2.1-9.4 4l5.7 10.8c3 6 7.1 13.8 9 17.3 1.8 3.5 3.3 6.4 3.3 6.5 0 0.1-1.5 0.2-6.6 0.2l-4.8-9.2c-2.7-5-6.7-12.8-13.2-25.6h-20.6v34.8h-5.8l-0.2-37.8c0-20.7 0-37.8 0.1-37.9 0.1-0.1 7.6-0.1 16.8-0.1zm-10.9 35.7c22.6 0.1 25.9-0.1 28.4-0.9 1.8-0.5 4.1-1.6 5.2-2.5 1-0.8 2.6-2.8 3.4-4.4 1.2-2.3 1.5-3.7 1.4-7.2 0-2.6-0.3-5.2-0.8-6.4-0.5-1.1-1.7-2.9-2.6-4-0.9-1.1-2.7-2.5-4-3.2-2.1-1.1-3.4-1.2-16.6-1.4l-14.3-0.2zm63.7 2.1l0.1 37.9h5.8c0-20.1 0.1-20.7 1.3-22.1 0.7-0.8 4.6-5.6 8.7-10.6 4-5 7.6-9 7.8-9 0.2 0 5 8 10.6 17.8 5.6 9.7 10.9 19.1 11.9 20.8l1.7 3.1c5.2 0 6.7-0.1 6.7-0.3 0-0.1-1.5-2.8-3.3-5.9-1.8-3.1-5-8.7-7.2-12.3-2.1-3.7-6.6-11.5-10-17.3-3.4-5.8-6.2-10.7-6.2-10.9 0-0.1 2.8-3.7 6.2-7.9 3.4-4.3 8.5-10.5 11.3-14 2.8-3.4 5.1-6.4 5.1-6.6 0-0.3-1.3-0.4-3-0.4-1.7 0-3.2 0.1-3.4 0.1-0.1 0-4 4.7-8.7 10.4-4.6 5.6-11.9 14.6-16.1 19.9-4.3 5.2-9 11.1-10.5 12.9l-2.6 3.4-0.6-46.7-5.6-0.3zm227.1-36.4c-0.2 0.6 0 1.4 0.4 1.8 0.6 0.6 5.6 0.7 23.5 0.7 19.7 0 22.8-0.2 23-0.9 0.2-0.5 0.2-1.3 0-1.7-0.2-0.8-3.3-0.9-23.4-0.9-21.5 0-23.2 0.1-23.5 1zm-29.1 3.2c-0.2 0.9 0 1.5 0.7 2 0.7 0.5 3 0.8 5.9 0.8l4.8-0.1v22.1l-10.8 0.3v3.4l10.8 0.3v28.7c-7.4 2.6-10.1 3.6-10.6 3.9-0.6 0.3-1 1.1-1 1.9 0 0.8 0.4 1.6 0.8 1.8 0.5 0.1 3.6-0.6 6.9-1.8 3.2-1.1 8.6-3.3 12-4.9 3.3-1.6 6.5-3.4 7.1-3.9 0.6-0.6 1-1.5 1-2 0-0.6-0.5-1.2-1.2-1.3-0.6-0.2-2.8 0.6-5.3 2-2.3 1.3-4.5 2.3-4.9 2.3-0.6 0-0.8-3-0.8-13.3v-13.4c9-0.2 10.2-0.5 10.7-1.2 0.5-0.7 0.4-1.2-0.2-1.9-0.7-0.8-2-1-5.7-0.9h-4.8v-22.1c8.7-0.2 10.2-0.5 10.6-1.1 0.4-0.5 0.5-1.3 0.2-1.9-0.3-0.9-1.5-1-13.1-1-12.7 0-12.7 0-13.1 1.3zm38 3.2c-0.3 0.9-1.2 2.9-1.9 4.5-0.6 1.6-2.2 4.7-3.5 6.9-1.2 2.3-2.7 4.6-3.4 5.3-0.6 0.6-1 1.6-0.9 2.3 0.2 1 0.6 1.1 5.4 0.9 2.9-0.1 6.8-0.5 8.8-1 2-0.4 3.9-0.8 4.1-0.8 0.2 0 0.8 0.8 1.2 1.7 0.4 1 1.1 1.9 1.6 2.1 0.4 0.1 1.2 0 1.7-0.3 0.6-0.4 0.7-1.1 0.5-2.2-0.2-0.9-1.3-3.4-2.4-5.6-1.1-2.3-2.5-4.8-3.1-5.7q-1.1-1.6-2.4-1.5c-0.7 0.1-1.4 0.6-1.4 1.2-0.1 0.6 0.6 2.3 1.5 3.9 1 1.6 1.6 3 1.4 3.1-0.3 0.2-2.6 0.6-5.2 1-2.6 0.5-4.9 0.7-5.1 0.6-0.2-0.2 0.8-2.4 2.1-5 1.3-2.5 3-6.1 3.8-7.9 0.7-1.9 1.2-3.8 1-4.2-0.1-0.5-0.9-0.9-1.7-0.9-1.1 0-1.7 0.4-2.1 1.6zm24.4 1.1c-0.7 1.5-2.4 5.1-3.7 8-1.4 2.9-3.2 6.1-4.1 7.1-0.8 1.1-1.5 2.3-1.5 2.8 0 0.4 0.5 1 1 1.2 0.6 0.1 3 0.1 5.4-0.1 2.4-0.2 6.3-0.7 8.7-1.2 2.4-0.5 4.4-0.7 4.5-0.4 0.1 0.2 0.5 1.1 0.9 1.9 0.4 0.8 1.2 1.5 1.7 1.6 0.6 0.1 1.3-0.3 1.6-0.9 0.3-0.7 0.1-2-1-4.4-0.9-2-2.4-4.9-3.5-6.6-1-1.6-2.3-3.2-2.8-3.5-0.5-0.2-1.3 0-1.9 0.6-0.9 0.9-0.8 1.1 0.9 3.9 1.1 1.6 1.9 3.1 1.8 3.2-0.1 0.2-2 0.7-4.2 1.2-2.3 0.4-4.7 0.8-5.4 0.9-0.7 0-1.3-0.2-1.3-0.5 0-0.2 0.6-1.5 1.4-2.7 0.7-1.3 2.3-4.6 3.5-7.3 1.2-2.7 2.1-5.4 2-6.1-0.2-0.6-0.8-1.2-1.5-1.3-1.1-0.2-1.5 0.3-2.5 2.6zm-180.7 7.5c-0.2 0.2-0.4 1-0.3 1.8 0 0.7-0.4 2.4-0.9 3.8-0.5 1.3-1.9 3.4-3 4.7-1.2 1.2-3 2.6-4.1 3-1.2 0.5-3.4 1.2-5 1.5-2.3 0.5-2.6 0.8-1.7 1.1 0.6 0.2 2.6 0.8 4.5 1.4 2.5 0.7 4 1.6 5.9 3.5 1.9 1.9 2.9 3.4 3.4 5.7 0.5 1.6 1.1 3.8 1.3 4.7 0.4 1.6 0.5 1.5 1.1-1.7 0.4-1.9 1.1-4.3 1.6-5.2 0.5-1 1.9-2.7 3.1-3.8 1.3-1.1 3.1-2.3 4-2.7 1-0.4 2.9-1 4.4-1.4l2.6-0.7c-4.5-1.2-7-2.2-8.4-2.9-1.4-0.7-3.4-2.3-4.3-3.5-1.1-1.3-2.2-3.8-2.8-6-0.5-2-1.1-3.5-1.4-3.3zm103 8c-2.4 2.5-6.6 5.9-9.3 7.7-2.7 1.9-7.1 4.4-9.7 5.7-3 1.5-4.9 2.7-5.1 3.5-0.2 0.7 0 1.5 0.6 2 0.8 0.8 1.5 0.6 6.6-2 3.1-1.6 7.9-4.5 10.8-6.4 2.9-1.9 7.1-5.3 9.5-7.5 3.3-3.3 4.2-4.4 4-5.6-0.1-1-0.6-1.5-1.6-1.6-1.1-0.1-2.4 0.8-5.8 4.2zm43.2 9.9c-0.9 0.6-1 1-0.5 1.9 0.6 0.9 2.2 1 25.4 1.2 24.3 0.1 24.7 0.1 25-1.1 0.1-0.6-0.1-1.5-0.5-2-0.6-0.8-3.7-0.9-24.5-0.9-19.8 0-24 0.2-24.9 0.9zm5.6 10.2h38.2l1.2 1.6c1.1 1.4 1.1 2.4 1.1 13.3 0 11.7 0 11.7-2.8 14.6l-18.5 0.1c-17.4 0-18.5-0.1-19.9-1.1-1.4-1.2-1.4-1.2-1.7-13.3-0.2-11.9-0.2-12.1 1.1-13.7zm2.2 4.2c-0.6 0.5-0.8 1.8-0.7 4.6l0.1 4h34.8l-0.3-9c-28.8-0.3-33.3-0.1-33.9 0.4zm-0.4 12.6c-0.2 0.1-0.3 2-0.3 4.2 0.1 3.3 0.3 4.1 1.3 4.5 0.7 0.4 7.5 0.6 16.7 0.6 11.9 0.1 15.6-0.1 16.2-0.7 0.5-0.5 0.7-2.1 0.6-4.7l-0.2-3.9c-26.3-0.2-34.1-0.1-34.3 0zm-47.6-12.3c-1.6 2.2-5.1 6-7.7 8.6-2.7 2.5-7.1 6.1-9.8 7.9-2.7 1.8-6.6 4.1-8.6 5.1-3.2 1.6-3.6 1.9-3.5 3.4 0.2 1.3 0.4 1.5 1.9 1.5 1-0.1 3.9-1.3 6.4-2.8 2.6-1.6 6.2-3.9 8.1-5.2 1.9-1.4 5.8-4.7 8.7-7.4 2.8-2.7 6.2-6.3 7.6-8.2 1.4-1.8 2.6-3.8 2.6-4.5 0-0.6-0.5-1.4-1.2-1.7-0.6-0.3-1.3-0.6-1.4-0.6-0.1 0-1.5 1.8-3.1 3.9z"/></svg>