<svg xmlns="http://www.w3.org/2000/svg" width="1026" height="700" viewBox="0 0 1026 700">
<g>
<path d="M 878.76 485.44 C869.75,486.88 839.19,487.44 830.50,486.31 C814.71,484.27 794.34,477.98 782.02,471.35 C769.33,464.52 761.55,458.68 751.00,448.06 C733.37,430.32 721.97,409.73 715.54,384.03 C711.54,368.05 710.57,359.45 710.69,341.00 C710.81,322.90 712.23,311.40 716.12,297.00 C730.15,245.10 770.49,207.18 821.50,197.96 C873.95,188.48 922.50,205.12 951.45,242.50 C960.49,254.17 968.43,268.78 972.12,280.50 C977.71,298.26 978.84,306.30 979.15,330.50 L 979.40 350.50 L 863.01 350.71 L 746.61 350.91 L 746.87 356.21 C747.69,372.89 756.05,396.89 766.32,412.00 C780.75,433.24 800.62,446.34 828.00,452.66 C837.14,454.77 861.29,455.02 871.00,453.11 C898.39,447.71 923.27,433.26 938.24,414.07 C941.05,410.46 943.71,407.09 944.13,406.60 C944.92,405.68 970.50,426.51 970.50,428.07 C970.50,430.16 960.99,441.69 952.44,449.95 C932.20,469.54 909.41,480.51 878.76,485.44 ZM 434.26 387.25 L 433.93 487.00 L 397.00 487.00 L 397.00 214.00 L 432.00 214.00 L 432.00 229.50 C432.00,238.02 432.34,245.00 432.75,245.00 C433.17,245.00 434.63,242.87 436.00,240.27 C439.19,234.23 448.90,224.29 456.00,219.81 C479.71,204.85 513.44,206.13 533.77,222.77 C538.82,226.91 546.15,236.40 548.62,242.01 C550.58,246.45 551.56,246.96 552.49,244.03 C553.78,239.97 561.92,230.24 568.23,225.22 C583.96,212.70 604.53,207.17 625.00,209.97 C653.94,213.93 673.05,231.10 681.24,260.50 L 683.47 268.50 L 683.77 377.75 L 684.07 487.00 L 647.07 487.00 L 646.72 384.25 C646.33,271.55 646.51,274.83 640.29,262.00 C636.47,254.12 627.87,245.84 620.71,243.16 C613.27,240.38 598.98,240.20 591.50,242.80 C579.50,246.97 568.48,257.77 564.00,269.74 C563.19,271.90 562.51,273.62 561.94,275.38 C558.95,284.61 558.95,294.81 558.96,373.99 C558.96,377.37 558.96,380.87 558.96,384.50 C558.96,438.40 558.69,483.51 558.36,484.75 C557.77,486.98 557.60,487.00 539.41,487.00 L 521.06 487.00 L 520.74 380.25 C520.40,263.24 520.73,269.62 514.42,258.03 C511.13,251.98 506.94,248.06 499.71,244.25 C494.87,241.69 493.66,241.50 482.50,241.50 C471.11,241.50 470.16,241.66 463.85,244.65 C451.11,250.69 441.69,263.04 436.69,280.27 C434.64,287.36 434.59,289.43 434.26,387.25 ZM 220.00 453.00 L 220.00 487.00 L 56.00 487.00 L 56.00 208.00 L 96.00 208.00 L 96.00 453.00 ZM 747.00 314.62 L 747.00 318.00 L 943.00 318.00 L 943.00 313.46 C943.00,307.10 940.32,294.83 937.24,287.06 C925.78,258.20 900.18,237.24 867.39,229.88 C859.80,228.17 834.38,228.15 826.50,229.84 C795.78,236.43 772.00,255.25 756.98,284.87 C752.09,294.52 747.00,309.69 747.00,314.62 ZM 331.00 208.00 L 331.00 487.00 L 292.00 487.00 L 292.00 208.00 ZM 399.00 604.00 L 399.00 664.00 L 389.00 664.00 L 389.00 598.75 L 389.00 533.50 L 404.25 533.75 C454.27,534.55 450.02,534.27 456.00,537.09 C466.51,542.04 471.86,548.41 474.64,559.25 C475.75,563.57 476.03,567.37 475.58,571.81 C473.99,587.33 466.26,597.42 452.43,602.02 L 445.99 604.17 L 453.12 617.83 C459.92,630.85 469.66,649.42 474.68,658.90 C475.95,661.32 477.00,663.46 477.00,663.65 C477.00,663.84 474.41,664.00 471.25,664.00 L 465.50 663.99 L 457.55 648.75 C453.18,640.36 446.20,626.87 442.05,618.76 L 434.50 604.03 L 416.75 604.01 ZM 182.13 639.25 L 182.00 664.00 L 171.99 664.00 L 172.24 598.91 L 172.50 533.82 L 200.71 533.95 C222.92,534.06 230.02,534.41 234.11,535.63 C251.47,540.78 261.80,557.70 259.07,576.50 C256.64,593.22 247.71,603.24 231.47,607.47 C227.05,608.62 220.15,609.00 203.86,609.00 L 182.14 609.00 L 182.20 611.75 C182.23,613.26 182.20,625.64 182.13,639.25 ZM 277.64 648.00 L 271.78 664.00 L 261.02 664.00 L 262.47 660.25 C263.27,658.19 267.95,645.47 272.87,632.00 C290.88,582.67 306.20,541.39 308.07,537.14 C309.48,533.93 310.40,532.94 311.57,533.39 C312.45,533.73 314.42,534.00 315.97,534.00 C318.05,534.00 318.90,534.58 319.30,536.25 C319.87,538.70 322.25,545.27 335.46,581.00 C340.24,593.92 346.63,611.25 349.66,619.50 C355.60,635.68 364.41,659.41 365.53,662.25 C366.13,663.79 365.55,664.00 360.74,664.00 L 355.27 664.00 L 350.26 650.25 C347.50,642.69 344.93,635.49 344.55,634.25 L 343.87 632.00 L 313.68 632.00 L 283.50 632.01 ZM 710.95 661.25 C707.69,664.26 706.04,664.64 704.20,662.80 C702.24,660.84 702.75,659.43 707.90,652.64 C715.87,642.10 720.27,627.20 721.74,605.70 L 722.54 594.07 L 713.02 593.78 L 703.50 593.50 L 703.50 587.50 L 722.50 586.50 L 722.77 562.25 L 723.04 538.00 L 715.14 538.00 C706.60,538.00 704.29,536.82 705.48,533.05 C706.12,531.03 706.72,531.00 743.10,531.00 C776.40,531.00 780.12,531.16 780.69,532.64 C782.06,536.20 779.68,537.49 771.14,537.79 L 763.00 538.08 L 763.00 587.00 L 772.43 587.00 C781.06,587.00 781.92,587.17 782.52,589.05 C783.75,592.93 781.45,594.00 771.89,594.00 L 763.03 594.00 L 762.76 628.75 L 762.50 663.50 L 756.50 663.50 L 756.24 628.75 L 755.97 594.00 L 729.26 594.00 L 729.08 603.01 C728.59,627.40 720.91,652.07 710.95,661.25 ZM 975.55 658.55 L 973.09 661.00 L 941.16 661.00 C911.20,661.00 909.08,660.88 906.86,659.09 C904.51,657.19 904.50,657.06 904.50,635.69 C904.50,615.97 904.66,614.04 906.40,612.10 C908.27,610.05 909.04,610.00 940.98,610.00 L 973.65 610.00 L 975.83 612.31 C977.91,614.54 978.00,615.45 978.00,635.36 C978.00,656.04 977.99,656.10 975.55,658.55 ZM 182.23 571.47 L 181.97 600.16 L 205.23 599.82 C227.13,599.50 228.81,599.34 233.74,597.12 C240.02,594.29 245.08,588.98 247.48,582.69 C250.24,575.46 249.31,561.91 245.61,555.60 C242.63,550.51 236.04,545.62 230.02,544.02 C228.08,543.50 216.60,543.01 204.50,542.93 L 182.50 542.78 ZM 519.04 646.25 L 519.00 664.00 L 509.00 664.00 L 509.00 533.06 L 518.50 533.81 L 519.00 573.96 L 519.50 614.11 L 529.00 602.46 C534.22,596.04 539.62,589.31 541.00,587.50 C545.48,581.58 580.21,538.99 582.89,536.13 C585.21,533.65 586.12,533.37 591.00,533.58 C594.03,533.71 596.70,533.86 596.95,533.91 C597.19,533.96 596.03,535.46 594.37,537.25 C592.71,539.04 587.53,545.22 582.86,551.00 C560.71,578.39 557.00,583.05 557.00,583.45 C557.00,583.81 568.41,603.63 581.49,626.00 C597.58,653.51 603.00,662.94 603.00,663.43 C603.00,663.74 600.41,663.99 597.25,663.99 L 591.50 663.97 L 588.50 658.66 C570.18,626.19 550.37,592.03 549.86,592.01 C549.51,592.01 543.44,599.04 536.36,607.64 C529.29,616.24 522.50,624.45 521.29,625.89 C519.19,628.37 519.07,629.41 519.04,646.25 ZM 399.00 542.87 L 399.00 595.00 L 420.89 595.00 C451.41,595.00 456.89,593.18 463.06,581.00 C464.83,577.49 465.33,574.84 465.32,569.00 C465.30,557.46 461.48,550.50 452.50,545.66 C448.76,543.64 446.87,543.48 423.75,543.19 ZM 112.78 663.49 C109.32,664.31 102.01,664.95 96.50,664.93 C81.29,664.86 69.85,661.15 60.08,653.13 C57.65,651.13 55.22,649.21 54.68,648.85 C54.13,648.48 55.26,646.53 57.25,644.42 L 60.81 640.65 L 65.69 644.74 C76.37,653.68 85.50,656.53 101.05,655.78 C120.54,654.84 130.93,645.89 130.97,630.00 C131.00,620.93 129.60,616.84 124.87,612.10 C119.98,607.22 115.56,605.73 97.82,603.01 C83.60,600.83 75.52,598.33 69.71,594.30 C49.47,580.27 54.14,544.83 77.37,536.13 C90.84,531.09 109.52,531.66 121.38,537.47 C125.29,539.39 130.04,542.26 131.92,543.85 L 135.34 546.73 L 131.95 549.76 L 128.55 552.79 L 123.09 548.88 C116.05,543.84 106.86,541.00 97.58,541.00 C78.42,541.00 67.00,550.80 67.00,567.23 C67.00,574.23 68.68,579.88 71.79,583.32 C73.76,585.51 83.16,590.39 87.34,591.40 C88.90,591.77 96.41,593.16 104.04,594.47 C119.74,597.18 125.83,599.48 131.33,604.80 C139.48,612.67 142.62,622.52 140.89,634.78 C138.79,649.64 128.96,659.68 112.78,663.49 ZM 287.00 622.56 C287.00,622.80 298.92,623.00 313.50,623.00 C328.08,623.00 340.00,622.63 340.00,622.18 C340.00,621.73 336.36,611.27 331.92,598.93 C327.47,586.59 321.63,570.24 318.93,562.59 C316.23,554.95 313.86,548.52 313.65,548.32 C313.45,548.12 312.36,550.55 311.23,553.73 C310.11,556.90 305.28,570.53 300.51,584.00 C295.74,597.47 290.74,611.56 289.42,615.31 C288.09,619.05 287.00,622.32 287.00,622.56 ZM 862.88 650.54 C857.23,652.44 852.58,653.99 852.55,653.98 C850.96,653.53 849.90,651.72 850.16,649.89 C850.45,647.84 851.90,647.02 860.25,644.14 L 870.00 640.78 L 870.00 591.08 L 851.50 590.50 L 851.50 584.50 L 870.00 583.92 L 870.00 546.00 L 861.69 546.00 C852.25,546.00 848.66,544.48 850.61,541.31 C851.61,539.67 853.73,539.47 873.38,539.23 C892.78,538.99 895.11,539.13 895.68,540.62 C897.08,544.26 894.71,545.49 885.64,545.79 L 877.00 546.08 L 877.00 583.92 L 885.64 584.21 C892.41,584.44 894.52,584.86 895.34,586.17 C896.10,587.37 896.02,588.27 895.07,589.42 C894.06,590.63 891.80,591.00 885.38,591.00 L 877.00 591.00 L 877.00 614.00 C877.00,630.83 877.31,637.00 878.16,637.00 C878.81,637.00 882.65,635.18 886.71,632.95 C894.34,628.76 898.00,628.43 898.00,631.91 C898.00,632.89 897.20,634.42 896.22,635.30 C893.27,637.97 873.85,646.85 862.88,650.54 ZM 730.00 538.00 L 730.00 587.00 L 756.00 587.00 L 756.00 538.00 ZM 912.75 653.92 C913.82,654.54 925.07,654.95 941.63,654.97 C963.78,654.99 968.97,654.74 969.93,653.59 C971.20,652.05 971.04,638.32 969.75,638.75 C969.34,638.89 955.95,639.00 940.00,639.00 L 911.00 639.00 L 911.00 645.95 C911.00,651.51 911.35,653.10 912.75,653.92 ZM 911.00 625.12 L 911.00 632.00 L 971.08 632.00 L 970.50 616.50 L 942.12 616.23 C922.02,616.05 913.34,616.30 912.37,617.11 C911.45,617.87 911.00,620.52 911.00,625.12 ZM 651.25 603.42 C650.35,605.12 649.11,609.20 648.49,612.50 C647.31,618.72 646.84,618.42 645.50,610.55 C643.58,599.20 636.51,592.99 621.50,589.47 C618.65,588.81 618.81,588.68 624.50,587.03 C633.51,584.41 635.17,583.54 639.12,579.34 C642.52,575.74 644.97,570.50 646.53,563.50 C647.14,560.77 647.35,561.10 648.92,567.24 C651.72,578.27 657.76,583.89 670.50,587.33 L 675.50 588.68 L 671.00 589.89 C661.09,592.55 654.67,596.95 651.25,603.42 ZM 982.90 583.19 C981.12,586.51 978.04,585.08 976.55,580.25 C976.29,579.38 976.12,578.80 975.74,578.47 C974.97,577.81 973.31,578.18 968.17,579.35 L 967.81 579.43 C964.34,580.21 957.66,581.16 952.96,581.53 C945.82,582.09 944.20,581.94 943.10,580.62 C941.98,579.27 942.33,578.20 945.48,573.46 C948.88,568.34 954.51,557.09 958.39,547.68 C959.64,544.62 960.41,543.92 962.23,544.18 C963.60,544.37 964.61,545.30 964.79,546.52 C965.09,548.59 957.39,567.17 954.57,571.20 C952.45,574.23 952.59,575.00 955.25,574.98 C957.81,574.96 971.07,572.26 971.70,571.63 C971.93,571.40 970.68,568.88 968.92,566.03 C966.03,561.33 965.88,560.69 967.29,559.28 C969.55,557.02 971.56,558.25 975.29,564.21 C980.72,572.87 984.02,581.10 982.90,583.19 ZM 939.29 582.90 C937.14,586.32 934.04,585.10 932.55,580.25 C931.74,577.60 931.49,577.58 924.14,579.40 C921.04,580.17 914.35,581.02 909.28,581.28 C900.78,581.71 900.01,581.59 899.43,579.79 C899.04,578.55 899.54,577.04 900.79,575.66 C903.50,572.69 909.88,561.08 913.92,551.75 C916.68,545.36 917.67,544.00 919.53,544.00 C920.77,544.00 922.05,544.70 922.38,545.55 C923.09,547.39 919.78,555.84 914.13,566.61 C911.89,570.89 910.27,574.60 910.52,574.86 C911.18,575.51 927.92,572.94 928.43,572.11 C928.67,571.73 927.52,569.27 925.88,566.64 C922.72,561.56 922.73,558.00 925.91,558.00 C928.58,558.00 930.39,560.51 935.58,571.40 C939.14,578.87 940.05,581.69 939.29,582.90 ZM 984.69 596.36 C984.12,597.84 980.00,598.00 941.73,598.00 C898.70,598.00 897.00,597.86 897.00,594.34 C897.00,591.26 901.15,590.98 942.10,591.24 C978.73,591.47 983.40,591.68 984.30,593.11 C984.86,594.00 985.04,595.46 984.69,596.36 ZM 794.44 657.31 C781.46,665.03 778.00,665.68 778.00,660.40 C778.00,658.62 779.35,657.45 784.25,654.97 C800.95,646.53 818.80,631.76 829.12,617.84 C831.91,614.08 834.40,611.00 834.66,611.00 C836.34,611.00 839.00,613.36 839.00,614.86 C839.00,617.27 833.60,624.71 826.30,632.34 C818.00,641.02 806.00,650.42 794.44,657.31 ZM 981.50 538.01 C980.88,539.95 979.93,540.00 941.40,540.00 C907.24,540.00 901.86,539.80 901.36,538.50 C901.05,537.67 901.05,536.33 901.36,535.50 C901.86,534.20 907.25,534.00 941.41,534.00 C966.88,534.00 981.10,534.36 981.51,535.01 C981.85,535.56 981.84,536.91 981.50,538.01 ZM 796.85 603.43 C791.06,606.49 785.86,609.00 785.29,609.00 C783.52,609.00 781.80,606.19 782.42,604.30 C782.74,603.30 786.68,600.71 791.25,598.50 C802.99,592.81 815.14,584.29 824.10,575.46 C830.01,569.64 832.39,567.92 834.17,568.17 C835.75,568.39 836.61,569.28 836.84,570.91 C837.11,572.80 835.60,574.83 829.80,580.41 C820.83,589.04 810.80,596.05 796.85,603.43 ZM 793.17 558.29 C784.33,562.22 783.29,562.47 781.15,561.11 C777.73,558.95 780.70,556.41 795.01,549.30 C804.88,544.39 812.32,539.85 818.34,535.05 C823.20,531.17 827.76,528.00 828.47,528.00 C830.33,528.00 832.32,530.73 831.67,532.42 C829.89,537.07 808.39,551.51 793.17,558.29 Z" fill="rgb(0,0,0)"/>
<path d="M 0.00 350.00 L 0.00 0.00 L 513.00 0.00 L 1026.00 0.00 L 1026.00 350.00 L 1026.00 700.00 L 513.00 700.00 L 0.00 700.00 L 0.00 350.00 ZM 112.78 663.49 C128.96,659.68 138.79,649.64 140.89,634.78 C142.62,622.52 139.48,612.67 131.33,604.80 C125.83,599.48 119.74,597.18 104.04,594.47 C96.41,593.16 88.90,591.77 87.34,591.40 C83.16,590.39 73.76,585.51 71.79,583.32 C68.68,579.88 67.00,574.23 67.00,567.23 C67.00,550.80 78.42,541.00 97.58,541.00 C106.86,541.00 116.05,543.84 123.09,548.88 L 128.55 552.79 L 131.95 549.76 L 135.34 546.73 L 131.92 543.85 C130.04,542.26 125.29,539.39 121.38,537.47 C109.52,531.66 90.84,531.09 77.37,536.13 C54.14,544.83 49.47,580.27 69.71,594.30 C75.52,598.33 83.60,600.83 97.82,603.01 C115.56,605.73 119.98,607.22 124.87,612.10 C129.60,616.84 131.00,620.93 130.97,630.00 C130.93,645.89 120.54,654.84 101.05,655.78 C85.50,656.53 76.37,653.68 65.69,644.74 L 60.81 640.65 L 57.25 644.42 C55.26,646.53 54.13,648.48 54.68,648.85 C55.22,649.21 57.65,651.13 60.08,653.13 C69.85,661.15 81.29,664.86 96.50,664.93 C102.01,664.95 109.32,664.31 112.78,663.49 ZM 182.13 639.25 C182.20,625.64 182.23,613.26 182.20,611.75 L 182.14 609.00 L 203.86 609.00 C220.15,609.00 227.05,608.62 231.47,607.47 C247.71,603.24 256.64,593.22 259.07,576.50 C261.80,557.70 251.47,540.78 234.11,535.63 C230.02,534.41 222.92,534.06 200.71,533.95 L 172.50 533.82 L 172.24 598.91 L 171.99 664.00 L 176.99 664.00 L 182.00 664.00 L 182.13 639.25 ZM 277.64 648.00 L 283.50 632.01 L 313.68 632.00 L 343.87 632.00 L 344.55 634.25 C344.93,635.49 347.50,642.69 350.26,650.25 L 355.27 664.00 L 360.74 664.00 C365.55,664.00 366.13,663.79 365.53,662.25 C364.41,659.41 355.60,635.68 349.66,619.50 C346.63,611.25 340.24,593.92 335.46,581.00 C322.25,545.27 319.87,538.70 319.30,536.25 C318.90,534.58 318.05,534.00 315.97,534.00 C314.42,534.00 312.45,533.73 311.57,533.39 C310.40,532.94 309.48,533.93 308.07,537.14 C306.20,541.39 290.88,582.67 272.87,632.00 C267.95,645.47 263.27,658.19 262.47,660.25 L 261.02 664.00 L 266.40 664.00 L 271.78 664.00 L 277.64 648.00 ZM 399.00 634.00 L 399.00 604.00 L 416.75 604.01 L 434.50 604.03 L 442.05 618.76 C446.20,626.87 453.18,640.36 457.55,648.75 L 465.50 663.99 L 471.25 664.00 C474.41,664.00 477.00,663.84 477.00,663.65 C477.00,663.46 475.95,661.32 474.68,658.90 C469.66,649.42 459.92,630.85 453.12,617.83 L 445.99 604.17 L 452.43 602.02 C466.26,597.42 473.99,587.33 475.58,571.81 C476.03,567.37 475.75,563.57 474.64,559.25 C471.86,548.41 466.51,542.04 456.00,537.09 C450.02,534.27 454.27,534.55 404.25,533.75 L 389.00 533.50 L 389.00 598.75 L 389.00 664.00 L 394.00 664.00 L 399.00 664.00 L 399.00 634.00 ZM 519.04 646.25 C519.07,629.41 519.19,628.37 521.29,625.89 C522.50,624.45 529.29,616.24 536.36,607.64 C543.44,599.04 549.51,592.01 549.86,592.01 C550.37,592.03 570.18,626.19 588.50,658.66 L 591.50 663.97 L 597.25 663.99 C600.41,663.99 603.00,663.74 603.00,663.43 C603.00,662.94 597.58,653.51 581.49,626.00 C568.41,603.63 557.00,583.81 557.00,583.45 C557.00,583.05 560.71,578.39 582.86,551.00 C587.53,545.22 592.71,539.04 594.37,537.25 C596.03,535.46 597.19,533.96 596.95,533.91 C596.70,533.86 594.03,533.71 591.00,533.58 C586.12,533.37 585.21,533.65 582.89,536.13 C580.21,538.99 545.48,581.58 541.00,587.50 C539.62,589.31 534.22,596.04 529.00,602.46 L 519.50 614.11 L 519.00 573.96 L 518.50 533.81 L 513.75 533.44 L 509.00 533.06 L 509.00 598.53 L 509.00 664.00 L 514.00 664.00 L 519.00 664.00 L 519.04 646.25 ZM 710.95 661.25 C720.91,652.07 728.59,627.40 729.08,603.01 L 729.26 594.00 L 742.62 594.00 L 755.97 594.00 L 756.24 628.75 L 756.50 663.50 L 759.50 663.50 L 762.50 663.50 L 762.76 628.75 L 763.03 594.00 L 771.89 594.00 C781.45,594.00 783.75,592.93 782.52,589.05 C781.92,587.17 781.06,587.00 772.43,587.00 L 763.00 587.00 L 763.00 562.54 L 763.00 538.08 L 771.14 537.79 C779.68,537.49 782.06,536.20 780.69,532.64 C780.12,531.16 776.40,531.00 743.10,531.00 C706.72,531.00 706.12,531.03 705.48,533.05 C704.29,536.82 706.60,538.00 715.14,538.00 L 723.04 538.00 L 722.77 562.25 L 722.50 586.50 L 713.00 587.00 L 703.50 587.50 L 703.50 590.50 L 703.50 593.50 L 713.02 593.78 L 722.54 594.07 L 721.74 605.70 C720.27,627.20 715.87,642.10 707.90,652.64 C702.75,659.43 702.24,660.84 704.20,662.80 C706.04,664.64 707.69,664.26 710.95,661.25 ZM 794.44 657.31 C806.00,650.42 818.00,641.02 826.30,632.34 C833.60,624.71 839.00,617.27 839.00,614.86 C839.00,613.36 836.34,611.00 834.66,611.00 C834.40,611.00 831.91,614.08 829.12,617.84 C818.80,631.76 800.95,646.53 784.25,654.97 C779.35,657.45 778.00,658.62 778.00,660.40 C778.00,665.68 781.46,665.03 794.44,657.31 ZM 975.55 658.55 C977.99,656.10 978.00,656.04 978.00,635.36 C978.00,615.45 977.91,614.54 975.83,612.31 L 973.65 610.00 L 940.98 610.00 C909.04,610.00 908.27,610.05 906.40,612.10 C904.66,614.04 904.50,615.97 904.50,635.69 C904.50,657.06 904.51,657.19 906.86,659.09 C909.08,660.88 911.20,661.00 941.16,661.00 L 973.09 661.00 L 975.55 658.55 ZM 862.88 650.54 C873.85,646.85 893.27,637.97 896.22,635.30 C897.20,634.42 898.00,632.89 898.00,631.91 C898.00,628.43 894.34,628.76 886.71,632.95 C882.65,635.18 878.81,637.00 878.16,637.00 C877.31,637.00 877.00,630.83 877.00,614.00 L 877.00 591.00 L 885.38 591.00 C891.80,591.00 894.06,590.63 895.07,589.42 C896.02,588.27 896.10,587.37 895.34,586.17 C894.52,584.86 892.41,584.44 885.64,584.21 L 877.00 583.92 L 877.00 565.00 L 877.00 546.08 L 885.64 545.79 C894.71,545.49 897.08,544.26 895.68,540.62 C895.11,539.13 892.78,538.99 873.38,539.23 C853.73,539.47 851.61,539.67 850.61,541.31 C848.66,544.48 852.25,546.00 861.69,546.00 L 870.00 546.00 L 870.00 564.96 L 870.00 583.92 L 860.75 584.21 L 851.50 584.50 L 851.50 587.50 L 851.50 590.50 L 860.75 590.79 L 870.00 591.08 L 870.00 615.93 L 870.00 640.78 L 860.25 644.14 C851.90,647.02 850.45,647.84 850.16,649.89 C849.90,651.72 850.96,653.53 852.55,653.98 C852.58,653.99 857.23,652.44 862.88,650.54 ZM 651.25 603.42 C654.67,596.95 661.09,592.55 671.00,589.89 L 675.50 588.68 L 670.50 587.33 C657.76,583.89 651.72,578.27 648.92,567.24 C647.35,561.10 647.14,560.77 646.53,563.50 C644.97,570.50 642.52,575.74 639.12,579.34 C635.17,583.54 633.51,584.41 624.50,587.03 C618.81,588.68 618.65,588.81 621.50,589.47 C636.51,592.99 643.58,599.20 645.50,610.55 C646.84,618.42 647.31,618.72 648.49,612.50 C649.11,609.20 650.35,605.12 651.25,603.42 ZM 796.85 603.43 C810.80,596.05 820.83,589.04 829.80,580.41 C835.60,574.83 837.11,572.80 836.84,570.91 C836.61,569.28 835.75,568.39 834.17,568.17 C832.39,567.92 830.01,569.64 824.10,575.46 C815.14,584.29 802.99,592.81 791.25,598.50 C786.68,600.71 782.74,603.30 782.42,604.30 C781.80,606.19 783.52,609.00 785.29,609.00 C785.86,609.00 791.06,606.49 796.85,603.43 ZM 984.69 596.36 C985.04,595.46 984.86,594.00 984.30,593.11 C983.40,591.68 978.73,591.47 942.10,591.24 C901.15,590.98 897.00,591.26 897.00,594.34 C897.00,597.86 898.70,598.00 941.73,598.00 C980.00,598.00 984.12,597.84 984.69,596.36 ZM 939.29 582.90 C940.05,581.69 939.14,578.87 935.58,571.40 C930.39,560.51 928.58,558.00 925.91,558.00 C922.73,558.00 922.72,561.56 925.88,566.64 C927.52,569.27 928.67,571.73 928.43,572.11 C927.92,572.94 911.18,575.51 910.52,574.86 C910.27,574.60 911.89,570.89 914.13,566.61 C919.78,555.84 923.09,547.39 922.38,545.55 C922.05,544.70 920.77,544.00 919.53,544.00 C917.67,544.00 916.68,545.36 913.92,551.75 C909.88,561.08 903.50,572.69 900.79,575.66 C899.54,577.04 899.04,578.55 899.43,579.79 C900.01,581.59 900.78,581.71 909.28,581.28 C914.35,581.02 921.04,580.17 924.14,579.40 C931.49,577.58 931.74,577.60 932.55,580.25 C934.04,585.10 937.14,586.32 939.29,582.90 ZM 982.90 583.19 C984.02,581.10 980.72,572.87 975.29,564.21 C971.56,558.25 969.55,557.02 967.29,559.28 C965.88,560.69 966.03,561.33 968.92,566.03 C970.68,568.88 971.93,571.40 971.70,571.63 C971.07,572.26 957.81,574.96 955.25,574.98 C952.59,575.00 952.45,574.23 954.57,571.20 C957.39,567.17 965.09,548.59 964.79,546.52 C964.61,545.30 963.60,544.37 962.23,544.18 C960.41,543.92 959.64,544.62 958.39,547.68 C954.51,557.09 948.88,568.34 945.48,573.46 C942.33,578.20 941.98,579.27 943.10,580.62 C944.20,581.94 945.82,582.09 952.96,581.53 C957.66,581.16 964.34,580.21 967.81,579.43 C975.87,577.60 975.74,577.59 976.55,580.25 C978.04,585.08 981.12,586.51 982.90,583.19 ZM 793.17 558.29 C808.39,551.51 829.89,537.07 831.67,532.42 C832.32,530.73 830.33,528.00 828.47,528.00 C827.76,528.00 823.20,531.17 818.34,535.05 C812.32,539.85 804.88,544.39 795.01,549.30 C780.70,556.41 777.73,558.95 781.15,561.11 C783.29,562.47 784.33,562.22 793.17,558.29 ZM 981.50 538.01 C981.84,536.91 981.85,535.56 981.51,535.01 C981.10,534.36 966.88,534.00 941.41,534.00 C907.25,534.00 901.86,534.20 901.36,535.50 C901.05,536.33 901.05,537.67 901.36,538.50 C901.86,539.80 907.24,540.00 941.40,540.00 C979.93,540.00 980.88,539.95 981.50,538.01 ZM 220.00 470.00 L 220.00 453.00 L 158.00 453.00 L 96.00 453.00 L 96.00 330.50 L 96.00 208.00 L 76.00 208.00 L 56.00 208.00 L 56.00 347.50 L 56.00 487.00 L 138.00 487.00 L 220.00 487.00 L 220.00 470.00 ZM 331.00 347.50 L 331.00 208.00 L 311.50 208.00 L 292.00 208.00 L 292.00 347.50 L 292.00 487.00 L 311.50 487.00 L 331.00 487.00 L 331.00 347.50 ZM 434.26 387.25 C434.59,289.43 434.64,287.36 436.69,280.27 C441.69,263.04 451.11,250.69 463.85,244.65 C470.16,241.66 471.11,241.50 482.50,241.50 C493.66,241.50 494.87,241.69 499.71,244.25 C506.94,248.06 511.13,251.98 514.42,258.03 C520.73,269.62 520.40,263.24 520.74,380.25 L 521.06 487.00 L 539.41 487.00 C557.60,487.00 557.77,486.98 558.36,484.75 C558.69,483.51 558.96,438.40 558.96,384.50 C558.95,279.46 558.77,283.71 564.00,269.74 C568.48,257.77 579.50,246.97 591.50,242.80 C598.98,240.20 613.27,240.38 620.71,243.16 C627.87,245.84 636.47,254.12 640.29,262.00 C646.51,274.83 646.33,271.55 646.72,384.25 L 647.07 487.00 L 665.57 487.00 L 684.07 487.00 L 683.77 377.75 L 683.47 268.50 L 681.24 260.50 C673.05,231.10 653.94,213.93 625.00,209.97 C604.53,207.17 583.96,212.70 568.23,225.22 C561.92,230.24 553.78,239.97 552.49,244.03 C551.56,246.96 550.58,246.45 548.62,242.01 C546.15,236.40 538.82,226.91 533.77,222.77 C513.44,206.13 479.71,204.85 456.00,219.81 C448.90,224.29 439.19,234.23 436.00,240.27 C434.63,242.87 433.17,245.00 432.75,245.00 C432.34,245.00 432.00,238.02 432.00,229.50 L 432.00 214.00 L 414.50 214.00 L 397.00 214.00 L 397.00 350.50 L 397.00 487.00 L 415.46 487.00 L 433.93 487.00 L 434.26 387.25 ZM 878.76 485.44 C909.41,480.51 932.20,469.54 952.44,449.95 C960.99,441.69 970.50,430.16 970.50,428.07 C970.50,426.51 944.92,405.68 944.13,406.60 C943.71,407.09 941.05,410.46 938.24,414.07 C923.27,433.26 898.39,447.71 871.00,453.11 C861.29,455.02 837.14,454.77 828.00,452.66 C800.62,446.34 780.75,433.24 766.32,412.00 C756.05,396.89 747.69,372.89 746.87,356.21 L 746.61 350.91 L 863.01 350.71 L 979.40 350.50 L 979.15 330.50 C978.84,306.30 977.71,298.26 972.12,280.50 C968.43,268.78 960.49,254.17 951.45,242.50 C922.50,205.12 873.95,188.48 821.50,197.96 C770.49,207.18 730.15,245.10 716.12,297.00 C712.23,311.40 710.81,322.90 710.69,341.00 C710.57,359.45 711.54,368.05 715.54,384.03 C721.97,409.73 733.37,430.32 751.00,448.06 C761.55,458.68 769.33,464.52 782.02,471.35 C794.34,477.98 814.71,484.27 830.50,486.31 C839.19,487.44 869.75,486.88 878.76,485.44 ZM 182.23 571.47 L 182.50 542.78 L 204.50 542.93 C216.60,543.01 228.08,543.50 230.02,544.02 C236.04,545.62 242.63,550.51 245.61,555.60 C249.31,561.91 250.24,575.46 247.48,582.69 C245.08,588.98 240.02,594.29 233.74,597.12 C228.81,599.34 227.13,599.50 205.23,599.82 L 181.97 600.16 L 182.23 571.47 ZM 287.00 622.56 C287.00,622.32 288.09,619.05 289.42,615.31 C290.74,611.56 295.74,597.47 300.51,584.00 C305.28,570.53 310.11,556.90 311.23,553.73 C312.36,550.55 313.45,548.12 313.65,548.32 C313.86,548.52 316.23,554.95 318.93,562.59 C321.63,570.24 327.47,586.59 331.92,598.93 C336.36,611.27 340.00,621.73 340.00,622.18 C340.00,622.63 328.08,623.00 313.50,623.00 C298.92,623.00 287.00,622.80 287.00,622.56 ZM 399.00 568.94 L 399.00 542.87 L 423.75 543.19 C446.87,543.48 448.76,543.64 452.50,545.66 C461.48,550.50 465.30,557.46 465.32,569.00 C465.33,574.84 464.83,577.49 463.06,581.00 C456.89,593.18 451.41,595.00 420.89,595.00 L 399.00 595.00 L 399.00 568.94 ZM 730.00 562.50 L 730.00 538.00 L 743.00 538.00 L 756.00 538.00 L 756.00 562.50 L 756.00 587.00 L 743.00 587.00 L 730.00 587.00 L 730.00 562.50 ZM 912.75 653.92 C911.35,653.10 911.00,651.51 911.00,645.95 L 911.00 639.00 L 940.00 639.00 C955.95,639.00 969.34,638.89 969.75,638.75 C971.04,638.32 971.20,652.05 969.93,653.59 C968.97,654.74 963.78,654.99 941.63,654.97 C925.07,654.95 913.82,654.54 912.75,653.92 ZM 911.00 625.12 C911.00,620.52 911.45,617.87 912.37,617.11 C913.34,616.30 922.02,616.05 942.12,616.23 L 970.50 616.50 L 970.79 624.25 L 971.08 632.00 L 941.04 632.00 L 911.00 632.00 L 911.00 625.12 ZM 747.00 314.62 C747.00,309.69 752.09,294.52 756.98,284.87 C772.00,255.25 795.78,236.43 826.50,229.84 C834.38,228.15 859.80,228.17 867.39,229.88 C900.18,237.24 925.78,258.20 937.24,287.06 C940.32,294.83 943.00,307.10 943.00,313.46 L 943.00 318.00 L 845.00 318.00 L 747.00 318.00 L 747.00 314.62 Z" fill="rgb(254,254,254)"/>
</g>
</svg>