<svg width="250" height="125" viewBox="0 0 250 125" fill="none" xmlns="http://www.w3.org/2000/svg">
<g clip-path="url(#clip0_227_2934)">
<path d="M92.1992 9.73833C92.2897 9.91921 92.3801 10.0436 92.4253 10.134C92.9114 10.801 93.3975 11.3775 93.9402 11.8636C94.2567 12.2593 94.5619 12.5306 94.9237 12.8472C95.862 13.6046 96.8342 14.1359 97.9421 14.4525C97.8517 13.6046 97.6369 12.7228 97.2751 11.875C96.7438 10.4958 95.9411 9.16178 95.1837 8.09912L92.2105 9.74963L92.1992 9.73833Z" fill="white"/>
<path d="M92.5949 39.911H112.774V42.2737C112.616 43.8451 111.327 45.2017 109.733 45.2017H92.5949V39.911ZM92.5949 32.1784H112.774V37.3787H92.5949V32.1784ZM92.5949 24.4459H112.774V29.6009H92.5949V24.4459ZM107.71 11.8636C107.088 12.7566 106.466 13.5932 105.844 14.4411H84.1501V17.0638H100.418C100.237 17.8212 100.067 18.5787 99.8413 19.2796C99.6152 20.1726 99.4004 21.0092 99.1743 21.8571H88.7738V47.7679H112.243C114.685 47.7679 116.64 45.8121 116.64 43.3703V21.8684H101.797C102.6 21.111 103.267 20.2631 103.662 19.2909C104.058 18.6352 104.273 17.8778 104.454 17.0864H118.562C119.919 17.0864 120.077 16.4307 120.993 14.3845C121.049 14.2602 121.117 14.1245 121.174 13.9776C120.608 14.2602 119.727 14.4298 118.212 14.4411H109.077C109.88 13.9097 110.637 13.2428 111.304 12.4853C111.485 12.3045 111.655 12.0897 111.791 11.8636C112.458 11.1514 112.989 10.3487 113.52 9.51215L110.004 8.22339C109.247 9.46693 108.49 10.7105 107.698 11.8636" fill="white"/>
<path d="M159.497 16.0012C160.39 18.0474 161.803 19.5622 163.77 20.444L164.709 19.6414C163.816 18.0813 162.934 16.5325 161.996 14.9272L159.508 15.9899L159.497 16.0012Z" fill="white"/>
<path d="M154.738 35.1744H160.515V39.2442H154.738V35.1744ZM154.738 29.0924H160.515V32.936H154.738V29.0924ZM154.738 22.8634H160.515V26.8766H158.887L158.842 26.8992H154.738V22.8747V22.8634ZM151.222 23.1121C150.419 25.1583 149.447 28.6176 148.294 30.4037C149.312 29.5107 150.917 28.4028 151.765 27.2045V41.4712H153.743H153.698L168.27 41.4825C169.412 41.4825 169.604 40.9399 170.384 39.2102C170.429 39.0972 170.486 38.9841 170.542 38.8711C170.067 39.1085 169.242 39.2555 167.953 39.2555H166.981V39.2329H163.465V35.1631H167.659C168.801 35.1631 168.993 34.6205 169.773 32.8908C169.83 32.7891 169.875 32.6647 169.932 32.5517C169.445 32.7891 168.632 32.936 167.343 32.936H166.404V32.9134H163.465V29.0698H167.659C168.801 29.0698 168.993 28.5271 169.773 26.7975C169.83 26.6844 169.875 26.5714 169.932 26.4583C169.445 26.6957 168.632 26.8427 167.343 26.8427H163.477V22.8295H168.292C169.434 22.8295 169.626 22.2868 170.406 20.5572C170.452 20.4441 170.508 20.3311 170.565 20.218C170.09 20.4554 169.265 20.6024 167.976 20.6024H166.551V20.5798H155.179C155.801 18.9745 156.377 17.2901 156.908 15.5604L153.709 15.2439C153.133 17.9571 152.285 20.5798 151.267 23.0669" fill="white"/>
<path d="M137.272 9.8627V11.1175V47.2592V48.8984H138.244C139.295 48.8984 140.155 48.1975 140.46 47.2592H151.979L151.9 47.2819H168.801C170.124 47.2819 170.531 46.3662 171.435 44.3765C171.492 44.2521 171.548 44.1165 171.616 43.9808C171.062 44.2634 169.92 44.7043 168.428 44.7043H165.805V44.6817H140.641V14.9499V13.6385H152.059L152.036 13.6611H168.688C169.988 13.6611 170.237 12.9941 171.13 11.0271C171.186 10.9027 171.243 10.7784 171.3 10.6427C170.746 10.9141 169.796 11.1175 168.315 11.1175H168.145V11.0949H140.641V9.84009H137.26L137.272 9.8627Z" fill="white"/>
<path d="M147.017 22.5354L148.656 20.5232C147.356 17.3691 145.434 15.8995 143.682 15.8542L147.017 22.5241V22.5354Z" fill="white"/>
<path d="M141.082 21.2693L144.62 28.3914L146.248 26.0852C144.959 22.9311 142.811 21.2693 141.183 21.2693H141.093" fill="white"/>
<path d="M141.613 38.2493L143.388 42.8504C146.519 35.864 147.864 27.9054 148.294 24.7852L148.26 24.74C144.857 34.4622 141.986 37.6841 141.602 38.238" fill="white"/>
<path d="M15.6991 75.1145C15.2696 76.765 15.0435 78.4834 15.0435 80.213C15.0435 81.9426 15.2582 83.661 15.6991 85.3115C18.0279 94.1971 25.2857 98.2556 31.0399 98.2556C34.7705 98.2556 38.3993 96.7746 41.2595 94.0841L41.3951 93.9597L38.8176 90.8509L38.682 91.0544C36.6697 94.2197 33.9565 95.9494 31.0286 95.9494C25.2178 95.9494 20.4811 88.8951 20.4811 80.2243C20.4811 71.5535 25.2065 64.5105 31.0286 64.5105C33.9452 64.5105 36.6584 66.2402 38.6707 69.3942L38.8063 69.5977L41.3951 66.4663L41.2595 66.3419C38.3993 63.6513 34.7705 62.1704 31.0399 62.1704C25.2744 62.1704 18.0166 66.2176 15.6991 75.1145Z" fill="white"/>
<path d="M124.384 62.1592C122.813 62.3853 121.253 62.8374 119.783 63.6288C118.551 64.2845 117.398 65.2115 116.437 66.4889C115.623 67.5742 115.092 68.8743 114.911 70.4343C114.775 71.5874 114.832 72.7179 115.205 73.7806C115.6 74.8884 116.177 75.8154 116.866 76.5842C117.703 77.5338 118.63 78.3251 119.602 78.9921C120.688 79.7495 121.807 80.4165 122.937 81.027C124.09 81.6375 125.243 82.2366 126.408 82.8019C127.47 83.3219 128.522 83.8645 129.562 84.475C130.76 85.1985 132.298 86.3742 132.75 88.2282C133.112 89.7318 132.897 91.1788 132.185 92.411C131.45 93.6885 130.387 94.5589 129.313 95.1694C128.047 95.8816 126.713 96.2321 125.345 96.2773C124.441 96.3112 123.525 96.2208 122.643 95.9834C121.739 95.7573 120.857 95.3616 120.032 94.8076C119.207 94.2537 118.449 93.5415 117.782 92.6597C117.341 92.0832 116.98 91.4388 116.674 90.7379L114.063 93.3719C115.171 94.672 116.426 95.6781 117.782 96.4242C119.523 97.3739 121.343 97.9956 123.209 98.2669C125.051 98.5383 126.905 98.4817 128.737 98.0861C130.421 97.713 132.072 97.0912 133.62 96.0964C134.92 95.2598 136.119 94.152 137.08 92.6484C137.894 91.371 138.368 89.9013 138.425 88.2056C138.447 86.996 138.255 85.8542 137.758 84.8594C137.193 83.7515 136.458 82.8697 135.644 82.1462C134.638 81.2644 133.552 80.5296 132.445 79.9191C131.212 79.2408 129.969 78.5964 128.725 77.986C127.719 77.4999 126.713 76.9912 125.707 76.4937C124.689 75.9963 123.695 75.3859 122.756 74.6171C121.942 73.9501 121.185 73.1023 120.642 72.0057C120.021 70.7622 119.987 69.3378 120.314 67.9473C120.597 66.6472 121.208 65.6637 122.033 64.9628C122.869 64.2619 123.796 63.8662 124.746 63.674C125.786 63.4705 126.849 63.4818 127.889 63.6401C128.985 63.8097 130.059 64.1601 131.088 64.6688C132.117 65.1889 133.078 65.8898 133.948 66.8055C134.525 67.4159 135.045 68.1168 135.463 68.9308L137.781 66.5907C136.774 65.528 135.678 64.6801 134.491 64.0358C132.897 63.154 131.235 62.5548 129.528 62.2383C128.567 62.0687 127.595 61.9783 126.634 61.9783C125.888 61.9783 125.142 62.0348 124.396 62.1365" fill="white"/>
<path d="M144.45 63.1086V68.3654C147.118 65.2905 149.436 64.4426 153.325 64.4539H154.173V97.2268H159.305V64.4539H160.153C164.031 64.4539 166.359 65.2905 169.027 68.3654V63.1086H144.473H144.45Z" fill="white"/>
<path d="M205.112 63.1653C206.435 65.7089 206.616 68.3881 206.616 71.7457V97.2269H211.748V81.2757V76.3581V64.4088C214.122 64.4088 216.756 64.1036 219.051 64.8384C219.707 65.0532 220.329 65.3358 220.928 65.6863C224.184 67.6307 226.546 72.0396 224.862 75.9285C223.992 77.9295 222.138 79.5913 220.216 80.3713C219.187 80.7896 218.113 80.9705 217.039 80.9705C216.734 80.9705 216.44 80.9592 216.135 80.9253C215.603 80.8687 215.083 80.767 214.563 80.6087C214.631 80.7218 214.71 80.8235 214.789 80.9366L225.642 97.2269H232.956L223.845 84.4524C221.878 84.8028 219.605 84.5315 217.921 83.1297C221.324 84.1697 225.111 82.6775 227.327 79.8061C228.48 78.3138 229.248 76.4937 229.554 74.5945C229.565 74.4928 229.587 74.391 229.599 74.2893C229.802 72.7292 229.701 71.1239 229.181 69.643C228.559 67.8568 227.338 66.3533 225.891 65.2567C224.274 64.0245 222.488 63.3688 220.51 63.2105C220.171 63.1879 219.831 63.1653 219.492 63.1653H205.124H205.112Z" fill="white"/>
<path d="M71.6923 63.1653V78.8565H54.1471V63.1653H47.5225C48.8564 65.8898 49.026 68.7612 49.026 72.3561V97.2608H54.1471V84.882C54.1471 82.8471 55.4585 81.1513 57.1316 80.8913H71.681V97.2608H76.8134V63.1766H71.681L71.6923 63.1653Z" fill="white"/>
<path d="M84.399 63.1653C85.733 65.8785 85.9025 68.7499 85.9025 72.3448V97.2269H107.71V91.9136C103.142 96.5825 97.4561 95.9042 91.8715 95.9042H91.0237V84.8594C91.0237 82.6549 92.5611 80.8348 94.4603 80.8348H102.046V78.8452H91.0237V64.488H91.8715C97.4561 64.488 102.34 63.8097 106.896 68.4786V63.1766H84.3877L84.399 63.1653Z" fill="white"/>
<path d="M175.754 63.1653C177.088 65.8785 177.257 68.7499 177.257 72.3448V97.2269H199.064V91.9136C194.497 96.5825 188.811 95.9042 183.226 95.9042H182.378V84.8594C182.378 82.6549 183.916 80.8348 185.815 80.8348H193.401V78.8452H182.378V64.488H183.226C188.811 64.488 193.694 63.8097 198.25 68.4786V63.1766H175.742L175.754 63.1653Z" fill="white"/>
<path d="M42.9777 110.929C42.9777 110.929 42.9664 110.951 42.9437 110.951H41.0106V116.084C41.0106 116.084 40.9993 116.117 40.9767 116.117H40.1854C40.1854 116.117 40.1627 116.117 40.1627 116.095V110.951H38.32C38.32 110.951 38.2861 110.951 38.2861 110.929V110.137C38.2861 110.137 38.2861 110.103 38.32 110.103H42.9664C42.9664 110.103 42.989 110.103 42.989 110.137V110.94L42.9777 110.929Z" fill="white"/>
<path d="M49.2632 116.084C49.2632 116.084 49.2519 116.106 49.2293 116.106H48.4492C48.4492 116.106 48.4153 116.106 48.4153 116.084V113.246H45.2612L45.2273 113.28V116.084C45.2273 116.084 45.216 116.118 45.1934 116.118H44.4021C44.4021 116.118 44.3682 116.106 44.3682 116.084V110.126C44.3682 110.126 44.3795 110.092 44.4021 110.092H45.1934C45.1934 110.092 45.2273 110.103 45.2273 110.126V110.16V112.308C45.2273 112.308 45.2612 112.387 45.2952 112.387L48.404 112.364V110.115C48.404 110.115 48.4153 110.092 48.4379 110.092H49.2406C49.2406 110.092 49.2632 110.092 49.2632 110.115V116.084Z" fill="white"/>
<path d="M55.0062 116.095C55.0062 116.095 54.9949 116.129 54.9723 116.129H51.1399C51.1399 116.129 51.106 116.117 51.0947 116.095V110.137C51.0947 110.137 51.1173 110.115 51.1286 110.115H54.8253C54.8253 110.115 54.8593 110.114 54.8593 110.137V110.928C54.8593 110.928 54.8479 110.962 54.8253 110.962H51.9539V112.409H54.0792C54.0792 112.409 54.1131 112.409 54.1131 112.432V113.223C54.1131 113.223 54.1018 113.257 54.0679 113.257H51.9878C51.9878 113.257 51.9652 113.269 51.9652 113.302V115.258H54.9949C54.9949 115.258 55.0175 115.258 55.0175 115.281V116.072L55.0062 116.095Z" fill="white"/>
<path d="M64.8641 115.53C64.5363 115.801 64.1406 116.004 63.6771 116.118C63.3154 116.219 62.9536 116.264 62.5919 116.264C61.5179 116.264 60.6813 115.88 60.0709 115.111C59.6187 114.546 59.3926 113.89 59.3926 113.133C59.3926 112.816 59.4378 112.511 59.5169 112.206C59.6526 111.709 59.9126 111.268 60.297 110.872C60.6813 110.476 61.1222 110.205 61.597 110.069C62.0266 109.945 62.5579 109.911 63.191 109.968C63.711 110.024 64.2198 110.194 64.7285 110.465V111.494C64.0276 111.042 63.3154 110.804 62.5919 110.804C62.0944 110.804 61.6649 110.929 61.3031 111.177C60.6474 111.618 60.3309 112.274 60.3309 113.133C60.3309 113.269 60.3309 113.404 60.3648 113.54C60.41 113.947 60.6135 114.32 60.9527 114.67C61.2918 115.021 61.6762 115.247 62.0831 115.337C62.2753 115.383 62.4675 115.405 62.6597 115.405C63.1232 115.405 63.5641 115.281 63.9937 115.044V113.585L63.9598 113.551H62.8406V113.529V112.715H64.8641L64.8868 112.737V115.507L64.8641 115.53Z" fill="white"/>
<path d="M71.2173 116.084C71.2173 116.084 71.2173 116.117 71.1947 116.117C71.1608 116.117 71.1494 116.117 71.1381 116.117H70.1772L68.278 113.551H67.4528L67.4188 116.117H66.6049L66.5823 116.061V110.103H66.6501H67.7241C68.4024 110.103 68.9111 110.16 69.2389 110.284C69.7363 110.476 70.0642 110.827 70.2225 111.358C70.2677 111.528 70.3016 111.686 70.3016 111.856C70.3016 112.251 70.1885 112.59 69.9511 112.873C69.8155 113.043 69.5781 113.201 69.2389 113.336V113.37C69.6685 113.97 70.3242 114.874 71.206 116.084M69.3068 111.652C69.2163 111.324 68.9676 111.109 68.5493 111.008C68.3458 110.962 67.9954 110.94 67.4867 110.94L67.4528 110.962V112.669H67.758C67.9163 112.669 68.0293 112.669 68.0971 112.669C68.5832 112.669 68.9224 112.568 69.1033 112.364C69.2502 112.195 69.3294 112.014 69.3294 111.81C69.3294 111.754 69.3294 111.697 69.3068 111.641" fill="white"/>
<path d="M77.5932 116.072C77.5932 116.072 77.5932 116.118 77.5706 116.118H76.7114C76.7114 116.118 76.6662 116.118 76.6662 116.095L76.101 114.671H73.4443L72.8791 116.095C72.8791 116.095 72.8565 116.118 72.8339 116.118H71.9634C71.9634 116.118 71.9295 116.106 71.9408 116.072L74.3374 110.126C74.3374 110.126 74.3487 110.103 74.3826 110.092H75.1627C75.1627 110.092 75.1853 110.115 75.2079 110.126L77.5932 116.072ZM75.7505 113.823L74.767 111.369L73.7948 113.823H75.7618H75.7505Z" fill="white"/>
<path d="M84.2294 110.126V116.072C84.2294 116.072 84.2181 116.106 84.1954 116.106H83.325C83.325 116.106 83.2911 116.106 83.2911 116.084L79.7187 111.482V116.061C79.7187 116.061 79.7074 116.095 79.6848 116.095H78.9048C78.9048 116.095 78.8708 116.095 78.8708 116.061V110.103C78.8708 110.103 78.8709 110.069 78.9048 110.069H79.6961C79.6961 110.069 79.73 110.081 79.7752 110.103L83.3815 114.727V110.103C83.3815 110.103 83.3815 110.069 83.4154 110.069H84.1954C84.1954 110.069 84.2294 110.081 84.2294 110.103" fill="white"/>
<path d="M91.2496 113.099C91.2496 113.936 90.9556 114.648 90.3565 115.236C89.7573 115.824 89.0564 116.118 88.2199 116.118H86.0832C86.0832 116.118 86.0493 116.118 86.0493 116.084V110.115C86.0493 110.115 86.0606 110.092 86.0832 110.092H88.1859C88.7738 110.092 89.3164 110.239 89.8138 110.544C90.2547 110.816 90.6052 111.166 90.8539 111.618C91.1139 112.07 91.2383 112.556 91.2383 113.088M90.4017 113.099C90.4017 112.511 90.1869 112.003 89.746 111.584C89.3051 111.166 88.7851 110.951 88.1859 110.951H86.9198V115.258H88.2425C88.8416 115.258 89.3503 115.044 89.7686 114.625C90.1869 114.207 90.4017 113.698 90.4017 113.099Z" fill="white"/>
<path d="M100.881 111.471C100.881 111.471 100.847 111.516 100.825 111.505C100.814 111.505 100.746 111.471 100.633 111.415C100.067 111.053 99.4456 110.872 98.7899 110.872C98.3038 110.872 97.8969 110.985 97.5464 111.222C96.8568 111.675 96.5063 112.319 96.5063 113.156C96.5063 113.608 96.6533 114.037 96.9359 114.41C97.2299 114.795 97.5916 115.066 98.0212 115.224C98.2699 115.315 98.5186 115.349 98.7673 115.349C99.3552 115.349 100.045 115.089 100.836 114.557C100.836 114.591 100.847 114.625 100.836 114.659V115.564C100.26 116.004 99.5587 116.219 98.7447 116.219C98.2247 116.219 97.7499 116.117 97.3316 115.914C96.8003 115.654 96.3707 115.281 96.0542 114.772C95.7376 114.263 95.5793 113.71 95.5793 113.11C95.5793 111.991 96.0428 111.121 96.9585 110.476C97.456 110.126 98.0551 109.956 98.7786 109.956C99.5587 109.956 100.226 110.148 100.791 110.522L100.836 110.589V111.471H100.881Z" fill="white"/>
<path d="M107.223 116.084C107.223 116.084 107.223 116.117 107.201 116.117C107.167 116.117 107.156 116.117 107.144 116.117H106.183L104.284 113.551H103.459L103.425 116.117H102.611L102.588 116.061V110.103H102.656H103.73C104.408 110.103 104.917 110.16 105.245 110.284C105.742 110.476 106.07 110.827 106.229 111.358C106.274 111.528 106.308 111.686 106.308 111.856C106.308 112.251 106.195 112.59 105.957 112.873C105.822 113.043 105.584 113.201 105.245 113.336V113.37C105.675 113.97 106.33 114.874 107.212 116.084M105.324 111.652C105.234 111.324 104.985 111.109 104.567 111.008C104.363 110.962 104.013 110.94 103.504 110.94L103.47 110.962V112.669H103.775C103.934 112.669 104.047 112.669 104.115 112.669C104.601 112.669 104.94 112.568 105.121 112.364C105.268 112.195 105.347 112.014 105.347 111.81C105.347 111.754 105.347 111.697 105.324 111.641" fill="white"/>
<path d="M113.769 110.126V113.529C113.769 114.275 113.509 114.908 112.978 115.428C112.458 115.948 111.824 116.208 111.078 116.208C110.332 116.208 109.71 115.948 109.19 115.428C108.67 114.908 108.41 114.275 108.41 113.54V110.137C108.41 110.137 108.41 110.115 108.444 110.115H109.236C109.236 110.115 109.27 110.114 109.27 110.137V113.529C109.27 114.026 109.45 114.456 109.801 114.817C110.151 115.179 110.581 115.36 111.078 115.36C111.576 115.36 112.017 115.179 112.367 114.829C112.729 114.478 112.898 114.037 112.898 113.54V110.148C112.898 110.148 112.91 110.126 112.932 110.126H113.724C113.724 110.126 113.746 110.126 113.746 110.148" fill="white"/>
<path d="M123.943 114.557C123.683 115.066 123.31 115.473 122.813 115.778C122.327 116.084 121.795 116.242 121.23 116.242C120.62 116.242 120.054 116.084 119.534 115.744C119.014 115.405 118.63 114.953 118.393 114.388C118.223 113.981 118.144 113.551 118.144 113.088C118.144 112.251 118.393 111.539 118.913 110.974C119.546 110.273 120.337 109.922 121.287 109.922C121.456 109.922 121.626 109.934 121.807 109.956C122.587 110.069 123.254 110.522 123.808 111.313C124.136 111.776 124.294 112.342 124.294 113.031C124.294 113.596 124.181 114.105 123.943 114.557ZM123.197 112.183C123.095 111.923 122.937 111.686 122.722 111.471C122.496 111.245 122.259 111.087 121.999 110.996C121.75 110.906 121.479 110.861 121.219 110.861C120.586 110.861 120.077 111.075 119.681 111.505C119.286 111.935 119.094 112.466 119.094 113.088C119.094 113.382 119.139 113.676 119.24 113.947C119.354 114.275 119.557 114.557 119.851 114.806C120.145 115.055 120.461 115.213 120.789 115.281C120.925 115.303 121.072 115.315 121.196 115.315C121.75 115.315 122.236 115.111 122.688 114.704C123.129 114.297 123.355 113.755 123.355 113.076C123.355 112.771 123.299 112.466 123.186 112.183" fill="white"/>
<path d="M129.426 110.917C129.426 110.917 129.415 110.951 129.392 110.951L126.521 110.974V112.409H128.646C128.646 112.409 128.68 112.409 128.68 112.443V113.235C128.68 113.235 128.669 113.269 128.635 113.269C127.312 113.28 126.623 113.28 126.589 113.269C126.543 113.291 126.521 113.303 126.521 113.336V116.095C126.521 116.095 126.51 116.129 126.487 116.129H125.707C125.707 116.129 125.673 116.129 125.673 116.095V110.126C125.673 110.126 125.673 110.103 125.707 110.103H129.404C129.404 110.103 129.438 110.103 129.438 110.126V110.917H129.426Z" fill="white"/>
<path d="M139.352 116.084C139.352 116.084 139.341 116.118 139.318 116.118H138.527C138.527 116.118 138.493 116.118 138.493 116.095V111.392C137.577 112.568 136.876 113.438 136.39 113.992H136.356C135.542 112.986 134.819 112.093 134.174 111.336V116.084C134.174 116.084 134.163 116.118 134.14 116.118H133.36C133.36 116.118 133.326 116.118 133.326 116.095V110.126C133.326 110.126 133.326 110.092 133.36 110.092H134.163C134.163 110.092 134.174 110.092 134.174 110.126C134.638 110.657 135.361 111.55 136.367 112.794L138.481 110.126C138.481 110.126 138.493 110.092 138.515 110.092H139.307C139.307 110.092 139.329 110.092 139.329 110.126V116.084H139.352Z" fill="white"/>
<path d="M141.85 116.084C141.85 116.084 141.839 116.118 141.816 116.118H141.025C141.025 116.118 141.002 116.118 141.002 116.095V110.126C141.002 110.126 141.002 110.092 141.036 110.092H141.828C141.828 110.092 141.85 110.092 141.85 110.126V116.084Z" fill="white"/>
<path d="M148.69 113.099C148.69 113.936 148.396 114.648 147.797 115.236C147.198 115.824 146.485 116.118 145.66 116.118H143.523C143.523 116.118 143.49 116.118 143.49 116.084V110.115C143.49 110.115 143.49 110.092 143.523 110.092H145.626C146.214 110.092 146.757 110.239 147.254 110.544C147.695 110.816 148.045 111.166 148.305 111.618C148.565 112.07 148.69 112.556 148.69 113.088M147.842 113.099C147.842 112.511 147.627 112.003 147.186 111.584C146.745 111.166 146.225 110.951 145.626 110.951H144.36V115.258H145.683C146.282 115.258 146.791 115.044 147.209 114.625C147.627 114.207 147.842 113.698 147.842 113.099Z" fill="white"/>
<path d="M154.308 110.929C154.308 110.929 154.297 110.951 154.274 110.951H152.341V116.084C152.341 116.084 152.33 116.117 152.307 116.117H151.516C151.516 116.117 151.493 116.117 151.493 116.095V110.951H149.651C149.651 110.951 149.617 110.951 149.617 110.929V110.137C149.617 110.137 149.628 110.103 149.651 110.103H154.297C154.297 110.103 154.32 110.103 154.32 110.137V110.94L154.308 110.929Z" fill="white"/>
<path d="M161.023 114.557C160.763 115.066 160.379 115.473 159.893 115.778C159.407 116.084 158.875 116.242 158.31 116.242C157.7 116.242 157.134 116.084 156.614 115.744C156.094 115.405 155.71 114.953 155.473 114.388C155.303 113.981 155.213 113.551 155.213 113.088C155.213 112.251 155.473 111.539 155.981 110.974C156.603 110.273 157.394 109.922 158.355 109.922C158.525 109.922 158.695 109.934 158.875 109.956C159.655 110.069 160.322 110.522 160.876 111.313C161.204 111.776 161.374 112.342 161.374 113.031C161.374 113.596 161.261 114.105 161.023 114.557ZM160.277 112.183C160.175 111.923 160.017 111.686 159.802 111.471C159.576 111.245 159.339 111.087 159.09 110.996C158.83 110.906 158.57 110.861 158.299 110.861C157.666 110.861 157.157 111.075 156.761 111.505C156.366 111.935 156.174 112.466 156.174 113.088C156.174 113.382 156.219 113.676 156.321 113.947C156.434 114.275 156.637 114.557 156.931 114.806C157.225 115.055 157.541 115.213 157.869 115.281C158.005 115.303 158.141 115.315 158.276 115.315C158.819 115.315 159.316 115.111 159.769 114.704C160.221 114.297 160.436 113.755 160.436 113.076C160.436 112.771 160.379 112.466 160.266 112.183" fill="white"/>
<path d="M170.474 110.092L168.609 116.084C168.609 116.084 168.575 116.118 168.564 116.118H167.716C167.716 116.118 167.693 116.106 167.693 116.084L166.393 111.856C166.393 111.856 166.359 111.856 166.359 111.89L165.082 116.084C165.082 116.084 165.059 116.118 165.037 116.118H164.155C164.155 116.118 164.121 116.118 164.121 116.084C163.16 113.054 162.516 111.087 162.199 110.171C162.176 110.115 162.176 110.092 162.199 110.092C162.403 110.092 162.742 110.092 163.217 110.092L164.528 114.501C164.528 114.501 164.539 114.535 164.551 114.569C164.562 114.546 164.573 114.512 164.584 114.49L165.918 110.205H166.857C167.151 111.053 167.592 112.455 168.191 114.411L169.479 110.149L169.547 110.103H170.463L170.474 110.092Z" fill="white"/>
<path d="M176.929 110.126V116.072C176.929 116.072 176.918 116.106 176.895 116.106H176.025C176.025 116.106 175.991 116.106 175.991 116.084L172.419 111.482V116.061C172.419 116.061 172.407 116.095 172.385 116.095H171.605C171.605 116.095 171.571 116.095 171.571 116.061V110.103C171.571 110.103 171.571 110.069 171.605 110.069H172.396C172.396 110.069 172.43 110.081 172.475 110.103L176.081 114.727V110.103C176.081 110.103 176.081 110.069 176.115 110.069H176.895C176.895 110.069 176.929 110.081 176.929 110.103" fill="white"/>
<path d="M184.741 113.63C184.82 113.856 184.865 114.083 184.865 114.32C184.865 114.84 184.696 115.281 184.368 115.62C183.984 116.027 183.497 116.23 182.932 116.23C182.683 116.23 182.457 116.185 182.231 116.095C182.005 116.004 181.802 115.846 181.609 115.643C181.417 115.428 181.282 115.202 181.203 114.953L181.892 114.478C181.926 114.546 181.971 114.648 182.028 114.761C182.243 115.145 182.57 115.337 183 115.337C183.35 115.337 183.61 115.202 183.78 114.93C183.904 114.727 183.961 114.512 183.961 114.297C183.961 114.083 183.893 113.902 183.757 113.755C183.599 113.585 183.373 113.427 183.068 113.28C182.797 113.156 182.536 113.02 182.276 112.896C181.768 112.624 181.463 112.319 181.361 111.969C181.316 111.822 181.293 111.663 181.293 111.516C181.293 111.177 181.395 110.883 181.587 110.646C181.926 110.216 182.356 110.001 182.876 110.001C183.011 110.001 183.158 110.013 183.294 110.047C183.509 110.103 183.724 110.205 183.938 110.375C184.142 110.533 184.3 110.714 184.391 110.895C184.221 111.008 183.984 111.166 183.667 111.381C183.452 111.053 183.203 110.895 182.91 110.895C182.853 110.895 182.785 110.895 182.717 110.917C182.593 110.951 182.48 111.019 182.401 111.132C182.31 111.245 182.276 111.369 182.276 111.494C182.276 111.742 182.39 111.923 182.627 112.048C183.034 112.24 183.441 112.421 183.837 112.613C184.289 112.873 184.594 113.201 184.741 113.608" fill="white"/>
<path d="M191.761 114.557C191.501 115.066 191.128 115.473 190.631 115.778C190.145 116.084 189.613 116.242 189.048 116.242C188.438 116.242 187.872 116.084 187.352 115.744C186.832 115.405 186.448 114.953 186.211 114.388C186.041 113.981 185.962 113.551 185.962 113.088C185.962 112.251 186.211 111.539 186.731 110.974C187.364 110.273 188.155 109.922 189.105 109.922C189.274 109.922 189.444 109.934 189.625 109.956C190.405 110.069 191.072 110.522 191.626 111.313C191.953 111.776 192.112 112.342 192.112 113.031C192.112 113.596 191.999 114.105 191.761 114.557ZM191.015 112.183C190.913 111.923 190.755 111.686 190.54 111.471C190.314 111.245 190.077 111.087 189.817 110.996C189.568 110.906 189.297 110.861 189.037 110.861C188.404 110.861 187.895 111.075 187.499 111.505C187.104 111.935 186.912 112.466 186.912 113.088C186.912 113.382 186.957 113.676 187.058 113.947C187.172 114.275 187.375 114.557 187.669 114.806C187.963 115.055 188.279 115.213 188.607 115.281C188.743 115.303 188.89 115.315 189.014 115.315C189.568 115.315 190.054 115.111 190.506 114.704C190.947 114.297 191.173 113.755 191.173 113.076C191.173 112.771 191.117 112.466 191.004 112.183" fill="white"/>
<path d="M198.748 110.126V113.529C198.748 114.275 198.488 114.908 197.968 115.428C197.448 115.948 196.815 116.208 196.068 116.208C195.322 116.208 194.701 115.948 194.181 115.428C193.661 114.908 193.401 114.275 193.401 113.54V110.137C193.401 110.137 193.412 110.115 193.434 110.115H194.226C194.226 110.115 194.26 110.114 194.26 110.137V113.529C194.26 114.026 194.441 114.456 194.791 114.817C195.153 115.179 195.571 115.36 196.068 115.36C196.566 115.36 197.007 115.179 197.357 114.829C197.708 114.478 197.889 114.037 197.889 113.54V110.148C197.889 110.148 197.889 110.126 197.922 110.126H198.714C198.714 110.126 198.736 110.126 198.736 110.148" fill="white"/>
<path d="M204.547 110.929C204.547 110.929 204.536 110.951 204.513 110.951H202.58V116.084C202.58 116.084 202.569 116.117 202.546 116.117H201.755C201.755 116.117 201.732 116.117 201.732 116.095V110.951H199.89C199.89 110.951 199.856 110.951 199.856 110.929V110.137C199.856 110.137 199.856 110.103 199.89 110.103H204.536C204.536 110.103 204.558 110.103 204.558 110.137V110.94L204.547 110.929Z" fill="white"/>
<path d="M210.652 116.084C210.652 116.084 210.64 116.106 210.618 116.106H209.838C209.838 116.106 209.804 116.106 209.804 116.084V113.246H206.65L206.616 113.28V116.084C206.616 116.084 206.605 116.118 206.582 116.118H205.791C205.791 116.118 205.757 116.106 205.757 116.084V110.126C205.757 110.126 205.768 110.092 205.791 110.092H206.582C206.582 110.092 206.616 110.103 206.616 110.126V110.16V112.308C206.616 112.308 206.65 112.387 206.684 112.387L209.793 112.364V110.115C209.793 110.115 209.804 110.092 209.826 110.092H210.629C210.629 110.092 210.652 110.092 210.652 110.115V116.084Z" fill="white"/>
<path d="M38.3088 110.092C38.3088 110.092 38.2749 110.103 38.2749 110.126V110.917C38.2749 110.917 38.2749 110.951 38.3088 110.951H40.1515V116.084C40.1515 116.084 40.1515 116.106 40.1741 116.106H40.9655C40.9655 116.106 40.9994 116.095 40.9994 116.072V110.951H42.9325C42.9325 110.951 42.9664 110.929 42.9664 110.917V110.115C42.9664 110.115 42.9664 110.092 42.9325 110.092H38.2862H38.3088Z" fill="white"/>
<path d="M48.4379 110.081C48.4379 110.081 48.404 110.081 48.404 110.103V112.353L45.2952 112.375C45.2952 112.375 45.2273 112.342 45.2273 112.296V110.148V110.114C45.2273 110.114 45.2273 110.081 45.1934 110.081H44.4021C44.4021 110.081 44.3682 110.092 44.3682 110.114V116.072C44.3682 116.072 44.3795 116.106 44.4021 116.106H45.1934C45.1934 116.106 45.2273 116.095 45.2273 116.072V113.269L45.2612 113.235H48.4153V116.072C48.4153 116.072 48.4153 116.095 48.4492 116.095H49.2293C49.2293 116.095 49.2632 116.095 49.2632 116.072V110.103C49.2632 110.103 49.2632 110.081 49.2519 110.081H48.4492H48.4379Z" fill="white"/>
<path d="M51.1172 110.103C51.1172 110.103 51.0833 110.103 51.0833 110.126V116.084C51.0833 116.084 51.1059 116.117 51.1285 116.117H54.9608C54.9608 116.117 54.9947 116.106 54.9947 116.084V115.292C54.9947 115.292 54.9947 115.27 54.9608 115.27H51.9311V113.314C51.9311 113.314 51.9424 113.269 51.9537 113.269H54.0338C54.0338 113.269 54.079 113.257 54.079 113.235V112.443C54.079 112.443 54.079 112.421 54.0451 112.421H51.9198V110.974H54.7913C54.7913 110.974 54.8252 110.951 54.8252 110.929V110.137C54.8252 110.137 54.8139 110.115 54.7913 110.115H51.0946L51.1172 110.103Z" fill="white"/>
<path d="M61.6083 110.081C61.1221 110.216 60.6926 110.488 60.3082 110.883C59.9238 111.279 59.6638 111.72 59.5282 112.217C59.4377 112.511 59.4038 112.828 59.4038 113.144C59.4038 113.902 59.6299 114.557 60.0821 115.123C60.6926 115.891 61.5291 116.276 62.6031 116.276C62.9648 116.276 63.3266 116.231 63.6884 116.129C64.1519 116.016 64.5475 115.824 64.8754 115.541V112.771L64.8528 112.749H62.8292V113.574H63.9597L63.9936 113.608V115.066C63.564 115.315 63.1231 115.428 62.6596 115.428C62.4674 115.428 62.2752 115.405 62.0831 115.36C61.6761 115.258 61.303 115.044 60.9526 114.693C60.6134 114.343 60.4099 113.97 60.3647 113.563C60.3421 113.427 60.3421 113.291 60.3421 113.156C60.3421 112.296 60.67 111.641 61.3143 111.2C61.6761 110.951 62.1057 110.827 62.6031 110.827C63.3266 110.827 64.0388 111.053 64.7397 111.505V110.476C64.231 110.194 63.711 110.024 63.2022 109.979C62.9988 109.956 62.8066 109.945 62.6257 109.945C62.2413 109.945 61.9022 109.99 61.6196 110.081" fill="white"/>
<path d="M67.464 110.974L67.4979 110.951C68.0066 110.951 68.3571 110.974 68.5606 111.019C68.9788 111.121 69.2275 111.336 69.318 111.663C69.318 111.72 69.3293 111.776 69.3293 111.833C69.3293 112.036 69.2502 112.229 69.1032 112.387C68.9223 112.59 68.5832 112.692 68.0971 112.692C68.0292 112.692 67.9162 112.692 67.7579 112.692H67.4527V110.985L67.464 110.974ZM67.7353 110.092H66.5935V116.061L66.6161 116.118H67.4301L67.464 113.551H68.2892L70.1885 116.118H71.1494C71.1494 116.118 71.172 116.118 71.2059 116.118C71.2172 116.118 71.2285 116.106 71.2285 116.084C70.3467 114.874 69.7024 113.981 69.2615 113.37V113.337C69.6006 113.201 69.838 113.043 69.9737 112.873C70.2111 112.59 70.3241 112.251 70.3241 111.856C70.3241 111.686 70.3015 111.516 70.245 111.358C70.0867 110.827 69.7589 110.465 69.2615 110.284C68.9449 110.16 68.4701 110.103 67.8483 110.103C67.8144 110.103 67.7805 110.103 67.7466 110.103" fill="white"/>
<path d="M74.7671 111.358L75.7506 113.811H73.7948L74.7671 111.358ZM74.3827 110.092C74.3827 110.092 74.3375 110.115 74.3375 110.126L71.9521 116.072C71.9521 116.072 71.9521 116.118 71.9748 116.118H72.8339C72.8339 116.118 72.8791 116.118 72.8791 116.095L73.4444 114.671H76.101L76.6663 116.095C76.6663 116.095 76.6889 116.118 76.7115 116.118H77.5707C77.5707 116.118 77.6046 116.106 77.5933 116.072L75.208 110.126C75.208 110.126 75.174 110.092 75.1627 110.092H74.3827Z" fill="white"/>
<path d="M83.4152 110.092C83.4152 110.092 83.3813 110.103 83.3813 110.126V114.75L79.775 110.126C79.775 110.126 79.7185 110.092 79.6959 110.092H78.9045C78.9045 110.092 78.8706 110.103 78.8706 110.126V116.084C78.8706 116.084 78.8706 116.106 78.9045 116.106H79.6846C79.6846 116.106 79.7185 116.095 79.7185 116.072V111.494L83.2908 116.095C83.2908 116.095 83.3134 116.118 83.3247 116.118H84.1952C84.1952 116.118 84.2291 116.106 84.2291 116.084V110.137C84.2291 110.137 84.2178 110.103 84.1952 110.103H83.4152V110.092Z" fill="white"/>
<path d="M86.9198 110.951H88.186C88.7851 110.951 89.3052 111.155 89.7461 111.584C90.187 112.003 90.4018 112.511 90.4018 113.099C90.4018 113.687 90.187 114.207 89.7687 114.625C89.3504 115.044 88.8417 115.258 88.2425 115.258H86.9198V110.951ZM86.0946 110.092C86.0946 110.092 86.0607 110.092 86.0607 110.115V116.084C86.0607 116.084 86.0607 116.106 86.0946 116.106H88.2312C89.0678 116.106 89.78 115.812 90.3678 115.224C90.967 114.637 91.2609 113.924 91.2609 113.088C91.2609 112.556 91.1366 112.07 90.8766 111.618C90.6165 111.166 90.2661 110.804 89.8365 110.544C89.3391 110.239 88.8078 110.092 88.2086 110.092H86.1059H86.0946Z" fill="white"/>
<path d="M96.9925 110.476C96.0768 111.121 95.6133 112.002 95.6133 113.11C95.6133 113.709 95.7716 114.263 96.0881 114.772C96.4046 115.281 96.8229 115.665 97.3655 115.914C97.7838 116.117 98.2586 116.219 98.7787 116.219C99.5926 116.219 100.294 116.004 100.87 115.563V114.659C100.87 114.659 100.87 114.591 100.87 114.557C100.079 115.089 99.3891 115.349 98.8013 115.349C98.5526 115.349 98.3038 115.303 98.0551 115.224C97.6143 115.066 97.2525 114.795 96.9699 114.41C96.6759 114.026 96.5403 113.608 96.5403 113.156C96.5403 112.319 96.8907 111.675 97.5803 111.222C97.9308 110.985 98.3378 110.872 98.8239 110.872C99.4796 110.872 100.101 111.053 100.667 111.415C100.78 111.471 100.847 111.505 100.859 111.505C100.881 111.505 100.893 111.505 100.915 111.471V110.601L100.859 110.533C100.294 110.16 99.6152 109.968 98.8465 109.968C98.1343 109.968 97.5238 110.137 97.0264 110.488" fill="white"/>
<path d="M103.47 110.974L103.504 110.951C104.013 110.951 104.363 110.974 104.555 111.019C104.974 111.121 105.234 111.336 105.313 111.663C105.313 111.72 105.324 111.776 105.324 111.833C105.324 112.036 105.245 112.229 105.098 112.387C104.917 112.59 104.578 112.692 104.092 112.692C104.024 112.692 103.911 112.692 103.753 112.692H103.448V110.985L103.47 110.974ZM103.753 110.092H102.611V116.061L102.634 116.118H103.448L103.47 113.551H104.295L106.195 116.118H107.156C107.156 116.118 107.178 116.118 107.212 116.118C107.235 116.118 107.235 116.106 107.235 116.084C106.353 114.874 105.708 113.981 105.268 113.37V113.337C105.607 113.201 105.844 113.043 105.98 112.873C106.206 112.59 106.33 112.251 106.33 111.856C106.33 111.686 106.308 111.516 106.251 111.358C106.093 110.827 105.765 110.465 105.268 110.284C104.951 110.16 104.476 110.103 103.854 110.103C103.821 110.103 103.787 110.103 103.753 110.103" fill="white"/>
<path d="M112.955 110.092C112.955 110.092 112.921 110.092 112.921 110.114V113.506C112.921 114.015 112.74 114.444 112.39 114.795C112.039 115.145 111.598 115.326 111.101 115.326C110.604 115.326 110.174 115.145 109.824 114.783C109.462 114.422 109.292 113.992 109.292 113.495V110.103C109.292 110.103 109.292 110.081 109.27 110.081H108.478C108.478 110.081 108.444 110.081 108.444 110.103V113.506C108.444 114.241 108.704 114.874 109.224 115.394C109.744 115.914 110.377 116.185 111.112 116.185C111.847 116.185 112.491 115.925 113.012 115.405C113.532 114.885 113.792 114.252 113.792 113.506V110.103C113.792 110.103 113.792 110.081 113.769 110.081H112.978L112.955 110.092Z" fill="white"/>
<path d="M120.778 115.281C120.45 115.224 120.134 115.066 119.84 114.806C119.546 114.557 119.342 114.263 119.229 113.947C119.127 113.676 119.082 113.382 119.082 113.088C119.082 112.455 119.274 111.935 119.67 111.505C120.066 111.075 120.574 110.861 121.207 110.861C121.479 110.861 121.739 110.906 121.988 110.996C122.248 111.087 122.485 111.245 122.7 111.471C122.926 111.697 123.084 111.935 123.175 112.183C123.288 112.466 123.344 112.771 123.344 113.076C123.344 113.755 123.118 114.297 122.677 114.704C122.225 115.111 121.728 115.315 121.185 115.315C121.049 115.315 120.914 115.303 120.778 115.281ZM118.901 110.985C118.393 111.561 118.133 112.262 118.133 113.099C118.133 113.551 118.212 113.992 118.381 114.399C118.619 114.964 119.003 115.405 119.523 115.756C120.043 116.095 120.608 116.264 121.219 116.253C121.784 116.253 122.315 116.095 122.801 115.79C123.288 115.484 123.672 115.077 123.932 114.569C124.158 114.116 124.282 113.608 124.282 113.042C124.282 112.364 124.113 111.788 123.785 111.324C123.231 110.544 122.564 110.092 121.784 109.968C121.614 109.945 121.434 109.934 121.264 109.934C120.314 109.934 119.523 110.284 118.89 110.985" fill="white"/>
<path d="M125.696 110.092C125.696 110.092 125.662 110.092 125.662 110.115V116.084C125.662 116.084 125.662 116.106 125.696 116.106H126.476C126.476 116.106 126.509 116.095 126.509 116.072V113.314C126.509 113.314 126.532 113.269 126.577 113.246C126.611 113.257 127.29 113.257 128.624 113.246C128.657 113.246 128.669 113.235 128.669 113.212V112.421C128.669 112.421 128.669 112.398 128.646 112.398H126.521V110.963L129.392 110.94C129.392 110.94 129.426 110.929 129.426 110.906V110.115C129.426 110.115 129.415 110.092 129.392 110.092H125.696Z" fill="white"/>
<path d="M138.527 110.092C138.527 110.092 138.493 110.092 138.493 110.115L136.379 112.783C135.384 111.539 134.649 110.657 134.185 110.115C134.185 110.092 134.185 110.092 134.163 110.092H133.36C133.36 110.092 133.326 110.092 133.326 110.115V116.084C133.326 116.084 133.326 116.106 133.36 116.106H134.14C134.14 116.106 134.174 116.095 134.174 116.072V111.324C134.819 112.082 135.542 112.963 136.356 113.981H136.379C136.865 113.427 137.566 112.557 138.481 111.381V116.084C138.481 116.084 138.493 116.106 138.515 116.106H139.307C139.307 116.106 139.34 116.095 139.34 116.072V110.115C139.34 110.115 139.34 110.092 139.318 110.092H138.527Z" fill="white"/>
<path d="M141.036 110.092C141.036 110.092 141.002 110.092 141.002 110.115V116.084C141.002 116.084 141.002 116.106 141.025 116.106H141.816C141.816 116.106 141.85 116.095 141.85 116.072V110.115C141.85 110.115 141.85 110.092 141.828 110.092H141.036Z" fill="white"/>
<path d="M144.349 110.951H145.615C146.214 110.951 146.734 111.155 147.175 111.584C147.616 112.003 147.831 112.511 147.831 113.099C147.831 113.687 147.616 114.207 147.197 114.625C146.779 115.044 146.27 115.258 145.671 115.258H144.349V110.951ZM143.535 110.092C143.535 110.092 143.501 110.092 143.501 110.115V116.084C143.501 116.084 143.501 116.106 143.535 116.106H145.671C146.508 116.106 147.22 115.812 147.808 115.224C148.396 114.637 148.701 113.924 148.701 113.088C148.701 112.556 148.577 112.07 148.317 111.618C148.057 111.166 147.706 110.804 147.265 110.544C146.768 110.239 146.225 110.092 145.637 110.092H143.535Z" fill="white"/>
<path d="M149.639 110.092C149.639 110.092 149.605 110.103 149.605 110.126V110.917C149.605 110.917 149.617 110.951 149.639 110.951H151.482V116.084C151.482 116.084 151.482 116.106 151.505 116.106H152.296C152.296 116.106 152.33 116.095 152.33 116.072V110.951H154.263C154.263 110.951 154.297 110.929 154.297 110.917V110.115C154.297 110.115 154.297 110.092 154.274 110.092H149.628H149.639Z" fill="white"/>
<path d="M157.869 115.281C157.541 115.224 157.225 115.066 156.931 114.806C156.637 114.557 156.433 114.263 156.32 113.947C156.219 113.676 156.173 113.382 156.173 113.088C156.173 112.455 156.366 111.935 156.761 111.505C157.157 111.075 157.666 110.861 158.299 110.861C158.57 110.861 158.83 110.906 159.079 110.996C159.339 111.087 159.576 111.245 159.791 111.471C160.017 111.697 160.175 111.935 160.266 112.183C160.379 112.466 160.435 112.771 160.435 113.076C160.435 113.755 160.209 114.297 159.768 114.704C159.328 115.111 158.819 115.315 158.276 115.315C158.141 115.315 158.005 115.303 157.869 115.281ZM155.993 110.985C155.484 111.561 155.224 112.262 155.224 113.099C155.224 113.551 155.314 113.992 155.484 114.399C155.721 114.964 156.106 115.405 156.626 115.756C157.146 116.095 157.711 116.264 158.321 116.253C158.887 116.253 159.418 116.095 159.904 115.79C160.39 115.484 160.775 115.077 161.035 114.569C161.272 114.116 161.385 113.608 161.385 113.042C161.385 112.364 161.215 111.788 160.888 111.324C160.334 110.544 159.667 110.092 158.887 109.968C158.706 109.945 158.536 109.934 158.367 109.934C157.417 109.934 156.626 110.284 155.993 110.985Z" fill="white"/>
<path d="M162.199 110.092C162.199 110.092 162.188 110.114 162.199 110.171C162.516 111.087 163.149 113.054 164.121 116.083C164.121 116.106 164.132 116.106 164.155 116.106H165.037C165.037 116.106 165.07 116.106 165.082 116.083L166.359 111.889C166.359 111.889 166.371 111.844 166.393 111.855L167.704 116.083C167.704 116.083 167.716 116.117 167.727 116.117H168.575C168.575 116.117 168.609 116.106 168.62 116.083L170.485 110.092H169.57L169.502 110.137L168.213 114.399C167.614 112.443 167.173 111.041 166.879 110.194H165.941L164.607 114.478C164.607 114.478 164.584 114.535 164.573 114.557C164.573 114.523 164.55 114.501 164.55 114.489L163.239 110.081C163.002 110.081 162.798 110.081 162.629 110.081C162.459 110.081 162.323 110.081 162.222 110.081" fill="white"/>
<path d="M176.115 110.092C176.115 110.092 176.081 110.103 176.081 110.126V114.75L172.475 110.126C172.475 110.126 172.407 110.092 172.396 110.092H171.605C171.605 110.092 171.571 110.103 171.571 110.126V116.084C171.571 116.084 171.571 116.106 171.605 116.106H172.385C172.385 116.106 172.419 116.095 172.419 116.072V111.494L175.991 116.095C175.991 116.095 176.014 116.118 176.025 116.118H176.895C176.895 116.118 176.929 116.106 176.929 116.084V110.137C176.929 110.137 176.918 110.103 176.895 110.103H176.115V110.092Z" fill="white"/>
<path d="M181.598 110.646C181.406 110.883 181.304 111.177 181.304 111.516C181.304 111.663 181.327 111.821 181.372 111.968C181.474 112.308 181.779 112.613 182.288 112.895C182.548 113.02 182.808 113.155 183.079 113.28C183.384 113.438 183.61 113.596 183.769 113.755C183.904 113.89 183.972 114.071 183.972 114.297C183.972 114.523 183.916 114.738 183.791 114.93C183.622 115.202 183.362 115.337 183.011 115.337C182.582 115.337 182.265 115.145 182.039 114.761C181.983 114.648 181.937 114.546 181.903 114.478L181.214 114.953C181.293 115.19 181.429 115.428 181.621 115.643C181.813 115.857 182.016 116.004 182.243 116.095C182.469 116.185 182.706 116.23 182.944 116.23C183.509 116.23 183.984 116.027 184.379 115.62C184.707 115.269 184.877 114.84 184.877 114.32C184.877 114.082 184.831 113.856 184.764 113.63C184.617 113.223 184.311 112.895 183.859 112.635C183.452 112.443 183.045 112.262 182.65 112.07C182.412 111.946 182.299 111.754 182.299 111.516C182.299 111.392 182.344 111.268 182.423 111.154C182.503 111.041 182.616 110.974 182.74 110.94C182.808 110.917 182.876 110.906 182.932 110.906C183.226 110.906 183.475 111.064 183.69 111.392C184.006 111.177 184.244 111.019 184.413 110.906C184.323 110.714 184.176 110.544 183.961 110.386C183.757 110.227 183.543 110.114 183.317 110.058C183.181 110.024 183.034 110.013 182.898 110.013C182.378 110.013 181.949 110.227 181.61 110.657" fill="white"/>
<path d="M188.607 115.281C188.279 115.224 187.963 115.066 187.669 114.806C187.375 114.557 187.172 114.263 187.058 113.947C186.957 113.676 186.912 113.382 186.912 113.088C186.912 112.455 187.104 111.935 187.499 111.505C187.895 111.075 188.404 110.861 189.037 110.861C189.308 110.861 189.568 110.906 189.817 110.996C190.077 111.087 190.314 111.245 190.529 111.471C190.755 111.697 190.913 111.935 191.004 112.183C191.117 112.466 191.173 112.771 191.173 113.076C191.173 113.755 190.947 114.297 190.506 114.704C190.054 115.111 189.557 115.315 189.014 115.315C188.879 115.315 188.743 115.303 188.607 115.281ZM186.731 110.985C186.222 111.561 185.962 112.262 185.962 113.099C185.962 113.551 186.041 113.992 186.211 114.399C186.448 114.964 186.832 115.405 187.352 115.756C187.872 116.095 188.438 116.264 189.048 116.253C189.613 116.253 190.145 116.095 190.631 115.79C191.117 115.484 191.501 115.077 191.761 114.569C191.987 114.116 192.1 113.608 192.1 113.042C192.1 112.364 191.931 111.788 191.614 111.324C191.06 110.544 190.393 110.092 189.613 109.968C189.433 109.945 189.263 109.934 189.093 109.934C188.144 109.934 187.352 110.284 186.719 110.985" fill="white"/>
<path d="M197.922 110.092C197.922 110.092 197.889 110.092 197.889 110.114V113.506C197.889 114.015 197.708 114.444 197.357 114.795C196.995 115.145 196.566 115.326 196.068 115.326C195.571 115.326 195.141 115.145 194.791 114.783C194.441 114.422 194.26 113.992 194.26 113.495V110.103C194.26 110.103 194.26 110.081 194.226 110.081H193.434C193.434 110.081 193.401 110.081 193.401 110.103V113.506C193.401 114.241 193.661 114.874 194.181 115.394C194.701 115.914 195.334 116.185 196.068 116.185C196.803 116.185 197.448 115.925 197.968 115.405C198.488 114.885 198.748 114.252 198.748 113.506V110.103C198.748 110.103 198.748 110.081 198.714 110.081H197.922V110.092Z" fill="white"/>
<path d="M199.878 110.092C199.878 110.092 199.844 110.103 199.844 110.126V110.917C199.844 110.917 199.844 110.951 199.878 110.951H201.721V116.084C201.721 116.084 201.721 116.106 201.743 116.106H202.535C202.535 116.106 202.569 116.095 202.569 116.072V110.951H204.502C204.502 110.951 204.536 110.929 204.536 110.917V110.115C204.536 110.115 204.536 110.092 204.513 110.092H199.867H199.878Z" fill="white"/>
<path d="M209.826 110.081C209.826 110.081 209.793 110.081 209.793 110.103V112.353L206.684 112.375C206.684 112.375 206.616 112.342 206.616 112.296V110.148V110.114C206.616 110.114 206.616 110.081 206.582 110.081H205.791C205.791 110.081 205.757 110.092 205.757 110.114V116.072C205.757 116.072 205.768 116.106 205.791 116.106H206.582C206.582 116.106 206.616 116.095 206.616 116.072V113.269L206.65 113.235H209.804V116.072C209.804 116.072 209.804 116.095 209.838 116.095H210.618C210.618 116.095 210.652 116.095 210.652 116.072V110.103C210.652 110.103 210.652 110.081 210.64 110.081H209.838H209.826Z" fill="white"/>
</g>
<defs>
<clipPath id="clip0_227_2934">
<rect width="217.913" height="108.176" fill="white" transform="translate(15.0435 8.08789)"/>
</clipPath>
</defs>
</svg>
