<svg xmlns="http://www.w3.org/2000/svg" viewBox="0 0 298.02268 47.23459"><defs><style>.cls-1{fill:#69563e;}</style></defs><g id="Layer_2" data-name="Layer 2"><g id="Layer_1-2" data-name="Layer 1"><path class="cls-1" d="M120.77822,23.42709a6.84163,6.84163,0,0,1-1.89923,2.2861,8.057,8.057,0,0,1-2.901,1.40683,14.10673,14.10673,0,0,1-3.69238.45723,17.70638,17.70638,0,0,1-2.95384-.21159,11.72355,11.72355,0,0,1-2.03935-.50944,7.29881,7.29881,0,0,1-1.21336-.54512,1.57825,1.57825,0,0,0-.51-.2462q-.10551,0-.45722.422-.35113.42206-.63307.80893h-.31654l-.105-6.99793h.35115a11.12853,11.12853,0,0,0,.80893,1.84537A15.28807,15.28807,0,0,0,106.29,23.83209a9.559,9.559,0,0,0,1.231,1.38871,6.03131,6.03131,0,0,0,1.24854.91388,9.91288,9.91288,0,0,0,1.58212.63364,6.59725,6.59725,0,0,0,6.11866-1.10791,4.87206,4.87206,0,0,0,1.61785-3.85118,4.34291,4.34291,0,0,0-.31653-1.7223,4.05939,4.05939,0,0,0-.86172-1.28371,5.2521,5.2521,0,0,0-1.28314-.93205,14.0873,14.0873,0,0,0-1.58269-.70342q-.84409-.31653-1.47717-.52756-.63232-.21018-1.17825-.40444-.54487-.193-1.12491-.38637-.58032-.19287-1.38927-.51051a7.56979,7.56979,0,0,1-1.758-.96717,7.1306,7.1306,0,0,1-1.47717-1.44094,7.33457,7.33457,0,0,1-1.02-1.82888,5.84742,5.84742,0,0,1-.38688-2.1273,7.17349,7.17349,0,0,1,.69351-3.27032,6.68908,6.68908,0,0,1,1.86406-2.28611,7.87127,7.87127,0,0,1,2.69994-1.354,11.61846,11.61846,0,0,1,3.21759-.43967,11.99727,11.99727,0,0,1,2.70815.26432,10.866,10.866,0,0,1,1.84588.57978,6.35778,6.35778,0,0,1,1.0903.58035,2.48424,2.48424,0,0,0,.40393.26375q.10551,0,.43966-.422.3346-.42205.61546-.8441h.38688V8.552H119.811a14.19167,14.19167,0,0,0-1.08973-2.30259,10.3974,10.3974,0,0,0-1.54752-2.0399,7.46407,7.46407,0,0,0-2.00417-1.45962,5.511,5.511,0,0,0-2.49713-.56274,6.57528,6.57528,0,0,0-2.05752.31654,4.7746,4.7746,0,0,0-1.68764.94961,4.35432,4.35432,0,0,0-1.1249,1.56513,5.2935,5.2935,0,0,0-.40449,2.12781,4.04257,4.04257,0,0,0,1.1222,2.98845,7.96915,7.96915,0,0,0,2.912,1.79315q.69984.28192,1.31449.493.61409.211,1.21066.40336.59594.19533,1.2101.405.61408.21188,1.28039.45722a8.17014,8.17014,0,0,1,3.70121,2.54935,6.53258,6.53258,0,0,1,1.315,4.16715A6.52646,6.52646,0,0,1,120.77822,23.42709Z"/><path class="cls-1" d="M143.44961,2.32786c.70291,0,.36989-.005,1.0266-.01756q.98421-.01654,2.03934-.03517,1.05513-.01731,2.39162-.017a11.30008,11.30008,0,0,0,1.91678-.194q.75513-.15828,1.56457-.4045l1.1249,6.85724-.316.10552q-.28193-.63232-.66824-1.31781-.38745-.68669-.79132-1.28433-.40474-.59762-.79081-1.10729a5.35565,5.35565,0,0,0-.66824-.75676,3.69638,3.69638,0,0,0-1.6003-.93144,9.84062,9.84062,0,0,0-2.19759-.26381q-.66852,0-1.16063-.01755-.493-.01731-.98479-.01762h-.89964ZM141.9972,5.31738q-.01815,1.51178-.01762,3.16481v13.7496q0,1.01967.05279,1.95144a2.56681,2.56681,0,0,0,.33409,1.31894,2.63117,2.63117,0,0,0,1.49423,1.05512,17.48678,17.48678,0,0,0,1.741.42205v.35171H134.17279v-.35171a10.61088,10.61088,0,0,0,1.75854-.35171,3.64342,3.64342,0,0,0,1.65246-1.16063,1.169,1.169,0,0,0,.26381-.58035,8.45358,8.45358,0,0,0,.14069-.91444q.05275-.50942.07034-1.10786.01729-.59685.01756-1.16013,0-.49211.01761-1.30132.0173-.80863.03517-1.79315.01731-.98421.01756-2.0399V2.92576h-2.32071q-.45835,0-.96723.01762-.51026.01814-1.1782.01755a7.891,7.891,0,0,0-2.19764.31654,4.22413,4.22413,0,0,0-1.60024.98478,4.88549,4.88549,0,0,0-.65013.73859q-.37014.493-.77375,1.07218a14.09773,14.09773,0,0,0-.77376,1.248,7.84554,7.84554,0,0,0-.58035,1.30132l-.31654-.10552,1.05513-6.68138q.80788.17642,1.49479.28136a17.063,17.063,0,0,0,1.98661.14125q1.33621.0346,2.39106.05222,1.05512.01891,2.0399.01756h6.23621S142.00873,4.30952,141.9972,5.31738Z"/><path class="cls-1" d="M169.80905,16.88638q-.5984-1.58268-1.21281-3.16481-.61576-1.58184-1.1958-3.04174-.58032-1.459-1.05513-2.673-.47481-1.2134-.79137-1.98662-.211.4575-.61546,1.4415-.40391.98583-1.00184,2.39162-.59931,1.4071-1.31893,3.18236c-.51378,1.26565-1.62225,3.99192-1.56507,3.85067l-.316.73859q-.52757,1.33705-1.01995,2.54991-.493,1.21339-.98479,2.44328a8.89089,8.89089,0,0,0-.73858,2.673,1.058,1.058,0,0,0,.28136.75615,2.164,2.164,0,0,0,.721.49182,4.007,4.007,0,0,0,.949.28137c.33966.05937.66278.11159.96779.15886v.35171h-7.49088v-.38744a3.88966,3.88966,0,0,0,1.56513-.49183,3.48111,3.48111,0,0,0,.75614-.52756,7.62065,7.62065,0,0,0,.80842-1.16064,25.471,25.471,0,0,0,1.37167-2.70815q.73859-1.652,1.653-3.76221.91416-2.11026,1.88162-4.34306.96615-2.23308,1.91627-4.50131C164.007,7.93651,167.30972.16432,167.4037,0h.28137c.72648,1.94649,1.92449,5.31136,2.5812,7.05836q.9843,2.61966,1.8811,5.04592.89685,2.42594,1.741,4.69421.84411,2.26851,1.6882,4.48368.38576,1.09059.721,1.81133.333.72129.75564,1.63491a4.73627,4.73627,0,0,0,.31653.49239,4.42278,4.42278,0,0,0,.65064.721,4.00488,4.00488,0,0,0,1.00183.65069,3.65234,3.65234,0,0,0,1.40683.31654v.42205H170.16025v-.35171a4.12265,4.12265,0,0,0,.51051-.07034,4.21728,4.21728,0,0,0,.8441-.24676,2.40955,2.40955,0,0,0,.77319-.49183,1.06356,1.06356,0,0,0,.33416-.80893,4.63852,4.63852,0,0,0-.19347-1.03756q-.19288-.72045-.54512-1.75742-.35124-1.03782-.80893-2.30428-.45675-1.26615-.98428-2.63725Z"/><path class="cls-1" d="M208.64917,22.28457q.01739,1.28346.01761,2.54935V27.12a.30913.30913,0,0,1-.08795.228.36.36,0,0,1-.26375.088.96718.96718,0,0,1-.63308-.35115q-2.989-3.44646-5.45035-6.33024-2.46148-2.88343-4.69477-5.50364-2.23307-2.61891-4.37823-5.11626-2.14487-2.49609-4.53592-5.1696s-1.72337-1.59968-2.07507-1.84588a3.50343,3.50343,0,0,0-1.14252-.52756,9.5352,9.5352,0,0,0-1.17825-.22864V2.01188h7.13861ZM188.62273,6.55714V19.80556q0,1.79211.0879,3.23465a5.79711,5.79711,0,0,0,.4391,2.14542A2.539,2.539,0,0,0,190.3631,26.399a7.28026,7.28026,0,0,0,2.268.58035v.35171h-8.65039v-.35171a6.88477,6.88477,0,0,0,1.6877-.44023,2.74558,2.74558,0,0,0,1.33649-1.10729,4.82273,4.82273,0,0,0,.63307-2.18059q.14013-1.441.211-3.44567.07-1.51177.10551-3.56981.03461-2.05672.03517-4.41284V7.53207c0-.3072-.00551-.90071-.01542-1.29912Zm19.411,12.79672V9.53681q0-1.40628-.03517-2.69A6.35357,6.35357,0,0,0,207.682,4.825a3.21862,3.21862,0,0,0-1.248-1.60025,6.18281,6.18281,0,0,0-2.58446-.86171V2.01188h8.72067V2.363a5.31769,5.31769,0,0,0-2.09213.66824,3.11173,3.11173,0,0,0-1.21336,1.51235,5.90907,5.90907,0,0,0-.31654,1.952q-.0709,1.42273-.14068,3.04118-.07091,1.51263-.12313,3.56925-.05275,2.05749-.05273,4.4134v1.74425c0,.46054.0022.41985.00552.8908Z"/><path class="cls-1" d="M55.19178,22.28457q.01731,1.28346.01756,2.54935V27.12a.30894.30894,0,0,1-.0874.228.36181.36181,0,0,1-.26375.088.96716.96716,0,0,1-.63307-.35115q-2.989-3.44646-5.45092-6.33024-2.46147-2.88343-4.69477-5.50364-2.23307-2.61891-4.37767-5.11626-2.1457-2.49609-4.53647-5.1696s-1.72337-1.59968-2.07508-1.84588a3.4933,3.4933,0,0,0-1.14252-.52756A9.53306,9.53306,0,0,0,30.76944,2.363V2.01188h7.13861ZM35.16529,6.55714V19.80556q0,1.79211.0879,3.23465a5.7952,5.7952,0,0,0,.43966,2.14542,2.5378,2.5378,0,0,0,1.2128,1.21336,7.28051,7.28051,0,0,0,2.26855.58035v.35171H30.52325v-.35171a6.88857,6.88857,0,0,0,1.6882-.44023,2.74663,2.74663,0,0,0,1.336-1.10729,4.82285,4.82285,0,0,0,.63308-2.18059q.14011-1.441.211-3.44567.07006-1.51177.10551-3.56981.03462-2.05672.03517-4.41284V7.53207c0-.3072-.005-.90071-.01542-1.29912ZM54.57683,19.35386V9.53681q0-1.40628-.03518-2.69A6.36924,6.36924,0,0,0,54.22512,4.825a3.22278,3.22278,0,0,0-1.2486-1.60025A6.18281,6.18281,0,0,0,50.39206,2.363V2.01188h8.72068V2.363a5.31738,5.31738,0,0,0-2.09208.66824,3.115,3.115,0,0,0-1.21342,1.51235,5.89755,5.89755,0,0,0-.316,1.952q-.0709,1.42273-.14125,3.04118-.07006,1.51263-.12256,3.56925-.05352,2.05749-.05273,4.4134v1.74425c0,.46054.00107.41985.005.8908Z"/><path class="cls-1" d="M240.87831,27.33105H218.30246v-.35171a9.33655,9.33655,0,0,0,1.74042-.45722,3.23426,3.23426,0,0,0,1.35355-.87927,1.77652,1.77652,0,0,0,.29892-.61552,5.953,5.953,0,0,0,.19347-.932q.0709-.52755.12307-1.10791.05275-.58031.05278-1.14251,0-.49212.01756-1.33649.01731-.84411.03517-1.84588.01731-1.00238.01761-2.05752V6.51212q0-.63147-.05278-1.17769a6.6587,6.6587,0,0,0-.15824-.96666,1.61194,1.61194,0,0,0-.31654-.66825,3.10769,3.10769,0,0,0-1.31837-.91444,7.13886,7.13886,0,0,0-1.74042-.422V2.01188H229.766V2.363q-.4575.0709-1.0903.211a4.34907,4.34907,0,0,0-1.19524.45722,2.91493,2.91493,0,0,0-.96717.89689,2.80641,2.80641,0,0,0-.43967,1.52934q-.03544,1.23239-.05272,2.25149-.01815,1.01969-.03467,2.00367-.0189.98423-.01756,2.03991v6.4q0,.915.01756,1.88167.01655.96768.01705,2.16191.0346,1.12678.088,2.14542a3.16727,3.16727,0,0,0,.36926,1.51234,1.43981,1.43981,0,0,0,.56274.35171,5.65032,5.65032,0,0,0,1.01995.29893q.59762.12366,1.30132.211a11.383,11.383,0,0,0,1.40627.088c.18739,0,.48581-.00552.89688-.01818q.61494-.01731,1.35355-.06978.73859-.05276,1.51234-.15824a9.36458,9.36458,0,0,0,1.37166-.28137,7.84468,7.84468,0,0,0,2.33827-1.01995,7.359,7.359,0,0,0,1.6003-1.45962,8.87209,8.87209,0,0,0,1.12491-1.79315q.4575-.96692.87927-2.02235l.35171.10608Z"/><path class="cls-1" d="M287.29664,15.16358v7.06821q0,1.01967.05279,1.98661a2.64753,2.64753,0,0,0,.33409,1.35411,2.4597,2.4597,0,0,0,1.37167,1.01995,16.02634,16.02634,0,0,0,1.61785.38688v.35171H279.84156v-.35171a7.95039,7.95039,0,0,0,1.60024-.33415,3.62377,3.62377,0,0,0,1.45962-1.10785,1.19318,1.19318,0,0,0,.26375-.59791,9.4039,9.4039,0,0,0,.14068-.9491q.05275-.52833.07034-1.126c.011-.3979.01762-.78478.01762-1.16013q.0346-.98337.05216-2.33826.01731-1.3536.01818-3.2885-.07091-.10552-.42205-.66769-.352-.56217-.86171-1.38871-.51027-.8268-1.12547-1.847-.61576-1.01883-1.21336-1.98662-.59847-.96607-1.125-1.81127-.52757-.8441-.87928-1.37166-.66843-1.01892-1.2128-1.863a10.12415,10.12415,0,0,0-1.10791-1.442,6.136,6.136,0,0,0-1.10785-.94961,2.49452,2.49452,0,0,0-1.24859-.38688V2.01188h10.65569V2.363q-.52756.03544-1.05513.10551a5.06294,5.06294,0,0,0-.98478.22864,2.03528,2.03528,0,0,0-.73859.42205.93957.93957,0,0,0-.28136.721,3.36183,3.36183,0,0,0,.51,1.38928q.50942.93147,1.07273,1.88105.38661.63231.91445,1.52939.52671.89687,1.16007,1.89923.63391,1.00236,1.28371,2.05752.65037,1.05428,1.21342,2.00417Zm.57816-1.7514c.20112-.30444,1.05732-1.91132,1.51454-2.62684q.68583-1.07159,1.30132-2.057.61493-.98422.93143-1.547.17558-.28193.38688-.65063.211-.3693.40449-.77376a7.28337,7.28337,0,0,0,.3341-.82654,2.47609,2.47609,0,0,0,.14068-.77432,1.27873,1.27873,0,0,0-.28136-.87871,1.88744,1.88744,0,0,0-.721-.49239,4.71024,4.71024,0,0,0-.96666-.26375c-.35171-.05825-.69244-.111-1.01995-.1583V2.01188h8.12339V2.363a5.53447,5.53447,0,0,0-1.6882.49239,5.43822,5.43822,0,0,0-1.30132.91444,8.70176,8.70176,0,0,0-1.14252,1.33649q-.54572.7732-1.17825,1.758-.42206.66853-1.1782,1.81076-.75588,1.14334-1.547,2.37406c-.52756.82047-1.2442,2.03-1.73659,2.78069Z"/><path class="cls-1" d="M254.38227,16.11263v4.22049c0,.37479.005.73257.017,1.07218q.01731.51026.01756.86115.03461,1.12595.12312,2.12781a3.36243,3.36243,0,0,0,.40444,1.49479,2.21319,2.21319,0,0,0,1.51234.70341,14.98858,14.98858,0,0,0,2.60208.211q.59763,0,1.53-.03517.93063-.03469,1.95139-.17586a7.70486,7.70486,0,0,0,2.07457-.54517,7.28113,7.28113,0,0,0,1.82889-1.143,11.6393,11.6393,0,0,0,1.70575-1.81076,24.24335,24.24335,0,0,0,1.70525-2.58508l.38688.10607-1.758,6.71656H246.96179v-.35171a7.14957,7.14957,0,0,0,1.63485-.45722,3.33825,3.33825,0,0,0,1.24916-.87927,1.59553,1.59553,0,0,0,.28136-.61552q.10467-.4039.19285-.932a10.66965,10.66965,0,0,0,.12313-1.10791q.03545-.58031.03517-1.14251,0-.49212.01756-1.33649.01729-.84411.03517-1.84588.0173-1.00238.01761-2.05752V7.709q0-.63466-.01761-1.30132-.01815-.66852-.07035-1.26615a6.56049,6.56049,0,0,0-.17585-1.07268,1.49374,1.49374,0,0,0-.33409-.68586,2.40146,2.40146,0,0,0-1.12491-.721,14.85513,14.85513,0,0,0-1.547-.299V2.01188h19.411l2.39162,5.80156-.35227.17585a17.12643,17.12643,0,0,0-5.3449-4.78216,8.54919,8.54919,0,0,0-2.2152-.49239,31.12089,31.12089,0,0,0-3.93913-.211q-.73859,0-1.52934.05279a9.92642,9.92642,0,0,0-1.14308.12307q-.07091.563-.12307,2.32127-.05276,1.75751-.05222,4.07875v7.033Z"/><polygon class="cls-1" points="260.395 16.44 255.837 14.336 260.395 12.232 264.953 14.336 260.395 16.44"/><path class="cls-1" d="M70.53723,16.11263v4.22049c0,.37479.005.73257.01756,1.07218q.01655.51026.017.86115.03461,1.12595.12313,2.12781a3.36244,3.36244,0,0,0,.40443,1.49479,2.21459,2.21459,0,0,0,1.51235.70341,14.99512,14.99512,0,0,0,2.60264.211q.59678,0,1.5294-.03517.93061-.03469,1.95144-.17586a7.71425,7.71425,0,0,0,2.07508-.54517,7.27843,7.27843,0,0,0,1.82832-1.143,11.61575,11.61575,0,0,0,1.70576-1.81076,24.1609,24.1609,0,0,0,1.70525-2.58508l.38688.10607-1.758,6.71656H63.11726v-.35171a7.16528,7.16528,0,0,0,1.63491-.45722,3.34065,3.34065,0,0,0,1.24859-.87927,1.58736,1.58736,0,0,0,.28137-.61552c.07034-.26927.134-.58029.19341-.932a10.82183,10.82183,0,0,0,.12312-1.10791q.0346-.58031.03517-1.14251,0-.49212.01756-1.33649.01645-.84411.03517-1.84588.01645-1.00238.01762-2.05752V7.709c0-.42311-.00665-.85619-.01762-1.30132q-.01815-.66852-.07034-1.26615a6.62234,6.62234,0,0,0-.17585-1.07268,1.49927,1.49927,0,0,0-.3341-.68586,2.40291,2.40291,0,0,0-1.12547-.721,14.85487,14.85487,0,0,0-1.547-.299V2.01188H82.84539l2.39105,5.80156-.35171.17585a17.13393,17.13393,0,0,0-5.3454-4.78216,8.55036,8.55036,0,0,0-2.21525-.49239,31.11146,31.11146,0,0,0-3.93857-.211q-.7386,0-1.52991.05279a9.9128,9.9128,0,0,0-1.14308.12307q-.0709.563-.12307,2.32127-.052,1.75751-.05222,4.07875v7.033Z"/><polygon class="cls-1" points="76.551 16.44 71.992 14.336 76.551 12.232 81.109 14.336 76.551 16.44"/><polygon class="cls-1" points="165.687 18.738 161.636 16.868 165.687 14.998 169.739 16.868 165.687 18.738"/><path class="cls-1" d="M25.50535,19.90066a13.01568,13.01568,0,0,1-2.85592,4.13474,12.61092,12.61092,0,0,1-4.20514,2.69881,13.77754,13.77754,0,0,1-5.0987.94579,13.76455,13.76455,0,0,1-5.04586-.92873A12.63406,12.63406,0,0,1,4.1292,24.12386a12.38083,12.38083,0,0,1-2.82081-4.06552A12.85478,12.85478,0,0,1,.27471,14.85419a12.98808,12.98808,0,0,1,1.08647-5.413A12.16965,12.16965,0,0,1,4.28694,5.37562,12.88707,12.88707,0,0,1,8.59753,2.81806a15.17728,15.17728,0,0,1,5.20365-.89357A13.01789,13.01789,0,0,1,19.145,2.97523,12.15464,12.15464,0,0,1,23.15718,5.7966a12.361,12.361,0,0,1,2.52352,4.082,13.54958,13.54958,0,0,1,.87539,4.836A12.70032,12.70032,0,0,1,25.50535,19.90066Zm-3.83744-9.46151a13.66081,13.66081,0,0,0-1.647-3.94189,9.38767,9.38767,0,0,0-2.751-2.87354,6.819,6.819,0,0,0-3.88916-1.10408A6.96165,6.96165,0,0,0,9.43837,3.62372,9.01245,9.01245,0,0,0,6.705,6.47914a13.23408,13.23408,0,0,0-1.57667,3.97757A20.15678,20.15678,0,0,0,4.62,14.9597a18.58288,18.58288,0,0,0,.56054,4.59089,12.75277,12.75277,0,0,0,1.66457,3.88967,8.70765,8.70765,0,0,0,2.76859,2.69768,7.27843,7.27843,0,0,0,3.87211,1.01726,6.60116,6.60116,0,0,0,3.83688-1.12164,9.48083,9.48083,0,0,0,2.71586-2.89116,13.92418,13.92418,0,0,0,1.6294-3.97762,18.44344,18.44344,0,0,0,.543-4.415A17.75419,17.75419,0,0,0,21.66791,10.43915Z"/><path class="cls-1" d="M5.84187,45.79347H0v-.09555a1.92518,1.92518,0,0,0,.44371-.124.903.903,0,0,0,.33884-.23863A.43181.43181,0,0,0,.859,45.16845q.02866-.10975.05267-.25308a2.83942,2.83942,0,0,0,.03309-.30062c.00652-.10534.00979-.20834.00979-.31041q0-.13353.00466-.36261.00489-.22932.00978-.501.0042-.272.00466-.55837V40.46709c0-.11466-.00186-.23211-.00466-.35329q-.00489-.18108-.01911-.34351a1.81627,1.81627,0,0,0-.048-.2913.40664.40664,0,0,0-.09042-.186.65652.65652,0,0,0-.30575-.19576,4.0611,4.0611,0,0,0-.41994-.0811v-.09554H5.35481L6.00406,40.496l-.09554.04754a4.65,4.65,0,0,0-1.45092-1.298,2.31264,2.31264,0,0,0-.60124-.13377,8.43982,8.43982,0,0,0-1.06919-.05733q-.20066,0-.41528.01445a2.54382,2.54382,0,0,0-.30994.03356q-.01959.15241-.03356.62968-.01468.47749-.01445,1.10741v.611q0,.24819.00466.40549c.00326.10487.00513.186.00513.24329v.10534h.19062q.14332,0,.32952-.00979c.124-.00606.248-.01445.3724-.02377a2.17083,2.17083,0,0,0,.31-.04288,1.67633,1.67633,0,0,0,.47726-.1813A1.05263,1.05263,0,0,0,4.01389,41.67a1.35749,1.35749,0,0,0,.19063-.37706,4.48773,4.48773,0,0,0,.12911-.48239h.11465v3.00716H4.33363a3.28827,3.28827,0,0,0-.234-.63014,1.6871,1.6871,0,0,0-.329-.48706,1.275,1.275,0,0,0-.36774-.21952,1.66454,1.66454,0,0,0-.501-.10487c-.09554-.00606-.17524-.01119-.23863-.01445-.06385-.0028-.12724-.00466-.19109-.00466H2.033a3.01347,3.01347,0,0,0-.01911.39151v1.14516q0,.1531.00466.2913c.00326.09228.00513.17059.00513.234q.00909.30552.03309.57748a.91128.91128,0,0,0,.11.40549.59937.59937,0,0,0,.41062.19109,4.06389,4.06389,0,0,0,.70611.05733q.16221,0,.41528-.00979a5.22965,5.22965,0,0,0,.52994-.04754,2.07011,2.07011,0,0,0,.563-.14821,1.96214,1.96214,0,0,0,.49638-.31,3.149,3.149,0,0,0,.46282-.49171,6.49877,6.49877,0,0,0,.46282-.70145l.10533.02843Z"/><path class="cls-1" d="M13.49726,39.43145a6.33343,6.33343,0,0,0-.79234.81611q-.16219.19086-.35795.42973-.19577.23839-.39617.47727-.20065.2384-.38172.46282-.18177.22442-.3244.39617.03775.05731.1622.22884.12375.172.28618.41062.1622.2391.35329.51082.19086.272.36727.52015.17688.24819.31973.44837.14333.20065.2102.30575.19086.27686.34863.49638a3.37132,3.37132,0,0,0,.31.37706,1.65988,1.65988,0,0,0,.31507.25774.937.937,0,0,0,.36261.12864v.09555H11.18736v-.09555q.13353-.01887.28617-.04288a1.55389,1.55389,0,0,0,.28664-.07178A.57953.57953,0,0,0,11.9797,45.45a.299.299,0,0,0,.08575-.21953.81162.81162,0,0,0-.124-.358q-.12445-.22441-.28664-.47261-.21953-.344-.501-.74946-.28175-.40548-.64413-.91165-.15311.18177-.33418.40129-.18177.21952-.36261.44371-.18177.22443-.34863.43439-.16709.20974-.28151.37194a4.24,4.24,0,0,0-.23863.38218.75506.75506,0,0,0-.10487.36261.34882.34882,0,0,0,.08576.234.6912.6912,0,0,0,.21952.16685,1.36719,1.36719,0,0,0,.28618.10487,2.7528,2.7528,0,0,0,.28664.05733v.09555H7.18791v-.09555a2.37984,2.37984,0,0,0,.79187-.41528,5.80729,5.80729,0,0,0,.84035-.797q.14262-.16219.35282-.41528.21044-.25238.43952-.5248.22861-.272.439-.52994c.13982-.17152.25774-.31507.35282-.42926q-.05733-.0762-.2624-.36774-.20554-.29084-.46282-.65391-.258-.36215-.51083-.72056-.25308-.358-.40549-.56769-.20065-.27685-.358-.48706a3.3472,3.3472,0,0,0-.30575-.358,1.64213,1.64213,0,0,0-.31461-.24795,1.72436,1.72436,0,0,0-.38684-.16733v-.09554h3.112v.09554q-.12444.00979-.28664.03822a1.83706,1.83706,0,0,0-.296.07644.67387.67387,0,0,0-.22884.13377.28165.28165,0,0,0-.09555.21952.73855.73855,0,0,0,.13376.35282q.13354.22023.30529.468.23839.344.48705.70145.2475.358.60125.86412.31461-.36285.64412-.79234.32929-.43.57748-.7448a4.0348,4.0348,0,0,0,.24842-.38172.80468.80468,0,0,0,.1333-.38172.3192.3192,0,0,0-.09042-.22885.82551.82551,0,0,0-.21952-.16266,1.31172,1.31172,0,0,0-.28152-.10487q-.15311-.03776-.27685-.05733v-.09554h2.49121v.09554A1.97676,1.97676,0,0,0,13.49726,39.43145Z"/><path class="cls-1" d="M22.26938,43.56933A3.51292,3.51292,0,0,1,21.6439,44.605a3.45626,3.45626,0,0,1-.94009.75412,3.82667,3.82667,0,0,1-1.17406.41528.95416.95416,0,0,0,.10487.44883.92145.92145,0,0,0,.28664.32906,1.36781,1.36781,0,0,0,.41015.19575,1.67234,1.67234,0,0,0,.46795.06665,2.31135,2.31135,0,0,0,.33418-.02377,1.57812,1.57812,0,0,0,.35282-.10021l.048.07644a3.0488,3.0488,0,0,1-.63947.32952,2.30228,2.30228,0,0,1-.82123.138,2.86776,2.86776,0,0,1-.69679-.0811,1.799,1.799,0,0,1-.57748-.25261,1.36123,1.36123,0,0,1-.41528-.4535,1.75155,1.75155,0,0,1-.20973-.66323,3.69842,3.69842,0,0,1-1.09763-.42507,3.57147,3.57147,0,0,1-.90233-.74433,3.45138,3.45138,0,0,1-.611-1.01653,3.50667,3.50667,0,0,1,2.1477-4.56294,4.10075,4.10075,0,0,1,1.31249-.20973,3.54672,3.54672,0,0,1,1.456.28617,3.31081,3.31081,0,0,1,1.093.76857,3.36009,3.36009,0,0,1,.687,1.11207,3.69012,3.69012,0,0,1,.23864,1.31715A3.41552,3.41552,0,0,1,22.26938,43.56933Zm-1.10275-2.42456a3.72846,3.72846,0,0,0-.44837-1.07385,2.5559,2.5559,0,0,0-.74946-.78255,1.859,1.859,0,0,0-1.0594-.30063,1.89708,1.89708,0,0,0-1.07386.30063,2.45126,2.45126,0,0,0-.74479.77789,3.6032,3.6032,0,0,0-.42926,1.08317,5.49744,5.49744,0,0,0-.13843,1.22673,4.69923,4.69923,0,0,0,.16686,1.25515,3.643,3.643,0,0,0,.48192,1.07386,2.55852,2.55852,0,0,0,.76391.74946,1.84413,1.84413,0,0,0,1.00208.28151,1.86371,1.86371,0,0,0,1.10275-.31973,2.48586,2.48586,0,0,0,.735-.81611,3.83979,3.83979,0,0,0,.41015-1.10228,5.67714,5.67714,0,0,0,.1291-1.17919A4.82206,4.82206,0,0,0,21.16663,41.14477Z"/><path class="cls-1" d="M31.03684,39.19748a.86458.86458,0,0,0-.31973.41062,1.00293,1.00293,0,0,0-.05267.21952c-.01585.10207-.03029.21953-.04288.35329-.013.1333-.02237.275-.0289.4246-.006.14962-.00932.29783-.00932.44371q-.00978.41109-.02377.91679-.01469.50545-.03356,1.14516c-.00652.12118-.01444.27359-.02377.45816a3.17444,3.17444,0,0,1-.09088.58726,2.6325,2.6325,0,0,1-.2433.62035,1.90131,1.90131,0,0,1-.4726.563,2.26045,2.26045,0,0,1-.78255.40083,4.00754,4.00754,0,0,1-1.17406.14821,4.05763,4.05763,0,0,1-1.15961-.14308,2.317,2.317,0,0,1-.77836-.38685,1.88156,1.88156,0,0,1-.47214-.5346,2.59564,2.59564,0,0,1-.24842-.57281,2.42192,2.42192,0,0,1-.09555-.515q-.014-.23421-.014-.34863,0-.26706.00466-.69679.00489-.42927.00466-.95454V40.12358c0-.11465-.00466-.22092-.01445-.31973a1.92612,1.92612,0,0,0-.04288-.26753.44246.44246,0,0,0-.08576-.186.759.759,0,0,0-.32952-.234,1.94915,1.94915,0,0,0-.44371-.10021v-.09554h2.8445v.09554q-.13353.01959-.28617.05733a.90091.90091,0,0,0-.27686.11932.68158.68158,0,0,0-.2102.22418.765.765,0,0,0-.09555.36308c-.00606.16546-.01118.31181-.014.43905q-.00489.19086-.00513.37193v1.89975q0,.21952.00513.4246c.0028.137.00466.28152.00466.43439a2.97064,2.97064,0,0,0,.15288.921,2.05823,2.05823,0,0,0,.40083.70658,1.72746,1.72746,0,0,0,.62967.44884,2.16654,2.16654,0,0,0,.84967.15706,2.96459,2.96459,0,0,0,.921-.124,1.8073,1.8073,0,0,0,.63014-.34351,1.69783,1.69783,0,0,0,.40083-.50616,2.47583,2.47583,0,0,0,.21952-.61057,4.51677,4.51677,0,0,0,.09555-.6637q.02378-.33837.02377-.66323v-1.6229q0-.19086-.00466-.391-.00489-.20065-.01445-.38172c-.00606-.12118-.01585-.234-.02843-.33884a1.05528,1.05528,0,0,0-.05733-.25308.89386.89386,0,0,0-.329-.43439,1.60149,1.60149,0,0,0-.69213-.234v-.09554h2.36723v.09554A1.35881,1.35881,0,0,0,31.03684,39.19748Z"/><path class="cls-1" d="M33.08434,45.79347v-.09555a1.92518,1.92518,0,0,0,.44371-.124.94037.94037,0,0,0,.34863-.24842.38025.38025,0,0,0,.07131-.16219,2.01893,2.01893,0,0,0,.03821-.248c.00979-.09555.01585-.19575.01911-.30062.00327-.10534.00466-.20834.00466-.31041q0-.13353.00513-.36261.0042-.22932.00932-.501.00491-.272.00466-.55837V40.12358c0-.11465-.00466-.22092-.014-.31973a1.99536,1.99536,0,0,0-.04334-.26753.43693.43693,0,0,0-.08576-.186.76035.76035,0,0,0-.32906-.234,1.95333,1.95333,0,0,0-.44417-.10021v-.09554h2.85428v.09554a2.48439,2.48439,0,0,0-.42973.10487.61782.61782,0,0,0-.35329.30575.91721.91721,0,0,0-.09042.41015c-.00326.16593-.00792.3216-.01444.468q0,.23839-.00466.47261-.0049.2335-.00467.4726v3.19732c0,.18457.0028.36308.00933.5346a.686.686,0,0,0,.08575.36261.71037.71037,0,0,0,.36308.24842,1.9477,1.9477,0,0,0,.44837.10487v.09555Z"/><path class="cls-1" d="M42.54812,44.73406a1.8572,1.8572,0,0,1-.51548.62036,2.18335,2.18335,0,0,1-.78721.38172,3.83788,3.83788,0,0,1-1.00255.124,4.81882,4.81882,0,0,1-.80166-.05733,3.14357,3.14357,0,0,1-.5537-.138,1.95738,1.95738,0,0,1-.32906-.14822A.43446.43446,0,0,0,38.42,45.45c-.01911,0-.06059.03821-.12445.11419q-.09507.11465-.17151.22h-.08623l-.02843-1.89975H38.105a2.9937,2.9937,0,0,0,.21952.501,4.15852,4.15852,0,0,0,.29084.45816,2.59911,2.59911,0,0,0,.33418.37706,1.65339,1.65339,0,0,0,.33884.24842,2.72773,2.72773,0,0,0,.42973.17152A1.78786,1.78786,0,0,0,41.37872,45.34a1.32188,1.32188,0,0,0,.43952-1.045,1.1807,1.1807,0,0,0-.08623-.46794,1.09221,1.09221,0,0,0-.234-.34816,1.40509,1.40509,0,0,0-.34816-.25309,3.83027,3.83027,0,0,0-.42973-.19109q-.22861-.086-.40083-.14309c-.11465-.03822-.22092-.07457-.31973-.10953s-.20042-.07037-.30528-.10533c-.10534-.035-.23071-.0811-.37706-.13843A2.05329,2.05329,0,0,1,38.84,42.276a1.93473,1.93473,0,0,1-.40083-.39151,1.96881,1.96881,0,0,1-.27685-.49638,1.57966,1.57966,0,0,1-.10534-.57747,1.94621,1.94621,0,0,1,.1883-.88742,1.8087,1.8087,0,0,1,.50616-.62036,2.13436,2.13436,0,0,1,.73268-.36773,3.16013,3.16013,0,0,1,.87344-.11932,3.24844,3.24844,0,0,1,.735.07178,2.91805,2.91805,0,0,1,.501.15753,1.69329,1.69329,0,0,1,.296.15754.64706.64706,0,0,0,.11.07131c.0191,0,.05872-.03822.11931-.11466.06013-.076.11606-.15241.16686-.22884h.10487v1.766h-.10487a3.86083,3.86083,0,0,0-.296-.62548,2.83821,2.83821,0,0,0-.41994-.55371,2.03561,2.03561,0,0,0-.54392-.39617,1.49735,1.49735,0,0,0-.67768-.15241,1.78,1.78,0,0,0-.55837.08576,1.29633,1.29633,0,0,0-.45862.25775,1.18558,1.18558,0,0,0-.30529.4246,1.43878,1.43878,0,0,0-.10952.57747,1.09948,1.09948,0,0,0,.30435.81145,2.16547,2.16547,0,0,0,.79047.48706c.12678.0508.24563.09554.357.13329q.1664.05733.32859.11.16149.05244.32812.11c.11139.03775.227.07923.3477.124a2.21524,2.21524,0,0,1,1.00487.69213,1.941,1.941,0,0,1,.17058,1.95195Z"/><path class="cls-1" d="M44.57651,45.79347v-.09555a1.92913,1.92913,0,0,0,.44418-.124.94241.94241,0,0,0,.34816-.24842.38032.38032,0,0,0,.07178-.16219,2.11147,2.11147,0,0,0,.03821-.248q.014-.14333.01911-.30062c.0028-.10534.00466-.20834.00466-.31041q0-.13353.00467-.36261.00489-.22932.00978-.501.0042-.272.00466-.55837V40.12358c0-.11465-.00466-.22092-.01444-.31973a1.92762,1.92762,0,0,0-.04288-.26753.44246.44246,0,0,0-.08576-.186.76179.76179,0,0,0-.32952-.234,1.94928,1.94928,0,0,0-.44371-.10021v-.09554h2.85382v.09554A2.47975,2.47975,0,0,0,47.03,39.121a.615.615,0,0,0-.35329.30575.91074.91074,0,0,0-.09088.41015c-.00326.16593-.00792.3216-.014.468q0,.23839-.00513.47261-.00489.2335-.00466.4726v3.19732c0,.18457.00326.36308.00979.5346a.68155.68155,0,0,0,.08576.36261.70891.70891,0,0,0,.36261.24842,1.9456,1.9456,0,0,0,.44883.10487v.09555Z"/><path class="cls-1" d="M55.9736,40.71551q-.0762-.172-.1813-.358c-.06991-.12445-.14169-.2405-.2144-.34863-.07364-.10813-.145-.20834-.21486-.30062a1.43516,1.43516,0,0,0-.18131-.20508,1.00434,1.00434,0,0,0-.43439-.25308,2.66262,2.66262,0,0,0-.59658-.07178q-.18177,0-.31507-.00466c-.089-.00326-.178-.00466-.26753-.00466h-.62968q0,.23839-.00466.64925-.00489.41038-.00513.859V44.4092c0,.185.00513.36122.01445.52994a.69618.69618,0,0,0,.09089.35795.71008.71008,0,0,0,.40549.28617,4.56035,4.56035,0,0,0,.47261.11466v.09555H50.80989v-.09555a2.8647,2.8647,0,0,0,.47726-.09555.98579.98579,0,0,0,.44837-.3146.31831.31831,0,0,0,.07178-.15754,2.36171,2.36171,0,0,0,.03822-.24842q.014-.13842.01911-.30062.00489-.1622.00466-.31507c0-.089.0014-.20648.00466-.35329.00326-.14589.00653-.30855.00979-.48659.00279-.178.00466-.36261.00466-.55371V39.16905h-.63014c-.0825,0-.17012.0014-.26241.00466s-.199.00466-.31973.00466a2.14648,2.14648,0,0,0-.59658.08623,1.14133,1.14133,0,0,0-.43439.26706,1.378,1.378,0,0,0-.17665.20042q-.1.13422-.20973.2913a3.92549,3.92549,0,0,0-.21021.33884,2.12432,2.12432,0,0,0-.15753.35329l-.08576-.0289.28617-1.81352c.14635.03169.282.05733.406.07644a4.663,4.663,0,0,0,.53926.03821q.36284.00979.64925.014.28594.00558.55324.00512h1.814q.28593,0,.55324-.00512c.178-.0028.36307-.00606.5537-.00933q.28664-.00489.64925-.00466a3.05464,3.05464,0,0,0,.52015-.05266c.13656-.02843.27825-.06525.4246-.10953l.30575,1.86106Z"/><path class="cls-1" d="M63.1233,45.79347H57.28143v-.09555a1.92231,1.92231,0,0,0,.44417-.124.91047.91047,0,0,0,.33885-.23863.43182.43182,0,0,0,.07643-.16686q.02866-.10975.0522-.25308a2.96,2.96,0,0,0,.03356-.30062c.00606-.10534.00932-.20834.00932-.31041q0-.13353.00513-.36261.0042-.22932.00932-.501.00491-.272.00466-.55837V40.46709c0-.11466-.00139-.23211-.00466-.35329-.00326-.12072-.00932-.23537-.01911-.34351a1.81875,1.81875,0,0,0-.04754-.2913.40666.40666,0,0,0-.09088-.186.65532.65532,0,0,0-.30529-.19576,4.08578,4.08578,0,0,0-.41994-.0811v-.09554h5.26906l.64878,1.57535-.09508.04754a4.65,4.65,0,0,0-1.45091-1.298,2.32257,2.32257,0,0,0-.60171-.13377,8.432,8.432,0,0,0-1.06873-.05733q-.20064,0-.41528.01445a2.55486,2.55486,0,0,0-.31041.03356q-.01887.15241-.03355.62968-.014.47749-.014,1.10741v.611q0,.24819.00466.40549c.00327.10487.00467.186.00467.24329v.10534h.19109q.14332,0,.329-.00979c.12445-.00606.24842-.01445.3724-.02377a2.188,2.188,0,0,0,.31041-.04288,1.68732,1.68732,0,0,0,.47727-.1813,1.05068,1.05068,0,0,0,.30994-.27686,1.35862,1.35862,0,0,0,.1911-.37706,4.60543,4.60543,0,0,0,.12864-.48239h.11465v3.00716h-.11465a3.25479,3.25479,0,0,0-.23351-.63014,1.68747,1.68747,0,0,0-.32952-.48706,1.27245,1.27245,0,0,0-.36727-.21952,1.66774,1.66774,0,0,0-.50151-.10487c-.09508-.00606-.17478-.01119-.23863-.01445-.06339-.0028-.12724-.00466-.19063-.00466h-.43905a2.93252,2.93252,0,0,0-.01911.39151v1.14516q0,.1531.00466.2913c.00327.09228.00467.17059.00467.234q.00978.30552.03355.57748a.91813.91813,0,0,0,.10953.40549.6005.6005,0,0,0,.41062.19109,4.06556,4.06556,0,0,0,.70658.05733q.16219,0,.41481-.00979a5.218,5.218,0,0,0,.52994-.04754,2.06109,2.06109,0,0,0,.563-.14821,1.954,1.954,0,0,0,.49638-.31,3.15173,3.15173,0,0,0,.46329-.49171,6.6424,6.6424,0,0,0,.46282-.70145l.10486.02843Z"/><path class="cls-1" d="M74.415,41.13545a3.20869,3.20869,0,0,0-.37193-.859,3.03571,3.03571,0,0,0-.58726-.69679,2.67967,2.67967,0,0,0-.76344-.468,2.38233,2.38233,0,0,0-.90234-.172,2.3177,2.3177,0,0,0-1.17406.296,2.71087,2.71087,0,0,0-.86365.783,3.72068,3.72068,0,0,0-.53459,1.10228,4.351,4.351,0,0,0-.186,1.26494,4.13587,4.13587,0,0,0,.19576,1.28825,3.1833,3.1833,0,0,0,.55836,1.04543,2.64636,2.64636,0,0,0,.8781.70145,2.52165,2.52165,0,0,0,1.14516.25774,2.38578,2.38578,0,0,0,.93077-.1813,2.81711,2.81711,0,0,0,.77323-.47727,2.87734,2.87734,0,0,0,.57281-.68235,2.54675,2.54675,0,0,0,.31973-.797h.11466l-.0289,2.0997H74.3773a2.93777,2.93777,0,0,0-.23863-.296q-.12444-.13353-.172-.1333a.81839.81839,0,0,0-.172.10021,2.79045,2.79045,0,0,1-.43905.21952,4.12149,4.12149,0,0,1-.69679.20974,4.3989,4.3989,0,0,1-.94475.09089,4.7887,4.7887,0,0,1-1.60378-.25309,3.46115,3.46115,0,0,1-1.21694-.7159,3.108,3.108,0,0,1-.76857-1.10694,3.734,3.734,0,0,1-.2433-1.80886,3.46563,3.46563,0,0,1,.08576-.468,3.98253,3.98253,0,0,1,.172-.52015,3.586,3.586,0,0,1,.28151-.549,3.43456,3.43456,0,0,1,.49638-.62036,3.16655,3.16655,0,0,1,.69679-.52014,3.86639,3.86639,0,0,1,.907-.358,4.45211,4.45211,0,0,1,1.13584-.13377,4.25462,4.25462,0,0,1,1.00208.10487,4.58694,4.58694,0,0,1,.7159.22931,2.66318,2.66318,0,0,1,.43905.22931.82569.82569,0,0,0,.172.10487.16592.16592,0,0,0,.07131-.04288c.035-.02889.07318-.06385.11466-.10533.04148-.041.08436-.089.1291-.14309q.06642-.08109.124-.16686h.10487v2.13792Z"/><path class="cls-1" d="M83.10142,43.7222a3.55018,3.55018,0,0,1-.77789,1.126,3.43235,3.43235,0,0,1-1.14563.735,3.8683,3.8683,0,0,1-2.7634.00513,3.44294,3.44294,0,0,1-1.13584-.7159,3.37466,3.37466,0,0,1-.76857-1.10741,3.49961,3.49961,0,0,1-.28151-1.41735,3.54009,3.54009,0,0,1,.296-1.47469,3.31646,3.31646,0,0,1,.797-1.10741,3.51311,3.51311,0,0,1,1.17406-.69679,4.137,4.137,0,0,1,1.41735-.24329,3.54668,3.54668,0,0,1,1.456.28617,3.31071,3.31071,0,0,1,1.093.76857,3.36028,3.36028,0,0,1,.687,1.11207,3.69033,3.69033,0,0,1,.23863,1.31715A3.4648,3.4648,0,0,1,83.10142,43.7222ZM82.056,41.14477a3.72846,3.72846,0,0,0-.44837-1.07385,2.5559,2.5559,0,0,0-.74946-.78255,1.859,1.859,0,0,0-1.05941-.30063,1.897,1.897,0,0,0-1.07385.30063,2.45129,2.45129,0,0,0-.7448.77789,3.60346,3.60346,0,0,0-.42926,1.08317,5.498,5.498,0,0,0-.13842,1.22673,5.06919,5.06919,0,0,0,.1524,1.25049,3.479,3.479,0,0,0,.4535,1.05941,2.36868,2.36868,0,0,0,.75412.735,1.98282,1.98282,0,0,0,1.05474.27685,1.79867,1.79867,0,0,0,1.04543-.30528,2.57619,2.57619,0,0,0,.73967-.78768,3.78856,3.78856,0,0,0,.44371-1.08317,5.01149,5.01149,0,0,0,.14821-1.203A4.82206,4.82206,0,0,0,82.056,41.14477Z"/><path class="cls-1" d="M91.07188,45.79347h-6.128v-.09555a2.49317,2.49317,0,0,0,.47214-.124.87927.87927,0,0,0,.36774-.23863.48361.48361,0,0,0,.0811-.16686,1.62489,1.62489,0,0,0,.05266-.25308q.01888-.14333.03309-.30062c.00979-.10534.01445-.20834.01445-.31041q0-.13353.00466-.36261.0049-.22932.00979-.501.0042-.272.00466-.55837V40.14269c0-.11465-.00466-.22092-.01445-.31973a1.76206,1.76206,0,0,0-.04288-.2624.44032.44032,0,0,0-.08575-.18177.84784.84784,0,0,0-.358-.248,1.93589,1.93589,0,0,0-.4726-.11466v-.09554H88.0554v.09554c-.083.01306-.18131.03216-.296.05733a1.17984,1.17984,0,0,0-.3244.124.78523.78523,0,0,0-.2624.24376.76.76,0,0,0-.11932.41481c-.00652.22326-.01118.42647-.01444.611s-.00653.36587-.00979.54438q-.00491.26706-.00466.55324v1.73755q0,.24819.00466.51036.00489.26288.00512.58726.00909.30552.02377.58214a.85508.85508,0,0,0,.10021.41062.39662.39662,0,0,0,.15288.09554,1.52531,1.52531,0,0,0,.27685.0811q.16219.03355.35282.05733a3.08515,3.08515,0,0,0,.38172.02377c.05127,0,.13237-.0014.24376-.00466q.16639-.00489.36728-.01911c.13376-.00979.27032-.02424.41061-.04335a2.58569,2.58569,0,0,0,.3724-.076,2.137,2.137,0,0,0,.63434-.27685,1.99117,1.99117,0,0,0,.43439-.39617,2.40514,2.40514,0,0,0,.30575-.487q.12375-.26217.23863-.54858l.09508.02843Z"/><path class="cls-1" d="M98.78413,45.79347h-6.128v-.09555a2.507,2.507,0,0,0,.47261-.124.8775.8775,0,0,0,.36727-.23863.48343.48343,0,0,0,.0811-.16686,1.57327,1.57327,0,0,0,.05267-.25308q.01887-.14333.03355-.30062c.00932-.10534.014-.20834.014-.31041q0-.13353.00512-.36261.0042-.22932.00932-.501.00491-.272.00466-.55837V40.14269c0-.11465-.00466-.22092-.014-.31973a1.89174,1.89174,0,0,0-.04288-.2624.44061.44061,0,0,0-.08622-.18177.842.842,0,0,0-.35795-.248,1.93608,1.93608,0,0,0-.47261-.11466v-.09554h3.04538v.09554q-.12444.01959-.296.05733a1.18839,1.18839,0,0,0-.32486.124.79408.79408,0,0,0-.26241.24376.7639.7639,0,0,0-.11931.41481c-.00653.22326-.01119.42647-.01445.611s-.00606.36587-.00932.54438q-.0049.26706-.00466.55324v1.73755q0,.24819.00466.51036.00489.26288.00466.58726.00978.30552.02377.58214a.86582.86582,0,0,0,.1002.41062.40048.40048,0,0,0,.15288.09554,1.5483,1.5483,0,0,0,.27685.0811q.1622.03355.35329.05733a3.08515,3.08515,0,0,0,.38172.02377c.05081,0,.1319-.0014.2433-.00466s.234-.00979.36774-.01911c.13329-.00979.27032-.02424.41015-.04335a2.55992,2.55992,0,0,0,.3724-.076,2.14017,2.14017,0,0,0,.6348-.27685,2.00175,2.00175,0,0,0,.43439-.39617,2.40355,2.40355,0,0,0,.30528-.487q.12375-.26217.23863-.54858l.09555.02843Z"/><path class="cls-1" d="M106.27733,45.79347h-5.84187v-.09555a1.92518,1.92518,0,0,0,.44371-.124.903.903,0,0,0,.33884-.23863.43181.43181,0,0,0,.07644-.16686q.02867-.10975.05266-.25308a2.83674,2.83674,0,0,0,.0331-.30062c.00652-.10534.00978-.20834.00978-.31041q0-.13353.00466-.36261.0049-.22932.00979-.501.0042-.272.00466-.55837V40.46709c0-.11466-.00186-.23211-.00466-.35329q-.00489-.18108-.01911-.34351a1.81627,1.81627,0,0,0-.048-.2913.40674.40674,0,0,0-.09042-.186.65652.65652,0,0,0-.30575-.19576,4.0611,4.0611,0,0,0-.41994-.0811v-.09554h5.26905l.64925,1.57535-.09554.04754a4.65,4.65,0,0,0-1.45092-1.298,2.31264,2.31264,0,0,0-.60124-.13377,8.43982,8.43982,0,0,0-1.06919-.05733q-.20065,0-.41528.01445a2.54429,2.54429,0,0,0-.31.03356q-.01957.15241-.03355.62968-.01469.47749-.01445,1.10741v.611q0,.24819.00466.40549c.00326.10487.00513.186.00513.24329v.10534h.19062q.14333,0,.32952-.00979c.124-.00606.248-.01445.3724-.02377a2.17083,2.17083,0,0,0,.31-.04288,1.67633,1.67633,0,0,0,.47726-.1813,1.05263,1.05263,0,0,0,.31041-.27686A1.35749,1.35749,0,0,0,104.64,41.293a4.48773,4.48773,0,0,0,.12911-.48239h.11465v3.00716h-.11465a3.28827,3.28827,0,0,0-.234-.63014,1.68729,1.68729,0,0,0-.32905-.48706,1.275,1.275,0,0,0-.36774-.21952,1.66454,1.66454,0,0,0-.501-.10487c-.09554-.00606-.17524-.01119-.23863-.01445-.06385-.0028-.12724-.00466-.19109-.00466h-.43905a3.01347,3.01347,0,0,0-.01911.39151v1.14516q0,.1531.00466.2913c.00326.09228.00513.17059.00513.234q.00907.30552.03309.57748a.91114.91114,0,0,0,.11.40549.59937.59937,0,0,0,.41062.19109,4.06389,4.06389,0,0,0,.70611.05733q.16219,0,.41528-.00979a5.22991,5.22991,0,0,0,.52994-.04754,2.07011,2.07011,0,0,0,.563-.14821,1.96214,1.96214,0,0,0,.49638-.31,3.14949,3.14949,0,0,0,.46282-.49171,6.50026,6.50026,0,0,0,.46282-.70145l.10533.02843Z"/><path class="cls-1" d="M114.6104,41.13545a3.225,3.225,0,0,0-.3724-.859,3.04546,3.04546,0,0,0-.5868-.69679,2.67564,2.67564,0,0,0-.76391-.468,2.37817,2.37817,0,0,0-.90186-.172,2.31647,2.31647,0,0,0-1.17406.296,2.71741,2.71741,0,0,0-.86412.783,3.731,3.731,0,0,0-.53413,1.10228,4.33589,4.33589,0,0,0-.18643,1.26494,4.13616,4.13616,0,0,0,.19575,1.28825,3.19207,3.19207,0,0,0,.55837,1.04543,2.65109,2.65109,0,0,0,.8781.70145,2.525,2.525,0,0,0,1.14563.25774,2.38741,2.38741,0,0,0,.93076-.1813,2.817,2.817,0,0,0,.77323-.47727,2.87546,2.87546,0,0,0,.57235-.68235,2.52463,2.52463,0,0,0,.31973-.797h.11466l-.02843,2.0997h-.11466a2.93777,2.93777,0,0,0-.23863-.296c-.083-.089-.13983-.1333-.172-.1333a.83578.83578,0,0,0-.17152.10021,2.83261,2.83261,0,0,1-.439.21952,4.135,4.135,0,0,1-.6968.20974,4.40338,4.40338,0,0,1-.94521.09089,4.7888,4.7888,0,0,1-1.60379-.25309,3.46124,3.46124,0,0,1-1.21694-.7159,3.10682,3.10682,0,0,1-.7681-1.10694,3.72949,3.72949,0,0,1-.24376-1.80886,3.46891,3.46891,0,0,1,.08623-.468,3.90925,3.90925,0,0,1,.17151-.52015,3.59176,3.59176,0,0,1,.282-.549,3.412,3.412,0,0,1,.49591-.62036,3.16987,3.16987,0,0,1,.69726-.52014,3.86284,3.86284,0,0,1,.90653-.358,4.45466,4.45466,0,0,1,1.13584-.13377,4.2615,4.2615,0,0,1,1.00254.10487,4.61929,4.61929,0,0,1,.7159.22931,2.70189,2.70189,0,0,1,.43905.22931.84385.84385,0,0,0,.17152.10487.164.164,0,0,0,.07178-.04288c.035-.02889.07317-.06385.11465-.10533.041-.041.08436-.089.12864-.14309a1.90444,1.90444,0,0,0,.124-.16686h.10533v2.13792Z"/><path class="cls-1" d="M123.21986,40.71551q-.0762-.172-.18131-.358c-.06991-.12445-.14169-.2405-.2144-.34863-.07364-.10813-.145-.20834-.21486-.30062a1.4352,1.4352,0,0,0-.1813-.20508,1.0044,1.0044,0,0,0-.43439-.25308,2.66279,2.66279,0,0,0-.59659-.07178q-.18177,0-.31507-.00466c-.089-.00326-.178-.00466-.26753-.00466h-.62968q0,.23839-.00466.64925-.00489.41038-.00512.859V44.4092c0,.185.00512.36122.01445.52994a.69609.69609,0,0,0,.09088.35795.71011.71011,0,0,0,.40549.28617,4.561,4.561,0,0,0,.47261.11466v.09555h-3.10224v-.09555a2.865,2.865,0,0,0,.47727-.09555.98579.98579,0,0,0,.44837-.3146.31831.31831,0,0,0,.07177-.15754,2.3591,2.3591,0,0,0,.03822-.24842q.014-.13842.01911-.30062.0049-.1622.00466-.31507c0-.089.0014-.20648.00466-.35329.00327-.14589.00653-.30855.00979-.48659q.0042-.26706.00466-.55371V39.16905h-.63014c-.0825,0-.17012.0014-.2624.00466s-.199.00466-.31974.00466a2.14654,2.14654,0,0,0-.59658.08623,1.1414,1.1414,0,0,0-.43439.26706,1.37742,1.37742,0,0,0-.17664.20042q-.1.13422-.20974.2913a3.92545,3.92545,0,0,0-.2102.33884,2.1244,2.1244,0,0,0-.15754.35329l-.08576-.0289.28618-1.81352c.14635.03169.282.05733.406.07644a4.663,4.663,0,0,0,.53926.03821q.36285.00979.64925.014.28594.00558.55324.00512h1.814q.28594,0,.55324-.00512c.178-.0028.36308-.00606.5537-.00933q.28665-.00489.64926-.00466a3.05451,3.05451,0,0,0,.52014-.05266c.13657-.02843.27825-.06525.4246-.10953l.30575,1.86106Z"/><path class="cls-1" d="M124.57569,45.79347v-.09555a1.92518,1.92518,0,0,0,.44371-.124.94029.94029,0,0,0,.34863-.24842.38025.38025,0,0,0,.07131-.16219,2.01684,2.01684,0,0,0,.03822-.248c.00978-.09555.01584-.19575.01911-.30062.00326-.10534.00466-.20834.00466-.31041q0-.13353.00512-.36261.0042-.22932.00933-.501.00489-.272.00466-.55837V40.12358c0-.11465-.00466-.22092-.014-.31973a1.99376,1.99376,0,0,0-.04334-.26753.43681.43681,0,0,0-.08576-.186.76038.76038,0,0,0-.32905-.234,1.95355,1.95355,0,0,0-.44418-.10021v-.09554h2.85428v.09554a2.48407,2.48407,0,0,0-.42972.10487.61776.61776,0,0,0-.35329.30575.91694.91694,0,0,0-.09042.41015c-.00327.16593-.00793.3216-.01445.468q0,.23839-.00466.47261-.00489.2335-.00466.4726v3.19732c0,.18457.00279.36308.00932.5346a.6859.6859,0,0,0,.08576.36261.71033.71033,0,0,0,.36308.24842,1.94758,1.94758,0,0,0,.44837.10487v.09555Z"/><path class="cls-1" d="M136.04875,43.7222a3.54229,3.54229,0,0,1-.77789,1.126,3.42563,3.42563,0,0,1-1.14516.735,3.8683,3.8683,0,0,1-2.7634.00513,3.44981,3.44981,0,0,1-1.1363-.7159,3.36645,3.36645,0,0,1-.76811-1.10741,3.7657,3.7657,0,0,1,.01445-2.892,3.3166,3.3166,0,0,1,.797-1.10741,3.504,3.504,0,0,1,1.17406-.69679,4.13506,4.13506,0,0,1,1.41736-.24329,3.54446,3.54446,0,0,1,1.45557.28617,3.30587,3.30587,0,0,1,1.093.76857,3.36145,3.36145,0,0,1,.68747,1.11207,3.69033,3.69033,0,0,1,.23863,1.31715A3.45734,3.45734,0,0,1,136.04875,43.7222Zm-1.04495-2.57743a3.729,3.729,0,0,0-.44884-1.07385,2.55567,2.55567,0,0,0-.74946-.78255,1.85688,1.85688,0,0,0-1.0594-.30063,1.89914,1.89914,0,0,0-1.07385.30063,2.44987,2.44987,0,0,0-.74433.77789,3.60383,3.60383,0,0,0-.42973,1.08317,5.49744,5.49744,0,0,0-.13843,1.22673,5.04653,5.04653,0,0,0,.15288,1.25049,3.46727,3.46727,0,0,0,.45349,1.05941,2.36878,2.36878,0,0,0,.75412.735,1.98172,1.98172,0,0,0,1.05475.27685,1.79712,1.79712,0,0,0,1.045-.30528,2.57607,2.57607,0,0,0,.73967-.78768,3.789,3.789,0,0,0,.44418-1.08317,5.03457,5.03457,0,0,0,.14775-1.203A4.84431,4.84431,0,0,0,135.0038,41.14477Z"/><path class="cls-1" d="M145.074,39.19748a.84722.84722,0,0,0-.32906.41062,1.6094,1.6094,0,0,0-.08622.52993q-.01887.38663-.03822.82543-.01887.41039-.03309.969-.01468.5586-.01445,1.19783v.611q0,.33419.00466.68234c.00326.23258.00513.46282.00513.69213v.62036a.08393.08393,0,0,1-.02424.062.09686.09686,0,0,1-.07131.02377.2628.2628,0,0,1-.172-.09508q-.81168-.93543-1.47935-1.71845-.66835-.78231-1.27426-1.49379-.60684-.711-1.18851-1.38892-.58238-.67744-1.23139-1.40291v4.02788q0,.48729.02377.8781a1.58251,1.58251,0,0,0,.11932.5826.689.689,0,0,0,.32952.32906,1.96891,1.96891,0,0,0,.61569.15753v.09555h-2.34812v-.09555a1.87368,1.87368,0,0,0,.45816-.11932.74293.74293,0,0,0,.36261-.30062,1.31167,1.31167,0,0,0,.172-.59192q.03776-.39081.05686-.93543.01958-.41038.0289-.96852.00907-.5586.00932-1.19829V40.41955q0-.19086-.00932-.468a1.10867,1.10867,0,0,0-.13377-.4535.88093.88093,0,0,0-.248-.27638.95068.95068,0,0,0-.31041-.14356,2.67323,2.67323,0,0,0-.31973-.062v-.09554h1.9375l4.52472,5.28816V40.96346q0-.38172-.00978-.73035a1.716,1.716,0,0,0-.08576-.54857.87565.87565,0,0,0-.33884-.43439,1.678,1.678,0,0,0-.70146-.234v-.09554h2.36723v.09554A1.44616,1.44616,0,0,0,145.074,39.19748Z"/><path class="cls-1" d="M156.98188,43.7222a3.55018,3.55018,0,0,1-.77789,1.126,3.43245,3.43245,0,0,1-1.14563.735,3.8683,3.8683,0,0,1-2.7634.00513,3.44294,3.44294,0,0,1-1.13584-.7159,3.37466,3.37466,0,0,1-.76857-1.10741,3.49961,3.49961,0,0,1-.28151-1.41735,3.54009,3.54009,0,0,1,.296-1.47469,3.31646,3.31646,0,0,1,.797-1.10741,3.51311,3.51311,0,0,1,1.17406-.69679,4.137,4.137,0,0,1,1.41735-.24329,3.54672,3.54672,0,0,1,1.456.28617,3.31071,3.31071,0,0,1,1.093.76857,3.36028,3.36028,0,0,1,.687,1.11207,3.69033,3.69033,0,0,1,.23863,1.31715A3.465,3.465,0,0,1,156.98188,43.7222Zm-1.04542-2.57743a3.72846,3.72846,0,0,0-.44837-1.07385,2.5559,2.5559,0,0,0-.74946-.78255,1.859,1.859,0,0,0-1.05941-.30063,1.897,1.897,0,0,0-1.07385.30063,2.45129,2.45129,0,0,0-.7448.77789,3.60346,3.60346,0,0,0-.42926,1.08317,5.498,5.498,0,0,0-.13842,1.22673,5.06919,5.06919,0,0,0,.1524,1.25049,3.479,3.479,0,0,0,.4535,1.05941,2.36868,2.36868,0,0,0,.75412.735,1.98282,1.98282,0,0,0,1.05474.27685,1.79862,1.79862,0,0,0,1.04542-.30528,2.5761,2.5761,0,0,0,.73968-.78768,3.78856,3.78856,0,0,0,.44371-1.08317,5.01149,5.01149,0,0,0,.14821-1.203A4.82206,4.82206,0,0,0,155.93646,41.14477Z"/><path class="cls-1" d="M164.83768,40.572a9.3153,9.3153,0,0,0-.74433-.8301,2.7182,2.7182,0,0,0-.68747-.50616,2.18554,2.18554,0,0,0-.58726-.12864,8.15649,8.15649,0,0,0-.98763-.05267c-.06385,0-.137.00187-.21952.00466-.083.00327-.1622.00653-.23864.00979s-.14821.00653-.21486.00932c-.06665.00327-.11606.00513-.14822.00513-.006.03775-.014.076-.02377.11419a1.23872,1.23872,0,0,0-.02377.13377c-.00652.0508-.01258.11605-.01911.19575s-.01258.17665-.0191.2913q-.00979.33418-.01445.72988-.0049.3964-.00466.74946v.907h.172c.10161,0,.21486-.00326.33884-.00979.124-.00606.25308-.01445.38638-.02377a2.51219,2.51219,0,0,0,.33418-.04288,1.77312,1.77312,0,0,0,.54392-.20041,1.015,1.015,0,0,0,.31507-.296,1.13385,1.13385,0,0,0,.1622-.37706c.03216-.137.06059-.28477.08622-.44417h.11466V43.8844h-.11466a4.43,4.43,0,0,0-.21952-.64413,1.4547,1.4547,0,0,0-.344-.52061,1.29174,1.29174,0,0,0-.38638-.2433,1.62478,1.62478,0,0,0-.48193-.1002c-.09555-.00606-.17851-.01119-.24842-.01445-.06991-.0028-.13656-.00466-.20042-.00466h-.45815v1.18384c0,.17805.00139.34211.00466.49125q.00489.22443.00512.38685.00909.30552.0331.57748a.91114.91114,0,0,0,.11.40549.54185.54185,0,0,0,.2913.20554,2.24221,2.24221,0,0,0,.59659.09042v.09555H158.891v-.09555a1.92518,1.92518,0,0,0,.44371-.124.903.903,0,0,0,.33884-.23863.43181.43181,0,0,0,.07644-.16686q.02866-.10975.05266-.25308a2.83418,2.83418,0,0,0,.03309-.30062c.00653-.10534.00979-.20834.00979-.31041q0-.13353.00466-.36261.0049-.22932.00979-.501.0042-.272.00466-.55837V40.46709c0-.11466-.00186-.23211-.00466-.35329q-.00489-.18108-.01911-.34351a1.81738,1.81738,0,0,0-.048-.2913.40684.40684,0,0,0-.09042-.186.65652.65652,0,0,0-.30575-.19576,4.06163,4.06163,0,0,0-.41994-.0811v-.09554H164.284l.64925,1.60378Z"/><path class="cls-1" d="M173.81488,44.73406a1.86268,1.86268,0,0,1-.51549.62036,2.18171,2.18171,0,0,1-.78767.38172,3.83429,3.83429,0,0,1-1.00208.124,4.82478,4.82478,0,0,1-.80213-.05733,3.13725,3.13725,0,0,1-.55323-.138,1.965,1.965,0,0,1-.32952-.14822.42992.42992,0,0,0-.13843-.06664c-.01911,0-.06059.03821-.124.11419q-.09578.11465-.172.22h-.08576l-.0289-1.89975h.09555a3.03265,3.03265,0,0,0,.21952.501,4.16282,4.16282,0,0,0,.2913.45816,2.57272,2.57272,0,0,0,.33418.37706,1.62876,1.62876,0,0,0,.33885.24842,2.72,2.72,0,0,0,.42926.17152,1.78877,1.78877,0,0,0,1.66111-.30062,1.32154,1.32154,0,0,0,.43905-1.045,1.18085,1.18085,0,0,0-.08576-.46794,1.10014,1.10014,0,0,0-.234-.34816,1.41658,1.41658,0,0,0-.34863-.25309,3.82229,3.82229,0,0,0-.42926-.19109q-.22932-.086-.40083-.14309-.172-.05733-.31973-.10953c-.09881-.035-.20089-.07037-.30575-.10533s-.23071-.0811-.37706-.13843a2.06263,2.06263,0,0,1-.47727-.2624,1.96361,1.96361,0,0,1-.67768-.88789,1.589,1.589,0,0,1-.10487-.57747,1.94027,1.94027,0,0,1,.18829-.88742,1.81284,1.81284,0,0,1,.5057-.62036,2.14083,2.14083,0,0,1,.73315-.36773,3.15762,3.15762,0,0,1,.87344-.11932,3.25132,3.25132,0,0,1,.735.07178,2.93185,2.93185,0,0,1,.501.15753,1.729,1.729,0,0,1,.296.15754.65576.65576,0,0,0,.10953.07131c.01911,0,.05872-.03822.11931-.11466.06059-.076.11606-.15241.16733-.22884h.10486v1.766h-.10486a3.86005,3.86005,0,0,0-.296-.62548,2.8564,2.8564,0,0,0-.41993-.55371,2.03774,2.03774,0,0,0-.54439-.39617,1.49593,1.49593,0,0,0-.67768-.15241,1.78214,1.78214,0,0,0-.55837.08576,1.29425,1.29425,0,0,0-.45815.25775,1.17983,1.17983,0,0,0-.30529.4246,1.43077,1.43077,0,0,0-.11.57747,1.098,1.098,0,0,0,.30481.81145,2.1656,2.1656,0,0,0,.79048.48706c.12677.0508.24562.09554.35655.13329q.16708.05733.32859.11c.10813.035.21719.07178.32859.11q.16638.05663.34769.124a2.21374,2.21374,0,0,1,1.00441.69213,1.94284,1.94284,0,0,1,.171,1.95195Z"/><path class="cls-1" d="M181.63713,45.79347h-5.84187v-.09555a1.92253,1.92253,0,0,0,.44418-.124.91051.91051,0,0,0,.33884-.23863.43181.43181,0,0,0,.07644-.16686q.02865-.10975.0522-.25308a2.96289,2.96289,0,0,0,.03355-.30062c.00606-.10534.00933-.20834.00933-.31041q0-.13353.00512-.36261.0042-.22932.00932-.501.0049-.272.00467-.55837V40.46709c0-.11466-.0014-.23211-.00467-.35329-.00326-.12072-.00932-.23537-.0191-.34351a1.821,1.821,0,0,0-.04754-.2913.40675.40675,0,0,0-.09089-.186.65529.65529,0,0,0-.30528-.19576,4.08686,4.08686,0,0,0-.41994-.0811v-.09554h5.269l.64878,1.57535-.09508.04754a4.65,4.65,0,0,0-1.45091-1.298,2.32257,2.32257,0,0,0-.60171-.13377,8.43194,8.43194,0,0,0-1.06872-.05733q-.20065,0-.41528.01445a2.55437,2.55437,0,0,0-.31041.03356q-.01889.15241-.03356.62968-.014.47749-.014,1.10741v.611q0,.24819.00466.40549c.00326.10487.00466.186.00466.24329v.10534h.19109q.14333,0,.32905-.00979c.12445-.00606.24843-.01445.3724-.02377a2.188,2.188,0,0,0,.31041-.04288,1.6872,1.6872,0,0,0,.47727-.1813,1.05072,1.05072,0,0,0,.30995-.27686,1.3586,1.3586,0,0,0,.19109-.37706,4.60543,4.60543,0,0,0,.12864-.48239h.11465v3.00716h-.11465a3.25479,3.25479,0,0,0-.23351-.63014,1.68727,1.68727,0,0,0-.32952-.48706,1.27231,1.27231,0,0,0-.36727-.21952,1.66767,1.66767,0,0,0-.5015-.10487c-.09509-.00606-.17479-.01119-.23864-.01445-.06339-.0028-.12724-.00466-.19063-.00466h-.439a2.93081,2.93081,0,0,0-.01911.39151v1.14516q0,.1531.00466.2913c.00326.09228.00466.17059.00466.234q.00978.30552.03356.57748a.918.918,0,0,0,.10952.40549.6005.6005,0,0,0,.41062.19109,4.06564,4.06564,0,0,0,.70658.05733q.16219,0,.41481-.00979a5.2177,5.2177,0,0,0,.52994-.04754,2.06126,2.06126,0,0,0,.563-.14821,1.95409,1.95409,0,0,0,.49637-.31,3.15079,3.15079,0,0,0,.46329-.49171,6.6424,6.6424,0,0,0,.46282-.70145l.10487.02843Z"/><path class="cls-1" d="M187.38345,45.79347v-.09555a1.07355,1.07355,0,0,0,.13842-.01911,1.147,1.147,0,0,0,.22885-.06665.655.655,0,0,0,.2102-.13376.28861.28861,0,0,0,.09042-.21953,1.24869,1.24869,0,0,0-.0522-.28151q-.05243-.19575-.14821-.47727-.09508-.28175-.21953-.625-.12374-.344-.26706-.71591h-2.53921q-.14333.36285-.27686.69167-.13353.32928-.26706.6637a2.40726,2.40726,0,0,0-.20042.72522.28455.28455,0,0,0,.07644.20508.58483.58483,0,0,0,.19529.13376,1.10387,1.10387,0,0,0,.25774.07644q.13843.02378.26287.04288v.09555h-2.03351V45.6886a1.06173,1.06173,0,0,0,.42506-.13377.94333.94333,0,0,0,.20508-.14308,2.09435,2.09435,0,0,0,.21953-.31507,6.94347,6.94347,0,0,0,.37239-.735q.20066-.44883.44837-1.02118.24819-.57328.51083-1.17919.26217-.60614.52015-1.2216.258-.61592.487-1.15029l-.09554-.20973a1.57025,1.57025,0,0,0,.31041-.18177,1.86688,1.86688,0,0,0,.24329-.21953,1.95011,1.95011,0,0,0,.17665-.21952c.04754-.06992.08389-.12724.10952-.17152h.07644q.29572.7921.563,1.50311.26706.71171.51082,1.36982.2433.65856.47261,1.27426.22861.61593.45816,1.21694.10487.29643.19575.49172.0902.19575.20508.44371a1.26379,1.26379,0,0,0,.08576.13376,1.20389,1.20389,0,0,0,.17664.19576,1.08934,1.08934,0,0,0,.2722.17664.98753.98753,0,0,0,.38172.08576v.11466Zm-1.2505-5.78454c-.03822.083-.09415.21346-.16686.39151q-.11046.26706-.27219.64878-.1622.38243-.358.86412t-.4246,1.045h2.37655q-.1622-.42925-.329-.859-.16779-.42925-.32486-.82543-.15731-.39639-.28618-.72569Q186.21848,40.2189,186.133,40.00893Z"/><path class="cls-1" d="M195.95982,44.73406a1.85735,1.85735,0,0,1-.51549.62036,2.18335,2.18335,0,0,1-.78721.38172,3.83785,3.83785,0,0,1-1.00254.124,4.81865,4.81865,0,0,1-.80166-.05733,3.14348,3.14348,0,0,1-.55371-.138,1.95721,1.95721,0,0,1-.329-.14822.43447.43447,0,0,0-.13843-.06664c-.01911,0-.06059.03821-.12444.11419q-.09508.11465-.17152.22h-.08623l-.02843-1.89975h.09555a2.99451,2.99451,0,0,0,.21952.501,4.16,4.16,0,0,0,.29084.45816,2.59911,2.59911,0,0,0,.33418.37706,1.65339,1.65339,0,0,0,.33884.24842,2.72773,2.72773,0,0,0,.42973.17152,1.78788,1.78788,0,0,0,1.66065-.30062,1.32187,1.32187,0,0,0,.43951-1.045,1.18088,1.18088,0,0,0-.08622-.46794,1.0924,1.0924,0,0,0-.234-.34816,1.4049,1.4049,0,0,0-.34816-.25309,3.82946,3.82946,0,0,0-.42973-.19109q-.22861-.086-.40083-.14309c-.11465-.03822-.22092-.07457-.31973-.10953s-.20041-.07037-.30528-.10533c-.10534-.035-.23071-.0811-.37706-.13843a2.05329,2.05329,0,0,1-.47727-.2624,1.935,1.935,0,0,1-.40083-.39151,1.96881,1.96881,0,0,1-.27685-.49638,1.57966,1.57966,0,0,1-.10534-.57747,1.94621,1.94621,0,0,1,.1883-.88742,1.80882,1.80882,0,0,1,.50616-.62036,2.13441,2.13441,0,0,1,.73269-.36773,3.16,3.16,0,0,1,.87343-.11932,3.24832,3.24832,0,0,1,.735.07178,2.91805,2.91805,0,0,1,.501.15753,1.69329,1.69329,0,0,1,.296.15754.64706.64706,0,0,0,.11.07131c.01911,0,.05872-.03822.11931-.11466.06013-.076.11606-.15241.16686-.22884h.10487v1.766h-.10487a3.86083,3.86083,0,0,0-.296-.62548,2.83821,2.83821,0,0,0-.41994-.55371,2.03545,2.03545,0,0,0-.54392-.39617,1.49729,1.49729,0,0,0-.67768-.15241,1.78005,1.78005,0,0,0-.55837.08576,1.29633,1.29633,0,0,0-.45862.25775,1.18544,1.18544,0,0,0-.30528.4246,1.43861,1.43861,0,0,0-.10953.57747,1.09948,1.09948,0,0,0,.30435.81145,2.16556,2.16556,0,0,0,.79047.48706c.12678.0508.24563.09554.357.13329q.16639.05733.32859.11.16149.05244.32812.11c.11139.03775.227.07923.3477.124a2.21524,2.21524,0,0,1,1.00487.69213,1.941,1.941,0,0,1,.17059,1.95195Z"/><path class="cls-1" d="M197.9882,45.79347v-.09555a1.929,1.929,0,0,0,.44418-.124.94241.94241,0,0,0,.34816-.24842.38032.38032,0,0,0,.07178-.16219,2.1134,2.1134,0,0,0,.03822-.248q.014-.14333.01911-.30062c.00279-.10534.00466-.20834.00466-.31041q0-.13353.00466-.36261.00489-.22932.00979-.501c.00279-.18131.00466-.36774.00466-.55837V40.12358c0-.11465-.00466-.22092-.01445-.31973a1.92612,1.92612,0,0,0-.04288-.26753.44246.44246,0,0,0-.08576-.186.76179.76179,0,0,0-.32952-.234,1.94915,1.94915,0,0,0-.44371-.10021v-.09554h2.85382v.09554a2.47944,2.47944,0,0,0-.42926.10487.61492.61492,0,0,0-.35329.30575.9106.9106,0,0,0-.09089.41015c-.00326.16593-.00792.3216-.014.468q0,.23839-.00513.47261-.00489.2335-.00466.4726v3.19732c0,.18457.00326.36308.00979.5346a.68155.68155,0,0,0,.08576.36261.70891.70891,0,0,0,.36261.24842,1.94556,1.94556,0,0,0,.44884.10487v.09555Z"/><path class="cls-1" d="M209.987,43.52179a3.07623,3.07623,0,0,1-.468.93542,2.76094,2.76094,0,0,1-.687.64879,3.72407,3.72407,0,0,1-.83056.41061,4.58174,4.58174,0,0,1-.907.21487,6.87733,6.87733,0,0,1-.90653.062h-3.48443v-.09555a1.68414,1.68414,0,0,0,.46329-.124.90025.90025,0,0,0,.33884-.22931.32134.32134,0,0,0,.07131-.1622q.02376-.11464.04334-.25774c.01259-.09508.02191-.19715.02843-.30528q.00909-.1622.00933-.31507,0-.13353.00512-.36261.0042-.22932.00932-.501.00491-.272.00466-.55837V40.12358c0-.11465-.00466-.22092-.014-.31973a2.07592,2.07592,0,0,0-.04288-.26753.44266.44266,0,0,0-.08622-.186.75083.75083,0,0,0-.3435-.23864,2.25055,2.25055,0,0,0-.44884-.09555v-.09554q.40129,0,1.15495-.00466.75435-.00491,1.82331-.00466h.611q.31461,0,.63015.02843a5.43983,5.43983,0,0,1,.62967.09554,3.21833,3.21833,0,0,1,.62036.20042,3.59007,3.59007,0,0,1,.75412.43905,2.92713,2.92713,0,0,1,.61569.6348,3.11025,3.11025,0,0,1,.41994.84967,3.5373,3.5373,0,0,1,.15754,1.10228A4.2032,4.2032,0,0,1,209.987,43.52179ZM208.813,41.2021a3.47412,3.47412,0,0,0-.47727-.94988,3.06037,3.06037,0,0,0-.72569-.72056,2.238,2.238,0,0,0-.91632-.38172c-.12724-.02517-.26706-.04614-.41993-.062a5.59757,5.59757,0,0,0-.563-.02377c-.07644,0-.1594.0014-.24842.00466s-.17665.00932-.26241.01911c-.08576.00932-.16546.01771-.23863.02377a.99857.99857,0,0,0-.17665.02843q-.04753.46842-.05732,1.28872-.00979.82146-.00933,1.95707v1.11674q0,.49637.00933.81144,0,.13354.01445.29084c.00932.10533.0205.20694.03355.30575a1.24818,1.24818,0,0,0,.062.26706.47366.47366,0,0,0,.10021.17665.8831.8831,0,0,0,.48193.24329,3.10288,3.10288,0,0,0,.549.05267q.23841,0,.49125-.02377a2.37253,2.37253,0,0,0,.47261-.09089,2.53216,2.53216,0,0,0,1.5418-1.15029,4.03858,4.03858,0,0,0,.51036-2.10482A3.45754,3.45754,0,0,0,208.813,41.2021Z"/><path class="cls-1" d="M217.63261,45.79347h-5.84187v-.09555a1.92253,1.92253,0,0,0,.44418-.124.91051.91051,0,0,0,.33884-.23863.43181.43181,0,0,0,.07644-.16686q.02866-.10975.0522-.25308a2.96283,2.96283,0,0,0,.03356-.30062c.00606-.10534.00932-.20834.00932-.31041q0-.13353.00513-.36261.00419-.22932.00932-.501.00489-.272.00466-.55837V40.46709c0-.11466-.0014-.23211-.00466-.35329-.00327-.12072-.00932-.23537-.01911-.34351a1.81987,1.81987,0,0,0-.04754-.2913.40666.40666,0,0,0-.09089-.186.65529.65529,0,0,0-.30528-.19576,4.08578,4.08578,0,0,0-.41994-.0811v-.09554h5.269l.64879,1.57535-.09508.04754a4.65,4.65,0,0,0-1.45092-1.298,2.32247,2.32247,0,0,0-.60171-.13377,8.43183,8.43183,0,0,0-1.06872-.05733q-.20066,0-.41528.01445a2.55462,2.55462,0,0,0-.31041.03356q-.01888.15241-.03356.62968-.014.47749-.014,1.10741v.611q0,.24819.00466.40549c.00326.10487.00466.186.00466.24329v.10534h.19109q.14333,0,.32906-.00979c.12444-.00606.24842-.01445.3724-.02377a2.18846,2.18846,0,0,0,.31041-.04288,1.68725,1.68725,0,0,0,.47726-.1813,1.05072,1.05072,0,0,0,.31-.27686,1.35833,1.35833,0,0,0,.19109-.37706,4.60543,4.60543,0,0,0,.12864-.48239h.11466v3.00716h-.11466a3.25413,3.25413,0,0,0-.23351-.63014,1.68727,1.68727,0,0,0-.32952-.48706,1.27231,1.27231,0,0,0-.36727-.21952,1.66767,1.66767,0,0,0-.5015-.10487c-.09508-.00606-.17478-.01119-.23864-.01445-.06338-.0028-.12724-.00466-.19062-.00466h-.439a2.93252,2.93252,0,0,0-.01911.39151v1.14516q0,.1531.00466.2913c.00326.09228.00466.17059.00466.234q.00978.30552.03356.57748a.91786.91786,0,0,0,.10953.40549.60044.60044,0,0,0,.41061.19109,4.06573,4.06573,0,0,0,.70658.05733q.16221,0,.41482-.00979a5.21776,5.21776,0,0,0,.52993-.04754,2.06126,2.06126,0,0,0,.563-.14821,1.95432,1.95432,0,0,0,.49638-.31,3.15122,3.15122,0,0,0,.46328-.49171,6.64084,6.64084,0,0,0,.46282-.70145l.10487.02843Z"/><path class="cls-1" d="M227.75031,45.79347c-.05686-.05733-.09834-.10021-.124-.12864-.02563-.0289-.05406-.06246-.08576-.10067a1.7033,1.7033,0,0,1-.11931-.16686q-.072-.10977-.22419-.32906-.18177-.26775-.3202-.48239t-.28151-.4246c-.09508-.13982-.199-.28151-.30994-.4246q-.1671-.21532-.39617-.4824a3.88007,3.88007,0,0,0-.41528-.41015,1.02652,1.02652,0,0,0-.47261-.23863,1.44274,1.44274,0,0,0-.27685-.03822q-.086,0-.21953-.00979v1.079q0,.45793.00979.77276c.00606.20415.01259.37893.01911.52528a.69239.69239,0,0,0,.10487.36261.84189.84189,0,0,0,.296.25308,1.345,1.345,0,0,0,.611.14775v.09555H222.491v-.09555a2.62538,2.62538,0,0,0,.45816-.11466.74421.74421,0,0,0,.34351-.22884.43607.43607,0,0,0,.07643-.172,1.77656,1.77656,0,0,0,.04288-.25774c.00979-.09508.01771-.19715.02377-.30528q.00979-.1622.00979-.31507,0-.13353.00466-.36261.00489-.22932.00979-.501c.00279-.18131.00466-.36774.00466-.55837V40.46709c0-.11466-.00187-.23071-.00466-.34817q-.00489-.17687-.01911-.33418a1.8178,1.8178,0,0,0-.048-.28664.40664.40664,0,0,0-.09042-.186.71992.71992,0,0,0-.31973-.20508,3.24628,3.24628,0,0,0-.43439-.09089v-.09554h.39105q.32439,0,.735-.00466.41039-.00491.82123-.00466h.6679q.63969,0,1.13584.03822a2.27265,2.27265,0,0,1,.907.25774,1.83751,1.83751,0,0,1,.67769.59658,1.64392,1.64392,0,0,1,.25774.94988,1.50782,1.50782,0,0,1-.12864.63433,1.68816,1.68816,0,0,1-.344.49638,2.08057,2.08057,0,0,1-.501.36774,3.89666,3.89666,0,0,1-.60124.25774v.02843a1.23467,1.23467,0,0,1,.31507.24842,3.49568,3.49568,0,0,1,.296.36262q.24748.36284.53926.78255.29084.42016.52014.7448a2.91793,2.91793,0,0,0,.687.72522,1.83878,1.83878,0,0,0,.783.296v.09555Zm-.94475-5.94674a1.64787,1.64787,0,0,0-.69679-.59192,2.08065,2.08065,0,0,0-.48193-.15241,2.826,2.826,0,0,0-.52993-.048q-.20066,0-.3244.00979c-.083.00606-.14681.01259-.19109.01911-.00652.03775-.01258.07131-.01911.10021a.76109.76109,0,0,0-.01445.10953c-.00326.04474-.00606.10673-.00932.186q-.00489.11955-.01445.33931-.00978.33418-.01445.75366-.00489.42017-.00466.81144v1.05009q.39151,0,.73035-.03356a2.95232,2.95232,0,0,0,.65392-.13843,1.74026,1.74026,0,0,0,.5248-.25774,1.499,1.499,0,0,0,.35795-.36727,1.52712,1.52712,0,0,0,.20555-.44371,1.844,1.844,0,0,0,.06665-.49638A1.54068,1.54068,0,0,0,226.80556,39.84673Z"/><path class="cls-1" d="M236.56065,45.79347h-5.84187v-.09555a1.92253,1.92253,0,0,0,.44418-.124.91051.91051,0,0,0,.33884-.23863.43181.43181,0,0,0,.07644-.16686q.02867-.10975.0522-.25308a2.96283,2.96283,0,0,0,.03356-.30062c.00606-.10534.00932-.20834.00932-.31041q0-.13353.00513-.36261.00419-.22932.00932-.501.00489-.272.00466-.55837V40.46709c0-.11466-.0014-.23211-.00466-.35329-.00327-.12072-.00932-.23537-.01911-.34351a1.81987,1.81987,0,0,0-.04754-.2913.40666.40666,0,0,0-.09089-.186.65529.65529,0,0,0-.30528-.19576,4.08578,4.08578,0,0,0-.41994-.0811v-.09554h5.269l.64879,1.57535-.09508.04754a4.65,4.65,0,0,0-1.45092-1.298,2.32247,2.32247,0,0,0-.60171-.13377,8.43183,8.43183,0,0,0-1.06872-.05733q-.20065,0-.41528.01445a2.55462,2.55462,0,0,0-.31041.03356q-.01889.15241-.03356.62968-.014.47749-.014,1.10741v.611q0,.24819.00466.40549c.00326.10487.00466.186.00466.24329v.10534h.19109q.14332,0,.32906-.00979c.12444-.00606.24842-.01445.3724-.02377a2.18846,2.18846,0,0,0,.31041-.04288,1.68725,1.68725,0,0,0,.47726-.1813,1.05072,1.05072,0,0,0,.30995-.27686,1.35833,1.35833,0,0,0,.19109-.37706,4.60543,4.60543,0,0,0,.12864-.48239h.11466v3.00716h-.11466a3.25413,3.25413,0,0,0-.23351-.63014,1.68727,1.68727,0,0,0-.32952-.48706,1.27231,1.27231,0,0,0-.36727-.21952,1.66767,1.66767,0,0,0-.5015-.10487c-.09508-.00606-.17478-.01119-.23864-.01445-.06338-.0028-.12724-.00466-.19062-.00466h-.43905a2.93252,2.93252,0,0,0-.01911.39151v1.14516q0,.1531.00466.2913c.00326.09228.00466.17059.00466.234q.00978.30552.03356.57748a.91786.91786,0,0,0,.10953.40549.60044.60044,0,0,0,.41061.19109,4.06573,4.06573,0,0,0,.70658.05733q.16221,0,.41482-.00979a5.21776,5.21776,0,0,0,.52993-.04754,2.06126,2.06126,0,0,0,.563-.14821,1.95432,1.95432,0,0,0,.49638-.31,3.15122,3.15122,0,0,0,.46328-.49171,6.64084,6.64084,0,0,0,.46282-.70145l.10487.02843Z"/><path class="cls-1" d="M243.20884,44.73406a1.85723,1.85723,0,0,1-.51549.62036,2.18327,2.18327,0,0,1-.78721.38172,3.8378,3.8378,0,0,1-1.00254.124,4.81874,4.81874,0,0,1-.80166-.05733,3.14348,3.14348,0,0,1-.55371-.138,1.95721,1.95721,0,0,1-.329-.14822.43447.43447,0,0,0-.13843-.06664c-.01911,0-.06059.03821-.12444.11419q-.09509.11465-.17152.22h-.08622l-.02843-1.89975h.09554a2.99375,2.99375,0,0,0,.21953.501,4.15846,4.15846,0,0,0,.29083.45816,2.5997,2.5997,0,0,0,.33418.37706,1.65339,1.65339,0,0,0,.33884.24842,2.72812,2.72812,0,0,0,.42973.17152,1.78788,1.78788,0,0,0,1.66065-.30062,1.32187,1.32187,0,0,0,.43951-1.045,1.18071,1.18071,0,0,0-.08622-.46794,1.09237,1.09237,0,0,0-.234-.34816,1.40515,1.40515,0,0,0-.34817-.25309,3.8301,3.8301,0,0,0-.42972-.19109q-.22861-.086-.40083-.14309c-.11466-.03822-.22093-.07457-.31974-.10953s-.20041-.07037-.30528-.10533c-.10533-.035-.23071-.0811-.37706-.13843a2.05329,2.05329,0,0,1-.47727-.2624,1.935,1.935,0,0,1-.40083-.39151,1.96912,1.96912,0,0,1-.27685-.49638,1.57966,1.57966,0,0,1-.10533-.57747,1.94634,1.94634,0,0,1,.18829-.88742,1.80873,1.80873,0,0,1,.50617-.62036,2.13436,2.13436,0,0,1,.73268-.36773,3.16,3.16,0,0,1,.87343-.11932,3.24847,3.24847,0,0,1,.735.07178,2.91819,2.91819,0,0,1,.501.15753,1.69254,1.69254,0,0,1,.296.15754.64706.64706,0,0,0,.11.07131c.01911,0,.05873-.03822.11932-.11466.06012-.076.11605-.15241.16685-.22884h.10487v1.766h-.10487a3.85915,3.85915,0,0,0-.296-.62548,2.83742,2.83742,0,0,0-.41994-.55371,2.0354,2.0354,0,0,0-.54391-.39617,1.49736,1.49736,0,0,0-.67769-.15241,1.78,1.78,0,0,0-.55836.08576,1.29637,1.29637,0,0,0-.45863.25775,1.18544,1.18544,0,0,0-.30528.4246,1.43861,1.43861,0,0,0-.10953.57747,1.09952,1.09952,0,0,0,.30435.81145,2.16552,2.16552,0,0,0,.79048.48706c.12677.0508.24562.09554.357.13329q.1664.05733.32859.11.1615.05244.32812.11c.1114.03775.227.07923.3477.124a2.21524,2.21524,0,0,1,1.00487.69213,1.941,1.941,0,0,1,.17059,1.95195Z"/><path class="cls-1" d="M245.23723,45.79347v-.09555a1.929,1.929,0,0,0,.44417-.124.94233.94233,0,0,0,.34816-.24842.3802.3802,0,0,0,.07178-.16219,2.11129,2.11129,0,0,0,.03822-.248q.014-.14333.01911-.30062c.0028-.10534.00466-.20834.00466-.31041q0-.13353.00466-.36261.00489-.22932.00979-.501c.00279-.18131.00466-.36774.00466-.55837V40.12358c0-.11465-.00466-.22092-.01445-.31973a1.92612,1.92612,0,0,0-.04288-.26753.44246.44246,0,0,0-.08576-.186.76179.76179,0,0,0-.32952-.234,1.94915,1.94915,0,0,0-.44371-.10021v-.09554h2.85382v.09554a2.47966,2.47966,0,0,0-.42926.10487.615.615,0,0,0-.35329.30575.91073.91073,0,0,0-.09089.41015c-.00326.16593-.00792.3216-.014.468q0,.23839-.00513.47261-.00489.2335-.00466.4726v3.19732c0,.18457.00327.36308.00979.5346a.68164.68164,0,0,0,.08576.36261.709.709,0,0,0,.36261.24842,1.94556,1.94556,0,0,0,.44884.10487v.09555Z"/><path class="cls-1" d="M257.236,43.52179a3.076,3.076,0,0,1-.468.93542,2.76094,2.76094,0,0,1-.687.64879,3.72407,3.72407,0,0,1-.83056.41061,4.58158,4.58158,0,0,1-.907.21487,6.87733,6.87733,0,0,1-.90653.062h-3.48443v-.09555a1.684,1.684,0,0,0,.46329-.124.90025.90025,0,0,0,.33884-.22931.32134.32134,0,0,0,.07131-.1622q.02378-.11464.04335-.25774c.01258-.09508.0219-.19715.02843-.30528q.00909-.1622.00932-.31507,0-.13353.00512-.36261.0042-.22932.00933-.501.00489-.272.00466-.55837V40.12358c0-.11465-.00466-.22092-.014-.31973a2.076,2.076,0,0,0-.04287-.26753.44267.44267,0,0,0-.08623-.186.75083.75083,0,0,0-.3435-.23864,2.25055,2.25055,0,0,0-.44884-.09555v-.09554q.4013,0,1.15495-.00466.75435-.00491,1.82331-.00466h.611q.31459,0,.63014.02843a5.43951,5.43951,0,0,1,.62967.09554,3.21811,3.21811,0,0,1,.62036.20042,3.59007,3.59007,0,0,1,.75412.43905,2.92713,2.92713,0,0,1,.61569.6348,3.11025,3.11025,0,0,1,.41994.84967,3.537,3.537,0,0,1,.15754,1.10228A4.2032,4.2032,0,0,1,257.236,43.52179ZM256.062,41.2021a3.47412,3.47412,0,0,0-.47727-.94988,3.06018,3.06018,0,0,0-.72569-.72056,2.238,2.238,0,0,0-.91631-.38172c-.12724-.02517-.26707-.04614-.41994-.062a5.59757,5.59757,0,0,0-.563-.02377c-.07644,0-.1594.0014-.24842.00466s-.17665.00932-.2624.01911c-.08576.00932-.16546.01771-.23864.02377a.99844.99844,0,0,0-.17664.02843q-.04755.46842-.05733,1.28872-.00979.82146-.00932,1.95707v1.11674q0,.49637.00932.81144,0,.13354.01445.29084c.00932.10533.02051.20694.03356.30575a1.2482,1.2482,0,0,0,.062.26706.4738.4738,0,0,0,.10021.17665.8831.8831,0,0,0,.48193.24329,3.10288,3.10288,0,0,0,.549.05267q.23841,0,.49125-.02377a2.37239,2.37239,0,0,0,.47261-.09089,2.53216,2.53216,0,0,0,1.5418-1.15029,4.03858,4.03858,0,0,0,.51036-2.10482A3.45754,3.45754,0,0,0,256.062,41.2021Z"/><path class="cls-1" d="M264.88163,45.79347h-5.84186v-.09555a1.92245,1.92245,0,0,0,.44417-.124.91043.91043,0,0,0,.33884-.23863.43167.43167,0,0,0,.07644-.16686q.02867-.10975.0522-.25308a2.96283,2.96283,0,0,0,.03356-.30062c.00606-.10534.00932-.20834.00932-.31041q0-.13353.00513-.36261.00419-.22932.00932-.501.00489-.272.00466-.55837V40.46709c0-.11466-.0014-.23211-.00466-.35329-.00326-.12072-.00932-.23537-.01911-.34351a1.81875,1.81875,0,0,0-.04754-.2913.40666.40666,0,0,0-.09089-.186.65524.65524,0,0,0-.30528-.19576,4.08578,4.08578,0,0,0-.41994-.0811v-.09554h5.269l.64879,1.57535-.09508.04754a4.65012,4.65012,0,0,0-1.45091-1.298,2.32268,2.32268,0,0,0-.60171-.13377,8.432,8.432,0,0,0-1.06873-.05733q-.20066,0-.41528.01445a2.55462,2.55462,0,0,0-.31041.03356q-.01887.15241-.03356.62968-.014.47749-.014,1.10741v.611q0,.24819.00466.40549c.00326.10487.00466.186.00466.24329v.10534h.1911q.14331,0,.329-.00979c.12444-.00606.24842-.01445.3724-.02377a2.188,2.188,0,0,0,.31041-.04288,1.68732,1.68732,0,0,0,.47727-.1813,1.05068,1.05068,0,0,0,.30994-.27686,1.35833,1.35833,0,0,0,.19109-.37706,4.60543,4.60543,0,0,0,.12864-.48239h.11466v3.00716h-.11466a3.25473,3.25473,0,0,0-.2335-.63014,1.68767,1.68767,0,0,0-.32952-.48706,1.2725,1.2725,0,0,0-.36728-.21952,1.66767,1.66767,0,0,0-.5015-.10487c-.09508-.00606-.17478-.01119-.23863-.01445-.06339-.0028-.12724-.00466-.19063-.00466h-.43905a2.93252,2.93252,0,0,0-.01911.39151v1.14516q0,.1531.00466.2913c.00326.09228.00466.17059.00466.234q.00979.30552.03356.57748a.91813.91813,0,0,0,.10953.40549.6005.6005,0,0,0,.41062.19109,4.06556,4.06556,0,0,0,.70658.05733q.1622,0,.41481-.00979a5.21751,5.21751,0,0,0,.52993-.04754,2.06126,2.06126,0,0,0,.563-.14821,1.95432,1.95432,0,0,0,.49638-.31,3.15122,3.15122,0,0,0,.46328-.49171,6.64084,6.64084,0,0,0,.46282-.70145l.10487.02843Z"/><path class="cls-1" d="M273.89705,39.19748a.84714.84714,0,0,0-.329.41062,1.60906,1.60906,0,0,0-.08623.52993q-.01887.38663-.03822.82543-.01887.41039-.03309.969-.01469.5586-.01445,1.19783v.611q0,.33419.00466.68234c.00326.23258.00513.46282.00513.69213v.62036a.08393.08393,0,0,1-.02424.062.09686.09686,0,0,1-.07131.02377.26282.26282,0,0,1-.172-.09508q-.81168-.93543-1.47934-1.71845-.66837-.78231-1.27427-1.49379-.60684-.711-1.18851-1.38892-.58237-.67744-1.23139-1.40291v4.02788q0,.48729.02377.8781a1.58251,1.58251,0,0,0,.11932.5826.689.689,0,0,0,.32952.32906,1.969,1.969,0,0,0,.61569.15753v.09555h-2.34812v-.09555a1.87368,1.87368,0,0,0,.45816-.11932.74293.74293,0,0,0,.36261-.30062,1.31154,1.31154,0,0,0,.172-.59192q.03776-.39081.05686-.93543.01957-.41038.0289-.96852.00909-.5586.00932-1.19829V40.41955q0-.19086-.00932-.468a1.10867,1.10867,0,0,0-.13377-.4535.881.881,0,0,0-.248-.27638.95087.95087,0,0,0-.31041-.14356,2.67375,2.67375,0,0,0-.31974-.062v-.09554h1.9375l4.52473,5.28816V40.96346q0-.38172-.00979-.73035a1.716,1.716,0,0,0-.08576-.54857.8756.8756,0,0,0-.33884-.43439,1.678,1.678,0,0,0-.70146-.234v-.09554h2.36723v.09554A1.44616,1.44616,0,0,0,273.89705,39.19748Z"/><path class="cls-1" d="M282.52142,41.13545a3.225,3.225,0,0,0-.3724-.859,3.04543,3.04543,0,0,0-.58679-.69679,2.67564,2.67564,0,0,0-.76391-.468,2.37819,2.37819,0,0,0-.90187-.172,2.31647,2.31647,0,0,0-1.17406.296,2.71727,2.71727,0,0,0-.86411.783,3.73074,3.73074,0,0,0-.53413,1.10228,4.33556,4.33556,0,0,0-.18644,1.26494,4.13616,4.13616,0,0,0,.19576,1.28825,3.19205,3.19205,0,0,0,.55836,1.04543,2.65109,2.65109,0,0,0,.8781.70145,2.525,2.525,0,0,0,1.14563.25774,2.38746,2.38746,0,0,0,.93077-.1813,2.81711,2.81711,0,0,0,.77323-.47727,2.87542,2.87542,0,0,0,.57234-.68235,2.52489,2.52489,0,0,0,.31974-.797h.11465l-.02843,2.0997h-.11466a2.935,2.935,0,0,0-.23863-.296c-.083-.089-.13982-.1333-.172-.1333a.8352.8352,0,0,0-.17152.10021,2.83233,2.83233,0,0,1-.43905.21952,4.13457,4.13457,0,0,1-.69679.20974,4.40347,4.40347,0,0,1-.94522.09089,4.7887,4.7887,0,0,1-1.60378-.25309,3.46115,3.46115,0,0,1-1.21694-.7159,3.10682,3.10682,0,0,1-.7681-1.10694,3.72949,3.72949,0,0,1-.24376-1.80886,3.46881,3.46881,0,0,1,.08622-.468,3.90936,3.90936,0,0,1,.17152-.52015,3.59,3.59,0,0,1,.282-.549,3.412,3.412,0,0,1,.49591-.62036,3.16987,3.16987,0,0,1,.69726-.52014,3.86249,3.86249,0,0,1,.90653-.358,4.45466,4.45466,0,0,1,1.13584-.13377,4.2615,4.2615,0,0,1,1.00254.10487,4.61965,4.61965,0,0,1,.7159.22931,2.70189,2.70189,0,0,1,.43905.22931.84324.84324,0,0,0,.17152.10487.164.164,0,0,0,.07177-.04288c.035-.02889.07318-.06385.11466-.10533.041-.041.08436-.089.12864-.14309a1.90633,1.90633,0,0,0,.124-.16686h.10534v2.13792Z"/><path class="cls-1" d="M290.291,45.79347h-5.84186v-.09555a1.92245,1.92245,0,0,0,.44417-.124.91043.91043,0,0,0,.33884-.23863.43167.43167,0,0,0,.07644-.16686q.02867-.10975.0522-.25308a2.96,2.96,0,0,0,.03356-.30062c.00606-.10534.00932-.20834.00932-.31041q0-.13353.00513-.36261.0042-.22932.00932-.501.00489-.272.00466-.55837V40.46709c0-.11466-.0014-.23211-.00466-.35329-.00326-.12072-.00932-.23537-.01911-.34351a1.81875,1.81875,0,0,0-.04754-.2913.40666.40666,0,0,0-.09089-.186.65524.65524,0,0,0-.30528-.19576,4.08578,4.08578,0,0,0-.41994-.0811v-.09554h5.269l.64879,1.57535-.09508.04754a4.65012,4.65012,0,0,0-1.45091-1.298,2.32257,2.32257,0,0,0-.60171-.13377,8.432,8.432,0,0,0-1.06873-.05733q-.20064,0-.41528.01445a2.55486,2.55486,0,0,0-.31041.03356q-.01887.15241-.03356.62968-.014.47749-.014,1.10741v.611q0,.24819.00466.40549c.00326.10487.00466.186.00466.24329v.10534h.1911q.14331,0,.32905-.00979c.12444-.00606.24842-.01445.3724-.02377a2.188,2.188,0,0,0,.31041-.04288,1.68732,1.68732,0,0,0,.47727-.1813A1.05068,1.05068,0,0,0,288.463,41.67a1.35833,1.35833,0,0,0,.19109-.37706,4.603,4.603,0,0,0,.12864-.48239h.11466v3.00716h-.11466a3.25473,3.25473,0,0,0-.2335-.63014,1.68767,1.68767,0,0,0-.32952-.48706,1.2725,1.2725,0,0,0-.36728-.21952,1.66767,1.66767,0,0,0-.5015-.10487c-.09508-.00606-.17478-.01119-.23863-.01445-.06339-.0028-.12724-.00466-.19063-.00466h-.43905a2.93252,2.93252,0,0,0-.01911.39151v1.14516q0,.1531.00466.2913c.00326.09228.00466.17059.00466.234q.00979.30552.03356.57748a.91813.91813,0,0,0,.10953.40549.6005.6005,0,0,0,.41062.19109,4.06556,4.06556,0,0,0,.70658.05733q.16219,0,.41481-.00979a5.218,5.218,0,0,0,.52994-.04754,2.06128,2.06128,0,0,0,.563-.14821,1.95414,1.95414,0,0,0,.49638-.31,3.15122,3.15122,0,0,0,.46328-.49171,6.64084,6.64084,0,0,0,.46282-.70145l.10487.02843Z"/><path class="cls-1" d="M296.93919,44.73406a1.85732,1.85732,0,0,1-.51548.62036,2.18332,2.18332,0,0,1-.78722.38172,3.8378,3.8378,0,0,1-1.00254.124,4.81874,4.81874,0,0,1-.80166-.05733,3.14335,3.14335,0,0,1-.5537-.138,1.95738,1.95738,0,0,1-.32906-.14822.43446.43446,0,0,0-.13842-.06664c-.01911,0-.06059.03821-.12445.11419q-.09507.11465-.17152.22h-.08622l-.02843-1.89975h.09555a2.99288,2.99288,0,0,0,.21952.501,4.15994,4.15994,0,0,0,.29083.45816,2.59975,2.59975,0,0,0,.33419.37706,1.65312,1.65312,0,0,0,.33884.24842,2.728,2.728,0,0,0,.42972.17152,1.78788,1.78788,0,0,0,1.66065-.30062,1.32188,1.32188,0,0,0,.43952-1.045,1.1807,1.1807,0,0,0-.08623-.46794,1.09237,1.09237,0,0,0-.234-.34816,1.40509,1.40509,0,0,0-.34816-.25309,3.83108,3.83108,0,0,0-.42973-.19109q-.22861-.086-.40083-.14309c-.11466-.03822-.22092-.07457-.31973-.10953s-.20042-.07037-.30529-.10533c-.10533-.035-.23071-.0811-.37706-.13843a2.053,2.053,0,0,1-.47726-.2624,1.93473,1.93473,0,0,1-.40083-.39151,1.96915,1.96915,0,0,1-.27686-.49638,1.57987,1.57987,0,0,1-.10533-.57747,1.94621,1.94621,0,0,1,.1883-.88742,1.80859,1.80859,0,0,1,.50616-.62036,2.13436,2.13436,0,0,1,.73268-.36773,3.16,3.16,0,0,1,.87344-.11932,3.24844,3.24844,0,0,1,.735.07178,2.91834,2.91834,0,0,1,.501.15753,1.69329,1.69329,0,0,1,.296.15754.64769.64769,0,0,0,.11.07131c.01911,0,.05873-.03822.11932-.11466.06012-.076.11605-.15241.16686-.22884h.10487v1.766h-.10487a3.86083,3.86083,0,0,0-.296-.62548,2.83821,2.83821,0,0,0-.41994-.55371,2.03561,2.03561,0,0,0-.54392-.39617,1.49735,1.49735,0,0,0-.67768-.15241,1.78,1.78,0,0,0-.55837.08576,1.29624,1.29624,0,0,0-.45862.25775,1.18546,1.18546,0,0,0-.30529.4246,1.43878,1.43878,0,0,0-.10953.57747,1.09952,1.09952,0,0,0,.30435.81145,2.1656,2.1656,0,0,0,.79048.48706c.12677.0508.24562.09554.357.13329q.16639.05733.32859.11.16149.05244.32812.11c.11139.03775.227.07923.34769.124a2.21522,2.21522,0,0,1,1.00488.69213,1.94105,1.94105,0,0,1,.17058,1.95195Z"/></g></g></svg>