<?xml version="1.0" encoding="UTF-8" standalone="no"?>
<svg
   viewBox="0 0 88817.517 2231.1234"
   version="1.1"
   id="svg48"
   width="88817.516"
   height="2231.1233"
   xmlns="http://www.w3.org/2000/svg"
   xmlns:svg="http://www.w3.org/2000/svg">
  <defs
     id="defs1">
    <style
       id="style1">.cls-1{fill:#69563e;}</style>
  </defs>
  <g
     id="Layer_2"
     data-name="Layer 2"
     style="fill:#ffffff">
    <g
       id="Layer_1-2"
       data-name="Layer 1"
       style="fill:#ffffff">
      <path
         class="cls-1"
         d="m 120.77822,23.42709 a 6.84163,6.84163 0 0 1 -1.89923,2.2861 8.057,8.057 0 0 1 -2.901,1.40683 14.10673,14.10673 0 0 1 -3.69238,0.45723 17.70638,17.70638 0 0 1 -2.95384,-0.21159 11.72355,11.72355 0 0 1 -2.03935,-0.50944 7.29881,7.29881 0 0 1 -1.21336,-0.54512 1.57825,1.57825 0 0 0 -0.51,-0.2462 q -0.10551,0 -0.45722,0.422 -0.35113,0.42206 -0.63307,0.80893 h -0.31654 l -0.105,-6.99793 h 0.35115 a 11.12853,11.12853 0 0 0 0.80893,1.84537 15.28807,15.28807 0 0 0 1.07269,1.68882 9.559,9.559 0 0 0 1.231,1.38871 6.03131,6.03131 0 0 0 1.24854,0.91388 9.91288,9.91288 0 0 0 1.58212,0.63364 6.59725,6.59725 0 0 0 6.11866,-1.10791 4.87206,4.87206 0 0 0 1.61785,-3.85118 4.34291,4.34291 0 0 0 -0.31653,-1.7223 4.05939,4.05939 0 0 0 -0.86172,-1.28371 5.2521,5.2521 0 0 0 -1.28314,-0.93205 14.0873,14.0873 0 0 0 -1.58269,-0.70342 q -0.84409,-0.31653 -1.47717,-0.52756 -0.63232,-0.21018 -1.17825,-0.40444 -0.54487,-0.193 -1.12491,-0.38637 -0.58032,-0.19287 -1.38927,-0.51051 a 7.56979,7.56979 0 0 1 -1.758,-0.96717 7.1306,7.1306 0 0 1 -1.47717,-1.44094 7.33457,7.33457 0 0 1 -1.02,-1.82888 5.84742,5.84742 0 0 1 -0.38688,-2.1273 7.17349,7.17349 0 0 1 0.69351,-3.27032 6.68908,6.68908 0 0 1 1.86406,-2.28611 7.87127,7.87127 0 0 1 2.69994,-1.354 11.61846,11.61846 0 0 1 3.21759,-0.43967 11.99727,11.99727 0 0 1 2.70815,0.26432 10.866,10.866 0 0 1 1.84588,0.57978 6.35778,6.35778 0 0 1 1.0903,0.58035 2.48424,2.48424 0 0 0 0.40393,0.26375 q 0.10551,0 0.43966,-0.422 0.3346,-0.42205 0.61546,-0.8441 h 0.38688 V 8.552 h -0.3868 a 14.19167,14.19167 0 0 0 -1.08973,-2.30259 10.3974,10.3974 0 0 0 -1.54752,-2.0399 7.46407,7.46407 0 0 0 -2.00417,-1.45962 5.511,5.511 0 0 0 -2.49713,-0.56274 6.57528,6.57528 0 0 0 -2.05752,0.31654 4.7746,4.7746 0 0 0 -1.68764,0.94961 4.35432,4.35432 0 0 0 -1.1249,1.56513 5.2935,5.2935 0 0 0 -0.40449,2.12781 4.04257,4.04257 0 0 0 1.1222,2.98845 7.96915,7.96915 0 0 0 2.912,1.79315 q 0.69984,0.28192 1.31449,0.493 0.61409,0.211 1.21066,0.40336 0.59594,0.19533 1.2101,0.405 0.61408,0.21188 1.28039,0.45722 a 8.17014,8.17014 0 0 1 3.70121,2.54935 6.53258,6.53258 0 0 1 1.315,4.16715 6.52646,6.52646 0 0 1 -0.68573,3.02417 z"
         id="path1"
         style="fill:#ffffff" />
      <path
         class="cls-1"
         d="m 143.44961,2.32786 c 0.70291,0 0.36989,-0.005 1.0266,-0.01756 q 0.98421,-0.01654 2.03934,-0.03517 1.05513,-0.01731 2.39162,-0.017 a 11.30008,11.30008 0 0 0 1.91678,-0.194 q 0.75513,-0.15828 1.56457,-0.4045 l 1.1249,6.85724 -0.316,0.10552 q -0.28193,-0.63232 -0.66824,-1.31781 -0.38745,-0.68669 -0.79132,-1.28433 -0.40474,-0.59762 -0.79081,-1.10729 a 5.35565,5.35565 0 0 0 -0.66824,-0.75676 3.69638,3.69638 0 0 0 -1.6003,-0.93144 9.84062,9.84062 0 0 0 -2.19759,-0.26381 q -0.66852,0 -1.16063,-0.01755 -0.493,-0.01731 -0.98479,-0.01762 h -0.89964 z m -1.45241,2.98952 q -0.0181,1.51178 -0.0176,3.16481 v 13.7496 q 0,1.01967 0.0528,1.95144 a 2.56681,2.56681 0 0 0 0.33409,1.31894 2.63117,2.63117 0 0 0 1.49423,1.05512 17.48678,17.48678 0 0 0 1.741,0.42205 v 0.35171 h -11.4289 v -0.35171 a 10.61088,10.61088 0 0 0 1.75854,-0.35171 3.64342,3.64342 0 0 0 1.65246,-1.16063 1.169,1.169 0 0 0 0.26381,-0.58035 8.45358,8.45358 0 0 0 0.14069,-0.91444 q 0.0528,-0.50942 0.0703,-1.10786 0.0173,-0.59685 0.0176,-1.16013 0,-0.49211 0.0176,-1.30132 0.0173,-0.80863 0.0352,-1.79315 0.0173,-0.98421 0.0176,-2.0399 V 2.92576 h -2.32071 q -0.45835,0 -0.96723,0.01762 -0.51026,0.01814 -1.1782,0.01755 a 7.891,7.891 0 0 0 -2.19764,0.31654 4.22413,4.22413 0 0 0 -1.60024,0.98478 4.88549,4.88549 0 0 0 -0.65013,0.73859 q -0.37014,0.493 -0.77375,1.07218 a 14.09773,14.09773 0 0 0 -0.77376,1.248 7.84554,7.84554 0 0 0 -0.58035,1.30132 l -0.31654,-0.10552 1.05513,-6.68138 q 0.80788,0.17642 1.49479,0.28136 a 17.063,17.063 0 0 0 1.98661,0.14125 q 1.33621,0.0346 2.39106,0.05222 1.05512,0.01891 2.0399,0.01756 h 6.23621 c 0,0 0.0171,1.98169 0.006,2.98955 z"
         id="path2"
         style="fill:#ffffff" />
      <path
         class="cls-1"
         d="m 169.80905,16.88638 q -0.5984,-1.58268 -1.21281,-3.16481 -0.61576,-1.58184 -1.1958,-3.04174 -0.58032,-1.459 -1.05513,-2.673 -0.47481,-1.2134 -0.79137,-1.98662 -0.211,0.4575 -0.61546,1.4415 -0.40391,0.98583 -1.00184,2.39162 -0.59931,1.4071 -1.31893,3.18236 c -0.51378,1.26565 -1.62225,3.99192 -1.56507,3.85067 l -0.316,0.73859 q -0.52757,1.33705 -1.01995,2.54991 -0.493,1.21339 -0.98479,2.44328 a 8.89089,8.89089 0 0 0 -0.73858,2.673 1.058,1.058 0 0 0 0.28136,0.75615 2.164,2.164 0 0 0 0.721,0.49182 4.007,4.007 0 0 0 0.949,0.28137 c 0.33966,0.05937 0.66278,0.11159 0.96779,0.15886 v 0.35171 h -7.49088 v -0.38744 a 3.88966,3.88966 0 0 0 1.56513,-0.49183 3.48111,3.48111 0 0 0 0.75614,-0.52756 7.62065,7.62065 0 0 0 0.80842,-1.16064 25.471,25.471 0 0 0 1.37167,-2.70815 q 0.73859,-1.652 1.653,-3.76221 0.91416,-2.11026 1.88162,-4.34306 0.96615,-2.23308 1.91627,-4.50131 C 164.007,7.93651 167.30972,0.16432 167.4037,0 h 0.28137 c 0.72648,1.94649 1.92449,5.31136 2.5812,7.05836 q 0.9843,2.61966 1.8811,5.04592 0.89685,2.42594 1.741,4.69421 0.84411,2.26851 1.6882,4.48368 0.38576,1.09059 0.721,1.81133 0.333,0.72129 0.75564,1.63491 a 4.73627,4.73627 0 0 0 0.31653,0.49239 4.42278,4.42278 0 0 0 0.65064,0.721 4.00488,4.00488 0 0 0 1.00183,0.65069 3.65234,3.65234 0 0 0 1.40683,0.31654 v 0.42205 h -10.26879 v -0.35171 a 4.12265,4.12265 0 0 0 0.51051,-0.07034 4.21728,4.21728 0 0 0 0.8441,-0.24676 2.40955,2.40955 0 0 0 0.77319,-0.49183 1.06356,1.06356 0 0 0 0.33416,-0.80893 4.63852,4.63852 0 0 0 -0.19347,-1.03756 q -0.19288,-0.72045 -0.54512,-1.75742 -0.35124,-1.03782 -0.80893,-2.30428 -0.45675,-1.26615 -0.98428,-2.63725 z"
         id="path3"
         style="fill:#ffffff" />
      <path
         class="cls-1"
         d="m 208.64917,22.28457 q 0.0174,1.28346 0.0176,2.54935 V 27.12 a 0.30913,0.30913 0 0 1 -0.0879,0.228 0.36,0.36 0 0 1 -0.26375,0.088 0.96718,0.96718 0 0 1 -0.63308,-0.35115 q -2.989,-3.44646 -5.45035,-6.33024 -2.46148,-2.88343 -4.69477,-5.50364 -2.23307,-2.61891 -4.37823,-5.11626 -2.14487,-2.49609 -4.53592,-5.1696 c 0,0 -1.72337,-1.59968 -2.07507,-1.84588 A 3.50343,3.50343 0 0 0 185.40514,2.59167 9.5352,9.5352 0 0 0 184.22689,2.36303 V 2.01188 h 7.13861 z M 188.62273,6.55714 v 13.24842 q 0,1.79211 0.0879,3.23465 a 5.79711,5.79711 0 0 0 0.4391,2.14542 2.539,2.539 0 0 0 1.21337,1.21337 7.28026,7.28026 0 0 0 2.268,0.58035 v 0.35171 h -8.65039 v -0.35171 a 6.88477,6.88477 0 0 0 1.6877,-0.44023 2.74558,2.74558 0 0 0 1.33649,-1.10729 4.82273,4.82273 0 0 0 0.63307,-2.18059 q 0.14013,-1.441 0.211,-3.44567 0.07,-1.51177 0.10551,-3.56981 0.0346,-2.05672 0.0352,-4.41284 V 7.53207 c 0,-0.3072 -0.006,-0.90071 -0.0154,-1.29912 z m 19.411,12.79672 V 9.53681 q 0,-1.40628 -0.0352,-2.69 A 6.35357,6.35357 0 0 0 207.682,4.825 3.21862,3.21862 0 0 0 206.434,3.22475 6.18281,6.18281 0 0 0 203.84954,2.36304 V 2.01188 h 8.72067 V 2.363 a 5.31769,5.31769 0 0 0 -2.09213,0.66824 3.11173,3.11173 0 0 0 -1.21336,1.51235 5.90907,5.90907 0 0 0 -0.31654,1.952 q -0.0709,1.42273 -0.14068,3.04118 -0.0709,1.51263 -0.12313,3.56925 -0.0528,2.05749 -0.0527,4.4134 v 1.74425 c 0,0.46054 0.002,0.41985 0.006,0.8908 z"
         id="path4"
         style="fill:#ffffff" />
      <path
         class="cls-1"
         d="m 55.19178,22.28457 q 0.01731,1.28346 0.01756,2.54935 V 27.12 a 0.30894,0.30894 0 0 1 -0.0874,0.228 0.36181,0.36181 0 0 1 -0.26375,0.088 0.96716,0.96716 0 0 1 -0.63307,-0.35115 q -2.989,-3.44646 -5.45092,-6.33024 -2.46147,-2.88343 -4.69477,-5.50364 -2.23307,-2.61891 -4.37767,-5.11626 -2.1457,-2.49609 -4.53647,-5.1696 c 0,0 -1.72337,-1.59968 -2.07508,-1.84588 A 3.4933,3.4933 0 0 0 31.94769,2.59167 9.53306,9.53306 0 0 0 30.76944,2.363 V 2.01188 h 7.13861 z M 35.16529,6.55714 v 13.24842 q 0,1.79211 0.0879,3.23465 a 5.7952,5.7952 0 0 0 0.43966,2.14542 2.5378,2.5378 0 0 0 1.2128,1.21336 7.28051,7.28051 0 0 0 2.26855,0.58035 v 0.35171 h -8.65095 v -0.35171 a 6.88857,6.88857 0 0 0 1.6882,-0.44023 2.74663,2.74663 0 0 0 1.336,-1.10729 4.82285,4.82285 0 0 0 0.63308,-2.18059 q 0.14011,-1.441 0.211,-3.44567 0.07006,-1.51177 0.10551,-3.56981 0.03462,-2.05672 0.03517,-4.41284 V 7.53207 c 0,-0.3072 -0.005,-0.90071 -0.01542,-1.29912 z M 54.57683,19.35386 V 9.53681 q 0,-1.40628 -0.03518,-2.69 A 6.36924,6.36924 0 0 0 54.22512,4.825 3.22278,3.22278 0 0 0 52.97652,3.22475 6.18281,6.18281 0 0 0 50.39206,2.363 V 2.01188 h 8.72068 V 2.363 a 5.31738,5.31738 0 0 0 -2.09208,0.66824 3.115,3.115 0 0 0 -1.21342,1.51235 5.89755,5.89755 0 0 0 -0.316,1.952 q -0.0709,1.42273 -0.14125,3.04118 -0.07006,1.51263 -0.12256,3.56925 -0.05352,2.05749 -0.05273,4.4134 v 1.74425 c 0,0.46054 0.0011,0.41985 0.005,0.8908 z"
         id="path5"
         style="fill:#ffffff" />
      <path
         class="cls-1"
         d="m 240.87831,27.33105 h -22.57585 v -0.35171 a 9.33655,9.33655 0 0 0 1.74042,-0.45722 3.23426,3.23426 0 0 0 1.35355,-0.87927 1.77652,1.77652 0 0 0 0.29892,-0.61552 5.953,5.953 0 0 0 0.19347,-0.932 q 0.0709,-0.52755 0.12307,-1.10791 0.0528,-0.58031 0.0528,-1.14251 0,-0.49212 0.0176,-1.33649 0.0173,-0.84411 0.0352,-1.84588 0.0173,-1.00238 0.0176,-2.05752 V 6.51212 q 0,-0.63147 -0.0528,-1.17769 a 6.6587,6.6587 0 0 0 -0.15824,-0.96666 1.61194,1.61194 0 0 0 -0.31654,-0.66825 3.10769,3.10769 0 0 0 -1.31837,-0.91444 7.13886,7.13886 0 0 0 -1.74042,-0.422 V 2.01188 H 229.766 V 2.363 q -0.4575,0.0709 -1.0903,0.211 a 4.34907,4.34907 0 0 0 -1.19524,0.45722 2.91493,2.91493 0 0 0 -0.96717,0.89689 2.80641,2.80641 0 0 0 -0.43967,1.52934 q -0.0354,1.23239 -0.0527,2.25149 -0.0182,1.01969 -0.0347,2.00367 -0.0189,0.98423 -0.0176,2.03991 v 6.4 q 0,0.915 0.0176,1.88167 0.0165,0.96768 0.017,2.16191 0.0346,1.12678 0.088,2.14542 a 3.16727,3.16727 0 0 0 0.36926,1.51234 1.43981,1.43981 0 0 0 0.56274,0.35171 5.65032,5.65032 0 0 0 1.01995,0.29893 q 0.59762,0.12366 1.30132,0.211 a 11.383,11.383 0 0 0 1.40627,0.088 c 0.18739,0 0.48581,-0.0055 0.89688,-0.01818 q 0.61494,-0.01731 1.35355,-0.06978 0.73859,-0.05276 1.51234,-0.15824 a 9.36458,9.36458 0 0 0 1.37166,-0.28137 7.84468,7.84468 0 0 0 2.33827,-1.01995 7.359,7.359 0 0 0 1.6003,-1.45962 8.87209,8.87209 0 0 0 1.12491,-1.79315 q 0.4575,-0.96692 0.87927,-2.02235 l 0.35171,0.10608 z"
         id="path6"
         style="fill:#ffffff" />
      <path
         class="cls-1"
         d="m 287.29664,15.16358 v 7.06821 q 0,1.01967 0.0528,1.98661 a 2.64753,2.64753 0 0 0 0.33409,1.35411 2.4597,2.4597 0 0 0 1.37167,1.01995 16.02634,16.02634 0 0 0 1.61785,0.38688 v 0.35171 h -10.83148 v -0.35171 a 7.95039,7.95039 0 0 0 1.60024,-0.33415 3.62377,3.62377 0 0 0 1.45962,-1.10785 1.19318,1.19318 0 0 0 0.26375,-0.59791 9.4039,9.4039 0 0 0 0.14068,-0.9491 q 0.0528,-0.52833 0.0703,-1.126 c 0.011,-0.3979 0.0176,-0.78478 0.0176,-1.16013 q 0.0346,-0.98337 0.0522,-2.33826 0.0173,-1.3536 0.0182,-3.2885 -0.0709,-0.10552 -0.42205,-0.66769 -0.352,-0.56217 -0.86171,-1.38871 -0.51027,-0.8268 -1.12547,-1.847 -0.61576,-1.01883 -1.21336,-1.98662 -0.59847,-0.96607 -1.125,-1.81127 -0.52757,-0.8441 -0.87928,-1.37166 -0.66843,-1.01892 -1.2128,-1.863 A 10.12415,10.12415 0 0 0 275.51657,3.69949 6.136,6.136 0 0 0 274.40872,2.74988 2.49452,2.49452 0 0 0 273.16013,2.363 V 2.01188 h 10.65569 V 2.363 q -0.52756,0.03544 -1.05513,0.10551 a 5.06294,5.06294 0 0 0 -0.98478,0.22864 2.03528,2.03528 0 0 0 -0.73859,0.42205 0.93957,0.93957 0 0 0 -0.28136,0.721 3.36183,3.36183 0 0 0 0.51,1.38928 q 0.50942,0.93147 1.07273,1.88105 0.38661,0.63231 0.91445,1.52939 0.52671,0.89687 1.16007,1.89923 0.63391,1.00236 1.28371,2.05752 0.65037,1.05428 1.21342,2.00417 z m 0.57816,-1.7514 c 0.20112,-0.30444 1.05732,-1.91132 1.51454,-2.62684 q 0.68583,-1.07159 1.30132,-2.057 0.61493,-0.98422 0.93143,-1.547 0.17558,-0.28193 0.38688,-0.65063 0.211,-0.3693 0.40449,-0.77376 a 7.28337,7.28337 0 0 0 0.3341,-0.82654 2.47609,2.47609 0 0 0 0.14068,-0.77432 1.27873,1.27873 0 0 0 -0.28136,-0.87871 1.88744,1.88744 0 0 0 -0.721,-0.49239 4.71024,4.71024 0 0 0 -0.96666,-0.26375 c -0.35171,-0.05825 -0.69244,-0.111 -1.01995,-0.1583 V 2.01188 h 8.12339 V 2.363 a 5.53447,5.53447 0 0 0 -1.6882,0.49239 5.43822,5.43822 0 0 0 -1.30132,0.91444 8.70176,8.70176 0 0 0 -1.14252,1.33649 q -0.54572,0.7732 -1.17825,1.758 -0.42206,0.66853 -1.1782,1.81076 -0.75588,1.14334 -1.547,2.37406 c -0.52756,0.82047 -1.2442,2.03 -1.73659,2.78069 z"
         id="path7"
         style="fill:#ffffff" />
      <path
         class="cls-1"
         d="m 254.38227,16.11263 v 4.22049 c 0,0.37479 0.005,0.73257 0.017,1.07218 q 0.0173,0.51026 0.0176,0.86115 0.0346,1.12595 0.12312,2.12781 a 3.36243,3.36243 0 0 0 0.40444,1.49479 2.21319,2.21319 0 0 0 1.51234,0.70341 14.98858,14.98858 0 0 0 2.60208,0.211 q 0.59763,0 1.53,-0.03517 0.93063,-0.03469 1.95139,-0.17586 a 7.70486,7.70486 0 0 0 2.07457,-0.54517 7.28113,7.28113 0 0 0 1.82889,-1.143 11.6393,11.6393 0 0 0 1.70575,-1.81076 24.24335,24.24335 0 0 0 1.70525,-2.58508 l 0.38688,0.10607 -1.758,6.71656 h -21.52175 v -0.35171 a 7.14957,7.14957 0 0 0 1.63485,-0.45722 3.33825,3.33825 0 0 0 1.24916,-0.87927 1.59553,1.59553 0 0 0 0.28136,-0.61552 q 0.10467,-0.4039 0.19285,-0.932 a 10.66965,10.66965 0 0 0 0.12313,-1.10791 q 0.0354,-0.58031 0.0352,-1.14251 0,-0.49212 0.0176,-1.33649 0.0173,-0.84411 0.0352,-1.84588 0.0173,-1.00238 0.0176,-2.05752 V 7.709 q 0,-0.63466 -0.0176,-1.30132 -0.0181,-0.66852 -0.0703,-1.26615 a 6.56049,6.56049 0 0 0 -0.17585,-1.07268 1.49374,1.49374 0 0 0 -0.33409,-0.68586 2.40146,2.40146 0 0 0 -1.12491,-0.721 14.85513,14.85513 0 0 0 -1.547,-0.299 V 2.01188 h 19.411 l 2.39162,5.80156 -0.35227,0.17585 a 17.12643,17.12643 0 0 0 -5.3449,-4.78216 8.54919,8.54919 0 0 0 -2.2152,-0.49239 31.12089,31.12089 0 0 0 -3.93913,-0.211 q -0.73859,0 -1.52934,0.05279 a 9.92642,9.92642 0 0 0 -1.14308,0.12307 q -0.0709,0.563 -0.12307,2.32127 -0.0528,1.75751 -0.0522,4.07875 v 7.033 z"
         id="path8"
         style="fill:#ffffff" />
      <polygon
         class="cls-1"
         points="260.395,16.44 255.837,14.336 260.395,12.232 264.953,14.336 "
         id="polygon8"
         style="fill:#ffffff" />
      <path
         class="cls-1"
         d="m 70.53723,16.11263 v 4.22049 c 0,0.37479 0.005,0.73257 0.01756,1.07218 q 0.01655,0.51026 0.017,0.86115 0.03461,1.12595 0.12313,2.12781 a 3.36244,3.36244 0 0 0 0.40443,1.49479 2.21459,2.21459 0 0 0 1.51235,0.70341 14.99512,14.99512 0 0 0 2.60264,0.211 q 0.59678,0 1.5294,-0.03517 0.93061,-0.03469 1.95144,-0.17586 a 7.71425,7.71425 0 0 0 2.07508,-0.54517 7.27843,7.27843 0 0 0 1.82832,-1.143 11.61575,11.61575 0 0 0 1.70576,-1.81076 24.1609,24.1609 0 0 0 1.70525,-2.58508 l 0.38688,0.10607 -1.758,6.71656 H 63.11726 v -0.35171 a 7.16528,7.16528 0 0 0 1.63491,-0.45722 3.34065,3.34065 0 0 0 1.24859,-0.87927 1.58736,1.58736 0 0 0 0.28137,-0.61552 c 0.07034,-0.26927 0.134,-0.58029 0.19341,-0.932 a 10.82183,10.82183 0 0 0 0.12312,-1.10791 q 0.0346,-0.58031 0.03517,-1.14251 0,-0.49212 0.01756,-1.33649 0.01645,-0.84411 0.03517,-1.84588 0.01645,-1.00238 0.01762,-2.05752 V 7.709 c 0,-0.42311 -0.0066,-0.85619 -0.01762,-1.30132 Q 66.66841,5.73916 66.61622,5.14153 a 6.62234,6.62234 0 0 0 -0.17585,-1.07268 1.49927,1.49927 0 0 0 -0.3341,-0.68586 2.40291,2.40291 0 0 0 -1.12547,-0.721 14.85487,14.85487 0 0 0 -1.547,-0.299 V 2.01188 h 19.41159 l 2.39105,5.80156 -0.35171,0.17585 a 17.13393,17.13393 0 0 0 -5.3454,-4.78216 8.55036,8.55036 0 0 0 -2.21525,-0.49239 31.11146,31.11146 0 0 0 -3.93857,-0.211 q -0.7386,0 -1.52991,0.05279 A 9.9128,9.9128 0 0 0 70.71252,2.6796 q -0.0709,0.563 -0.12307,2.32127 -0.052,1.75751 -0.05222,4.07875 v 7.033 z"
         id="path9"
         style="fill:#ffffff" />
      <polygon
         class="cls-1"
         points="76.551,16.44 71.992,14.336 76.551,12.232 81.109,14.336 "
         id="polygon9"
         style="fill:#ffffff" />
      <polygon
         class="cls-1"
         points="165.687,18.738 161.636,16.868 165.687,14.998 169.739,16.868 "
         id="polygon10"
         style="fill:#ffffff" />
      <path
         class="cls-1"
         d="M 25.50535,19.90066 A 13.01568,13.01568 0 0 1 22.64943,24.0354 12.61092,12.61092 0 0 1 18.44429,26.73421 13.77754,13.77754 0 0 1 13.34559,27.68 13.76455,13.76455 0 0 1 8.29973,26.75127 12.63406,12.63406 0 0 1 4.1292,24.12386 12.38083,12.38083 0 0 1 1.30839,20.05834 12.85478,12.85478 0 0 1 0.27471,14.85419 12.98808,12.98808 0 0 1 1.36118,9.44119 12.16965,12.16965 0 0 1 4.28694,5.37562 12.88707,12.88707 0 0 1 8.59753,2.81806 15.17728,15.17728 0 0 1 13.80118,1.92449 13.01789,13.01789 0 0 1 19.145,2.97523 a 12.15464,12.15464 0 0 1 4.01218,2.82137 12.361,12.361 0 0 1 2.52352,4.082 13.54958,13.54958 0 0 1 0.87539,4.836 12.70032,12.70032 0 0 1 -1.05074,5.18606 z M 21.66791,10.43915 A 13.66081,13.66081 0 0 0 20.02091,6.49726 9.38767,9.38767 0 0 0 17.26991,3.62372 6.819,6.819 0 0 0 13.38075,2.51964 6.96165,6.96165 0 0 0 9.43837,3.62372 9.01245,9.01245 0 0 0 6.705,6.47914 13.23408,13.23408 0 0 0 5.12833,10.45671 20.15678,20.15678 0 0 0 4.62,14.9597 a 18.58288,18.58288 0 0 0 0.56054,4.59089 12.75277,12.75277 0 0 0 1.66457,3.88967 8.70765,8.70765 0 0 0 2.76859,2.69768 7.27843,7.27843 0 0 0 3.87211,1.01726 6.60116,6.60116 0 0 0 3.83688,-1.12164 9.48083,9.48083 0 0 0 2.71586,-2.89116 13.92418,13.92418 0 0 0 1.6294,-3.97762 18.44344,18.44344 0 0 0 0.543,-4.415 17.75419,17.75419 0 0 0 -0.54304,-4.31063 z"
         id="path10"
         style="fill:#ffffff" />
      <path
         class="cls-1"
         d="M 5.84187,45.79347 H 0 V 45.69792 A 1.92518,1.92518 0 0 0 0.44371,45.57392 0.903,0.903 0 0 0 0.78255,45.33529 0.43181,0.43181 0 0 0 0.859,45.16845 Q 0.88766,45.0587 0.91167,44.91537 a 2.83942,2.83942 0 0 0 0.03309,-0.30062 c 0.00652,-0.10534 0.00979,-0.20834 0.00979,-0.31041 q 0,-0.13353 0.00466,-0.36261 0.00489,-0.22932 0.00978,-0.501 0.0042,-0.272 0.00466,-0.55837 v -2.41527 c 0,-0.11466 -0.00186,-0.23211 -0.00466,-0.35329 Q 0.9641,39.93272 0.94988,39.77029 a 1.81627,1.81627 0 0 0 -0.048,-0.2913 0.40664,0.40664 0 0 0 -0.09042,-0.186 0.65652,0.65652 0 0 0 -0.30575,-0.19576 4.0611,4.0611 0 0 0 -0.41994,-0.0811 V 38.92059 H 5.35481 L 6.00406,40.496 5.90852,40.54354 A 4.65,4.65 0 0 0 4.4576,39.24554 2.31264,2.31264 0 0 0 3.85636,39.11177 8.43982,8.43982 0 0 0 2.78717,39.05444 q -0.20066,0 -0.41528,0.01445 a 2.54382,2.54382 0 0 0 -0.30994,0.03356 q -0.01959,0.15241 -0.03356,0.62968 -0.01468,0.47749 -0.01445,1.10741 v 0.611 q 0,0.24819 0.00466,0.40549 c 0.00326,0.10487 0.00513,0.186 0.00513,0.24329 v 0.10534 h 0.19062 q 0.14332,0 0.32952,-0.0098 c 0.124,-0.0061 0.248,-0.01445 0.3724,-0.02377 a 2.17083,2.17083 0 0 0 0.31,-0.04288 1.67633,1.67633 0 0 0 0.47726,-0.1813 A 1.05263,1.05263 0 0 0 4.01389,41.67 1.35749,1.35749 0 0 0 4.20452,41.29294 4.48773,4.48773 0 0 0 4.33363,40.81055 h 0.11465 v 3.00716 H 4.33363 a 3.28827,3.28827 0 0 0 -0.234,-0.63014 1.6871,1.6871 0 0 0 -0.329,-0.48706 1.275,1.275 0 0 0 -0.36774,-0.21952 1.66454,1.66454 0 0 0 -0.501,-0.10487 C 2.80635,42.37006 2.72665,42.36493 2.66326,42.36167 2.59941,42.35887 2.53602,42.35701 2.47217,42.35701 H 2.033 a 3.01347,3.01347 0 0 0 -0.01911,0.39151 v 1.14516 q 0,0.1531 0.00466,0.2913 c 0.00326,0.09228 0.00513,0.17059 0.00513,0.234 q 0.00909,0.30552 0.03309,0.57748 a 0.91128,0.91128 0 0 0 0.11,0.40549 0.59937,0.59937 0 0 0 0.41062,0.19109 4.06389,4.06389 0 0 0 0.70611,0.05733 q 0.16221,0 0.41528,-0.0098 a 5.22965,5.22965 0 0 0 0.52994,-0.04754 2.07011,2.07011 0 0 0 0.563,-0.14821 1.96214,1.96214 0 0 0 0.49638,-0.31 3.149,3.149 0 0 0 0.46282,-0.49171 6.49877,6.49877 0 0 0 0.46282,-0.70145 l 0.10533,0.02843 z"
         id="path11"
         style="fill:#ffffff" />
      <path
         class="cls-1"
         d="m 13.49726,39.43145 a 6.33343,6.33343 0 0 0 -0.79234,0.81611 q -0.16219,0.19086 -0.35795,0.42973 -0.19577,0.23839 -0.39617,0.47727 -0.20065,0.2384 -0.38172,0.46282 -0.18177,0.22442 -0.3244,0.39617 0.03775,0.05731 0.1622,0.22884 0.12375,0.172 0.28618,0.41062 0.1622,0.2391 0.35329,0.51082 0.19086,0.272 0.36727,0.52015 0.17688,0.24819 0.31973,0.44837 0.14333,0.20065 0.2102,0.30575 0.19086,0.27686 0.34863,0.49638 a 3.37132,3.37132 0 0 0 0.31,0.37706 1.65988,1.65988 0 0 0 0.31507,0.25774 0.937,0.937 0 0 0 0.36261,0.12864 v 0.09555 h -3.0925 v -0.09555 q 0.13353,-0.01887 0.28617,-0.04288 a 1.55389,1.55389 0 0 0 0.28664,-0.07178 0.57953,0.57953 0 0 0 0.21953,-0.13326 0.299,0.299 0 0 0 0.08575,-0.21953 0.81162,0.81162 0 0 0 -0.124,-0.358 q -0.12445,-0.22441 -0.28664,-0.47261 -0.21953,-0.344 -0.501,-0.74946 -0.28175,-0.40548 -0.64413,-0.91165 -0.15311,0.18177 -0.33418,0.40129 -0.18177,0.21952 -0.36261,0.44371 -0.18177,0.22443 -0.34863,0.43439 -0.16709,0.20974 -0.28151,0.37194 a 4.24,4.24 0 0 0 -0.23863,0.38218 0.75506,0.75506 0 0 0 -0.10487,0.36261 0.34882,0.34882 0 0 0 0.08576,0.234 0.6912,0.6912 0 0 0 0.21952,0.16685 1.36719,1.36719 0 0 0 0.28618,0.10487 2.7528,2.7528 0 0 0 0.28664,0.05733 v 0.09555 H 7.18791 v -0.09555 a 2.37984,2.37984 0 0 0 0.79187,-0.41528 5.80729,5.80729 0 0 0 0.84035,-0.797 q 0.14262,-0.16219 0.35282,-0.41528 0.21044,-0.25238 0.43952,-0.5248 0.22861,-0.272 0.439,-0.52994 c 0.13982,-0.17152 0.25774,-0.31507 0.35282,-0.42926 Q 10.34696,42.51016 10.14189,42.21862 9.93635,41.92778 9.67907,41.56471 9.42107,41.20256 9.16824,40.84415 8.91516,40.48615 8.76275,40.27646 8.5621,39.99961 8.40475,39.7894 A 3.3472,3.3472 0 0 0 8.099,39.4314 1.64213,1.64213 0 0 0 7.78439,39.18345 1.72436,1.72436 0 0 0 7.39755,39.01612 v -0.09554 h 3.112 v 0.09554 q -0.12444,0.0098 -0.28664,0.03822 a 1.83706,1.83706 0 0 0 -0.296,0.07644 0.67387,0.67387 0 0 0 -0.22884,0.13377 0.28165,0.28165 0 0 0 -0.09555,0.21952 0.73855,0.73855 0 0 0 0.13376,0.35282 q 0.13354,0.22023 0.30529,0.468 0.23839,0.344 0.48705,0.70145 0.2475,0.358 0.60125,0.86412 0.31461,-0.36285 0.64412,-0.79234 0.32929,-0.43 0.57748,-0.7448 a 4.0348,4.0348 0 0 0 0.24842,-0.38172 0.80468,0.80468 0 0 0 0.1333,-0.38172 0.3192,0.3192 0 0 0 -0.09042,-0.22885 0.82551,0.82551 0 0 0 -0.21952,-0.16266 1.31172,1.31172 0 0 0 -0.28152,-0.10487 q -0.15311,-0.03776 -0.27685,-0.05733 v -0.09554 h 2.49121 v 0.09554 a 1.97676,1.97676 0 0 0 -0.85883,0.41528 z"
         id="path12"
         style="fill:#ffffff" />
      <path
         class="cls-1"
         d="m 22.26938,43.56933 a 3.51292,3.51292 0 0 1 -0.62548,1.03567 3.45626,3.45626 0 0 1 -0.94009,0.75412 3.82667,3.82667 0 0 1 -1.17406,0.41528 0.95416,0.95416 0 0 0 0.10487,0.44883 0.92145,0.92145 0 0 0 0.28664,0.32906 1.36781,1.36781 0 0 0 0.41015,0.19575 1.67234,1.67234 0 0 0 0.46795,0.06665 2.31135,2.31135 0 0 0 0.33418,-0.02377 1.57812,1.57812 0 0 0 0.35282,-0.10021 l 0.048,0.07644 a 3.0488,3.0488 0 0 1 -0.63947,0.32952 2.30228,2.30228 0 0 1 -0.82123,0.138 2.86776,2.86776 0 0 1 -0.69679,-0.0811 1.799,1.799 0 0 1 -0.57748,-0.25261 1.36123,1.36123 0 0 1 -0.41528,-0.4535 1.75155,1.75155 0 0 1 -0.20973,-0.66323 3.69842,3.69842 0 0 1 -1.09763,-0.42507 3.57147,3.57147 0 0 1 -0.90233,-0.74433 3.45138,3.45138 0 0 1 -0.611,-1.01653 3.50667,3.50667 0 0 1 2.1477,-4.56294 4.10075,4.10075 0 0 1 1.31249,-0.20973 3.54672,3.54672 0 0 1 1.456,0.28617 3.31081,3.31081 0 0 1 1.093,0.76857 3.36009,3.36009 0 0 1 0.687,1.11207 3.69012,3.69012 0 0 1 0.23864,1.31715 3.41552,3.41552 0 0 1 -0.22887,1.25974 z m -1.10275,-2.42456 a 3.72846,3.72846 0 0 0 -0.44837,-1.07385 2.5559,2.5559 0 0 0 -0.74946,-0.78255 1.859,1.859 0 0 0 -1.0594,-0.30063 1.89708,1.89708 0 0 0 -1.07386,0.30063 2.45126,2.45126 0 0 0 -0.74479,0.77789 3.6032,3.6032 0 0 0 -0.42926,1.08317 5.49744,5.49744 0 0 0 -0.13843,1.22673 4.69923,4.69923 0 0 0 0.16686,1.25515 3.643,3.643 0 0 0 0.48192,1.07386 2.55852,2.55852 0 0 0 0.76391,0.74946 1.84413,1.84413 0 0 0 1.00208,0.28151 1.86371,1.86371 0 0 0 1.10275,-0.31973 2.48586,2.48586 0 0 0 0.735,-0.81611 3.83979,3.83979 0 0 0 0.41015,-1.10228 5.67714,5.67714 0 0 0 0.1291,-1.17919 4.82206,4.82206 0 0 0 -0.1482,-1.17406 z"
         id="path13"
         style="fill:#ffffff" />
      <path
         class="cls-1"
         d="m 31.03684,39.19748 a 0.86458,0.86458 0 0 0 -0.31973,0.41062 1.00293,1.00293 0 0 0 -0.05267,0.21952 c -0.01585,0.10207 -0.03029,0.21953 -0.04288,0.35329 -0.013,0.1333 -0.02237,0.275 -0.0289,0.4246 -0.006,0.14962 -0.0093,0.29783 -0.0093,0.44371 q -0.0098,0.41109 -0.02377,0.91679 -0.01469,0.50545 -0.03356,1.14516 c -0.0065,0.12118 -0.01444,0.27359 -0.02377,0.45816 a 3.17444,3.17444 0 0 1 -0.09088,0.58726 2.6325,2.6325 0 0 1 -0.2433,0.62035 1.90131,1.90131 0 0 1 -0.4726,0.563 2.26045,2.26045 0 0 1 -0.78255,0.40083 4.00754,4.00754 0 0 1 -1.17406,0.14821 4.05763,4.05763 0 0 1 -1.15961,-0.14308 2.317,2.317 0 0 1 -0.77836,-0.38685 1.88156,1.88156 0 0 1 -0.47214,-0.5346 2.59564,2.59564 0 0 1 -0.24842,-0.57281 2.42192,2.42192 0 0 1 -0.09555,-0.515 q -0.014,-0.23421 -0.014,-0.34863 0,-0.26706 0.0047,-0.69679 0.0049,-0.42927 0.0047,-0.95454 v -1.6131 c 0,-0.11465 -0.0047,-0.22092 -0.01445,-0.31973 a 1.92612,1.92612 0 0 0 -0.04288,-0.26753 0.44246,0.44246 0 0 0 -0.08576,-0.186 0.759,0.759 0 0 0 -0.32952,-0.234 1.94915,1.94915 0 0 0 -0.44371,-0.10021 v -0.09554 h 2.8445 v 0.09554 q -0.13353,0.01959 -0.28617,0.05733 a 0.90091,0.90091 0 0 0 -0.27686,0.11932 0.68158,0.68158 0 0 0 -0.2102,0.22418 0.765,0.765 0 0 0 -0.09555,0.36308 c -0.0061,0.16546 -0.01118,0.31181 -0.014,0.43905 q -0.0049,0.19086 -0.0051,0.37193 v 1.89975 q 0,0.21952 0.0051,0.4246 c 0.0028,0.137 0.0047,0.28152 0.0047,0.43439 a 2.97064,2.97064 0 0 0 0.15288,0.921 2.05823,2.05823 0 0 0 0.40083,0.70658 1.72746,1.72746 0 0 0 0.62967,0.44884 2.16654,2.16654 0 0 0 0.84967,0.15706 2.96459,2.96459 0 0 0 0.921,-0.124 1.8073,1.8073 0 0 0 0.63014,-0.34351 1.69783,1.69783 0 0 0 0.40083,-0.50616 2.47583,2.47583 0 0 0 0.21952,-0.61057 4.51677,4.51677 0 0 0 0.09555,-0.6637 q 0.02378,-0.33837 0.02377,-0.66323 v -1.6229 q 0,-0.19086 -0.0047,-0.391 -0.0049,-0.20065 -0.01445,-0.38172 c -0.0061,-0.12118 -0.01585,-0.234 -0.02843,-0.33884 a 1.05528,1.05528 0 0 0 -0.05733,-0.25308 0.89386,0.89386 0 0 0 -0.329,-0.43439 1.60149,1.60149 0 0 0 -0.69213,-0.234 v -0.09554 h 2.36723 v 0.09554 a 1.35881,1.35881 0 0 0 -0.5584,0.18136 z"
         id="path14"
         style="fill:#ffffff" />
      <path
         class="cls-1"
         d="m 33.08434,45.79347 v -0.09555 a 1.92518,1.92518 0 0 0 0.44371,-0.124 0.94037,0.94037 0 0 0 0.34863,-0.24842 0.38025,0.38025 0 0 0 0.07131,-0.16219 2.01893,2.01893 0 0 0 0.03821,-0.248 c 0.0098,-0.09555 0.01585,-0.19575 0.01911,-0.30062 0.0033,-0.10534 0.0047,-0.20834 0.0047,-0.31041 q 0,-0.13353 0.0051,-0.36261 0.0042,-0.22932 0.0093,-0.501 0.0049,-0.272 0.0047,-0.55837 v -2.75872 c 0,-0.11465 -0.0047,-0.22092 -0.014,-0.31973 a 1.99536,1.99536 0 0 0 -0.04334,-0.26753 0.43693,0.43693 0 0 0 -0.08576,-0.186 0.76035,0.76035 0 0 0 -0.32906,-0.234 1.95333,1.95333 0 0 0 -0.44417,-0.10021 v -0.09554 h 2.85428 v 0.09554 a 2.48439,2.48439 0 0 0 -0.42973,0.10487 0.61782,0.61782 0 0 0 -0.35329,0.30575 0.91721,0.91721 0 0 0 -0.09042,0.41015 c -0.0033,0.16593 -0.0079,0.3216 -0.01444,0.468 q 0,0.23839 -0.0047,0.47261 -0.0049,0.2335 -0.0047,0.4726 v 3.19732 c 0,0.18457 0.0028,0.36308 0.0093,0.5346 a 0.686,0.686 0 0 0 0.08575,0.36261 0.71037,0.71037 0 0 0 0.36308,0.24842 1.9477,1.9477 0 0 0 0.44837,0.10487 v 0.09555 z"
         id="path15"
         style="fill:#ffffff" />
      <path
         class="cls-1"
         d="m 42.54812,44.73406 a 1.8572,1.8572 0 0 1 -0.51548,0.62036 2.18335,2.18335 0 0 1 -0.78721,0.38172 3.83788,3.83788 0 0 1 -1.00255,0.124 4.81882,4.81882 0 0 1 -0.80166,-0.05733 3.14357,3.14357 0 0 1 -0.5537,-0.138 A 1.95738,1.95738 0 0 1 38.55846,45.51659 0.43446,0.43446 0 0 0 38.42,45.45 c -0.01911,0 -0.06059,0.03821 -0.12445,0.11419 q -0.09507,0.11465 -0.17151,0.22 H 38.03781 L 38.00938,43.88444 H 38.105 a 2.9937,2.9937 0 0 0 0.21952,0.501 4.15852,4.15852 0 0 0 0.29084,0.45816 2.59911,2.59911 0 0 0 0.33418,0.37706 1.65339,1.65339 0 0 0 0.33884,0.24842 2.72773,2.72773 0 0 0 0.42973,0.17152 1.78786,1.78786 0 0 0 1.66061,-0.3006 1.32188,1.32188 0 0 0 0.43952,-1.045 1.1807,1.1807 0 0 0 -0.08623,-0.46794 1.09221,1.09221 0 0 0 -0.234,-0.34816 1.40509,1.40509 0 0 0 -0.34816,-0.25309 3.83027,3.83027 0 0 0 -0.42973,-0.19109 q -0.22861,-0.086 -0.40083,-0.14309 c -0.11465,-0.03822 -0.22092,-0.07457 -0.31973,-0.10953 -0.09881,-0.03496 -0.20042,-0.07037 -0.30528,-0.10533 -0.10534,-0.035 -0.23071,-0.0811 -0.37706,-0.13843 A 2.05329,2.05329 0 0 1 38.84,42.276 a 1.93473,1.93473 0 0 1 -0.40083,-0.39151 1.96881,1.96881 0 0 1 -0.27685,-0.49638 1.57966,1.57966 0 0 1 -0.10534,-0.57747 1.94621,1.94621 0 0 1 0.1883,-0.88742 1.8087,1.8087 0 0 1 0.50616,-0.62036 2.13436,2.13436 0 0 1 0.73268,-0.36773 3.16013,3.16013 0 0 1 0.87344,-0.11932 3.24844,3.24844 0 0 1 0.735,0.07178 2.91805,2.91805 0 0 1 0.501,0.15753 1.69329,1.69329 0 0 1 0.296,0.15754 0.64706,0.64706 0 0 0 0.11,0.07131 c 0.0191,0 0.05872,-0.03822 0.11931,-0.11466 0.06013,-0.076 0.11606,-0.15241 0.16686,-0.22884 h 0.10487 v 1.766 h -0.10487 a 3.86083,3.86083 0 0 0 -0.296,-0.62548 2.83821,2.83821 0 0 0 -0.41994,-0.55371 2.03561,2.03561 0 0 0 -0.54392,-0.39617 1.49735,1.49735 0 0 0 -0.67768,-0.15241 1.78,1.78 0 0 0 -0.55837,0.08576 1.29633,1.29633 0 0 0 -0.45862,0.25775 1.18558,1.18558 0 0 0 -0.30529,0.4246 1.43878,1.43878 0 0 0 -0.10952,0.57747 1.09948,1.09948 0 0 0 0.30435,0.81145 2.16547,2.16547 0 0 0 0.79047,0.48706 c 0.12678,0.0508 0.24563,0.09554 0.357,0.13329 q 0.1664,0.05733 0.32859,0.11 0.16149,0.05244 0.32812,0.11 c 0.11139,0.03775 0.227,0.07923 0.3477,0.124 a 2.21524,2.21524 0 0 1 1.00487,0.69213 1.941,1.941 0 0 1 0.17058,1.95195 z"
         id="path16"
         style="fill:#ffffff" />
      <path
         class="cls-1"
         d="m 44.57651,45.79347 v -0.09555 a 1.92913,1.92913 0 0 0 0.44418,-0.124 0.94241,0.94241 0 0 0 0.34816,-0.24842 0.38032,0.38032 0 0 0 0.07178,-0.16219 2.11147,2.11147 0 0 0 0.03821,-0.248 q 0.014,-0.14333 0.01911,-0.30062 c 0.0028,-0.10534 0.0047,-0.20834 0.0047,-0.31041 q 0,-0.13353 0.0047,-0.36261 0.0049,-0.22932 0.0098,-0.501 0.0042,-0.272 0.0047,-0.55837 v -2.75872 c 0,-0.11465 -0.0047,-0.22092 -0.01444,-0.31973 a 1.92762,1.92762 0 0 0 -0.04288,-0.26753 0.44246,0.44246 0 0 0 -0.08576,-0.186 0.76179,0.76179 0 0 0 -0.32952,-0.234 1.94928,1.94928 0 0 0 -0.44371,-0.10021 v -0.09554 h 2.85382 v 0.09554 A 2.47975,2.47975 0 0 0 47.03,39.121 0.615,0.615 0 0 0 46.67671,39.42675 0.91074,0.91074 0 0 0 46.58583,39.8369 c -0.0033,0.16593 -0.0079,0.3216 -0.014,0.468 q 0,0.23839 -0.0051,0.47261 -0.0049,0.2335 -0.0047,0.4726 v 3.19732 c 0,0.18457 0.0033,0.36308 0.0098,0.5346 a 0.68155,0.68155 0 0 0 0.08576,0.36261 0.70891,0.70891 0 0 0 0.36261,0.24842 1.9456,1.9456 0 0 0 0.44883,0.10487 v 0.09555 z"
         id="path17"
         style="fill:#ffffff" />
      <path
         class="cls-1"
         d="m 55.9736,40.71551 q -0.0762,-0.172 -0.1813,-0.358 c -0.06991,-0.12445 -0.14169,-0.2405 -0.2144,-0.34863 -0.07364,-0.10813 -0.145,-0.20834 -0.21486,-0.30062 A 1.43516,1.43516 0 0 0 55.18173,39.50318 1.00434,1.00434 0 0 0 54.74734,39.2501 2.66262,2.66262 0 0 0 54.15076,39.17832 q -0.18177,0 -0.31507,-0.0047 c -0.089,-0.0033 -0.178,-0.0047 -0.26753,-0.0047 h -0.62968 q 0,0.23839 -0.0047,0.64925 -0.0049,0.41038 -0.0051,0.859 v 3.73195 c 0,0.185 0.0051,0.36122 0.01445,0.52994 a 0.69618,0.69618 0 0 0 0.09089,0.35795 0.71008,0.71008 0 0 0 0.40549,0.28617 4.56035,4.56035 0 0 0 0.47261,0.11466 v 0.09555 h -3.10224 v -0.09555 a 2.8647,2.8647 0 0 0 0.47726,-0.09555 0.98579,0.98579 0 0 0 0.44837,-0.3146 0.31831,0.31831 0 0 0 0.07178,-0.15754 2.36171,2.36171 0 0 0 0.03822,-0.24842 q 0.014,-0.13842 0.01911,-0.30062 0.0049,-0.1622 0.0047,-0.31507 c 0,-0.089 0.0014,-0.20648 0.0047,-0.35329 0.0033,-0.14589 0.0065,-0.30855 0.0098,-0.48659 0.0028,-0.178 0.0047,-0.36261 0.0047,-0.55371 v -3.70348 h -0.63014 c -0.0825,0 -0.17012,0.0014 -0.26241,0.0047 -0.09229,0.0033 -0.199,0.0047 -0.31973,0.0047 a 2.14648,2.14648 0 0 0 -0.59658,0.08623 1.14133,1.14133 0 0 0 -0.43439,0.26706 1.378,1.378 0 0 0 -0.17665,0.20042 q -0.1,0.13422 -0.20973,0.2913 a 3.92549,3.92549 0 0 0 -0.21021,0.33884 2.12432,2.12432 0 0 0 -0.15753,0.35329 l -0.08576,-0.0289 0.28617,-1.81352 c 0.14635,0.03169 0.282,0.05733 0.406,0.07644 a 4.663,4.663 0 0 0 0.53926,0.03821 q 0.36284,0.0098 0.64925,0.014 0.28594,0.0056 0.55324,0.0051 h 1.814 q 0.28593,0 0.55324,-0.0051 c 0.178,-0.0028 0.36307,-0.0061 0.5537,-0.0093 q 0.28664,-0.0049 0.64925,-0.0047 a 3.05464,3.05464 0 0 0 0.52015,-0.05266 c 0.13656,-0.02843 0.27825,-0.06525 0.4246,-0.10953 L 56.06,40.68661 Z"
         id="path18"
         style="fill:#ffffff" />
      <path
         class="cls-1"
         d="m 63.1233,45.79347 h -5.84187 v -0.09555 a 1.92231,1.92231 0 0 0 0.44417,-0.124 0.91047,0.91047 0 0 0 0.33885,-0.23863 0.43182,0.43182 0 0 0 0.07643,-0.16686 q 0.02866,-0.10975 0.0522,-0.25308 a 2.96,2.96 0 0 0 0.03356,-0.30062 c 0.0061,-0.10534 0.0093,-0.20834 0.0093,-0.31041 q 0,-0.13353 0.0051,-0.36261 0.0042,-0.22932 0.0093,-0.501 0.0049,-0.272 0.0047,-0.55837 v -2.41525 c 0,-0.11466 -0.0014,-0.23211 -0.0047,-0.35329 -0.0033,-0.12072 -0.0093,-0.23537 -0.01911,-0.34351 a 1.81875,1.81875 0 0 0 -0.04754,-0.2913 0.40666,0.40666 0 0 0 -0.09088,-0.186 0.65532,0.65532 0 0 0 -0.30529,-0.19576 4.08578,4.08578 0 0 0 -0.41994,-0.0811 v -0.09554 h 5.26906 l 0.64878,1.57535 -0.09508,0.04754 a 4.65,4.65 0 0 0 -1.45091,-1.298 2.32257,2.32257 0 0 0 -0.60171,-0.13377 8.432,8.432 0 0 0 -1.06873,-0.05733 q -0.20064,0 -0.41528,0.01445 a 2.55486,2.55486 0 0 0 -0.31041,0.03356 q -0.01887,0.15241 -0.03355,0.62968 -0.014,0.47749 -0.014,1.10741 v 0.611 q 0,0.24819 0.0047,0.40549 c 0.0033,0.10487 0.0047,0.186 0.0047,0.24329 v 0.10534 h 0.19109 q 0.14332,0 0.329,-0.0098 c 0.12445,-0.0061 0.24842,-0.01445 0.3724,-0.02377 a 2.188,2.188 0 0 0 0.31041,-0.04288 1.68732,1.68732 0 0 0 0.47727,-0.1813 1.05068,1.05068 0 0 0 0.30994,-0.27686 1.35862,1.35862 0 0 0 0.1911,-0.37706 4.60543,4.60543 0 0 0 0.12864,-0.48239 h 0.11465 V 43.8177 H 61.615 A 3.25479,3.25479 0 0 0 61.38149,43.18757 1.68747,1.68747 0 0 0 61.05197,42.70051 1.27245,1.27245 0 0 0 60.6847,42.48099 1.66774,1.66774 0 0 0 60.18319,42.37612 c -0.09508,-0.0061 -0.17478,-0.01119 -0.23863,-0.01445 -0.06339,-0.0028 -0.12724,-0.0047 -0.19063,-0.0047 h -0.43905 a 2.93252,2.93252 0 0 0 -0.01911,0.39151 v 1.14516 q 0,0.1531 0.0047,0.2913 c 0.0033,0.09228 0.0047,0.17059 0.0047,0.234 q 0.0098,0.30552 0.03355,0.57748 a 0.91813,0.91813 0 0 0 0.10953,0.40549 0.6005,0.6005 0 0 0 0.41062,0.19109 4.06556,4.06556 0 0 0 0.70658,0.05733 q 0.16219,0 0.41481,-0.0098 a 5.218,5.218 0 0 0 0.52994,-0.04754 2.06109,2.06109 0 0 0 0.563,-0.14821 1.954,1.954 0 0 0 0.49638,-0.31 3.15173,3.15173 0 0 0 0.46329,-0.49171 6.6424,6.6424 0 0 0 0.46282,-0.70145 l 0.10486,0.02843 z"
         id="path19"
         style="fill:#ffffff" />
      <path
         class="cls-1"
         d="m 74.415,41.13545 a 3.20869,3.20869 0 0 0 -0.37193,-0.859 3.03571,3.03571 0 0 0 -0.58726,-0.69679 2.67967,2.67967 0 0 0 -0.76344,-0.468 2.38233,2.38233 0 0 0 -0.90234,-0.172 2.3177,2.3177 0 0 0 -1.17406,0.296 2.71087,2.71087 0 0 0 -0.86365,0.783 3.72068,3.72068 0 0 0 -0.53459,1.10228 4.351,4.351 0 0 0 -0.186,1.26494 4.13587,4.13587 0 0 0 0.19576,1.28825 3.1833,3.1833 0 0 0 0.55836,1.04543 2.64636,2.64636 0 0 0 0.8781,0.70145 2.52165,2.52165 0 0 0 1.14516,0.25774 2.38578,2.38578 0 0 0 0.93077,-0.1813 2.81711,2.81711 0 0 0 0.77323,-0.47727 2.87734,2.87734 0 0 0 0.57281,-0.68235 2.54675,2.54675 0 0 0 0.31973,-0.797 h 0.11466 l -0.0289,2.0997 H 74.3773 a 2.93777,2.93777 0 0 0 -0.23863,-0.296 q -0.12444,-0.13353 -0.172,-0.1333 a 0.81839,0.81839 0 0 0 -0.172,0.10021 2.79045,2.79045 0 0 1 -0.43905,0.21952 4.12149,4.12149 0 0 1 -0.69679,0.20974 4.3989,4.3989 0 0 1 -0.94475,0.09089 4.7887,4.7887 0 0 1 -1.60378,-0.25309 3.46115,3.46115 0 0 1 -1.21694,-0.7159 3.108,3.108 0 0 1 -0.76857,-1.10694 3.734,3.734 0 0 1 -0.2433,-1.80886 3.46563,3.46563 0 0 1 0.08576,-0.468 3.98253,3.98253 0 0 1 0.172,-0.52015 3.586,3.586 0 0 1 0.28151,-0.549 3.43456,3.43456 0 0 1 0.49638,-0.62036 3.16655,3.16655 0 0 1 0.69679,-0.52014 3.86639,3.86639 0 0 1 0.907,-0.358 4.45211,4.45211 0 0 1 1.13584,-0.13377 4.25462,4.25462 0 0 1 1.00208,0.10487 4.58694,4.58694 0 0 1 0.7159,0.22931 2.66318,2.66318 0 0 1 0.43905,0.22931 0.82569,0.82569 0 0 0 0.172,0.10487 0.16592,0.16592 0 0 0 0.07131,-0.04288 c 0.035,-0.02889 0.07318,-0.06385 0.11466,-0.10533 0.04148,-0.041 0.08436,-0.089 0.1291,-0.14309 q 0.06642,-0.08109 0.124,-0.16686 h 0.10487 v 2.13792 z"
         id="path20"
         style="fill:#ffffff" />
      <path
         class="cls-1"
         d="m 83.10142,43.7222 a 3.55018,3.55018 0 0 1 -0.77789,1.126 3.43235,3.43235 0 0 1 -1.14563,0.735 3.8683,3.8683 0 0 1 -2.7634,0.0051 3.44294,3.44294 0 0 1 -1.13584,-0.7159 3.37466,3.37466 0 0 1 -0.76857,-1.10741 3.49961,3.49961 0 0 1 -0.28151,-1.41735 3.54009,3.54009 0 0 1 0.296,-1.47469 3.31646,3.31646 0 0 1 0.797,-1.10741 3.51311,3.51311 0 0 1 1.17406,-0.69679 4.137,4.137 0 0 1 1.41735,-0.24329 3.54668,3.54668 0 0 1 1.456,0.28617 3.31071,3.31071 0 0 1 1.093,0.76857 3.36028,3.36028 0 0 1 0.687,1.11207 3.69033,3.69033 0 0 1 0.23863,1.31715 3.4648,3.4648 0 0 1 -0.2862,1.41275 z M 82.056,41.14477 a 3.72846,3.72846 0 0 0 -0.44837,-1.07385 2.5559,2.5559 0 0 0 -0.74946,-0.78255 1.859,1.859 0 0 0 -1.05941,-0.30063 1.897,1.897 0 0 0 -1.07385,0.30063 2.45129,2.45129 0 0 0 -0.7448,0.77789 3.60346,3.60346 0 0 0 -0.42926,1.08317 5.498,5.498 0 0 0 -0.13842,1.22673 5.06919,5.06919 0 0 0 0.1524,1.25049 3.479,3.479 0 0 0 0.4535,1.05941 2.36868,2.36868 0 0 0 0.75412,0.735 1.98282,1.98282 0 0 0 1.05474,0.27685 1.79867,1.79867 0 0 0 1.04543,-0.30528 2.57619,2.57619 0 0 0 0.73967,-0.78768 3.78856,3.78856 0 0 0 0.44371,-1.08317 5.01149,5.01149 0 0 0 0.14821,-1.203 4.82206,4.82206 0 0 0 -0.14821,-1.17401 z"
         id="path21"
         style="fill:#ffffff" />
      <path
         class="cls-1"
         d="m 91.07188,45.79347 h -6.128 v -0.09555 a 2.49317,2.49317 0 0 0 0.47214,-0.124 0.87927,0.87927 0 0 0 0.36774,-0.23863 0.48361,0.48361 0 0 0 0.0811,-0.16686 1.62489,1.62489 0 0 0 0.05266,-0.25308 q 0.01888,-0.14333 0.03309,-0.30062 c 0.0098,-0.10534 0.01445,-0.20834 0.01445,-0.31041 q 0,-0.13353 0.0047,-0.36261 0.0049,-0.22932 0.0098,-0.501 0.0042,-0.272 0.0047,-0.55837 v -2.73965 c 0,-0.11465 -0.0047,-0.22092 -0.01445,-0.31973 a 1.76206,1.76206 0 0 0 -0.04288,-0.2624 0.44032,0.44032 0 0 0 -0.08575,-0.18177 0.84784,0.84784 0 0 0 -0.358,-0.248 1.93589,1.93589 0 0 0 -0.4726,-0.11466 v -0.09554 h 3.04491 v 0.09554 c -0.083,0.01306 -0.18131,0.03216 -0.296,0.05733 a 1.17984,1.17984 0 0 0 -0.3244,0.124 0.78523,0.78523 0 0 0 -0.2624,0.24376 0.76,0.76 0 0 0 -0.11932,0.41481 c -0.0065,0.22326 -0.01118,0.42647 -0.01444,0.611 -0.0033,0.18453 -0.0065,0.36587 -0.0098,0.54438 q -0.0049,0.26706 -0.0047,0.55324 v 1.73755 q 0,0.24819 0.0047,0.51036 0.0049,0.26288 0.0051,0.58726 0.0091,0.30552 0.02377,0.58214 a 0.85508,0.85508 0 0 0 0.10021,0.41062 0.39662,0.39662 0 0 0 0.15288,0.09554 1.52531,1.52531 0 0 0 0.27685,0.0811 q 0.16219,0.03355 0.35282,0.05733 a 3.08515,3.08515 0 0 0 0.38172,0.02377 c 0.05127,0 0.13237,-0.0014 0.24376,-0.0047 q 0.16639,-0.0049 0.36728,-0.01911 c 0.13376,-0.0098 0.27032,-0.02424 0.41061,-0.04335 a 2.58569,2.58569 0 0 0 0.3724,-0.076 2.137,2.137 0 0 0 0.63434,-0.27685 1.99117,1.99117 0 0 0 0.43439,-0.39617 2.40514,2.40514 0 0 0 0.30575,-0.487 q 0.12375,-0.26217 0.23863,-0.54858 l 0.09508,0.02843 z"
         id="path22"
         style="fill:#ffffff" />
      <path
         class="cls-1"
         d="m 98.78413,45.79347 h -6.128 v -0.09555 a 2.507,2.507 0 0 0 0.47261,-0.124 0.8775,0.8775 0 0 0 0.36727,-0.23863 0.48343,0.48343 0 0 0 0.0811,-0.16686 1.57327,1.57327 0 0 0 0.05267,-0.25308 q 0.01887,-0.14333 0.03355,-0.30062 c 0.0093,-0.10534 0.014,-0.20834 0.014,-0.31041 q 0,-0.13353 0.0051,-0.36261 0.0042,-0.22932 0.0093,-0.501 0.0049,-0.272 0.0047,-0.55837 v -2.73965 c 0,-0.11465 -0.0047,-0.22092 -0.014,-0.31973 a 1.89174,1.89174 0 0 0 -0.04288,-0.2624 0.44061,0.44061 0 0 0 -0.08622,-0.18177 0.842,0.842 0 0 0 -0.35795,-0.248 1.93608,1.93608 0 0 0 -0.47261,-0.11466 v -0.09554 h 3.04538 v 0.09554 q -0.12444,0.01959 -0.296,0.05733 a 1.18839,1.18839 0 0 0 -0.32486,0.124 0.79408,0.79408 0 0 0 -0.26241,0.24376 0.7639,0.7639 0 0 0 -0.11931,0.41481 c -0.0065,0.22326 -0.01119,0.42647 -0.01445,0.611 -0.0033,0.18453 -0.0061,0.36587 -0.0093,0.54438 q -0.0049,0.26706 -0.0047,0.55324 v 1.73755 q 0,0.24819 0.0047,0.51036 0.0049,0.26288 0.0047,0.58726 0.0098,0.30552 0.02377,0.58214 a 0.86582,0.86582 0 0 0 0.1002,0.41062 0.40048,0.40048 0 0 0 0.15288,0.09554 1.5483,1.5483 0 0 0 0.27685,0.0811 q 0.1622,0.03355 0.35329,0.05733 a 3.08515,3.08515 0 0 0 0.38172,0.02377 c 0.05081,0 0.1319,-0.0014 0.2433,-0.0047 0.1114,-0.0033 0.234,-0.0098 0.36774,-0.01911 0.13329,-0.0098 0.27032,-0.02424 0.41015,-0.04335 a 2.55992,2.55992 0 0 0 0.3724,-0.076 2.14017,2.14017 0 0 0 0.6348,-0.27685 2.00175,2.00175 0 0 0 0.43439,-0.39617 2.40355,2.40355 0 0 0 0.30528,-0.487 q 0.12375,-0.26217 0.23863,-0.54858 l 0.09555,0.02843 z"
         id="path23"
         style="fill:#ffffff" />
      <path
         class="cls-1"
         d="m 106.27733,45.79347 h -5.84187 v -0.09555 a 1.92518,1.92518 0 0 0 0.44371,-0.124 0.903,0.903 0 0 0 0.33884,-0.23863 0.43181,0.43181 0 0 0 0.0764,-0.16686 q 0.0287,-0.10975 0.0527,-0.25308 a 2.83674,2.83674 0 0 0 0.0331,-0.30062 c 0.007,-0.10534 0.01,-0.20834 0.01,-0.31041 q 0,-0.13353 0.005,-0.36261 0.005,-0.22932 0.01,-0.501 0.004,-0.272 0.005,-0.55837 v -2.41525 c 0,-0.11466 -0.002,-0.23211 -0.005,-0.35329 q -0.005,-0.18108 -0.0191,-0.34351 a 1.81627,1.81627 0 0 0 -0.048,-0.2913 0.40674,0.40674 0 0 0 -0.0904,-0.186 0.65652,0.65652 0 0 0 -0.30575,-0.19576 4.0611,4.0611 0 0 0 -0.41994,-0.0811 v -0.09554 h 5.26905 l 0.64925,1.57535 -0.0955,0.04754 a 4.65,4.65 0 0 0 -1.45092,-1.298 2.31264,2.31264 0 0 0 -0.60124,-0.13377 8.43982,8.43982 0 0 0 -1.06919,-0.05733 q -0.20065,0 -0.41528,0.01445 a 2.54429,2.54429 0 0 0 -0.31,0.03356 q -0.0196,0.15241 -0.0335,0.62968 -0.0147,0.47749 -0.0145,1.10741 v 0.611 q 0,0.24819 0.005,0.40549 c 0.003,0.10487 0.005,0.186 0.005,0.24329 v 0.10534 h 0.19062 q 0.14333,0 0.32952,-0.0098 c 0.124,-0.0061 0.248,-0.01445 0.3724,-0.02377 a 2.17083,2.17083 0 0 0 0.31,-0.04288 1.67633,1.67633 0 0 0 0.47726,-0.1813 1.05263,1.05263 0 0 0 0.31041,-0.27686 1.35749,1.35749 0 0 0 0.19065,-0.377 4.48773,4.48773 0 0 0 0.12911,-0.48239 h 0.11465 v 3.00716 h -0.11465 a 3.28827,3.28827 0 0 0 -0.234,-0.63014 1.68729,1.68729 0 0 0 -0.32905,-0.48706 1.275,1.275 0 0 0 -0.36774,-0.21952 1.66454,1.66454 0 0 0 -0.501,-0.10487 c -0.0955,-0.0061 -0.17524,-0.01119 -0.23863,-0.01445 -0.0639,-0.0028 -0.12724,-0.0047 -0.19109,-0.0047 h -0.43905 a 3.01347,3.01347 0 0 0 -0.0191,0.39151 v 1.14516 q 0,0.1531 0.005,0.2913 c 0.003,0.09228 0.005,0.17059 0.005,0.234 q 0.009,0.30552 0.0331,0.57748 a 0.91114,0.91114 0 0 0 0.11,0.40549 0.59937,0.59937 0 0 0 0.41062,0.19109 4.06389,4.06389 0 0 0 0.70611,0.05733 q 0.16219,0 0.41528,-0.0098 a 5.22991,5.22991 0 0 0 0.52994,-0.04754 2.07011,2.07011 0 0 0 0.563,-0.14821 1.96214,1.96214 0 0 0 0.49638,-0.31 3.14949,3.14949 0 0 0 0.46282,-0.49171 6.50026,6.50026 0 0 0 0.46282,-0.70145 l 0.10533,0.02843 z"
         id="path24"
         style="fill:#ffffff" />
      <path
         class="cls-1"
         d="m 114.6104,41.13545 a 3.225,3.225 0 0 0 -0.3724,-0.859 3.04546,3.04546 0 0 0 -0.5868,-0.69679 2.67564,2.67564 0 0 0 -0.76391,-0.468 2.37817,2.37817 0 0 0 -0.90186,-0.172 2.31647,2.31647 0 0 0 -1.17406,0.296 2.71741,2.71741 0 0 0 -0.86412,0.783 3.731,3.731 0 0 0 -0.53413,1.10228 4.33589,4.33589 0 0 0 -0.18643,1.26494 4.13616,4.13616 0 0 0 0.19575,1.28825 3.19207,3.19207 0 0 0 0.55837,1.04543 2.65109,2.65109 0 0 0 0.8781,0.70145 2.525,2.525 0 0 0 1.14563,0.25774 2.38741,2.38741 0 0 0 0.93076,-0.1813 2.817,2.817 0 0 0 0.77323,-0.47727 2.87546,2.87546 0 0 0 0.57235,-0.68235 2.52463,2.52463 0 0 0 0.31973,-0.797 h 0.11466 l -0.0284,2.0997 h -0.11466 a 2.93777,2.93777 0 0 0 -0.23863,-0.296 c -0.083,-0.089 -0.13983,-0.1333 -0.172,-0.1333 a 0.83578,0.83578 0 0 0 -0.17152,0.10021 2.83261,2.83261 0 0 1 -0.439,0.21952 4.135,4.135 0 0 1 -0.6968,0.20974 4.40338,4.40338 0 0 1 -0.94521,0.09089 4.7888,4.7888 0 0 1 -1.60379,-0.25309 3.46124,3.46124 0 0 1 -1.21694,-0.7159 3.10682,3.10682 0 0 1 -0.7681,-1.10694 3.72949,3.72949 0 0 1 -0.24376,-1.80886 3.46891,3.46891 0 0 1 0.0862,-0.468 3.90925,3.90925 0 0 1 0.17151,-0.52015 3.59176,3.59176 0 0 1 0.282,-0.549 3.412,3.412 0 0 1 0.49591,-0.62036 3.16987,3.16987 0 0 1 0.69726,-0.52014 3.86284,3.86284 0 0 1 0.90653,-0.358 4.45466,4.45466 0 0 1 1.13584,-0.13377 4.2615,4.2615 0 0 1 1.00254,0.10487 4.61929,4.61929 0 0 1 0.7159,0.22931 2.70189,2.70189 0 0 1 0.43905,0.22931 0.84385,0.84385 0 0 0 0.17152,0.10487 0.164,0.164 0 0 0 0.0718,-0.04288 c 0.035,-0.02889 0.0732,-0.06385 0.11465,-0.10533 0.041,-0.041 0.0844,-0.089 0.12864,-0.14309 a 1.90444,1.90444 0 0 0 0.124,-0.16686 h 0.10533 v 2.13792 z"
         id="path25"
         style="fill:#ffffff" />
      <path
         class="cls-1"
         d="m 123.21986,40.71551 q -0.0762,-0.172 -0.18131,-0.358 c -0.0699,-0.12445 -0.14169,-0.2405 -0.2144,-0.34863 -0.0736,-0.10813 -0.145,-0.20834 -0.21486,-0.30062 a 1.4352,1.4352 0 0 0 -0.1813,-0.20508 1.0044,1.0044 0 0 0 -0.43439,-0.25308 2.66279,2.66279 0 0 0 -0.59659,-0.07178 q -0.18177,0 -0.31507,-0.0047 c -0.089,-0.0033 -0.178,-0.0047 -0.26753,-0.0047 h -0.62968 q 0,0.23839 -0.005,0.64925 -0.005,0.41038 -0.005,0.859 v 3.73195 c 0,0.185 0.005,0.36122 0.0145,0.52994 a 0.69609,0.69609 0 0 0 0.0909,0.35795 0.71011,0.71011 0 0 0 0.40549,0.28617 4.561,4.561 0 0 0 0.47261,0.11466 v 0.09555 h -3.10224 v -0.09555 a 2.865,2.865 0 0 0 0.47727,-0.09555 0.98579,0.98579 0 0 0 0.44837,-0.3146 0.31831,0.31831 0 0 0 0.0718,-0.15754 2.3591,2.3591 0 0 0 0.0382,-0.24842 q 0.014,-0.13842 0.0191,-0.30062 0.005,-0.1622 0.005,-0.31507 c 0,-0.089 0.001,-0.20648 0.005,-0.35329 0.003,-0.14589 0.007,-0.30855 0.01,-0.48659 q 0.004,-0.26706 0.005,-0.55371 v -3.70348 h -0.63014 c -0.0825,0 -0.17012,0.0014 -0.2624,0.0047 -0.0923,0.0033 -0.199,0.0047 -0.31974,0.0047 a 2.14654,2.14654 0 0 0 -0.59658,0.08623 1.1414,1.1414 0 0 0 -0.43439,0.26706 1.37742,1.37742 0 0 0 -0.17664,0.20042 q -0.1,0.13422 -0.20974,0.2913 a 3.92545,3.92545 0 0 0 -0.2102,0.33884 2.1244,2.1244 0 0 0 -0.15754,0.35329 l -0.0858,-0.0289 0.28618,-1.81352 c 0.14635,0.03169 0.282,0.05733 0.406,0.07644 a 4.663,4.663 0 0 0 0.53926,0.03821 q 0.36285,0.0098 0.64925,0.014 0.28594,0.0056 0.55324,0.0051 h 1.814 q 0.28594,0 0.55324,-0.0051 c 0.178,-0.0028 0.36308,-0.0061 0.5537,-0.0093 q 0.28665,-0.0049 0.64926,-0.0047 a 3.05451,3.05451 0 0 0 0.52014,-0.05266 c 0.13657,-0.02843 0.27825,-0.06525 0.4246,-0.10953 l 0.30575,1.86106 z"
         id="path26"
         style="fill:#ffffff" />
      <path
         class="cls-1"
         d="m 124.57569,45.79347 v -0.09555 a 1.92518,1.92518 0 0 0 0.44371,-0.124 0.94029,0.94029 0 0 0 0.34863,-0.24842 0.38025,0.38025 0 0 0 0.0713,-0.16219 2.01684,2.01684 0 0 0 0.0382,-0.248 c 0.01,-0.09555 0.0158,-0.19575 0.0191,-0.30062 0.003,-0.10534 0.005,-0.20834 0.005,-0.31041 q 0,-0.13353 0.005,-0.36261 0.004,-0.22932 0.009,-0.501 0.005,-0.272 0.005,-0.55837 v -2.75872 c 0,-0.11465 -0.005,-0.22092 -0.014,-0.31973 a 1.99376,1.99376 0 0 0 -0.0433,-0.26753 0.43681,0.43681 0 0 0 -0.0858,-0.186 0.76038,0.76038 0 0 0 -0.32905,-0.234 1.95355,1.95355 0 0 0 -0.44418,-0.10021 v -0.09554 h 2.85428 v 0.09554 a 2.48407,2.48407 0 0 0 -0.42972,0.10487 0.61776,0.61776 0 0 0 -0.35329,0.30575 0.91694,0.91694 0 0 0 -0.0904,0.41015 c -0.003,0.16593 -0.008,0.3216 -0.0144,0.468 q 0,0.23839 -0.005,0.47261 -0.005,0.2335 -0.005,0.4726 v 3.19732 c 0,0.18457 0.003,0.36308 0.009,0.5346 a 0.6859,0.6859 0 0 0 0.0858,0.36261 0.71033,0.71033 0 0 0 0.36308,0.24842 1.94758,1.94758 0 0 0 0.44837,0.10487 v 0.09555 z"
         id="path27"
         style="fill:#ffffff" />
      <path
         class="cls-1"
         d="m 136.04875,43.7222 a 3.54229,3.54229 0 0 1 -0.77789,1.126 3.42563,3.42563 0 0 1 -1.14516,0.735 3.8683,3.8683 0 0 1 -2.7634,0.0051 3.44981,3.44981 0 0 1 -1.1363,-0.7159 3.36645,3.36645 0 0 1 -0.76811,-1.10741 3.7657,3.7657 0 0 1 0.0145,-2.892 3.3166,3.3166 0 0 1 0.797,-1.10741 3.504,3.504 0 0 1 1.17406,-0.69679 4.13506,4.13506 0 0 1 1.41736,-0.24329 3.54446,3.54446 0 0 1 1.45557,0.28617 3.30587,3.30587 0 0 1 1.093,0.76857 3.36145,3.36145 0 0 1 0.68747,1.11207 3.69033,3.69033 0 0 1 0.23863,1.31715 3.45734,3.45734 0 0 1 -0.28668,1.41271 z m -1.04495,-2.57743 a 3.729,3.729 0 0 0 -0.44884,-1.07385 2.55567,2.55567 0 0 0 -0.74946,-0.78255 1.85688,1.85688 0 0 0 -1.0594,-0.30063 1.89914,1.89914 0 0 0 -1.07385,0.30063 2.44987,2.44987 0 0 0 -0.74433,0.77789 3.60383,3.60383 0 0 0 -0.42973,1.08317 5.49744,5.49744 0 0 0 -0.13843,1.22673 5.04653,5.04653 0 0 0 0.15288,1.25049 3.46727,3.46727 0 0 0 0.45349,1.05941 2.36878,2.36878 0 0 0 0.75412,0.735 1.98172,1.98172 0 0 0 1.05475,0.27685 1.79712,1.79712 0 0 0 1.045,-0.30528 2.57607,2.57607 0 0 0 0.73967,-0.78768 3.789,3.789 0 0 0 0.44418,-1.08317 5.03457,5.03457 0 0 0 0.14775,-1.203 4.84431,4.84431 0 0 0 -0.1478,-1.17401 z"
         id="path28"
         style="fill:#ffffff" />
      <path
         class="cls-1"
         d="m 145.074,39.19748 a 0.84722,0.84722 0 0 0 -0.32906,0.41062 1.6094,1.6094 0 0 0 -0.0862,0.52993 q -0.0189,0.38663 -0.0382,0.82543 -0.0189,0.41039 -0.0331,0.969 -0.0147,0.5586 -0.0145,1.19783 v 0.611 q 0,0.33419 0.005,0.68234 c 0.003,0.23258 0.005,0.46282 0.005,0.69213 v 0.62036 a 0.08393,0.08393 0 0 1 -0.0242,0.062 0.09686,0.09686 0 0 1 -0.0713,0.02377 0.2628,0.2628 0 0 1 -0.172,-0.09508 q -0.81168,-0.93543 -1.47935,-1.71845 -0.66835,-0.78231 -1.27426,-1.49379 -0.60684,-0.711 -1.18851,-1.38892 -0.58238,-0.67744 -1.23139,-1.40291 v 4.02788 q 0,0.48729 0.0238,0.8781 a 1.58251,1.58251 0 0 0 0.11932,0.5826 0.689,0.689 0 0 0 0.32952,0.32906 1.96891,1.96891 0 0 0 0.61569,0.15753 v 0.09555 h -2.34812 v -0.09555 a 1.87368,1.87368 0 0 0 0.45816,-0.11932 0.74293,0.74293 0 0 0 0.36261,-0.30062 1.31167,1.31167 0 0 0 0.172,-0.59192 q 0.0378,-0.39081 0.0569,-0.93543 0.0196,-0.41038 0.0289,-0.96852 0.009,-0.5586 0.009,-1.19829 v -1.16426 q 0,-0.19086 -0.009,-0.468 a 1.10867,1.10867 0 0 0 -0.13377,-0.4535 0.88093,0.88093 0 0 0 -0.248,-0.27638 0.95068,0.95068 0 0 0 -0.31041,-0.14356 2.67323,2.67323 0 0 0 -0.31973,-0.062 v -0.09554 h 1.9375 l 4.52472,5.28816 v -3.24527 q 0,-0.38172 -0.01,-0.73035 a 1.716,1.716 0 0 0 -0.0858,-0.54857 0.87565,0.87565 0 0 0 -0.33884,-0.43439 1.678,1.678 0 0 0 -0.70146,-0.234 v -0.09554 h 2.36723 v 0.09554 a 1.44616,1.44616 0 0 0 -0.5681,0.18133 z"
         id="path29"
         style="fill:#ffffff" />
      <path
         class="cls-1"
         d="m 156.98188,43.7222 a 3.55018,3.55018 0 0 1 -0.77789,1.126 3.43245,3.43245 0 0 1 -1.14563,0.735 3.8683,3.8683 0 0 1 -2.7634,0.0051 3.44294,3.44294 0 0 1 -1.13584,-0.7159 3.37466,3.37466 0 0 1 -0.76857,-1.10741 3.49961,3.49961 0 0 1 -0.28151,-1.41735 3.54009,3.54009 0 0 1 0.296,-1.47469 3.31646,3.31646 0 0 1 0.797,-1.10741 3.51311,3.51311 0 0 1 1.17406,-0.69679 4.137,4.137 0 0 1 1.41735,-0.24329 3.54672,3.54672 0 0 1 1.456,0.28617 3.31071,3.31071 0 0 1 1.093,0.76857 3.36028,3.36028 0 0 1 0.687,1.11207 3.69033,3.69033 0 0 1 0.23863,1.31715 3.465,3.465 0 0 1 -0.2862,1.41275 z m -1.04542,-2.57743 a 3.72846,3.72846 0 0 0 -0.44837,-1.07385 2.5559,2.5559 0 0 0 -0.74946,-0.78255 1.859,1.859 0 0 0 -1.05941,-0.30063 1.897,1.897 0 0 0 -1.07385,0.30063 2.45129,2.45129 0 0 0 -0.7448,0.77789 3.60346,3.60346 0 0 0 -0.42926,1.08317 5.498,5.498 0 0 0 -0.13842,1.22673 5.06919,5.06919 0 0 0 0.1524,1.25049 3.479,3.479 0 0 0 0.4535,1.05941 2.36868,2.36868 0 0 0 0.75412,0.735 1.98282,1.98282 0 0 0 1.05474,0.27685 1.79862,1.79862 0 0 0 1.04542,-0.30528 2.5761,2.5761 0 0 0 0.73968,-0.78768 3.78856,3.78856 0 0 0 0.44371,-1.08317 5.01149,5.01149 0 0 0 0.14821,-1.203 4.82206,4.82206 0 0 0 -0.14821,-1.17401 z"
         id="path30"
         style="fill:#ffffff" />
      <path
         class="cls-1"
         d="m 164.83768,40.572 a 9.3153,9.3153 0 0 0 -0.74433,-0.8301 2.7182,2.7182 0 0 0 -0.68747,-0.50616 2.18554,2.18554 0 0 0 -0.58726,-0.12864 8.15649,8.15649 0 0 0 -0.98763,-0.05267 c -0.0639,0 -0.137,0.0019 -0.21952,0.0047 -0.083,0.0033 -0.1622,0.0065 -0.23864,0.0098 -0.0764,0.0033 -0.14821,0.0065 -0.21486,0.0093 -0.0667,0.0033 -0.11606,0.0051 -0.14822,0.0051 -0.006,0.03775 -0.014,0.076 -0.0238,0.11419 a 1.23872,1.23872 0 0 0 -0.0238,0.13377 c -0.007,0.0508 -0.0126,0.11605 -0.0191,0.19575 -0.007,0.0797 -0.0126,0.17665 -0.0191,0.2913 q -0.01,0.33418 -0.0145,0.72988 -0.005,0.3964 -0.005,0.74946 v 0.907 h 0.172 c 0.10161,0 0.21486,-0.0033 0.33884,-0.0098 0.124,-0.0061 0.25308,-0.01445 0.38638,-0.02377 a 2.51219,2.51219 0 0 0 0.33418,-0.04288 1.77312,1.77312 0 0 0 0.54392,-0.20041 1.015,1.015 0 0 0 0.31507,-0.296 1.13385,1.13385 0 0 0 0.1622,-0.37706 c 0.0322,-0.137 0.0606,-0.28477 0.0862,-0.44417 h 0.11466 v 3.0738 h -0.11466 a 4.43,4.43 0 0 0 -0.21952,-0.64413 1.4547,1.4547 0 0 0 -0.344,-0.52061 1.29174,1.29174 0 0 0 -0.38638,-0.2433 1.62478,1.62478 0 0 0 -0.48193,-0.1002 c -0.0956,-0.0061 -0.17851,-0.01119 -0.24842,-0.01445 -0.0699,-0.0028 -0.13656,-0.0047 -0.20042,-0.0047 h -0.45815 v 1.18384 c 0,0.17805 0.001,0.34211 0.005,0.49125 q 0.005,0.22443 0.005,0.38685 0.009,0.30552 0.0331,0.57748 a 0.91114,0.91114 0 0 0 0.11,0.40549 0.54185,0.54185 0 0 0 0.2913,0.20554 2.24221,2.24221 0 0 0 0.59659,0.09042 v 0.09555 H 158.891 v -0.09555 a 1.92518,1.92518 0 0 0 0.44371,-0.124 0.903,0.903 0 0 0 0.33884,-0.23863 0.43181,0.43181 0 0 0 0.0764,-0.16686 q 0.0287,-0.10975 0.0527,-0.25308 a 2.83418,2.83418 0 0 0 0.0331,-0.30062 c 0.007,-0.10534 0.01,-0.20834 0.01,-0.31041 q 0,-0.13353 0.005,-0.36261 0.005,-0.22932 0.01,-0.501 0.004,-0.272 0.005,-0.55837 v -2.41525 c 0,-0.11466 -0.002,-0.23211 -0.005,-0.35329 q -0.005,-0.18108 -0.0191,-0.34351 a 1.81738,1.81738 0 0 0 -0.048,-0.2913 0.40684,0.40684 0 0 0 -0.0904,-0.186 0.65652,0.65652 0 0 0 -0.30575,-0.19576 4.06163,4.06163 0 0 0 -0.41994,-0.0811 v -0.09554 h 5.30724 l 0.64925,1.60378 z"
         id="path31"
         style="fill:#ffffff" />
      <path
         class="cls-1"
         d="m 173.81488,44.73406 a 1.86268,1.86268 0 0 1 -0.51549,0.62036 2.18171,2.18171 0 0 1 -0.78767,0.38172 3.83429,3.83429 0 0 1 -1.00208,0.124 4.82478,4.82478 0 0 1 -0.80213,-0.05733 3.13725,3.13725 0 0 1 -0.55323,-0.138 1.965,1.965 0 0 1 -0.32952,-0.14822 0.42992,0.42992 0 0 0 -0.13843,-0.06664 c -0.0191,0 -0.0606,0.03821 -0.124,0.11419 q -0.0958,0.11465 -0.172,0.22 h -0.0858 l -0.0289,-1.89975 h 0.0956 a 3.03265,3.03265 0 0 0 0.21952,0.501 4.16282,4.16282 0 0 0 0.2913,0.45816 2.57272,2.57272 0 0 0 0.33418,0.37706 1.62876,1.62876 0 0 0 0.33885,0.24842 2.72,2.72 0 0 0 0.42926,0.17152 1.78877,1.78877 0 0 0 1.66111,-0.30062 1.32154,1.32154 0 0 0 0.43905,-1.045 1.18085,1.18085 0 0 0 -0.0858,-0.46794 1.10014,1.10014 0 0 0 -0.234,-0.34816 1.41658,1.41658 0 0 0 -0.34863,-0.25309 3.82229,3.82229 0 0 0 -0.42926,-0.19109 q -0.22932,-0.086 -0.40083,-0.14309 -0.172,-0.05733 -0.31973,-0.10953 c -0.0988,-0.035 -0.20089,-0.07037 -0.30575,-0.10533 -0.10486,-0.03496 -0.23071,-0.0811 -0.37706,-0.13843 a 2.06263,2.06263 0 0 1 -0.47727,-0.2624 1.96361,1.96361 0 0 1 -0.67768,-0.88789 1.589,1.589 0 0 1 -0.10487,-0.57747 1.94027,1.94027 0 0 1 0.18829,-0.88742 1.81284,1.81284 0 0 1 0.5057,-0.62036 2.14083,2.14083 0 0 1 0.73315,-0.36773 3.15762,3.15762 0 0 1 0.87344,-0.11932 3.25132,3.25132 0 0 1 0.735,0.07178 2.93185,2.93185 0 0 1 0.501,0.15753 1.729,1.729 0 0 1 0.296,0.15754 0.65576,0.65576 0 0 0 0.10953,0.07131 c 0.0191,0 0.0587,-0.03822 0.11931,-0.11466 0.0606,-0.076 0.11606,-0.15241 0.16733,-0.22884 h 0.10486 v 1.766 h -0.10486 a 3.86005,3.86005 0 0 0 -0.296,-0.62548 2.8564,2.8564 0 0 0 -0.41993,-0.55371 2.03774,2.03774 0 0 0 -0.54439,-0.39617 1.49593,1.49593 0 0 0 -0.67768,-0.15241 1.78214,1.78214 0 0 0 -0.55837,0.08576 1.29425,1.29425 0 0 0 -0.45815,0.25775 1.17983,1.17983 0 0 0 -0.30529,0.4246 1.43077,1.43077 0 0 0 -0.11,0.57747 1.098,1.098 0 0 0 0.30481,0.81145 2.1656,2.1656 0 0 0 0.79048,0.48706 c 0.12677,0.0508 0.24562,0.09554 0.35655,0.13329 q 0.16708,0.05733 0.32859,0.11 c 0.10813,0.035 0.21719,0.07178 0.32859,0.11 q 0.16638,0.05663 0.34769,0.124 a 2.21374,2.21374 0 0 1 1.00441,0.69213 1.94284,1.94284 0 0 1 0.171,1.95195 z"
         id="path32"
         style="fill:#ffffff" />
      <path
         class="cls-1"
         d="m 181.63713,45.79347 h -5.84187 v -0.09555 a 1.92253,1.92253 0 0 0 0.44418,-0.124 0.91051,0.91051 0 0 0 0.33884,-0.23863 0.43181,0.43181 0 0 0 0.0764,-0.16686 q 0.0286,-0.10975 0.0522,-0.25308 a 2.96289,2.96289 0 0 0 0.0335,-0.30062 c 0.006,-0.10534 0.009,-0.20834 0.009,-0.31041 q 0,-0.13353 0.005,-0.36261 0.004,-0.22932 0.009,-0.501 0.005,-0.272 0.005,-0.55837 v -2.41525 c 0,-0.11466 -0.001,-0.23211 -0.005,-0.35329 -0.003,-0.12072 -0.009,-0.23537 -0.0191,-0.34351 a 1.821,1.821 0 0 0 -0.0475,-0.2913 0.40675,0.40675 0 0 0 -0.0909,-0.186 0.65529,0.65529 0 0 0 -0.30528,-0.19576 4.08686,4.08686 0 0 0 -0.41994,-0.0811 v -0.09554 h 5.269 l 0.64878,1.57535 -0.0951,0.04754 a 4.65,4.65 0 0 0 -1.45091,-1.298 2.32257,2.32257 0 0 0 -0.60171,-0.13377 8.43194,8.43194 0 0 0 -1.06872,-0.05733 q -0.20065,0 -0.41528,0.01445 a 2.55437,2.55437 0 0 0 -0.31041,0.03356 q -0.0189,0.15241 -0.0336,0.62968 -0.014,0.47749 -0.014,1.10741 v 0.611 q 0,0.24819 0.005,0.40549 c 0.003,0.10487 0.005,0.186 0.005,0.24329 v 0.10534 h 0.19109 q 0.14333,0 0.32905,-0.0098 c 0.12445,-0.0061 0.24843,-0.01445 0.3724,-0.02377 a 2.188,2.188 0 0 0 0.31041,-0.04288 1.6872,1.6872 0 0 0 0.47727,-0.1813 1.05072,1.05072 0 0 0 0.30995,-0.27686 1.3586,1.3586 0 0 0 0.19109,-0.37706 4.60543,4.60543 0 0 0 0.12864,-0.48239 h 0.11465 v 3.00716 h -0.11465 a 3.25479,3.25479 0 0 0 -0.23351,-0.63014 1.68727,1.68727 0 0 0 -0.32952,-0.48706 1.27231,1.27231 0 0 0 -0.36727,-0.21952 1.66767,1.66767 0 0 0 -0.5015,-0.10487 c -0.0951,-0.0061 -0.17479,-0.01119 -0.23864,-0.01445 -0.0634,-0.0028 -0.12724,-0.0047 -0.19063,-0.0047 h -0.439 a 2.93081,2.93081 0 0 0 -0.0191,0.39151 v 1.14516 q 0,0.1531 0.005,0.2913 c 0.003,0.09228 0.005,0.17059 0.005,0.234 q 0.01,0.30552 0.0336,0.57748 a 0.918,0.918 0 0 0 0.10952,0.40549 0.6005,0.6005 0 0 0 0.41062,0.19109 4.06564,4.06564 0 0 0 0.70658,0.05733 q 0.16219,0 0.41481,-0.0098 a 5.2177,5.2177 0 0 0 0.52994,-0.04754 2.06126,2.06126 0 0 0 0.563,-0.14821 1.95409,1.95409 0 0 0 0.49637,-0.31 3.15079,3.15079 0 0 0 0.46329,-0.49171 6.6424,6.6424 0 0 0 0.46282,-0.70145 l 0.10487,0.02843 z"
         id="path33"
         style="fill:#ffffff" />
      <path
         class="cls-1"
         d="m 187.38345,45.79347 v -0.09555 a 1.07355,1.07355 0 0 0 0.13842,-0.01911 1.147,1.147 0 0 0 0.22885,-0.06665 0.655,0.655 0 0 0 0.2102,-0.13376 0.28861,0.28861 0 0 0 0.0904,-0.21953 1.24869,1.24869 0 0 0 -0.0522,-0.28151 q -0.0524,-0.19575 -0.14821,-0.47727 -0.0951,-0.28175 -0.21953,-0.625 -0.12374,-0.344 -0.26706,-0.71591 h -2.53921 q -0.14333,0.36285 -0.27686,0.69167 -0.13353,0.32928 -0.26706,0.6637 a 2.40726,2.40726 0 0 0 -0.20042,0.72522 0.28455,0.28455 0 0 0 0.0764,0.20508 0.58483,0.58483 0 0 0 0.19529,0.13376 1.10387,1.10387 0 0 0 0.25774,0.07644 q 0.13843,0.02378 0.26287,0.04288 v 0.09555 h -2.03351 V 45.6886 a 1.06173,1.06173 0 0 0 0.42506,-0.13377 0.94333,0.94333 0 0 0 0.20508,-0.14308 2.09435,2.09435 0 0 0 0.21953,-0.31507 6.94347,6.94347 0 0 0 0.37239,-0.735 q 0.20066,-0.44883 0.44837,-1.02118 0.24819,-0.57328 0.51083,-1.17919 0.26217,-0.60614 0.52015,-1.2216 0.258,-0.61592 0.487,-1.15029 l -0.0955,-0.20973 a 1.57025,1.57025 0 0 0 0.31041,-0.18177 1.86688,1.86688 0 0 0 0.24329,-0.21953 1.95011,1.95011 0 0 0 0.17665,-0.21952 c 0.0475,-0.06992 0.0839,-0.12724 0.10952,-0.17152 h 0.0764 q 0.29572,0.7921 0.563,1.50311 0.26706,0.71171 0.51082,1.36982 0.2433,0.65856 0.47261,1.27426 0.22861,0.61593 0.45816,1.21694 0.10487,0.29643 0.19575,0.49172 0.0902,0.19575 0.20508,0.44371 a 1.26379,1.26379 0 0 0 0.0858,0.13376 1.20389,1.20389 0 0 0 0.17664,0.19576 1.08934,1.08934 0 0 0 0.2722,0.17664 0.98753,0.98753 0 0 0 0.38172,0.08576 v 0.11466 z m -1.2505,-5.78454 c -0.0382,0.083 -0.0941,0.21346 -0.16686,0.39151 q -0.11046,0.26706 -0.27219,0.64878 -0.1622,0.38243 -0.358,0.86412 -0.1958,0.48169 -0.4246,1.045 h 2.37655 q -0.1622,-0.42925 -0.329,-0.859 -0.16779,-0.42925 -0.32486,-0.82543 -0.15731,-0.39639 -0.28618,-0.72569 -0.12933,-0.32932 -0.21481,-0.53929 z"
         id="path34"
         style="fill:#ffffff" />
      <path
         class="cls-1"
         d="m 195.95982,44.73406 a 1.85735,1.85735 0 0 1 -0.51549,0.62036 2.18335,2.18335 0 0 1 -0.78721,0.38172 3.83785,3.83785 0 0 1 -1.00254,0.124 4.81865,4.81865 0 0 1 -0.80166,-0.05733 3.14348,3.14348 0 0 1 -0.55371,-0.138 1.95721,1.95721 0 0 1 -0.329,-0.14822 0.43447,0.43447 0 0 0 -0.13843,-0.06664 c -0.0191,0 -0.0606,0.03821 -0.12444,0.11419 q -0.0951,0.11465 -0.17152,0.22 h -0.0862 l -0.0284,-1.89975 h 0.0956 a 2.99451,2.99451 0 0 0 0.21952,0.501 4.16,4.16 0 0 0 0.29084,0.45816 2.59911,2.59911 0 0 0 0.33418,0.37706 1.65339,1.65339 0 0 0 0.33884,0.24842 2.72773,2.72773 0 0 0 0.42973,0.17152 1.78788,1.78788 0 0 0 1.66065,-0.30062 1.32187,1.32187 0 0 0 0.43951,-1.045 1.18088,1.18088 0 0 0 -0.0862,-0.46794 1.0924,1.0924 0 0 0 -0.234,-0.34816 1.4049,1.4049 0 0 0 -0.34816,-0.25309 3.82946,3.82946 0 0 0 -0.42973,-0.19109 q -0.22861,-0.086 -0.40083,-0.14309 c -0.11465,-0.03822 -0.22092,-0.07457 -0.31973,-0.10953 -0.0988,-0.03496 -0.20041,-0.07037 -0.30528,-0.10533 -0.10534,-0.035 -0.23071,-0.0811 -0.37706,-0.13843 a 2.05329,2.05329 0 0 1 -0.47727,-0.2624 1.935,1.935 0 0 1 -0.40083,-0.39151 1.96881,1.96881 0 0 1 -0.27685,-0.49638 1.57966,1.57966 0 0 1 -0.10534,-0.57747 1.94621,1.94621 0 0 1 0.1883,-0.88742 1.80882,1.80882 0 0 1 0.50616,-0.62036 2.13441,2.13441 0 0 1 0.73269,-0.36773 3.16,3.16 0 0 1 0.87343,-0.11932 3.24832,3.24832 0 0 1 0.735,0.07178 2.91805,2.91805 0 0 1 0.501,0.15753 1.69329,1.69329 0 0 1 0.296,0.15754 0.64706,0.64706 0 0 0 0.11,0.07131 c 0.0191,0 0.0587,-0.03822 0.11931,-0.11466 0.0601,-0.076 0.11606,-0.15241 0.16686,-0.22884 h 0.10487 v 1.766 h -0.10487 a 3.86083,3.86083 0 0 0 -0.296,-0.62548 2.83821,2.83821 0 0 0 -0.41994,-0.55371 2.03545,2.03545 0 0 0 -0.54392,-0.39617 1.49729,1.49729 0 0 0 -0.67768,-0.15241 1.78005,1.78005 0 0 0 -0.55837,0.08576 1.29633,1.29633 0 0 0 -0.45862,0.25775 1.18544,1.18544 0 0 0 -0.30528,0.4246 1.43861,1.43861 0 0 0 -0.10953,0.57747 1.09948,1.09948 0 0 0 0.30435,0.81145 2.16556,2.16556 0 0 0 0.79047,0.48706 c 0.12678,0.0508 0.24563,0.09554 0.357,0.13329 q 0.16639,0.05733 0.32859,0.11 0.16149,0.05244 0.32812,0.11 c 0.11139,0.03775 0.227,0.07923 0.3477,0.124 a 2.21524,2.21524 0 0 1 1.00487,0.69213 1.941,1.941 0 0 1 0.17059,1.95195 z"
         id="path35"
         style="fill:#ffffff" />
      <path
         class="cls-1"
         d="m 197.9882,45.79347 v -0.09555 a 1.929,1.929 0 0 0 0.44418,-0.124 0.94241,0.94241 0 0 0 0.34816,-0.24842 0.38032,0.38032 0 0 0 0.0718,-0.16219 2.1134,2.1134 0 0 0 0.0382,-0.248 q 0.014,-0.14333 0.0191,-0.30062 c 0.003,-0.10534 0.005,-0.20834 0.005,-0.31041 q 0,-0.13353 0.005,-0.36261 0.005,-0.22932 0.01,-0.501 c 0.003,-0.18131 0.005,-0.36774 0.005,-0.55837 v -2.75872 c 0,-0.11465 -0.005,-0.22092 -0.0145,-0.31973 a 1.92612,1.92612 0 0 0 -0.0429,-0.26753 0.44246,0.44246 0 0 0 -0.0858,-0.186 0.76179,0.76179 0 0 0 -0.32952,-0.234 1.94915,1.94915 0 0 0 -0.44371,-0.10021 v -0.09554 h 2.85382 v 0.09554 a 2.47944,2.47944 0 0 0 -0.42926,0.10487 0.61492,0.61492 0 0 0 -0.35329,0.30575 0.9106,0.9106 0 0 0 -0.0909,0.41015 c -0.003,0.16593 -0.008,0.3216 -0.014,0.468 q 0,0.23839 -0.005,0.47261 -0.005,0.2335 -0.005,0.4726 v 3.19732 c 0,0.18457 0.003,0.36308 0.01,0.5346 a 0.68155,0.68155 0 0 0 0.0858,0.36261 0.70891,0.70891 0 0 0 0.36261,0.24842 1.94556,1.94556 0 0 0 0.44884,0.10487 v 0.09555 z"
         id="path36"
         style="fill:#ffffff" />
      <path
         class="cls-1"
         d="m 209.987,43.52179 a 3.07623,3.07623 0 0 1 -0.468,0.93542 2.76094,2.76094 0 0 1 -0.687,0.64879 3.72407,3.72407 0 0 1 -0.83056,0.41061 4.58174,4.58174 0 0 1 -0.907,0.21487 6.87733,6.87733 0 0 1 -0.90653,0.062 h -3.48443 v -0.09555 a 1.68414,1.68414 0 0 0 0.46329,-0.124 0.90025,0.90025 0 0 0 0.33884,-0.22931 0.32134,0.32134 0 0 0 0.0713,-0.1622 q 0.0238,-0.11464 0.0433,-0.25774 c 0.0126,-0.09508 0.0219,-0.19715 0.0284,-0.30528 q 0.009,-0.1622 0.009,-0.31507 0,-0.13353 0.005,-0.36261 0.004,-0.22932 0.009,-0.501 0.005,-0.272 0.005,-0.55837 v -2.75877 c 0,-0.11465 -0.005,-0.22092 -0.014,-0.31973 a 2.07592,2.07592 0 0 0 -0.0429,-0.26753 0.44266,0.44266 0 0 0 -0.0862,-0.186 0.75083,0.75083 0 0 0 -0.3435,-0.23864 2.25055,2.25055 0 0 0 -0.44884,-0.09555 v -0.09554 q 0.40129,0 1.15495,-0.0047 0.75435,-0.0049 1.82331,-0.0047 h 0.611 q 0.31461,0 0.63015,0.02843 a 5.43983,5.43983 0 0 1 0.62967,0.09554 3.21833,3.21833 0 0 1 0.62036,0.20042 3.59007,3.59007 0 0 1 0.75412,0.43905 2.92713,2.92713 0 0 1 0.61569,0.6348 3.11025,3.11025 0 0 1 0.41994,0.84967 3.5373,3.5373 0 0 1 0.15754,1.10228 4.2032,4.2032 0 0 1 -0.17141,1.26033 z m -1.174,-2.31969 a 3.47412,3.47412 0 0 0 -0.47727,-0.94988 3.06037,3.06037 0 0 0 -0.72569,-0.72056 2.238,2.238 0 0 0 -0.91632,-0.38172 c -0.12724,-0.02517 -0.26706,-0.04614 -0.41993,-0.062 a 5.59757,5.59757 0 0 0 -0.563,-0.02377 c -0.0764,0 -0.1594,0.0014 -0.24842,0.0047 -0.089,0.0033 -0.17665,0.0093 -0.26241,0.01911 -0.0858,0.0093 -0.16546,0.01771 -0.23863,0.02377 a 0.99857,0.99857 0 0 0 -0.17665,0.02843 q -0.0475,0.46842 -0.0573,1.28872 -0.01,0.82146 -0.009,1.95707 v 1.11674 q 0,0.49637 0.009,0.81144 0,0.13354 0.0144,0.29084 c 0.009,0.10533 0.0205,0.20694 0.0336,0.30575 a 1.24818,1.24818 0 0 0 0.062,0.26706 0.47366,0.47366 0 0 0 0.10021,0.17665 0.8831,0.8831 0 0 0 0.48193,0.24329 3.10288,3.10288 0 0 0 0.549,0.05267 q 0.23841,0 0.49125,-0.02377 a 2.37253,2.37253 0 0 0 0.47261,-0.09089 2.53216,2.53216 0 0 0 1.5418,-1.15029 4.03858,4.03858 0 0 0 0.51036,-2.10482 3.45754,3.45754 0 0 0 -0.17152,-1.0785 z"
         id="path37"
         style="fill:#ffffff" />
      <path
         class="cls-1"
         d="m 217.63261,45.79347 h -5.84187 v -0.09555 a 1.92253,1.92253 0 0 0 0.44418,-0.124 0.91051,0.91051 0 0 0 0.33884,-0.23863 0.43181,0.43181 0 0 0 0.0764,-0.16686 q 0.0287,-0.10975 0.0522,-0.25308 a 2.96283,2.96283 0 0 0 0.0336,-0.30062 c 0.006,-0.10534 0.009,-0.20834 0.009,-0.31041 q 0,-0.13353 0.005,-0.36261 0.004,-0.22932 0.009,-0.501 0.005,-0.272 0.005,-0.55837 v -2.41525 c 0,-0.11466 -0.001,-0.23211 -0.005,-0.35329 -0.003,-0.12072 -0.009,-0.23537 -0.0191,-0.34351 a 1.81987,1.81987 0 0 0 -0.0475,-0.2913 0.40666,0.40666 0 0 0 -0.0909,-0.186 0.65529,0.65529 0 0 0 -0.30528,-0.19576 4.08578,4.08578 0 0 0 -0.41994,-0.0811 v -0.09554 h 5.269 l 0.64879,1.57535 -0.0951,0.04754 a 4.65,4.65 0 0 0 -1.45092,-1.298 2.32247,2.32247 0 0 0 -0.60171,-0.13377 8.43183,8.43183 0 0 0 -1.06872,-0.05733 q -0.20066,0 -0.41528,0.01445 a 2.55462,2.55462 0 0 0 -0.31041,0.03356 q -0.0189,0.15241 -0.0336,0.62968 -0.014,0.47749 -0.014,1.10741 v 0.611 q 0,0.24819 0.005,0.40549 c 0.003,0.10487 0.005,0.186 0.005,0.24329 v 0.10534 h 0.19109 q 0.14333,0 0.32906,-0.0098 c 0.12444,-0.0061 0.24842,-0.01445 0.3724,-0.02377 a 2.18846,2.18846 0 0 0 0.31041,-0.04288 1.68725,1.68725 0 0 0 0.47726,-0.1813 1.05072,1.05072 0 0 0 0.31,-0.27686 1.35833,1.35833 0 0 0 0.19109,-0.37706 4.60543,4.60543 0 0 0 0.12864,-0.48239 h 0.11466 v 3.00716 h -0.11466 a 3.25413,3.25413 0 0 0 -0.23351,-0.63014 1.68727,1.68727 0 0 0 -0.32952,-0.48706 1.27231,1.27231 0 0 0 -0.36727,-0.21952 1.66767,1.66767 0 0 0 -0.5015,-0.10487 c -0.0951,-0.0061 -0.17478,-0.01119 -0.23864,-0.01445 -0.0634,-0.0028 -0.12724,-0.0047 -0.19062,-0.0047 h -0.439 a 2.93252,2.93252 0 0 0 -0.0191,0.39151 v 1.14516 q 0,0.1531 0.005,0.2913 c 0.003,0.09228 0.005,0.17059 0.005,0.234 q 0.01,0.30552 0.0336,0.57748 a 0.91786,0.91786 0 0 0 0.10953,0.40549 0.60044,0.60044 0 0 0 0.41061,0.19109 4.06573,4.06573 0 0 0 0.70658,0.05733 q 0.16221,0 0.41482,-0.0098 a 5.21776,5.21776 0 0 0 0.52993,-0.04754 2.06126,2.06126 0 0 0 0.563,-0.14821 1.95432,1.95432 0 0 0 0.49638,-0.31 3.15122,3.15122 0 0 0 0.46328,-0.49171 6.64084,6.64084 0 0 0 0.46282,-0.70145 l 0.10487,0.02843 z"
         id="path38"
         style="fill:#ffffff" />
      <path
         class="cls-1"
         d="m 227.75031,45.79347 c -0.0569,-0.05733 -0.0983,-0.10021 -0.124,-0.12864 -0.0256,-0.0289 -0.0541,-0.06246 -0.0858,-0.10067 A 1.7033,1.7033 0 0 1 227.4212,45.3973 q -0.072,-0.10977 -0.22419,-0.32906 -0.18177,-0.26775 -0.3202,-0.48239 -0.13843,-0.21464 -0.28151,-0.4246 c -0.0951,-0.13982 -0.199,-0.28151 -0.30994,-0.4246 q -0.1671,-0.21532 -0.39617,-0.4824 a 3.88007,3.88007 0 0 0 -0.41528,-0.41015 1.02652,1.02652 0 0 0 -0.47261,-0.23863 1.44274,1.44274 0 0 0 -0.27685,-0.03822 q -0.086,0 -0.21953,-0.0098 v 1.079 q 0,0.45793 0.01,0.77276 c 0.006,0.20415 0.0126,0.37893 0.0191,0.52528 a 0.69239,0.69239 0 0 0 0.10487,0.36261 0.84189,0.84189 0 0 0 0.296,0.25308 1.345,1.345 0 0 0 0.611,0.14775 v 0.09555 H 222.491 v -0.09555 a 2.62538,2.62538 0 0 0 0.45816,-0.11466 0.74421,0.74421 0 0 0 0.34351,-0.22884 0.43607,0.43607 0 0 0 0.0764,-0.172 1.77656,1.77656 0 0 0 0.0429,-0.25774 c 0.01,-0.09508 0.0177,-0.19715 0.0238,-0.30528 q 0.01,-0.1622 0.01,-0.31507 0,-0.13353 0.005,-0.36261 0.005,-0.22932 0.01,-0.501 c 0.003,-0.18131 0.005,-0.36774 0.005,-0.55837 v -2.41528 c 0,-0.11466 -0.002,-0.23071 -0.005,-0.34817 q -0.005,-0.17687 -0.0191,-0.33418 a 1.8178,1.8178 0 0 0 -0.048,-0.28664 0.40664,0.40664 0 0 0 -0.0904,-0.186 0.71992,0.71992 0 0 0 -0.31973,-0.20508 3.24628,3.24628 0 0 0 -0.43439,-0.09089 v -0.09554 h 0.39105 q 0.32439,0 0.735,-0.0047 0.41039,-0.0049 0.82123,-0.0047 h 0.6679 q 0.63969,0 1.13584,0.03822 a 2.27265,2.27265 0 0 1 0.907,0.25774 1.83751,1.83751 0 0 1 0.67769,0.59658 1.64392,1.64392 0 0 1 0.25774,0.94988 1.50782,1.50782 0 0 1 -0.12864,0.63433 1.68816,1.68816 0 0 1 -0.344,0.49638 2.08057,2.08057 0 0 1 -0.501,0.36774 3.89666,3.89666 0 0 1 -0.60124,0.25774 v 0.02843 a 1.23467,1.23467 0 0 1 0.31507,0.24842 3.49568,3.49568 0 0 1 0.296,0.36262 q 0.24748,0.36284 0.53926,0.78255 0.29084,0.42016 0.52014,0.7448 a 2.91793,2.91793 0 0 0 0.687,0.72522 1.83878,1.83878 0 0 0 0.783,0.296 v 0.09555 z m -0.94475,-5.94674 a 1.64787,1.64787 0 0 0 -0.69679,-0.59192 2.08065,2.08065 0 0 0 -0.48193,-0.15241 2.826,2.826 0 0 0 -0.52993,-0.048 q -0.20066,0 -0.3244,0.0098 c -0.083,0.0061 -0.14681,0.01259 -0.19109,0.01911 -0.007,0.03775 -0.0126,0.07131 -0.0191,0.10021 a 0.76109,0.76109 0 0 0 -0.0145,0.10953 c -0.003,0.04474 -0.006,0.10673 -0.009,0.186 q -0.005,0.11955 -0.0145,0.33931 -0.01,0.33418 -0.0145,0.75366 -0.005,0.42017 -0.005,0.81144 v 1.05009 q 0.39151,0 0.73035,-0.03356 a 2.95232,2.95232 0 0 0 0.65392,-0.13843 1.74026,1.74026 0 0 0 0.5248,-0.25774 1.499,1.499 0 0 0 0.35795,-0.36727 1.52712,1.52712 0 0 0 0.20555,-0.44371 1.844,1.844 0 0 0 0.0666,-0.49638 1.54068,1.54068 0 0 0 -0.23864,-0.84972 z"
         id="path39"
         style="fill:#ffffff" />
      <path
         class="cls-1"
         d="m 236.56065,45.79347 h -5.84187 v -0.09555 a 1.92253,1.92253 0 0 0 0.44418,-0.124 0.91051,0.91051 0 0 0 0.33884,-0.23863 0.43181,0.43181 0 0 0 0.0764,-0.16686 q 0.0287,-0.10975 0.0522,-0.25308 a 2.96283,2.96283 0 0 0 0.0336,-0.30062 c 0.006,-0.10534 0.009,-0.20834 0.009,-0.31041 q 0,-0.13353 0.005,-0.36261 0.004,-0.22932 0.009,-0.501 0.005,-0.272 0.005,-0.55837 v -2.41525 c 0,-0.11466 -0.001,-0.23211 -0.005,-0.35329 -0.003,-0.12072 -0.009,-0.23537 -0.0191,-0.34351 a 1.81987,1.81987 0 0 0 -0.0475,-0.2913 0.40666,0.40666 0 0 0 -0.0909,-0.186 0.65529,0.65529 0 0 0 -0.30528,-0.19576 4.08578,4.08578 0 0 0 -0.41994,-0.0811 v -0.09554 h 5.269 l 0.64879,1.57535 -0.0951,0.04754 a 4.65,4.65 0 0 0 -1.45092,-1.298 2.32247,2.32247 0 0 0 -0.60171,-0.13377 8.43183,8.43183 0 0 0 -1.06872,-0.05733 q -0.20065,0 -0.41528,0.01445 a 2.55462,2.55462 0 0 0 -0.31041,0.03356 q -0.0189,0.15241 -0.0336,0.62968 -0.014,0.47749 -0.014,1.10741 v 0.611 q 0,0.24819 0.005,0.40549 c 0.003,0.10487 0.005,0.186 0.005,0.24329 v 0.10534 h 0.19109 q 0.14332,0 0.32906,-0.0098 c 0.12444,-0.0061 0.24842,-0.01445 0.3724,-0.02377 a 2.18846,2.18846 0 0 0 0.31041,-0.04288 1.68725,1.68725 0 0 0 0.47726,-0.1813 1.05072,1.05072 0 0 0 0.30995,-0.27686 1.35833,1.35833 0 0 0 0.19109,-0.37706 4.60543,4.60543 0 0 0 0.12864,-0.48239 h 0.11466 v 3.00716 h -0.11466 a 3.25413,3.25413 0 0 0 -0.23351,-0.63014 1.68727,1.68727 0 0 0 -0.32952,-0.48706 1.27231,1.27231 0 0 0 -0.36727,-0.21952 1.66767,1.66767 0 0 0 -0.5015,-0.10487 c -0.0951,-0.0061 -0.17478,-0.01119 -0.23864,-0.01445 -0.0634,-0.0028 -0.12724,-0.0047 -0.19062,-0.0047 h -0.43905 a 2.93252,2.93252 0 0 0 -0.0191,0.39151 v 1.14516 q 0,0.1531 0.005,0.2913 c 0.003,0.09228 0.005,0.17059 0.005,0.234 q 0.01,0.30552 0.0336,0.57748 a 0.91786,0.91786 0 0 0 0.10953,0.40549 0.60044,0.60044 0 0 0 0.41061,0.19109 4.06573,4.06573 0 0 0 0.70658,0.05733 q 0.16221,0 0.41482,-0.0098 a 5.21776,5.21776 0 0 0 0.52993,-0.04754 2.06126,2.06126 0 0 0 0.563,-0.14821 1.95432,1.95432 0 0 0 0.49638,-0.31 3.15122,3.15122 0 0 0 0.46328,-0.49171 6.64084,6.64084 0 0 0 0.46282,-0.70145 l 0.10487,0.02843 z"
         id="path40"
         style="fill:#ffffff" />
      <path
         class="cls-1"
         d="m 243.20884,44.73406 a 1.85723,1.85723 0 0 1 -0.51549,0.62036 2.18327,2.18327 0 0 1 -0.78721,0.38172 3.8378,3.8378 0 0 1 -1.00254,0.124 4.81874,4.81874 0 0 1 -0.80166,-0.05733 3.14348,3.14348 0 0 1 -0.55371,-0.138 1.95721,1.95721 0 0 1 -0.329,-0.14822 0.43447,0.43447 0 0 0 -0.13843,-0.06664 c -0.0191,0 -0.0606,0.03821 -0.12444,0.11419 q -0.0951,0.11465 -0.17152,0.22 h -0.0862 l -0.0284,-1.89975 h 0.0955 a 2.99375,2.99375 0 0 0 0.21953,0.501 4.15846,4.15846 0 0 0 0.29083,0.45816 2.5997,2.5997 0 0 0 0.33418,0.37706 1.65339,1.65339 0 0 0 0.33884,0.24842 2.72812,2.72812 0 0 0 0.42973,0.17152 1.78788,1.78788 0 0 0 1.66065,-0.30062 1.32187,1.32187 0 0 0 0.43951,-1.045 1.18071,1.18071 0 0 0 -0.0862,-0.46794 1.09237,1.09237 0 0 0 -0.234,-0.34816 1.40515,1.40515 0 0 0 -0.34817,-0.25309 3.8301,3.8301 0 0 0 -0.42972,-0.19109 q -0.22861,-0.086 -0.40083,-0.14309 c -0.11466,-0.03822 -0.22093,-0.07457 -0.31974,-0.10953 -0.0988,-0.03496 -0.20041,-0.07037 -0.30528,-0.10533 -0.10533,-0.035 -0.23071,-0.0811 -0.37706,-0.13843 a 2.05329,2.05329 0 0 1 -0.47727,-0.2624 1.935,1.935 0 0 1 -0.40083,-0.39151 1.96912,1.96912 0 0 1 -0.27685,-0.49638 1.57966,1.57966 0 0 1 -0.10533,-0.57747 1.94634,1.94634 0 0 1 0.18829,-0.88742 1.80873,1.80873 0 0 1 0.50617,-0.62036 2.13436,2.13436 0 0 1 0.73268,-0.36773 3.16,3.16 0 0 1 0.87343,-0.11932 3.24847,3.24847 0 0 1 0.735,0.07178 2.91819,2.91819 0 0 1 0.501,0.15753 1.69254,1.69254 0 0 1 0.296,0.15754 0.64706,0.64706 0 0 0 0.11,0.07131 c 0.0191,0 0.0587,-0.03822 0.11932,-0.11466 0.0601,-0.076 0.11605,-0.15241 0.16685,-0.22884 h 0.10487 v 1.766 h -0.10487 a 3.85915,3.85915 0 0 0 -0.296,-0.62548 2.83742,2.83742 0 0 0 -0.41994,-0.55371 2.0354,2.0354 0 0 0 -0.54391,-0.39617 1.49736,1.49736 0 0 0 -0.67769,-0.15241 1.78,1.78 0 0 0 -0.55836,0.08576 1.29637,1.29637 0 0 0 -0.45863,0.25775 1.18544,1.18544 0 0 0 -0.30528,0.4246 1.43861,1.43861 0 0 0 -0.10953,0.57747 1.09952,1.09952 0 0 0 0.30435,0.81145 2.16552,2.16552 0 0 0 0.79048,0.48706 c 0.12677,0.0508 0.24562,0.09554 0.357,0.13329 q 0.1664,0.05733 0.32859,0.11 0.1615,0.05244 0.32812,0.11 c 0.1114,0.03775 0.227,0.07923 0.3477,0.124 a 2.21524,2.21524 0 0 1 1.00487,0.69213 1.941,1.941 0 0 1 0.17059,1.95195 z"
         id="path41"
         style="fill:#ffffff" />
      <path
         class="cls-1"
         d="m 245.23723,45.79347 v -0.09555 a 1.929,1.929 0 0 0 0.44417,-0.124 0.94233,0.94233 0 0 0 0.34816,-0.24842 0.3802,0.3802 0 0 0 0.0718,-0.16219 2.11129,2.11129 0 0 0 0.0382,-0.248 q 0.014,-0.14333 0.0191,-0.30062 c 0.003,-0.10534 0.005,-0.20834 0.005,-0.31041 q 0,-0.13353 0.005,-0.36261 0.005,-0.22932 0.01,-0.501 c 0.003,-0.18131 0.005,-0.36774 0.005,-0.55837 v -2.75872 c 0,-0.11465 -0.005,-0.22092 -0.0145,-0.31973 a 1.92612,1.92612 0 0 0 -0.0429,-0.26753 0.44246,0.44246 0 0 0 -0.0858,-0.186 0.76179,0.76179 0 0 0 -0.32952,-0.234 1.94915,1.94915 0 0 0 -0.44371,-0.10021 v -0.09554 h 2.85382 v 0.09554 a 2.47966,2.47966 0 0 0 -0.42926,0.10487 0.615,0.615 0 0 0 -0.35329,0.30575 0.91073,0.91073 0 0 0 -0.0909,0.41015 c -0.003,0.16593 -0.008,0.3216 -0.014,0.468 q 0,0.23839 -0.005,0.47261 -0.005,0.2335 -0.005,0.4726 v 3.19732 c 0,0.18457 0.003,0.36308 0.01,0.5346 a 0.68164,0.68164 0 0 0 0.0858,0.36261 0.709,0.709 0 0 0 0.36261,0.24842 1.94556,1.94556 0 0 0 0.44884,0.10487 v 0.09555 z"
         id="path42"
         style="fill:#ffffff" />
      <path
         class="cls-1"
         d="m 257.236,43.52179 a 3.076,3.076 0 0 1 -0.468,0.93542 2.76094,2.76094 0 0 1 -0.687,0.64879 3.72407,3.72407 0 0 1 -0.83056,0.41061 4.58158,4.58158 0 0 1 -0.907,0.21487 6.87733,6.87733 0 0 1 -0.90653,0.062 h -3.48443 v -0.09555 a 1.684,1.684 0 0 0 0.46329,-0.124 0.90025,0.90025 0 0 0 0.33884,-0.22931 0.32134,0.32134 0 0 0 0.0713,-0.1622 q 0.0238,-0.11464 0.0434,-0.25774 c 0.0126,-0.09508 0.0219,-0.19715 0.0284,-0.30528 q 0.009,-0.1622 0.009,-0.31507 0,-0.13353 0.005,-0.36261 0.004,-0.22932 0.009,-0.501 0.005,-0.272 0.005,-0.55837 v -2.75877 c 0,-0.11465 -0.005,-0.22092 -0.014,-0.31973 a 2.076,2.076 0 0 0 -0.0429,-0.26753 0.44267,0.44267 0 0 0 -0.0862,-0.186 0.75083,0.75083 0 0 0 -0.3435,-0.23864 2.25055,2.25055 0 0 0 -0.44884,-0.09555 v -0.09554 q 0.4013,0 1.15495,-0.0047 0.75435,-0.0049 1.82331,-0.0047 h 0.611 q 0.31459,0 0.63014,0.02843 a 5.43951,5.43951 0 0 1 0.62967,0.09554 3.21811,3.21811 0 0 1 0.62036,0.20042 3.59007,3.59007 0 0 1 0.75412,0.43905 2.92713,2.92713 0 0 1 0.61569,0.6348 3.11025,3.11025 0 0 1 0.41994,0.84967 3.537,3.537 0 0 1 0.15754,1.10228 4.2032,4.2032 0 0 1 -0.17141,1.26033 z m -1.174,-2.31969 a 3.47412,3.47412 0 0 0 -0.47727,-0.94988 3.06018,3.06018 0 0 0 -0.72569,-0.72056 2.238,2.238 0 0 0 -0.91631,-0.38172 c -0.12724,-0.02517 -0.26707,-0.04614 -0.41994,-0.062 a 5.59757,5.59757 0 0 0 -0.563,-0.02377 c -0.0764,0 -0.1594,0.0014 -0.24842,0.0047 -0.089,0.0033 -0.17665,0.0093 -0.2624,0.01911 -0.0858,0.0093 -0.16546,0.01771 -0.23864,0.02377 a 0.99844,0.99844 0 0 0 -0.17664,0.02843 q -0.0476,0.46842 -0.0573,1.28872 -0.01,0.82146 -0.009,1.95707 v 1.11674 q 0,0.49637 0.009,0.81144 0,0.13354 0.0145,0.29084 c 0.009,0.10533 0.0205,0.20694 0.0336,0.30575 a 1.2482,1.2482 0 0 0 0.062,0.26706 0.4738,0.4738 0 0 0 0.10021,0.17665 0.8831,0.8831 0 0 0 0.48193,0.24329 3.10288,3.10288 0 0 0 0.549,0.05267 q 0.23841,0 0.49125,-0.02377 a 2.37239,2.37239 0 0 0 0.47261,-0.09089 2.53216,2.53216 0 0 0 1.5418,-1.15029 4.03858,4.03858 0 0 0 0.51036,-2.10482 3.45754,3.45754 0 0 0 -0.17153,-1.0785 z"
         id="path43"
         style="fill:#ffffff" />
      <path
         class="cls-1"
         d="m 264.88163,45.79347 h -5.84186 v -0.09555 a 1.92245,1.92245 0 0 0 0.44417,-0.124 0.91043,0.91043 0 0 0 0.33884,-0.23863 0.43167,0.43167 0 0 0 0.0764,-0.16686 q 0.0287,-0.10975 0.0522,-0.25308 a 2.96283,2.96283 0 0 0 0.0336,-0.30062 c 0.006,-0.10534 0.009,-0.20834 0.009,-0.31041 q 0,-0.13353 0.005,-0.36261 0.004,-0.22932 0.009,-0.501 0.005,-0.272 0.005,-0.55837 v -2.41525 c 0,-0.11466 -0.001,-0.23211 -0.005,-0.35329 -0.003,-0.12072 -0.009,-0.23537 -0.0191,-0.34351 a 1.81875,1.81875 0 0 0 -0.0475,-0.2913 0.40666,0.40666 0 0 0 -0.0909,-0.186 0.65524,0.65524 0 0 0 -0.30528,-0.19576 4.08578,4.08578 0 0 0 -0.41994,-0.0811 v -0.09554 h 5.269 l 0.64879,1.57535 -0.0951,0.04754 a 4.65012,4.65012 0 0 0 -1.45091,-1.298 2.32268,2.32268 0 0 0 -0.60171,-0.13377 8.432,8.432 0 0 0 -1.06873,-0.05733 q -0.20066,0 -0.41528,0.01445 a 2.55462,2.55462 0 0 0 -0.31041,0.03356 q -0.0189,0.15241 -0.0336,0.62968 -0.014,0.47749 -0.014,1.10741 v 0.611 q 0,0.24819 0.005,0.40549 c 0.003,0.10487 0.005,0.186 0.005,0.24329 v 0.10534 h 0.1911 q 0.14331,0 0.329,-0.0098 c 0.12444,-0.0061 0.24842,-0.01445 0.3724,-0.02377 a 2.188,2.188 0 0 0 0.31041,-0.04288 1.68732,1.68732 0 0 0 0.47727,-0.1813 1.05068,1.05068 0 0 0 0.30994,-0.27686 1.35833,1.35833 0 0 0 0.19109,-0.37706 4.60543,4.60543 0 0 0 0.12864,-0.48239 h 0.11466 v 3.00716 h -0.11466 a 3.25473,3.25473 0 0 0 -0.2335,-0.63014 1.68767,1.68767 0 0 0 -0.32952,-0.48706 1.2725,1.2725 0 0 0 -0.36728,-0.21952 1.66767,1.66767 0 0 0 -0.5015,-0.10487 c -0.0951,-0.0061 -0.17478,-0.01119 -0.23863,-0.01445 -0.0634,-0.0028 -0.12724,-0.0047 -0.19063,-0.0047 h -0.43905 a 2.93252,2.93252 0 0 0 -0.0191,0.39151 v 1.14516 q 0,0.1531 0.005,0.2913 c 0.003,0.09228 0.005,0.17059 0.005,0.234 q 0.01,0.30552 0.0336,0.57748 a 0.91813,0.91813 0 0 0 0.10953,0.40549 0.6005,0.6005 0 0 0 0.41062,0.19109 4.06556,4.06556 0 0 0 0.70658,0.05733 q 0.1622,0 0.41481,-0.0098 a 5.21751,5.21751 0 0 0 0.52993,-0.04754 2.06126,2.06126 0 0 0 0.563,-0.14821 1.95432,1.95432 0 0 0 0.49638,-0.31 3.15122,3.15122 0 0 0 0.46328,-0.49171 6.64084,6.64084 0 0 0 0.46282,-0.70145 l 0.10487,0.02843 z"
         id="path44"
         style="fill:#ffffff" />
      <path
         class="cls-1"
         d="m 273.89705,39.19748 a 0.84714,0.84714 0 0 0 -0.329,0.41062 1.60906,1.60906 0 0 0 -0.0862,0.52993 q -0.0189,0.38663 -0.0382,0.82543 -0.0189,0.41039 -0.0331,0.969 -0.0147,0.5586 -0.0145,1.19783 v 0.611 q 0,0.33419 0.005,0.68234 c 0.003,0.23258 0.005,0.46282 0.005,0.69213 v 0.62036 a 0.08393,0.08393 0 0 1 -0.0242,0.062 0.09686,0.09686 0 0 1 -0.0713,0.02377 0.26282,0.26282 0 0 1 -0.172,-0.09508 q -0.81168,-0.93543 -1.47934,-1.71845 -0.66837,-0.78231 -1.27427,-1.49379 -0.60684,-0.711 -1.18851,-1.38892 -0.58237,-0.67744 -1.23139,-1.40291 v 4.02788 q 0,0.48729 0.0238,0.8781 a 1.58251,1.58251 0 0 0 0.11932,0.5826 0.689,0.689 0 0 0 0.32952,0.32906 1.969,1.969 0 0 0 0.61569,0.15753 v 0.09555 h -2.34812 v -0.09555 a 1.87368,1.87368 0 0 0 0.45816,-0.11932 0.74293,0.74293 0 0 0 0.36261,-0.30062 1.31154,1.31154 0 0 0 0.172,-0.59192 q 0.0378,-0.39081 0.0569,-0.93543 0.0196,-0.41038 0.0289,-0.96852 0.009,-0.5586 0.009,-1.19829 v -1.16426 q 0,-0.19086 -0.009,-0.468 a 1.10867,1.10867 0 0 0 -0.13377,-0.4535 0.881,0.881 0 0 0 -0.248,-0.27638 0.95087,0.95087 0 0 0 -0.31041,-0.14356 2.67375,2.67375 0 0 0 -0.31974,-0.062 v -0.09554 h 1.9375 l 4.52473,5.28816 v -3.24527 q 0,-0.38172 -0.01,-0.73035 a 1.716,1.716 0 0 0 -0.0858,-0.54857 0.8756,0.8756 0 0 0 -0.33884,-0.43439 1.678,1.678 0 0 0 -0.70146,-0.234 v -0.09554 h 2.36723 v 0.09554 a 1.44616,1.44616 0 0 0 -0.56814,0.18133 z"
         id="path45"
         style="fill:#ffffff" />
      <path
         class="cls-1"
         d="m 282.52142,41.13545 a 3.225,3.225 0 0 0 -0.3724,-0.859 3.04543,3.04543 0 0 0 -0.58679,-0.69679 2.67564,2.67564 0 0 0 -0.76391,-0.468 2.37819,2.37819 0 0 0 -0.90187,-0.172 2.31647,2.31647 0 0 0 -1.17406,0.296 2.71727,2.71727 0 0 0 -0.86411,0.783 3.73074,3.73074 0 0 0 -0.53413,1.10228 4.33556,4.33556 0 0 0 -0.18644,1.26494 4.13616,4.13616 0 0 0 0.19576,1.28825 3.19205,3.19205 0 0 0 0.55836,1.04543 2.65109,2.65109 0 0 0 0.8781,0.70145 2.525,2.525 0 0 0 1.14563,0.25774 2.38746,2.38746 0 0 0 0.93077,-0.1813 2.81711,2.81711 0 0 0 0.77323,-0.47727 2.87542,2.87542 0 0 0 0.57234,-0.68235 2.52489,2.52489 0 0 0 0.31974,-0.797 h 0.11465 l -0.0284,2.0997 h -0.11466 a 2.935,2.935 0 0 0 -0.23863,-0.296 c -0.083,-0.089 -0.13982,-0.1333 -0.172,-0.1333 a 0.8352,0.8352 0 0 0 -0.17152,0.10021 2.83233,2.83233 0 0 1 -0.43905,0.21952 4.13457,4.13457 0 0 1 -0.69679,0.20974 4.40347,4.40347 0 0 1 -0.94522,0.09089 4.7887,4.7887 0 0 1 -1.60378,-0.25309 3.46115,3.46115 0 0 1 -1.21694,-0.7159 3.10682,3.10682 0 0 1 -0.7681,-1.10694 3.72949,3.72949 0 0 1 -0.24376,-1.80886 3.46881,3.46881 0 0 1 0.0862,-0.468 3.90936,3.90936 0 0 1 0.17152,-0.52015 3.59,3.59 0 0 1 0.282,-0.549 3.412,3.412 0 0 1 0.49591,-0.62036 3.16987,3.16987 0 0 1 0.69726,-0.52014 3.86249,3.86249 0 0 1 0.90653,-0.358 4.45466,4.45466 0 0 1 1.13584,-0.13377 4.2615,4.2615 0 0 1 1.00254,0.10487 4.61965,4.61965 0 0 1 0.7159,0.22931 2.70189,2.70189 0 0 1 0.43905,0.22931 0.84324,0.84324 0 0 0 0.17152,0.10487 0.164,0.164 0 0 0 0.0718,-0.04288 c 0.035,-0.02889 0.0732,-0.06385 0.11466,-0.10533 0.041,-0.041 0.0844,-0.089 0.12864,-0.14309 a 1.90633,1.90633 0 0 0 0.124,-0.16686 h 0.10534 v 2.13792 z"
         id="path46"
         style="fill:#ffffff" />
      <path
         class="cls-1"
         d="m 290.291,45.79347 h -5.84186 v -0.09555 a 1.92245,1.92245 0 0 0 0.44417,-0.124 0.91043,0.91043 0 0 0 0.33884,-0.23863 0.43167,0.43167 0 0 0 0.0764,-0.16686 q 0.0287,-0.10975 0.0522,-0.25308 a 2.96,2.96 0 0 0 0.0336,-0.30062 c 0.006,-0.10534 0.009,-0.20834 0.009,-0.31041 q 0,-0.13353 0.005,-0.36261 0.004,-0.22932 0.009,-0.501 0.005,-0.272 0.005,-0.55837 v -2.41525 c 0,-0.11466 -10e-4,-0.23211 -0.005,-0.35329 -0.003,-0.12072 -0.009,-0.23537 -0.0191,-0.34351 a 1.81875,1.81875 0 0 0 -0.0475,-0.2913 0.40666,0.40666 0 0 0 -0.0909,-0.186 0.65524,0.65524 0 0 0 -0.30528,-0.19576 4.08578,4.08578 0 0 0 -0.41994,-0.0811 v -0.09554 h 5.269 l 0.64879,1.57535 -0.0951,0.04754 a 4.65012,4.65012 0 0 0 -1.45091,-1.298 2.32257,2.32257 0 0 0 -0.60171,-0.13377 8.432,8.432 0 0 0 -1.06873,-0.05733 q -0.20064,0 -0.41528,0.01445 a 2.55486,2.55486 0 0 0 -0.31041,0.03356 q -0.0189,0.15241 -0.0336,0.62968 -0.014,0.47749 -0.014,1.10741 v 0.611 q 0,0.24819 0.005,0.40549 c 0.003,0.10487 0.005,0.186 0.005,0.24329 v 0.10534 h 0.1911 q 0.14331,0 0.32905,-0.0098 c 0.12444,-0.0061 0.24842,-0.01445 0.3724,-0.02377 a 2.188,2.188 0 0 0 0.31041,-0.04288 1.68732,1.68732 0 0 0 0.47727,-0.1813 1.05068,1.05068 0 0 0 0.30998,-0.27686 1.35833,1.35833 0 0 0 0.19109,-0.37706 4.603,4.603 0 0 0 0.12864,-0.48239 h 0.11466 v 3.00716 h -0.11466 a 3.25473,3.25473 0 0 0 -0.2335,-0.63014 1.68767,1.68767 0 0 0 -0.32952,-0.48706 1.2725,1.2725 0 0 0 -0.36728,-0.21952 1.66767,1.66767 0 0 0 -0.5015,-0.10487 c -0.0951,-0.0061 -0.17478,-0.01119 -0.23863,-0.01445 -0.0634,-0.0028 -0.12724,-0.0047 -0.19063,-0.0047 h -0.43905 a 2.93252,2.93252 0 0 0 -0.0191,0.39151 v 1.14516 q 0,0.1531 0.005,0.2913 c 0.003,0.09228 0.005,0.17059 0.005,0.234 q 0.01,0.30552 0.0336,0.57748 a 0.91813,0.91813 0 0 0 0.10953,0.40549 0.6005,0.6005 0 0 0 0.41062,0.19109 4.06556,4.06556 0 0 0 0.70658,0.05733 q 0.16219,0 0.41481,-0.0098 a 5.218,5.218 0 0 0 0.52994,-0.04754 2.06128,2.06128 0 0 0 0.563,-0.14821 1.95414,1.95414 0 0 0 0.49638,-0.31 3.15122,3.15122 0 0 0 0.46328,-0.49171 6.64084,6.64084 0 0 0 0.46282,-0.70145 l 0.10487,0.02843 z"
         id="path47"
         style="fill:#ffffff" />
      <path
         class="cls-1"
         d="m 296.93919,44.73406 a 1.85732,1.85732 0 0 1 -0.51548,0.62036 2.18332,2.18332 0 0 1 -0.78722,0.38172 3.8378,3.8378 0 0 1 -1.00254,0.124 4.81874,4.81874 0 0 1 -0.80166,-0.05733 3.14335,3.14335 0 0 1 -0.5537,-0.138 1.95738,1.95738 0 0 1 -0.32906,-0.14822 0.43446,0.43446 0 0 0 -0.13842,-0.06664 c -0.0191,0 -0.0606,0.03821 -0.12445,0.11419 q -0.0951,0.11465 -0.17152,0.22 h -0.0862 l -0.0284,-1.89975 h 0.0956 a 2.99288,2.99288 0 0 0 0.21952,0.501 4.15994,4.15994 0 0 0 0.29083,0.45816 2.59975,2.59975 0 0 0 0.33419,0.37706 1.65312,1.65312 0 0 0 0.33884,0.24842 2.728,2.728 0 0 0 0.42972,0.17152 1.78788,1.78788 0 0 0 1.66065,-0.30062 1.32188,1.32188 0 0 0 0.43952,-1.045 1.1807,1.1807 0 0 0 -0.0862,-0.46794 1.09237,1.09237 0 0 0 -0.234,-0.34816 1.40509,1.40509 0 0 0 -0.34816,-0.25309 3.83108,3.83108 0 0 0 -0.42973,-0.19109 q -0.22861,-0.086 -0.40083,-0.14309 c -0.11466,-0.03822 -0.22092,-0.07457 -0.31973,-0.10953 -0.0988,-0.03496 -0.20042,-0.07037 -0.30529,-0.10533 -0.10533,-0.035 -0.23071,-0.0811 -0.37706,-0.13843 a 2.053,2.053 0 0 1 -0.47726,-0.2624 1.93473,1.93473 0 0 1 -0.40083,-0.39151 1.96915,1.96915 0 0 1 -0.27686,-0.49638 1.57987,1.57987 0 0 1 -0.10533,-0.57747 1.94621,1.94621 0 0 1 0.1883,-0.88742 1.80859,1.80859 0 0 1 0.50616,-0.62036 2.13436,2.13436 0 0 1 0.73268,-0.36773 3.16,3.16 0 0 1 0.87344,-0.11932 3.24844,3.24844 0 0 1 0.735,0.07178 2.91834,2.91834 0 0 1 0.501,0.15753 1.69329,1.69329 0 0 1 0.296,0.15754 0.64769,0.64769 0 0 0 0.11,0.07131 c 0.0191,0 0.0587,-0.03822 0.11932,-0.11466 0.0601,-0.076 0.11605,-0.15241 0.16686,-0.22884 h 0.10487 v 1.766 h -0.10487 a 3.86083,3.86083 0 0 0 -0.296,-0.62548 2.83821,2.83821 0 0 0 -0.41994,-0.55371 2.03561,2.03561 0 0 0 -0.54392,-0.39617 1.49735,1.49735 0 0 0 -0.67768,-0.15241 1.78,1.78 0 0 0 -0.55837,0.08576 1.29624,1.29624 0 0 0 -0.45862,0.25775 1.18546,1.18546 0 0 0 -0.30529,0.4246 1.43878,1.43878 0 0 0 -0.10953,0.57747 1.09952,1.09952 0 0 0 0.30435,0.81145 2.1656,2.1656 0 0 0 0.79048,0.48706 c 0.12677,0.0508 0.24562,0.09554 0.357,0.13329 q 0.16639,0.05733 0.32859,0.11 0.16149,0.05244 0.32812,0.11 c 0.11139,0.03775 0.227,0.07923 0.34769,0.124 a 2.21522,2.21522 0 0 1 1.00488,0.69213 1.94105,1.94105 0 0 1 0.17058,1.95195 z"
         id="path48"
         style="fill:#ffffff" />
    </g>
  </g>
</svg>
